G75*
%MOIN*%
%OFA0B0*%
%FSLAX24Y24*%
%IPPOS*%
%LPD*%
%AMOC8*
5,1,8,0,0,1.08239X$1,22.5*
%
%ADD10C,0.1221*%
%ADD11R,0.0642X0.0642*%
%ADD12C,0.0642*%
%ADD13C,0.1300*%
%ADD14R,0.0906X0.0573*%
%ADD15R,0.0906X0.0569*%
%ADD16R,0.0591X0.0197*%
%ADD17R,0.0611X0.0493*%
%ADD18R,0.0788X0.0729*%
%ADD19C,0.0217*%
%ADD20C,0.0709*%
%ADD21R,0.1142X0.0906*%
%ADD22R,0.1142X0.1142*%
%ADD23R,0.0778X0.0778*%
%ADD24C,0.0778*%
%ADD25C,0.0690*%
%ADD26R,0.0642X0.0296*%
%ADD27R,0.0434X0.0473*%
%ADD28R,0.0552X0.0552*%
%ADD29R,0.0552X0.0827*%
%ADD30R,0.0473X0.0434*%
%ADD31OC8,0.0670*%
%ADD32C,0.0670*%
%ADD33R,0.0827X0.0552*%
%ADD34C,0.0068*%
%ADD35C,0.0394*%
D10*
X025658Y011386D03*
X041799Y010992D03*
X064083Y010835D03*
X085500Y011386D03*
X085500Y055481D03*
X025658Y055481D03*
D11*
X041835Y052807D03*
X042227Y049807D03*
X052827Y049807D03*
X054827Y031807D03*
X045827Y031807D03*
X041827Y028807D03*
X038118Y013028D03*
X032213Y013048D03*
X054036Y013051D03*
X059890Y013028D03*
X071079Y013028D03*
D12*
X070079Y013028D03*
X069079Y013028D03*
X058890Y013028D03*
X057890Y013028D03*
X056890Y013028D03*
X053036Y013051D03*
X037118Y013028D03*
X036118Y013028D03*
X035118Y013028D03*
X031213Y013048D03*
X030213Y013048D03*
X029213Y013048D03*
X028213Y013048D03*
X042827Y028807D03*
X043827Y028807D03*
X044827Y028807D03*
X045827Y028807D03*
X046827Y028807D03*
X047827Y028807D03*
X048827Y028807D03*
X049827Y028807D03*
X050827Y028807D03*
X051827Y028807D03*
X052827Y028807D03*
X053827Y028807D03*
X054827Y028807D03*
X055827Y028807D03*
X056827Y028807D03*
X057827Y028807D03*
X058827Y028807D03*
X059827Y028807D03*
X060827Y028807D03*
X061827Y028807D03*
X062827Y028807D03*
X063827Y028807D03*
X064827Y028807D03*
X065827Y028807D03*
X066827Y028807D03*
X067827Y028807D03*
X068827Y028807D03*
X069827Y028807D03*
X070827Y028807D03*
X071827Y028807D03*
X072827Y028807D03*
X073827Y028807D03*
X074827Y028807D03*
X075827Y028807D03*
X076827Y028807D03*
X076827Y029807D03*
X075827Y029807D03*
X074827Y029807D03*
X073827Y029807D03*
X072827Y029807D03*
X071827Y029807D03*
X070827Y029807D03*
X069827Y029807D03*
X068827Y029807D03*
X067827Y029807D03*
X066827Y029807D03*
X065827Y029807D03*
X064827Y029807D03*
X063827Y029807D03*
X062827Y029807D03*
X061827Y029807D03*
X060827Y029807D03*
X059827Y029807D03*
X058827Y029807D03*
X057827Y029807D03*
X056827Y029807D03*
X055827Y029807D03*
X054827Y029807D03*
X053827Y029807D03*
X052827Y029807D03*
X051827Y029807D03*
X050827Y029807D03*
X049827Y029807D03*
X048827Y029807D03*
X047827Y029807D03*
X046827Y029807D03*
X045827Y029807D03*
X044827Y029807D03*
X043827Y029807D03*
X042827Y029807D03*
X041827Y029807D03*
X045827Y032807D03*
X046827Y032807D03*
X047827Y032807D03*
X048827Y032807D03*
X049827Y032807D03*
X050827Y032807D03*
X051827Y032807D03*
X052827Y032807D03*
X052827Y031807D03*
X051827Y031807D03*
X050827Y031807D03*
X049827Y031807D03*
X048827Y031807D03*
X047827Y031807D03*
X046827Y031807D03*
X054827Y032807D03*
X055827Y032807D03*
X056827Y032807D03*
X057827Y032807D03*
X058827Y032807D03*
X059827Y032807D03*
X060827Y032807D03*
X061827Y032807D03*
X062827Y032807D03*
X063827Y032807D03*
X064827Y032807D03*
X065827Y032807D03*
X066827Y032807D03*
X067827Y032807D03*
X068827Y032807D03*
X068827Y031807D03*
X067827Y031807D03*
X066827Y031807D03*
X065827Y031807D03*
X064827Y031807D03*
X063827Y031807D03*
X062827Y031807D03*
X061827Y031807D03*
X060827Y031807D03*
X059827Y031807D03*
X058827Y031807D03*
X057827Y031807D03*
X056827Y031807D03*
X055827Y031807D03*
X055827Y049807D03*
X054827Y049807D03*
X053827Y049807D03*
X053827Y050807D03*
X052827Y050807D03*
X051227Y050807D03*
X050227Y050807D03*
X049227Y050807D03*
X048227Y050807D03*
X047227Y050807D03*
X046227Y050807D03*
X045227Y050807D03*
X044227Y050807D03*
X043227Y050807D03*
X042227Y050807D03*
X043227Y049807D03*
X044227Y049807D03*
X045227Y049807D03*
X046227Y049807D03*
X047227Y049807D03*
X048227Y049807D03*
X049227Y049807D03*
X050227Y049807D03*
X051227Y049807D03*
X054827Y050807D03*
X055827Y050807D03*
X056827Y050807D03*
X057827Y050807D03*
X058827Y050807D03*
X059827Y050807D03*
X060827Y050807D03*
X061827Y050807D03*
X062827Y050807D03*
X063827Y050807D03*
X064827Y050807D03*
X065827Y050807D03*
X066827Y050807D03*
X067827Y050807D03*
X068827Y050807D03*
X068827Y049807D03*
X067827Y049807D03*
X066827Y049807D03*
X065827Y049807D03*
X064827Y049807D03*
X063827Y049807D03*
X062827Y049807D03*
X061827Y049807D03*
X060827Y049807D03*
X059827Y049807D03*
X058827Y049807D03*
X057827Y049807D03*
X056827Y049807D03*
X056835Y052807D03*
X057835Y052807D03*
X058835Y052807D03*
X059835Y052807D03*
X060835Y052807D03*
X061835Y052807D03*
X062835Y052807D03*
X063835Y052807D03*
X064835Y052807D03*
X065835Y052807D03*
X066835Y052807D03*
X067835Y052807D03*
X068835Y052807D03*
X069835Y052807D03*
X070835Y052807D03*
X071835Y052807D03*
X072835Y052807D03*
X073835Y052807D03*
X074835Y052807D03*
X075835Y052807D03*
X076835Y052807D03*
X076835Y053807D03*
X075835Y053807D03*
X074835Y053807D03*
X073835Y053807D03*
X072835Y053807D03*
X071835Y053807D03*
X070835Y053807D03*
X069835Y053807D03*
X068835Y053807D03*
X067835Y053807D03*
X066835Y053807D03*
X065835Y053807D03*
X064835Y053807D03*
X063835Y053807D03*
X062835Y053807D03*
X061835Y053807D03*
X060835Y053807D03*
X059835Y053807D03*
X058835Y053807D03*
X057835Y053807D03*
X056835Y053807D03*
X055835Y053807D03*
X055835Y052807D03*
X054835Y052807D03*
X053835Y052807D03*
X052835Y052807D03*
X051835Y052807D03*
X050835Y052807D03*
X049835Y052807D03*
X048835Y052807D03*
X047835Y052807D03*
X046835Y052807D03*
X045835Y052807D03*
X044835Y052807D03*
X043835Y052807D03*
X042835Y052807D03*
X042835Y053807D03*
X043835Y053807D03*
X044835Y053807D03*
X045835Y053807D03*
X046835Y053807D03*
X047835Y053807D03*
X048835Y053807D03*
X049835Y053807D03*
X050835Y053807D03*
X051835Y053807D03*
X052835Y053807D03*
X053835Y053807D03*
X054835Y053807D03*
X041835Y053807D03*
D13*
X040827Y050807D03*
X060827Y044807D03*
X070327Y050307D03*
X070327Y032307D03*
X040327Y031807D03*
D14*
X086504Y030947D03*
D15*
X086505Y033763D03*
D16*
X085461Y032866D03*
X085461Y032614D03*
X085461Y032355D03*
X085461Y032099D03*
X085461Y031843D03*
D17*
X085626Y031441D03*
X085626Y033268D03*
D18*
X086504Y032798D03*
X086504Y031912D03*
D19*
X086504Y030947D03*
X086504Y033762D03*
D20*
X047949Y013922D03*
X047949Y011166D03*
D21*
X046492Y011520D03*
X049406Y010733D03*
D22*
X049406Y014433D03*
D23*
X027626Y042292D03*
D24*
X027626Y041292D03*
X027626Y040292D03*
X027626Y039292D03*
X027626Y038292D03*
X027626Y037292D03*
D25*
X075414Y015036D03*
X076414Y015036D03*
X077414Y015036D03*
X078414Y015036D03*
X079414Y015036D03*
X080414Y015036D03*
X081414Y015036D03*
X081414Y014036D03*
X080414Y014036D03*
X079414Y014036D03*
X078414Y014036D03*
X077414Y014036D03*
X076414Y014036D03*
X075414Y014036D03*
D26*
X056449Y019888D03*
X056449Y020388D03*
X056449Y020888D03*
X056449Y021388D03*
X054315Y021388D03*
X054315Y020888D03*
X054315Y020388D03*
X054315Y019888D03*
X044048Y019888D03*
X044048Y020388D03*
X044048Y020888D03*
X044048Y021388D03*
X041913Y021388D03*
X041913Y020888D03*
X041913Y020388D03*
X041913Y019888D03*
D27*
X040028Y019792D03*
X040028Y019122D03*
X038197Y019654D03*
X037528Y019654D03*
X037528Y020441D03*
X038197Y020441D03*
X039496Y020835D03*
X040166Y020835D03*
X040166Y021622D03*
X039496Y021622D03*
X045933Y021485D03*
X045933Y022154D03*
X046977Y020835D03*
X047646Y020835D03*
X050520Y022685D03*
X051189Y022685D03*
X054260Y022410D03*
X054929Y022410D03*
X067331Y013040D03*
X068000Y013040D03*
X067862Y012075D03*
X067862Y011406D03*
X072469Y011406D03*
X072469Y012075D03*
X082744Y022272D03*
X082744Y022941D03*
X080638Y025323D03*
X079969Y025323D03*
X077626Y025107D03*
X077626Y024437D03*
X077626Y023729D03*
X077626Y023059D03*
X034083Y011603D03*
X034083Y010933D03*
X033296Y010933D03*
X033296Y011603D03*
X027626Y043335D03*
X027626Y044004D03*
X046898Y055717D03*
X047567Y055717D03*
D28*
X045638Y024634D03*
X045638Y023729D03*
X051189Y021485D03*
X052095Y021485D03*
D29*
X047803Y024181D03*
D30*
X047626Y022154D03*
X047626Y021485D03*
X044162Y022429D03*
X044162Y023099D03*
X043374Y023099D03*
X043374Y022429D03*
X042528Y022410D03*
X041859Y022410D03*
X038847Y021957D03*
X038847Y021288D03*
X042390Y019201D03*
X042390Y018532D03*
X043118Y018551D03*
X043788Y018551D03*
X044555Y018532D03*
X044555Y019201D03*
X034378Y017488D03*
X033709Y017488D03*
X029083Y017508D03*
X029083Y018099D03*
X028414Y018099D03*
X028414Y017508D03*
X043827Y031268D03*
X044496Y031268D03*
X044496Y032055D03*
X043827Y032055D03*
X055835Y022410D03*
X056504Y022410D03*
X057016Y018788D03*
X057685Y018788D03*
X062646Y013866D03*
X063315Y013866D03*
X063315Y013079D03*
X062646Y013079D03*
X065992Y013040D03*
X066662Y013040D03*
X082744Y023650D03*
X082744Y024319D03*
X069319Y026406D03*
X069319Y027075D03*
X068335Y027075D03*
X068335Y026406D03*
D31*
X059122Y024012D03*
X059122Y021374D03*
X059122Y017776D03*
X083807Y032870D03*
D32*
X083807Y031870D03*
X059122Y023012D03*
X059122Y020374D03*
X059122Y018776D03*
D33*
X051642Y019319D03*
D34*
X078955Y022857D02*
X079703Y022857D01*
X078955Y022857D02*
X078955Y023061D01*
X079703Y023061D01*
X079703Y022857D01*
X079703Y022924D02*
X078955Y022924D01*
X078955Y022991D02*
X079703Y022991D01*
X079703Y023058D02*
X078955Y023058D01*
X078955Y023357D02*
X079703Y023357D01*
X078955Y023357D02*
X078955Y023561D01*
X079703Y023561D01*
X079703Y023357D01*
X079703Y023424D02*
X078955Y023424D01*
X078955Y023491D02*
X079703Y023491D01*
X079703Y023558D02*
X078955Y023558D01*
X078955Y023857D02*
X079703Y023857D01*
X078955Y023857D02*
X078955Y024061D01*
X079703Y024061D01*
X079703Y023857D01*
X079703Y023924D02*
X078955Y023924D01*
X078955Y023991D02*
X079703Y023991D01*
X079703Y024058D02*
X078955Y024058D01*
X078955Y024357D02*
X079703Y024357D01*
X078955Y024357D02*
X078955Y024561D01*
X079703Y024561D01*
X079703Y024357D01*
X079703Y024424D02*
X078955Y024424D01*
X078955Y024491D02*
X079703Y024491D01*
X079703Y024558D02*
X078955Y024558D01*
X080904Y024357D02*
X081652Y024357D01*
X080904Y024357D02*
X080904Y024561D01*
X081652Y024561D01*
X081652Y024357D01*
X081652Y024424D02*
X080904Y024424D01*
X080904Y024491D02*
X081652Y024491D01*
X081652Y024558D02*
X080904Y024558D01*
X080904Y023857D02*
X081652Y023857D01*
X080904Y023857D02*
X080904Y024061D01*
X081652Y024061D01*
X081652Y023857D01*
X081652Y023924D02*
X080904Y023924D01*
X080904Y023991D02*
X081652Y023991D01*
X081652Y024058D02*
X080904Y024058D01*
X080904Y023357D02*
X081652Y023357D01*
X080904Y023357D02*
X080904Y023561D01*
X081652Y023561D01*
X081652Y023357D01*
X081652Y023424D02*
X080904Y023424D01*
X080904Y023491D02*
X081652Y023491D01*
X081652Y023558D02*
X080904Y023558D01*
X080904Y022857D02*
X081652Y022857D01*
X080904Y022857D02*
X080904Y023061D01*
X081652Y023061D01*
X081652Y022857D01*
X081652Y022924D02*
X080904Y022924D01*
X080904Y022991D02*
X081652Y022991D01*
X081652Y023058D02*
X080904Y023058D01*
D35*
X076819Y034673D03*
X076819Y036032D03*
X039595Y013709D03*
X039595Y012016D03*
X033689Y025087D03*
X033689Y026347D03*
X038256Y030638D03*
M02*
