G75*
%MOIN*%
%OFA0B0*%
%FSLAX24Y24*%
%IPPOS*%
%LPD*%
%AMOC8*
5,1,8,0,0,1.08239X$1,22.5*
%
%ADD10C,0.0000*%
%ADD11C,0.0001*%
%ADD12R,0.0551X0.0157*%
%ADD13R,0.0571X0.0453*%
%ADD14R,0.0748X0.0689*%
%ADD15R,0.1102X0.0866*%
%ADD16R,0.1102X0.1102*%
%ADD17R,0.0602X0.0256*%
%ADD18R,0.0394X0.0433*%
%ADD19R,0.0512X0.0512*%
%ADD20R,0.0512X0.0787*%
%ADD21R,0.0433X0.0394*%
%ADD22R,0.0787X0.0512*%
%ADD23C,0.0058*%
D10*
X086185Y030818D02*
X086218Y030786D01*
X086257Y030761D01*
X086301Y030746D01*
X086347Y030741D01*
X086504Y030741D01*
X086644Y030741D01*
X086686Y030743D01*
X086727Y030754D01*
X086765Y030772D01*
X086799Y030798D01*
X086827Y030829D01*
X086849Y030866D01*
X086863Y030906D01*
X086868Y030948D01*
X086863Y030994D01*
X086848Y031037D01*
X086823Y031076D01*
X086791Y031109D01*
X086751Y031134D01*
X086708Y031149D01*
X086662Y031154D01*
X086504Y031154D01*
X086504Y031036D01*
X086504Y031154D01*
X086366Y031154D01*
X086324Y031152D01*
X086283Y031141D01*
X086244Y031123D01*
X086210Y031097D01*
X086182Y031066D01*
X086160Y031029D01*
X086146Y030989D01*
X086140Y030947D01*
X086145Y030901D01*
X086160Y030857D01*
X086185Y030818D01*
X086185Y030819D02*
X086218Y030786D01*
X086257Y030761D01*
X086301Y030746D01*
X086347Y030740D01*
X086504Y030740D01*
X086642Y030740D01*
X086684Y030743D01*
X086726Y030753D01*
X086764Y030771D01*
X086798Y030797D01*
X086826Y030828D01*
X086848Y030865D01*
X086862Y030905D01*
X086868Y030947D01*
X086863Y030993D01*
X086848Y031037D01*
X086823Y031076D01*
X086791Y031109D01*
X086751Y031133D01*
X086708Y031149D01*
X086662Y031154D01*
X086504Y031154D01*
X086504Y031036D01*
X086662Y031036D01*
X086685Y031033D01*
X086706Y031024D01*
X086724Y031010D01*
X086738Y030992D01*
X086747Y030970D01*
X086750Y030947D01*
X086747Y030924D01*
X086738Y030903D01*
X086724Y030884D01*
X086706Y030870D01*
X086685Y030862D01*
X086662Y030859D01*
X086504Y030859D01*
X086504Y030741D01*
X086504Y030859D01*
X086347Y030859D01*
X086324Y030862D01*
X086302Y030871D01*
X086284Y030885D01*
X086270Y030903D01*
X086261Y030924D01*
X086258Y030947D01*
X086261Y030970D01*
X086270Y030991D01*
X086284Y031010D01*
X086302Y031024D01*
X086324Y031033D01*
X086347Y031036D01*
X086504Y031036D01*
X086504Y031154D01*
X086364Y031154D01*
X086322Y031152D01*
X086281Y031141D01*
X086243Y031123D01*
X086209Y031097D01*
X086181Y031066D01*
X086160Y031029D01*
X086146Y030989D01*
X086140Y030948D01*
X086145Y030902D01*
X086160Y030858D01*
X086185Y030819D01*
X086284Y030884D02*
X086270Y030903D01*
X086261Y030925D01*
X086258Y030948D01*
X086261Y030970D01*
X086270Y030992D01*
X086284Y031010D01*
X086302Y031024D01*
X086324Y031033D01*
X086347Y031036D01*
X086504Y031036D01*
X086662Y031036D01*
X086685Y031033D01*
X086706Y031024D01*
X086724Y031010D01*
X086738Y030991D01*
X086747Y030970D01*
X086750Y030948D01*
X086747Y030925D01*
X086738Y030903D01*
X086724Y030885D01*
X086706Y030871D01*
X086685Y030862D01*
X086662Y030859D01*
X086504Y030859D01*
X086504Y030740D01*
X086504Y030859D01*
X086347Y030859D01*
X086324Y030862D01*
X086302Y030870D01*
X086284Y030884D01*
X086347Y033555D02*
X086301Y033561D01*
X086347Y033556D01*
X086504Y033556D01*
X086644Y033556D01*
X086686Y033558D01*
X086727Y033569D01*
X086765Y033587D01*
X086799Y033613D01*
X086827Y033644D01*
X086849Y033681D01*
X086863Y033721D01*
X086868Y033762D01*
X086863Y033808D01*
X086848Y033852D01*
X086823Y033891D01*
X086791Y033924D01*
X086751Y033949D01*
X086708Y033964D01*
X086662Y033969D01*
X086504Y033969D01*
X086504Y033851D01*
X086662Y033851D01*
X086685Y033848D01*
X086706Y033839D01*
X086724Y033825D01*
X086738Y033807D01*
X086747Y033785D01*
X086750Y033762D01*
X086747Y033739D01*
X086738Y033718D01*
X086724Y033700D01*
X086706Y033686D01*
X086685Y033677D01*
X086662Y033674D01*
X086504Y033674D01*
X086504Y033556D01*
X086504Y033674D01*
X086347Y033674D01*
X086324Y033677D01*
X086302Y033686D01*
X086284Y033700D01*
X086270Y033718D01*
X086261Y033740D01*
X086258Y033762D01*
X086261Y033785D01*
X086270Y033806D01*
X086284Y033825D01*
X086302Y033839D01*
X086324Y033848D01*
X086347Y033851D01*
X086504Y033851D01*
X086504Y033969D01*
X086364Y033969D01*
X086322Y033967D01*
X086281Y033956D01*
X086243Y033938D01*
X086209Y033912D01*
X086181Y033881D01*
X086160Y033844D01*
X086146Y033804D01*
X086140Y033762D01*
X086145Y033716D01*
X086160Y033672D01*
X086185Y033633D01*
X086218Y033600D01*
X086257Y033576D01*
X086301Y033561D01*
X086257Y033576D01*
X086218Y033601D01*
X086185Y033634D01*
X086160Y033673D01*
X086145Y033716D01*
X086140Y033762D01*
X086146Y033804D01*
X086160Y033844D01*
X086182Y033881D01*
X086210Y033912D01*
X086244Y033938D01*
X086283Y033956D01*
X086324Y033967D01*
X086366Y033969D01*
X086504Y033969D01*
X086504Y033851D01*
X086662Y033851D01*
X086685Y033848D01*
X086706Y033839D01*
X086724Y033825D01*
X086738Y033806D01*
X086747Y033785D01*
X086750Y033762D01*
X086747Y033740D01*
X086738Y033718D01*
X086724Y033699D01*
X086706Y033685D01*
X086685Y033677D01*
X086662Y033673D01*
X086504Y033673D01*
X086504Y033555D01*
X086642Y033555D01*
X086684Y033558D01*
X086726Y033568D01*
X086764Y033586D01*
X086798Y033612D01*
X086826Y033643D01*
X086848Y033680D01*
X086862Y033720D01*
X086868Y033762D01*
X086863Y033808D01*
X086848Y033852D01*
X086823Y033891D01*
X086791Y033924D01*
X086751Y033948D01*
X086708Y033964D01*
X086662Y033969D01*
X086504Y033969D01*
X086504Y033851D01*
X086347Y033851D01*
X086324Y033848D01*
X086302Y033839D01*
X086284Y033825D01*
X086270Y033807D01*
X086261Y033785D01*
X086258Y033762D01*
X086261Y033739D01*
X086270Y033718D01*
X086284Y033699D01*
X086302Y033685D01*
X086324Y033677D01*
X086347Y033673D01*
X086504Y033673D01*
X086504Y033555D01*
X086347Y033555D01*
D11*
X086344Y033556D02*
X086504Y033556D01*
X086647Y033556D01*
X086656Y033556D02*
X086504Y033556D01*
X086662Y033556D01*
X086670Y033557D02*
X086504Y033557D01*
X086677Y033557D01*
X086684Y033558D02*
X086504Y033558D01*
X086686Y033558D01*
X086689Y033559D02*
X086504Y033559D01*
X086689Y033559D01*
X086692Y033560D02*
X086504Y033560D01*
X086692Y033560D01*
X086695Y033560D02*
X086504Y033560D01*
X086309Y033560D01*
X086312Y033560D02*
X086504Y033560D01*
X086696Y033560D01*
X086698Y033561D02*
X086504Y033561D01*
X086699Y033561D01*
X086701Y033562D02*
X086504Y033562D01*
X086702Y033562D01*
X086704Y033563D02*
X086504Y033563D01*
X086705Y033563D01*
X086707Y033564D02*
X086504Y033564D01*
X086708Y033564D01*
X086710Y033564D02*
X086504Y033564D01*
X086292Y033564D01*
X086293Y033564D02*
X086504Y033564D01*
X086711Y033564D01*
X086714Y033565D02*
X086504Y033565D01*
X086715Y033565D01*
X086717Y033566D02*
X086504Y033566D01*
X086718Y033566D01*
X086720Y033567D02*
X086504Y033567D01*
X086721Y033567D01*
X086723Y033568D02*
X086504Y033568D01*
X086724Y033568D01*
X086726Y033568D02*
X086504Y033568D01*
X086280Y033568D01*
X086279Y033568D02*
X086504Y033568D01*
X086281Y033568D01*
X086283Y033567D02*
X086504Y033567D01*
X086284Y033567D01*
X086285Y033566D02*
X086504Y033566D01*
X086286Y033566D01*
X086287Y033565D02*
X086504Y033565D01*
X086288Y033565D01*
X086290Y033564D02*
X086504Y033564D01*
X086291Y033564D01*
X086294Y033563D02*
X086504Y033563D01*
X086295Y033563D01*
X086296Y033562D02*
X086504Y033562D01*
X086298Y033562D01*
X086299Y033561D02*
X086504Y033561D01*
X086300Y033561D01*
X086302Y033560D02*
X086504Y033560D01*
X086305Y033560D01*
X086316Y033559D02*
X086504Y033559D01*
X086319Y033559D01*
X086323Y033558D02*
X086504Y033558D01*
X086326Y033558D01*
X086330Y033557D02*
X086504Y033557D01*
X086334Y033557D01*
X086337Y033556D02*
X086504Y033556D01*
X086341Y033556D01*
X086278Y033568D02*
X086504Y033568D01*
X086726Y033568D01*
X086728Y033569D02*
X086504Y033569D01*
X086276Y033569D01*
X086277Y033569D02*
X086504Y033569D01*
X086728Y033569D01*
X086730Y033570D02*
X086504Y033570D01*
X086273Y033570D01*
X086272Y033571D02*
X086504Y033571D01*
X086731Y033571D01*
X086732Y033571D02*
X086504Y033571D01*
X086271Y033571D01*
X086270Y033572D02*
X086504Y033572D01*
X086733Y033572D01*
X086504Y033572D01*
X086269Y033572D01*
X086268Y033573D02*
X086504Y033573D01*
X086737Y033573D01*
X086504Y033573D01*
X086264Y033573D01*
X086265Y033573D02*
X086504Y033573D01*
X086735Y033573D01*
X086504Y033573D01*
X086267Y033573D01*
X086263Y033574D02*
X086504Y033574D01*
X086738Y033574D01*
X086504Y033574D01*
X086262Y033574D01*
X086261Y033575D02*
X086504Y033575D01*
X086740Y033575D01*
X086504Y033575D01*
X086260Y033575D01*
X086259Y033576D02*
X086504Y033576D01*
X086742Y033576D01*
X086741Y033576D02*
X086504Y033576D01*
X086257Y033576D01*
X086257Y033577D02*
X086504Y033577D01*
X086745Y033577D01*
X086504Y033577D01*
X086255Y033577D01*
X086504Y033577D01*
X086743Y033577D01*
X086504Y033577D01*
X086256Y033577D01*
X086254Y033578D02*
X086504Y033578D01*
X086747Y033578D01*
X086746Y033578D02*
X086504Y033578D01*
X086253Y033578D01*
X086253Y033579D02*
X086504Y033579D01*
X086748Y033579D01*
X086504Y033579D01*
X086252Y033579D01*
X086251Y033580D02*
X086504Y033580D01*
X086750Y033580D01*
X086504Y033580D01*
X086251Y033580D01*
X086250Y033581D02*
X086504Y033581D01*
X086753Y033581D01*
X086504Y033581D01*
X086248Y033581D01*
X086249Y033581D02*
X086504Y033581D01*
X086752Y033581D01*
X086751Y033581D02*
X086504Y033581D01*
X086250Y033581D01*
X086248Y033582D02*
X086504Y033582D01*
X086755Y033582D01*
X086504Y033582D01*
X086247Y033582D01*
X086246Y033583D02*
X086504Y033583D01*
X086757Y033583D01*
X086756Y033583D02*
X086504Y033583D01*
X086246Y033583D01*
X086245Y033584D02*
X086504Y033584D01*
X086758Y033584D01*
X086504Y033584D01*
X086244Y033584D01*
X086244Y033585D02*
X086504Y033585D01*
X086762Y033585D01*
X086761Y033585D02*
X086504Y033585D01*
X086242Y033585D01*
X086243Y033585D02*
X086504Y033585D01*
X086760Y033585D01*
X086504Y033585D01*
X086243Y033585D01*
X086241Y033586D02*
X086504Y033586D01*
X086763Y033586D01*
X086504Y033586D01*
X086241Y033586D01*
X086240Y033587D02*
X086504Y033587D01*
X086765Y033587D01*
X086504Y033587D01*
X086239Y033587D01*
X086239Y033588D02*
X086504Y033588D01*
X086766Y033588D01*
X086504Y033588D01*
X086238Y033588D01*
X086237Y033589D02*
X086504Y033589D01*
X086768Y033589D01*
X086504Y033589D01*
X086235Y033589D01*
X086236Y033589D02*
X086504Y033589D01*
X086767Y033589D01*
X086504Y033589D01*
X086237Y033589D01*
X086235Y033590D02*
X086504Y033590D01*
X086769Y033590D01*
X086504Y033590D01*
X086234Y033590D01*
X086234Y033591D02*
X086504Y033591D01*
X086770Y033591D01*
X086504Y033591D01*
X086233Y033591D01*
X086232Y033592D02*
X086504Y033592D01*
X086771Y033592D01*
X086504Y033592D01*
X086232Y033592D01*
X086231Y033593D02*
X086504Y033593D01*
X086772Y033593D01*
X086504Y033593D01*
X086230Y033593D01*
X086504Y033593D01*
X086773Y033593D01*
X086504Y033593D01*
X086229Y033593D01*
X086228Y033594D02*
X086504Y033594D01*
X086774Y033594D01*
X086775Y033594D02*
X086504Y033594D01*
X086228Y033594D01*
X086227Y033595D02*
X086504Y033595D01*
X086775Y033595D01*
X086776Y033595D02*
X086504Y033595D01*
X086227Y033595D01*
X086226Y033596D02*
X086504Y033596D01*
X086777Y033596D01*
X086504Y033596D01*
X086225Y033596D01*
X086225Y033597D02*
X086504Y033597D01*
X086778Y033597D01*
X086504Y033597D01*
X086224Y033597D01*
X086223Y033597D02*
X086504Y033597D01*
X086779Y033597D01*
X086504Y033597D01*
X086223Y033597D01*
X086222Y033598D02*
X086504Y033598D01*
X086780Y033598D01*
X086504Y033598D01*
X086221Y033598D01*
X086221Y033599D02*
X086504Y033599D01*
X086781Y033599D01*
X086504Y033599D01*
X086220Y033599D01*
X086219Y033600D02*
X086504Y033600D01*
X086782Y033600D01*
X086504Y033600D01*
X086219Y033600D01*
X086218Y033601D02*
X086504Y033601D01*
X086783Y033601D01*
X086504Y033601D01*
X086218Y033601D01*
X086217Y033601D02*
X086504Y033601D01*
X086784Y033601D01*
X086504Y033601D01*
X086217Y033601D01*
X086216Y033602D02*
X086504Y033602D01*
X086785Y033602D01*
X086504Y033602D01*
X086216Y033602D01*
X086216Y033603D02*
X086504Y033603D01*
X086786Y033603D01*
X086504Y033603D01*
X086215Y033603D01*
X086215Y033604D02*
X086504Y033604D01*
X086787Y033604D01*
X086504Y033604D01*
X086214Y033604D01*
X086214Y033605D02*
X086504Y033605D01*
X086788Y033605D01*
X086504Y033605D01*
X086214Y033605D01*
X086213Y033605D02*
X086504Y033605D01*
X086789Y033605D01*
X086504Y033605D01*
X086213Y033605D01*
X086212Y033606D02*
X086504Y033606D01*
X086791Y033606D01*
X086504Y033606D01*
X086212Y033606D01*
X086212Y033607D02*
X086504Y033607D01*
X086792Y033607D01*
X086504Y033607D01*
X086211Y033607D01*
X086211Y033608D02*
X086504Y033608D01*
X086793Y033608D01*
X086504Y033608D01*
X086210Y033608D01*
X086210Y033609D02*
X086504Y033609D01*
X086794Y033609D01*
X086504Y033609D01*
X086210Y033609D01*
X086209Y033609D02*
X086504Y033609D01*
X086795Y033609D01*
X086504Y033609D01*
X086209Y033609D01*
X086208Y033610D02*
X086504Y033610D01*
X086796Y033610D01*
X086504Y033610D01*
X086208Y033610D01*
X086208Y033611D02*
X086504Y033611D01*
X086797Y033611D01*
X086504Y033611D01*
X086207Y033611D01*
X086207Y033612D02*
X086504Y033612D01*
X086798Y033612D01*
X086504Y033612D01*
X086206Y033612D01*
X086206Y033613D02*
X086504Y033613D01*
X086799Y033613D01*
X086504Y033613D01*
X086206Y033613D01*
X086205Y033613D02*
X086504Y033613D01*
X086799Y033613D01*
X086800Y033613D02*
X086504Y033613D01*
X086205Y033613D01*
X086204Y033614D02*
X086504Y033614D01*
X086800Y033614D01*
X086504Y033614D01*
X086204Y033614D01*
X086204Y033615D02*
X086504Y033615D01*
X086801Y033615D01*
X086504Y033615D01*
X086203Y033615D01*
X086203Y033616D02*
X086504Y033616D01*
X086802Y033616D01*
X086504Y033616D01*
X086202Y033616D01*
X086202Y033617D02*
X086504Y033617D01*
X086802Y033617D01*
X086803Y033617D02*
X086504Y033617D01*
X086202Y033617D01*
X086201Y033618D02*
X086504Y033618D01*
X086804Y033618D01*
X086504Y033618D01*
X086200Y033618D01*
X086504Y033618D01*
X086803Y033618D01*
X086504Y033618D01*
X086201Y033618D01*
X086200Y033619D02*
X086504Y033619D01*
X086805Y033619D01*
X086504Y033619D01*
X086199Y033619D01*
X086199Y033620D02*
X086504Y033620D01*
X086805Y033620D01*
X086504Y033620D01*
X086198Y033620D01*
X086198Y033621D02*
X086504Y033621D01*
X086806Y033621D01*
X086504Y033621D01*
X086198Y033621D01*
X086197Y033622D02*
X086504Y033622D01*
X086807Y033622D01*
X086504Y033622D01*
X086196Y033622D01*
X086504Y033622D01*
X086808Y033622D01*
X086808Y033623D02*
X086504Y033623D01*
X086195Y033623D01*
X086196Y033623D02*
X086504Y033623D01*
X086808Y033623D01*
X086809Y033624D02*
X086504Y033624D01*
X086194Y033624D01*
X086194Y033625D02*
X086504Y033625D01*
X086810Y033625D01*
X086504Y033625D01*
X086194Y033625D01*
X086193Y033626D02*
X086504Y033626D01*
X086811Y033626D01*
X086504Y033626D01*
X086192Y033626D01*
X086504Y033626D01*
X086810Y033626D01*
X086504Y033626D01*
X086193Y033626D01*
X086192Y033627D02*
X086504Y033627D01*
X086812Y033627D01*
X086504Y033627D01*
X086191Y033627D01*
X086191Y033628D02*
X086504Y033628D01*
X086812Y033628D01*
X086813Y033628D02*
X086504Y033628D01*
X086190Y033628D01*
X086190Y033629D02*
X086504Y033629D01*
X086813Y033629D01*
X086504Y033629D01*
X086190Y033629D01*
X086189Y033630D02*
X086504Y033630D01*
X086815Y033630D01*
X086504Y033630D01*
X086188Y033630D01*
X086504Y033630D01*
X086814Y033630D01*
X086504Y033630D01*
X086189Y033630D01*
X086188Y033631D02*
X086504Y033631D01*
X086815Y033631D01*
X086504Y033631D01*
X086187Y033631D01*
X086187Y033632D02*
X086504Y033632D01*
X086816Y033632D01*
X086504Y033632D01*
X086186Y033632D01*
X086186Y033633D02*
X086504Y033633D01*
X086817Y033633D01*
X086504Y033633D01*
X086186Y033633D01*
X086185Y033634D02*
X086504Y033634D01*
X086818Y033634D01*
X086504Y033634D01*
X086184Y033634D01*
X086185Y033634D02*
X086504Y033634D01*
X086818Y033634D01*
X086504Y033634D01*
X086185Y033634D01*
X086184Y033635D02*
X086504Y033635D01*
X086819Y033635D01*
X086504Y033635D01*
X086184Y033635D01*
X086184Y033636D02*
X086504Y033636D01*
X086820Y033636D01*
X086504Y033636D01*
X086183Y033636D01*
X086183Y033637D02*
X086504Y033637D01*
X086820Y033637D01*
X086821Y033637D02*
X086504Y033637D01*
X086183Y033637D01*
X086183Y033638D02*
X086504Y033638D01*
X086822Y033638D01*
X086504Y033638D01*
X086182Y033638D01*
X086504Y033638D01*
X086821Y033638D01*
X086504Y033638D01*
X086182Y033638D01*
X086182Y033639D02*
X086504Y033639D01*
X086823Y033639D01*
X086504Y033639D01*
X086181Y033639D01*
X086181Y033640D02*
X086504Y033640D01*
X086823Y033640D01*
X086504Y033640D01*
X086181Y033640D01*
X086181Y033641D02*
X086504Y033641D01*
X086824Y033641D01*
X086504Y033641D01*
X086180Y033641D01*
X086180Y033642D02*
X086504Y033642D01*
X086825Y033642D01*
X086504Y033642D01*
X086180Y033642D01*
X086504Y033642D01*
X086825Y033642D01*
X086826Y033642D02*
X086504Y033642D01*
X086179Y033642D01*
X086179Y033643D02*
X086504Y033643D01*
X086826Y033643D01*
X086504Y033643D01*
X086179Y033643D01*
X086179Y033644D02*
X086504Y033644D01*
X086827Y033644D01*
X086504Y033644D01*
X086178Y033644D01*
X086178Y033645D02*
X086504Y033645D01*
X086827Y033645D01*
X086504Y033645D01*
X086178Y033645D01*
X086178Y033646D02*
X086504Y033646D01*
X086828Y033646D01*
X086504Y033646D01*
X086177Y033646D01*
X086504Y033646D01*
X086828Y033646D01*
X086504Y033646D01*
X086177Y033646D01*
X086177Y033647D02*
X086504Y033647D01*
X086829Y033647D01*
X086504Y033647D01*
X086176Y033647D01*
X086176Y033648D02*
X086504Y033648D01*
X086829Y033648D01*
X086504Y033648D01*
X086176Y033648D01*
X086176Y033649D02*
X086504Y033649D01*
X086830Y033649D01*
X086504Y033649D01*
X086175Y033649D01*
X086175Y033650D02*
X086504Y033650D01*
X086830Y033650D01*
X086504Y033650D01*
X086175Y033650D01*
X086504Y033650D01*
X086831Y033650D01*
X086504Y033650D01*
X086174Y033650D01*
X086174Y033651D02*
X086504Y033651D01*
X086831Y033651D01*
X086504Y033651D01*
X086174Y033651D01*
X086174Y033652D02*
X086504Y033652D01*
X086832Y033652D01*
X086504Y033652D01*
X086173Y033652D01*
X086173Y033653D02*
X086504Y033653D01*
X086832Y033653D01*
X086504Y033653D01*
X086173Y033653D01*
X086173Y033654D02*
X086504Y033654D01*
X086832Y033654D01*
X086833Y033654D02*
X086504Y033654D01*
X086172Y033654D01*
X086504Y033654D01*
X086833Y033654D01*
X086504Y033654D01*
X086172Y033654D01*
X086172Y033655D02*
X086504Y033655D01*
X086833Y033655D01*
X086834Y033655D02*
X086504Y033655D01*
X086171Y033655D01*
X086171Y033656D02*
X086504Y033656D01*
X086834Y033656D01*
X086504Y033656D01*
X086171Y033656D01*
X086170Y033657D02*
X086504Y033657D01*
X086834Y033657D01*
X086835Y033657D02*
X086504Y033657D01*
X086170Y033657D01*
X086170Y033658D02*
X086504Y033658D01*
X086835Y033658D01*
X086504Y033658D01*
X086170Y033658D01*
X086169Y033658D02*
X086504Y033658D01*
X086835Y033658D01*
X086836Y033658D02*
X086504Y033658D01*
X086169Y033658D01*
X086169Y033659D02*
X086504Y033659D01*
X086836Y033659D01*
X086504Y033659D01*
X086169Y033659D01*
X086168Y033660D02*
X086504Y033660D01*
X086836Y033660D01*
X086504Y033660D01*
X086168Y033660D01*
X086168Y033661D02*
X086504Y033661D01*
X086837Y033661D01*
X086504Y033661D01*
X086168Y033661D01*
X086167Y033662D02*
X086504Y033662D01*
X086837Y033662D01*
X086504Y033662D01*
X086167Y033662D01*
X086504Y033662D01*
X086838Y033662D01*
X086504Y033662D01*
X086167Y033662D01*
X086166Y033663D02*
X086504Y033663D01*
X086838Y033663D01*
X086504Y033663D01*
X086166Y033663D01*
X086166Y033664D02*
X086504Y033664D01*
X086839Y033664D01*
X086504Y033664D01*
X086166Y033664D01*
X086165Y033665D02*
X086504Y033665D01*
X086839Y033665D01*
X086504Y033665D01*
X086165Y033665D01*
X086165Y033666D02*
X086504Y033666D01*
X086840Y033666D01*
X086504Y033666D01*
X086165Y033666D01*
X086164Y033667D02*
X086504Y033667D01*
X086841Y033667D01*
X086504Y033667D01*
X086164Y033667D01*
X086504Y033667D01*
X086840Y033667D01*
X086504Y033667D01*
X086164Y033667D01*
X086163Y033668D02*
X086504Y033668D01*
X086841Y033668D01*
X086504Y033668D01*
X086163Y033668D01*
X086163Y033669D02*
X086504Y033669D01*
X086842Y033669D01*
X086504Y033669D01*
X086163Y033669D01*
X086162Y033670D02*
X086504Y033670D01*
X086842Y033670D01*
X086504Y033670D01*
X086162Y033670D01*
X086162Y033671D02*
X086504Y033671D01*
X086843Y033671D01*
X086504Y033671D01*
X086161Y033671D01*
X086504Y033671D01*
X086843Y033671D01*
X086504Y033671D01*
X086162Y033671D01*
X086161Y033672D02*
X086504Y033672D01*
X086843Y033672D01*
X086844Y033672D02*
X086504Y033672D01*
X086161Y033672D01*
X086160Y033673D02*
X086504Y033673D01*
X086844Y033673D01*
X086504Y033673D01*
X086160Y033673D01*
X086160Y033674D02*
X086345Y033674D01*
X086342Y033675D02*
X086160Y033675D01*
X086339Y033675D01*
X086336Y033675D02*
X086160Y033675D01*
X086159Y033675D02*
X086333Y033675D01*
X086329Y033676D02*
X086159Y033676D01*
X086326Y033676D01*
X086324Y033677D02*
X086159Y033677D01*
X086323Y033677D01*
X086322Y033678D02*
X086159Y033678D01*
X086321Y033678D01*
X086320Y033679D02*
X086158Y033679D01*
X086317Y033679D01*
X086318Y033679D02*
X086158Y033679D01*
X086319Y033679D01*
X086316Y033680D02*
X086158Y033680D01*
X086315Y033680D01*
X086314Y033681D02*
X086158Y033681D01*
X086157Y033681D02*
X086313Y033681D01*
X086312Y033682D02*
X086157Y033682D01*
X086311Y033682D01*
X086310Y033683D02*
X086157Y033683D01*
X086309Y033683D01*
X086308Y033683D02*
X086157Y033683D01*
X086307Y033683D01*
X086306Y033684D02*
X086157Y033684D01*
X086156Y033684D02*
X086305Y033684D01*
X086304Y033685D02*
X086156Y033685D01*
X086303Y033685D01*
X086302Y033686D02*
X086156Y033686D01*
X086302Y033686D01*
X086301Y033687D02*
X086156Y033687D01*
X086301Y033687D01*
X086300Y033687D02*
X086155Y033687D01*
X086300Y033687D01*
X086299Y033688D02*
X086155Y033688D01*
X086299Y033688D01*
X086298Y033689D02*
X086155Y033689D01*
X086298Y033689D01*
X086297Y033690D02*
X086155Y033690D01*
X086154Y033690D02*
X086297Y033690D01*
X086296Y033691D02*
X086154Y033691D01*
X086296Y033691D01*
X086295Y033691D02*
X086154Y033691D01*
X086295Y033691D01*
X086294Y033692D02*
X086154Y033692D01*
X086293Y033692D01*
X086293Y033693D02*
X086153Y033693D01*
X086292Y033693D01*
X086292Y033694D02*
X086153Y033694D01*
X086291Y033694D01*
X086291Y033695D02*
X086153Y033695D01*
X086290Y033695D01*
X086153Y033695D01*
X086152Y033695D02*
X086289Y033695D01*
X086289Y033696D02*
X086152Y033696D01*
X086288Y033696D01*
X086288Y033697D02*
X086152Y033697D01*
X086287Y033697D01*
X086287Y033698D02*
X086152Y033698D01*
X086286Y033698D01*
X086286Y033699D02*
X086151Y033699D01*
X086284Y033699D01*
X086285Y033699D02*
X086151Y033699D01*
X086285Y033699D01*
X086284Y033700D02*
X086151Y033700D01*
X086283Y033700D01*
X086283Y033701D02*
X086151Y033701D01*
X086150Y033701D02*
X086283Y033701D01*
X086283Y033702D02*
X086150Y033702D01*
X086282Y033702D01*
X086282Y033703D02*
X086150Y033703D01*
X086282Y033703D01*
X086281Y033703D02*
X086150Y033703D01*
X086281Y033703D01*
X086281Y033704D02*
X086149Y033704D01*
X086280Y033704D01*
X086280Y033705D02*
X086149Y033705D01*
X086280Y033705D01*
X086279Y033706D02*
X086149Y033706D01*
X086279Y033706D01*
X086279Y033707D02*
X086149Y033707D01*
X086148Y033707D02*
X086279Y033707D01*
X086278Y033707D02*
X086148Y033707D01*
X086278Y033707D01*
X086278Y033708D02*
X086148Y033708D01*
X086277Y033708D01*
X086277Y033709D02*
X086148Y033709D01*
X086277Y033709D01*
X086276Y033710D02*
X086148Y033710D01*
X086147Y033710D02*
X086276Y033710D01*
X086276Y033711D02*
X086147Y033711D01*
X086275Y033711D01*
X086275Y033712D02*
X086147Y033712D01*
X086275Y033712D01*
X086147Y033712D01*
X086274Y033712D01*
X086274Y033713D02*
X086146Y033713D01*
X086274Y033713D01*
X086273Y033714D02*
X086146Y033714D01*
X086273Y033714D01*
X086273Y033715D02*
X086146Y033715D01*
X086272Y033715D01*
X086272Y033716D02*
X086146Y033716D01*
X086145Y033716D02*
X086272Y033716D01*
X086271Y033716D02*
X086145Y033716D01*
X086271Y033716D01*
X086271Y033717D02*
X086145Y033717D01*
X086271Y033717D01*
X086270Y033718D02*
X086145Y033718D01*
X086270Y033718D01*
X086270Y033719D02*
X086145Y033719D01*
X086270Y033719D01*
X086269Y033720D02*
X086145Y033720D01*
X086269Y033720D01*
X086145Y033720D01*
X086269Y033720D01*
X086269Y033721D02*
X086145Y033721D01*
X086269Y033721D01*
X086268Y033722D02*
X086145Y033722D01*
X086268Y033722D01*
X086268Y033723D02*
X086144Y033723D01*
X086145Y033723D02*
X086268Y033723D01*
X086268Y033724D02*
X086144Y033724D01*
X086267Y033724D01*
X086144Y033724D01*
X086268Y033724D01*
X086267Y033725D02*
X086144Y033725D01*
X086267Y033725D01*
X086267Y033726D02*
X086144Y033726D01*
X086267Y033726D01*
X086266Y033727D02*
X086144Y033727D01*
X086266Y033727D01*
X086266Y033728D02*
X086144Y033728D01*
X086266Y033728D01*
X086144Y033728D01*
X086266Y033728D01*
X086265Y033729D02*
X086144Y033729D01*
X086265Y033729D01*
X086265Y033730D02*
X086144Y033730D01*
X086265Y033730D01*
X086265Y033731D02*
X086144Y033731D01*
X086265Y033731D01*
X086264Y033732D02*
X086144Y033732D01*
X086143Y033732D02*
X086264Y033732D01*
X086143Y033732D01*
X086264Y033732D01*
X086264Y033733D02*
X086143Y033733D01*
X086264Y033733D01*
X086263Y033734D02*
X086143Y033734D01*
X086263Y033734D01*
X086263Y033735D02*
X086143Y033735D01*
X086263Y033735D01*
X086263Y033736D02*
X086143Y033736D01*
X086263Y033736D01*
X086262Y033736D02*
X086143Y033736D01*
X086262Y033736D01*
X086262Y033737D02*
X086143Y033737D01*
X086262Y033737D01*
X086262Y033738D02*
X086143Y033738D01*
X086262Y033738D01*
X086261Y033739D02*
X086143Y033739D01*
X086261Y033739D01*
X086261Y033740D02*
X086143Y033740D01*
X086261Y033740D01*
X086142Y033740D01*
X086143Y033740D02*
X086261Y033740D01*
X086261Y033741D02*
X086142Y033741D01*
X086261Y033741D01*
X086261Y033742D02*
X086142Y033742D01*
X086261Y033742D01*
X086261Y033743D02*
X086142Y033743D01*
X086261Y033743D01*
X086261Y033744D02*
X086142Y033744D01*
X086261Y033744D01*
X086142Y033744D01*
X086260Y033744D01*
X086260Y033745D02*
X086142Y033745D01*
X086260Y033745D01*
X086260Y033746D02*
X086142Y033746D01*
X086260Y033746D01*
X086260Y033747D02*
X086142Y033747D01*
X086260Y033747D01*
X086260Y033748D02*
X086142Y033748D01*
X086260Y033748D01*
X086142Y033748D01*
X086260Y033748D01*
X086260Y033749D02*
X086142Y033749D01*
X086141Y033749D02*
X086260Y033749D01*
X086260Y033750D02*
X086141Y033750D01*
X086260Y033750D01*
X086260Y033751D02*
X086141Y033751D01*
X086260Y033751D01*
X086260Y033752D02*
X086141Y033752D01*
X086260Y033752D01*
X086259Y033752D02*
X086141Y033752D01*
X086259Y033752D01*
X086259Y033753D02*
X086141Y033753D01*
X086259Y033753D01*
X086259Y033754D02*
X086141Y033754D01*
X086259Y033754D01*
X086259Y033755D02*
X086141Y033755D01*
X086259Y033755D01*
X086259Y033756D02*
X086141Y033756D01*
X086259Y033756D01*
X086141Y033756D01*
X086259Y033756D01*
X086259Y033757D02*
X086141Y033757D01*
X086259Y033757D01*
X086259Y033758D02*
X086141Y033758D01*
X086140Y033758D02*
X086259Y033758D01*
X086259Y033759D02*
X086140Y033759D01*
X086259Y033759D01*
X086259Y033760D02*
X086140Y033760D01*
X086258Y033760D01*
X086258Y033761D02*
X086140Y033761D01*
X086258Y033761D01*
X086140Y033761D01*
X086258Y033761D01*
X086258Y033762D02*
X086140Y033762D01*
X086258Y033762D01*
X086258Y033763D02*
X086140Y033763D01*
X086258Y033763D01*
X086258Y033764D02*
X086140Y033764D01*
X086258Y033764D01*
X086258Y033765D02*
X086140Y033765D01*
X086259Y033765D01*
X086140Y033765D01*
X086258Y033765D01*
X086259Y033766D02*
X086141Y033766D01*
X086259Y033766D01*
X086259Y033767D02*
X086141Y033767D01*
X086259Y033767D01*
X086259Y033768D02*
X086141Y033768D01*
X086259Y033768D01*
X086259Y033769D02*
X086141Y033769D01*
X086259Y033769D01*
X086141Y033769D01*
X086259Y033769D01*
X086259Y033770D02*
X086141Y033770D01*
X086259Y033770D01*
X086259Y033771D02*
X086141Y033771D01*
X086259Y033771D01*
X086259Y033772D02*
X086141Y033772D01*
X086259Y033772D01*
X086259Y033773D02*
X086141Y033773D01*
X086142Y033773D02*
X086260Y033773D01*
X086142Y033773D01*
X086260Y033773D01*
X086260Y033774D02*
X086142Y033774D01*
X086260Y033774D01*
X086260Y033775D02*
X086142Y033775D01*
X086260Y033775D01*
X086260Y033776D02*
X086142Y033776D01*
X086260Y033776D01*
X086260Y033777D02*
X086142Y033777D01*
X086260Y033777D01*
X086142Y033777D01*
X086260Y033777D01*
X086260Y033778D02*
X086142Y033778D01*
X086260Y033778D01*
X086260Y033779D02*
X086142Y033779D01*
X086260Y033779D01*
X086260Y033780D02*
X086142Y033780D01*
X086143Y033780D02*
X086260Y033780D01*
X086261Y033781D02*
X086143Y033781D01*
X086261Y033781D01*
X086143Y033781D01*
X086261Y033781D01*
X086261Y033782D02*
X086143Y033782D01*
X086261Y033782D01*
X086261Y033783D02*
X086143Y033783D01*
X086261Y033783D01*
X086261Y033784D02*
X086143Y033784D01*
X086261Y033784D01*
X086261Y033785D02*
X086143Y033785D01*
X086261Y033785D01*
X086143Y033785D01*
X086261Y033785D01*
X086261Y033786D02*
X086143Y033786D01*
X086144Y033786D02*
X086262Y033786D01*
X086262Y033787D02*
X086144Y033787D01*
X086143Y033787D02*
X086262Y033787D01*
X086262Y033788D02*
X086144Y033788D01*
X086262Y033788D01*
X086262Y033789D02*
X086144Y033789D01*
X086263Y033789D01*
X086144Y033789D01*
X086263Y033789D01*
X086263Y033790D02*
X086144Y033790D01*
X086263Y033790D01*
X086263Y033791D02*
X086144Y033791D01*
X086264Y033791D01*
X086264Y033792D02*
X086144Y033792D01*
X086264Y033792D01*
X086264Y033793D02*
X086144Y033793D01*
X086264Y033793D01*
X086144Y033793D01*
X086145Y033793D02*
X086265Y033793D01*
X086265Y033794D02*
X086145Y033794D01*
X086144Y033794D02*
X086265Y033794D01*
X086265Y033795D02*
X086145Y033795D01*
X086265Y033795D01*
X086265Y033796D02*
X086145Y033796D01*
X086266Y033796D01*
X086266Y033797D02*
X086145Y033797D01*
X086266Y033797D01*
X086145Y033797D01*
X086266Y033797D01*
X086266Y033798D02*
X086145Y033798D01*
X086267Y033798D01*
X086267Y033799D02*
X086145Y033799D01*
X086267Y033799D01*
X086267Y033800D02*
X086145Y033800D01*
X086267Y033800D01*
X086267Y033801D02*
X086145Y033801D01*
X086146Y033801D02*
X086268Y033801D01*
X086146Y033801D01*
X086145Y033801D02*
X086268Y033801D01*
X086268Y033802D02*
X086146Y033802D01*
X086268Y033802D01*
X086268Y033803D02*
X086146Y033803D01*
X086269Y033803D01*
X086269Y033804D02*
X086146Y033804D01*
X086269Y033804D01*
X086269Y033805D02*
X086146Y033805D01*
X086269Y033805D01*
X086269Y033806D02*
X086146Y033806D01*
X086147Y033806D02*
X086270Y033806D01*
X086147Y033806D01*
X086270Y033806D01*
X086270Y033807D02*
X086147Y033807D01*
X086271Y033807D01*
X086271Y033808D02*
X086147Y033808D01*
X086271Y033808D01*
X086272Y033809D02*
X086147Y033809D01*
X086148Y033809D02*
X086272Y033809D01*
X086272Y033810D02*
X086148Y033810D01*
X086273Y033810D01*
X086148Y033810D01*
X086272Y033810D01*
X086273Y033811D02*
X086148Y033811D01*
X086149Y033811D02*
X086274Y033811D01*
X086274Y033812D02*
X086149Y033812D01*
X086274Y033812D01*
X086275Y033813D02*
X086149Y033813D01*
X086275Y033813D01*
X086275Y033814D02*
X086149Y033814D01*
X086276Y033814D01*
X086150Y033814D01*
X086149Y033814D02*
X086276Y033814D01*
X086276Y033815D02*
X086150Y033815D01*
X086277Y033815D01*
X086277Y033816D02*
X086150Y033816D01*
X086277Y033816D01*
X086278Y033817D02*
X086150Y033817D01*
X086151Y033817D02*
X086278Y033817D01*
X086278Y033818D02*
X086151Y033818D01*
X086279Y033818D01*
X086151Y033818D01*
X086279Y033818D01*
X086280Y033819D02*
X086151Y033819D01*
X086280Y033819D01*
X086280Y033820D02*
X086151Y033820D01*
X086152Y033820D02*
X086280Y033820D01*
X086281Y033821D02*
X086152Y033821D01*
X086281Y033821D01*
X086281Y033822D02*
X086152Y033822D01*
X086282Y033822D01*
X086153Y033822D01*
X086152Y033822D02*
X086282Y033822D01*
X086283Y033823D02*
X086152Y033823D01*
X086153Y033823D02*
X086283Y033823D01*
X086283Y033824D02*
X086153Y033824D01*
X086284Y033824D01*
X086284Y033825D02*
X086153Y033825D01*
X086284Y033825D01*
X086285Y033826D02*
X086153Y033826D01*
X086154Y033826D02*
X086286Y033826D01*
X086154Y033826D01*
X086285Y033826D01*
X086287Y033827D02*
X086154Y033827D01*
X086287Y033827D01*
X086288Y033828D02*
X086154Y033828D01*
X086155Y033828D02*
X086288Y033828D01*
X086289Y033829D02*
X086154Y033829D01*
X086155Y033829D02*
X086289Y033829D01*
X086290Y033830D02*
X086155Y033830D01*
X086291Y033830D01*
X086292Y033830D02*
X086155Y033830D01*
X086290Y033830D01*
X086292Y033831D02*
X086155Y033831D01*
X086156Y033831D02*
X086293Y033831D01*
X086293Y033832D02*
X086156Y033832D01*
X086294Y033832D01*
X086294Y033833D02*
X086156Y033833D01*
X086295Y033833D01*
X086295Y033834D02*
X086156Y033834D01*
X086296Y033834D01*
X086157Y033834D01*
X086297Y033834D01*
X086297Y033835D02*
X086157Y033835D01*
X086298Y033835D01*
X086298Y033836D02*
X086157Y033836D01*
X086299Y033836D01*
X086299Y033837D02*
X086157Y033837D01*
X086158Y033837D02*
X086300Y033837D01*
X086300Y033838D02*
X086158Y033838D01*
X086301Y033838D01*
X086158Y033838D01*
X086302Y033838D01*
X086303Y033839D02*
X086158Y033839D01*
X086159Y033839D02*
X086304Y033839D01*
X086305Y033840D02*
X086158Y033840D01*
X086159Y033840D02*
X086305Y033840D01*
X086306Y033841D02*
X086159Y033841D01*
X086307Y033841D01*
X086308Y033842D02*
X086159Y033842D01*
X086310Y033842D01*
X086309Y033842D02*
X086159Y033842D01*
X086160Y033842D02*
X086311Y033842D01*
X086312Y033843D02*
X086159Y033843D01*
X086160Y033843D02*
X086313Y033843D01*
X086314Y033844D02*
X086160Y033844D01*
X086315Y033844D01*
X086316Y033845D02*
X086160Y033845D01*
X086161Y033845D02*
X086317Y033845D01*
X086318Y033846D02*
X086161Y033846D01*
X086319Y033846D01*
X086320Y033846D02*
X086161Y033846D01*
X086162Y033846D02*
X086321Y033846D01*
X086322Y033847D02*
X086162Y033847D01*
X086323Y033847D01*
X086324Y033848D02*
X086162Y033848D01*
X086163Y033848D02*
X086327Y033848D01*
X086330Y033849D02*
X086163Y033849D01*
X086333Y033849D01*
X086336Y033850D02*
X086163Y033850D01*
X086164Y033850D02*
X086339Y033850D01*
X086342Y033850D02*
X086163Y033850D01*
X086164Y033850D02*
X086345Y033850D01*
X086333Y033967D02*
X086504Y033967D01*
X086678Y033967D01*
X086681Y033967D02*
X086504Y033967D01*
X086326Y033967D01*
X086323Y033966D02*
X086504Y033966D01*
X086685Y033966D01*
X086688Y033966D02*
X086504Y033966D01*
X086320Y033966D01*
X086319Y033965D02*
X086504Y033965D01*
X086692Y033965D01*
X086695Y033965D02*
X086504Y033965D01*
X086317Y033965D01*
X086316Y033965D02*
X086504Y033965D01*
X086699Y033965D01*
X086702Y033965D02*
X086504Y033965D01*
X086314Y033965D01*
X086313Y033964D02*
X086504Y033964D01*
X086706Y033964D01*
X086708Y033964D02*
X086504Y033964D01*
X086311Y033964D01*
X086310Y033963D02*
X086504Y033963D01*
X086709Y033963D01*
X086711Y033963D02*
X086504Y033963D01*
X086308Y033963D01*
X086307Y033962D02*
X086504Y033962D01*
X086712Y033962D01*
X086713Y033962D02*
X086504Y033962D01*
X086305Y033962D01*
X086304Y033961D02*
X086504Y033961D01*
X086714Y033961D01*
X086715Y033961D02*
X086504Y033961D01*
X086301Y033961D01*
X086504Y033961D01*
X086716Y033961D01*
X086717Y033961D02*
X086504Y033961D01*
X086298Y033961D01*
X086297Y033960D02*
X086504Y033960D01*
X086719Y033960D01*
X086720Y033960D02*
X086504Y033960D01*
X086295Y033960D01*
X086294Y033959D02*
X086504Y033959D01*
X086721Y033959D01*
X086722Y033959D02*
X086504Y033959D01*
X086292Y033959D01*
X086291Y033958D02*
X086504Y033958D01*
X086723Y033958D01*
X086724Y033958D02*
X086504Y033958D01*
X086289Y033958D01*
X086288Y033957D02*
X086504Y033957D01*
X086726Y033957D01*
X086727Y033957D02*
X086504Y033957D01*
X086286Y033957D01*
X086285Y033957D02*
X086504Y033957D01*
X086728Y033957D01*
X086729Y033957D02*
X086504Y033957D01*
X086283Y033957D01*
X086282Y033956D02*
X086504Y033956D01*
X086730Y033956D01*
X086731Y033956D02*
X086504Y033956D01*
X086280Y033956D01*
X086280Y033955D02*
X086504Y033955D01*
X086732Y033955D01*
X086734Y033955D02*
X086504Y033955D01*
X086279Y033955D01*
X086279Y033954D02*
X086504Y033954D01*
X086735Y033954D01*
X086736Y033954D02*
X086504Y033954D01*
X086277Y033954D01*
X086277Y033953D02*
X086504Y033953D01*
X086737Y033953D01*
X086738Y033953D02*
X086504Y033953D01*
X086275Y033953D01*
X086504Y033953D01*
X086739Y033953D01*
X086740Y033953D02*
X086504Y033953D01*
X086274Y033953D01*
X086274Y033952D02*
X086504Y033952D01*
X086742Y033952D01*
X086743Y033952D02*
X086504Y033952D01*
X086272Y033952D01*
X086272Y033951D02*
X086504Y033951D01*
X086744Y033951D01*
X086745Y033951D02*
X086504Y033951D01*
X086270Y033951D01*
X086270Y033950D02*
X086504Y033950D01*
X086746Y033950D01*
X086747Y033950D02*
X086504Y033950D01*
X086269Y033950D01*
X086269Y033949D02*
X086504Y033949D01*
X086748Y033949D01*
X086750Y033949D02*
X086504Y033949D01*
X086267Y033949D01*
X086504Y033949D01*
X086751Y033949D01*
X086752Y033949D02*
X086504Y033949D01*
X086265Y033949D01*
X086265Y033948D02*
X086504Y033948D01*
X086752Y033948D01*
X086753Y033948D02*
X086504Y033948D01*
X086264Y033948D01*
X086264Y033947D02*
X086504Y033947D01*
X086754Y033947D01*
X086504Y033947D01*
X086262Y033947D01*
X086262Y033946D02*
X086504Y033946D01*
X086755Y033946D01*
X086504Y033946D01*
X086260Y033946D01*
X086260Y033945D02*
X086504Y033945D01*
X086756Y033945D01*
X086757Y033945D02*
X086504Y033945D01*
X086259Y033945D01*
X086259Y033944D02*
X086504Y033944D01*
X086759Y033944D01*
X086504Y033944D01*
X086257Y033944D01*
X086504Y033944D01*
X086255Y033944D01*
X086255Y033943D02*
X086504Y033943D01*
X086760Y033943D01*
X086761Y033943D02*
X086504Y033943D01*
X086254Y033943D01*
X086254Y033942D02*
X086504Y033942D01*
X086761Y033942D01*
X086762Y033942D02*
X086504Y033942D01*
X086252Y033942D01*
X086252Y033941D02*
X086504Y033941D01*
X086763Y033941D01*
X086504Y033941D01*
X086250Y033941D01*
X086250Y033940D02*
X086504Y033940D01*
X086765Y033940D01*
X086764Y033940D02*
X086504Y033940D01*
X086248Y033940D01*
X086247Y033940D02*
X086504Y033940D01*
X086766Y033940D01*
X086766Y033939D02*
X086504Y033939D01*
X086247Y033939D01*
X086245Y033939D02*
X086504Y033939D01*
X086767Y033939D01*
X086768Y033938D02*
X086504Y033938D01*
X086245Y033938D01*
X086244Y033938D02*
X086504Y033938D01*
X086768Y033938D01*
X086769Y033937D02*
X086504Y033937D01*
X086244Y033937D01*
X086243Y033936D02*
X086504Y033936D01*
X086771Y033936D01*
X086504Y033936D01*
X086242Y033936D01*
X086241Y033936D02*
X086504Y033936D01*
X086772Y033936D01*
X086773Y033935D02*
X086504Y033935D01*
X086241Y033935D01*
X086240Y033936D02*
X086504Y033936D01*
X086770Y033936D01*
X086770Y033937D02*
X086504Y033937D01*
X086243Y033937D01*
X086239Y033935D02*
X086504Y033935D01*
X086773Y033935D01*
X086774Y033934D02*
X086504Y033934D01*
X086239Y033934D01*
X086238Y033934D02*
X086504Y033934D01*
X086775Y033934D01*
X086775Y033933D02*
X086504Y033933D01*
X086238Y033933D01*
X086237Y033933D02*
X086504Y033933D01*
X086776Y033933D01*
X086777Y033932D02*
X086504Y033932D01*
X086778Y033932D01*
X086779Y033932D02*
X086504Y033932D01*
X086236Y033932D01*
X086504Y033932D01*
X086235Y033932D01*
X086235Y033931D02*
X086504Y033931D01*
X086779Y033931D01*
X086780Y033931D02*
X086504Y033931D01*
X086234Y033931D01*
X086234Y033930D02*
X086504Y033930D01*
X086780Y033930D01*
X086781Y033930D02*
X086504Y033930D01*
X086233Y033930D01*
X086233Y033929D02*
X086504Y033929D01*
X086782Y033929D01*
X086504Y033929D01*
X086232Y033929D01*
X086232Y033928D02*
X086504Y033928D01*
X086784Y033928D01*
X086504Y033928D01*
X086231Y033928D01*
X086504Y033928D01*
X086785Y033928D01*
X086786Y033927D02*
X086504Y033927D01*
X086230Y033927D01*
X086230Y033928D02*
X086504Y033928D01*
X086783Y033928D01*
X086786Y033927D02*
X086504Y033927D01*
X086229Y033927D01*
X086229Y033926D02*
X086504Y033926D01*
X086787Y033926D01*
X086504Y033926D01*
X086228Y033926D01*
X086228Y033925D02*
X086504Y033925D01*
X086788Y033925D01*
X086789Y033925D02*
X086504Y033925D01*
X086227Y033925D01*
X086227Y033924D02*
X086504Y033924D01*
X086791Y033924D01*
X086504Y033924D01*
X086226Y033924D01*
X086225Y033924D02*
X086504Y033924D01*
X086224Y033924D01*
X086224Y033923D02*
X086504Y033923D01*
X086791Y033923D01*
X086792Y033923D02*
X086504Y033923D01*
X086223Y033923D01*
X086223Y033922D02*
X086504Y033922D01*
X086792Y033922D01*
X086793Y033922D02*
X086504Y033922D01*
X086222Y033922D01*
X086222Y033921D02*
X086504Y033921D01*
X086793Y033921D01*
X086504Y033921D01*
X086221Y033921D01*
X086221Y033920D02*
X086504Y033920D01*
X086794Y033920D01*
X086504Y033920D01*
X086220Y033920D01*
X086504Y033920D01*
X086795Y033920D01*
X086504Y033920D01*
X086219Y033920D01*
X086219Y033919D02*
X086504Y033919D01*
X086795Y033919D01*
X086796Y033919D02*
X086504Y033919D01*
X086218Y033919D01*
X086218Y033918D02*
X086504Y033918D01*
X086796Y033918D01*
X086797Y033918D02*
X086504Y033918D01*
X086217Y033918D01*
X086217Y033917D02*
X086504Y033917D01*
X086797Y033917D01*
X086504Y033917D01*
X086216Y033917D01*
X086216Y033916D02*
X086504Y033916D01*
X086798Y033916D01*
X086504Y033916D01*
X086215Y033916D01*
X086504Y033916D01*
X086799Y033916D01*
X086504Y033916D01*
X086214Y033916D01*
X086214Y033915D02*
X086504Y033915D01*
X086799Y033915D01*
X086800Y033915D02*
X086504Y033915D01*
X086213Y033915D01*
X086213Y033914D02*
X086504Y033914D01*
X086800Y033914D01*
X086801Y033914D02*
X086504Y033914D01*
X086212Y033914D01*
X086212Y033913D02*
X086504Y033913D01*
X086801Y033913D01*
X086504Y033913D01*
X086211Y033913D01*
X086210Y033912D02*
X086504Y033912D01*
X086802Y033912D01*
X086504Y033912D01*
X086210Y033912D01*
X086504Y033912D01*
X086803Y033912D01*
X086504Y033912D01*
X086209Y033912D01*
X086209Y033911D02*
X086504Y033911D01*
X086803Y033911D01*
X086804Y033911D02*
X086504Y033911D01*
X086208Y033911D01*
X086208Y033910D02*
X086504Y033910D01*
X086804Y033910D01*
X086805Y033910D02*
X086504Y033910D01*
X086207Y033910D01*
X086207Y033909D02*
X086504Y033909D01*
X086805Y033909D01*
X086504Y033909D01*
X086208Y033909D01*
X086207Y033908D02*
X086504Y033908D01*
X086806Y033908D01*
X086504Y033908D01*
X086206Y033908D01*
X086504Y033908D01*
X086807Y033908D01*
X086504Y033908D01*
X086205Y033908D01*
X086205Y033907D02*
X086504Y033907D01*
X086807Y033907D01*
X086808Y033907D02*
X086504Y033907D01*
X086204Y033907D01*
X086204Y033906D02*
X086504Y033906D01*
X086808Y033906D01*
X086809Y033906D02*
X086504Y033906D01*
X086205Y033906D01*
X086204Y033905D02*
X086504Y033905D01*
X086809Y033905D01*
X086504Y033905D01*
X086203Y033905D01*
X086203Y033904D02*
X086504Y033904D01*
X086810Y033904D01*
X086504Y033904D01*
X086202Y033904D01*
X086504Y033904D01*
X086811Y033904D01*
X086504Y033904D01*
X086203Y033904D01*
X086202Y033903D02*
X086504Y033903D01*
X086812Y033903D01*
X086504Y033903D01*
X086201Y033903D01*
X086201Y033902D02*
X086504Y033902D01*
X086812Y033902D01*
X086813Y033902D02*
X086504Y033902D01*
X086200Y033902D01*
X086200Y033901D02*
X086504Y033901D01*
X086813Y033901D01*
X086814Y033901D02*
X086504Y033901D01*
X086199Y033901D01*
X086199Y033900D02*
X086504Y033900D01*
X086814Y033900D01*
X086504Y033900D01*
X086200Y033900D01*
X086199Y033899D02*
X086504Y033899D01*
X086816Y033899D01*
X086504Y033899D01*
X086198Y033899D01*
X086504Y033899D01*
X086197Y033899D01*
X086197Y033898D02*
X086504Y033898D01*
X086816Y033898D01*
X086817Y033898D02*
X086504Y033898D01*
X086197Y033898D01*
X086197Y033897D02*
X086504Y033897D01*
X086817Y033897D01*
X086818Y033897D02*
X086504Y033897D01*
X086196Y033897D01*
X086196Y033896D02*
X086504Y033896D01*
X086818Y033896D01*
X086504Y033896D01*
X086195Y033896D01*
X086195Y033895D02*
X086504Y033895D01*
X086820Y033895D01*
X086504Y033895D01*
X086195Y033895D01*
X086194Y033895D02*
X086504Y033895D01*
X086194Y033895D01*
X086194Y033894D02*
X086504Y033894D01*
X086820Y033894D01*
X086821Y033894D02*
X086504Y033894D01*
X086193Y033894D01*
X086193Y033893D02*
X086504Y033893D01*
X086821Y033893D01*
X086822Y033893D02*
X086504Y033893D01*
X086192Y033893D01*
X086192Y033892D02*
X086504Y033892D01*
X086822Y033892D01*
X086504Y033892D01*
X086192Y033892D01*
X086192Y033891D02*
X086504Y033891D01*
X086823Y033891D01*
X086504Y033891D01*
X086191Y033891D01*
X086504Y033891D01*
X086824Y033891D01*
X086824Y033890D02*
X086504Y033890D01*
X086190Y033890D01*
X086189Y033890D02*
X086504Y033890D01*
X086824Y033890D01*
X086824Y033889D02*
X086504Y033889D01*
X086189Y033889D01*
X086504Y033889D01*
X086825Y033889D01*
X086825Y033888D02*
X086504Y033888D01*
X086189Y033888D01*
X086188Y033888D02*
X086504Y033888D01*
X086825Y033888D01*
X086825Y033887D02*
X086504Y033887D01*
X086826Y033887D01*
X086504Y033887D01*
X086187Y033887D01*
X086504Y033887D01*
X086187Y033887D01*
X086188Y033887D02*
X086504Y033887D01*
X086826Y033887D01*
X086826Y033886D02*
X086504Y033886D01*
X086187Y033886D01*
X086186Y033886D02*
X086504Y033886D01*
X086827Y033886D01*
X086827Y033885D02*
X086504Y033885D01*
X086186Y033885D01*
X086185Y033885D02*
X086504Y033885D01*
X086827Y033885D01*
X086827Y033884D02*
X086504Y033884D01*
X086185Y033884D01*
X086184Y033884D02*
X086504Y033884D01*
X086828Y033884D01*
X086828Y033883D02*
X086504Y033883D01*
X086829Y033883D01*
X086504Y033883D01*
X086184Y033883D01*
X086504Y033883D01*
X086183Y033883D01*
X086183Y033882D02*
X086504Y033882D01*
X086829Y033882D01*
X086504Y033882D01*
X086182Y033882D01*
X086182Y033881D02*
X086504Y033881D01*
X086830Y033881D01*
X086504Y033881D01*
X086182Y033881D01*
X086182Y033880D02*
X086504Y033880D01*
X086830Y033880D01*
X086504Y033880D01*
X086181Y033880D01*
X086181Y033879D02*
X086504Y033879D01*
X086831Y033879D01*
X086504Y033879D01*
X086181Y033879D01*
X086504Y033879D01*
X086831Y033879D01*
X086504Y033879D01*
X086180Y033879D01*
X086180Y033878D02*
X086504Y033878D01*
X086832Y033878D01*
X086504Y033878D01*
X086180Y033878D01*
X086180Y033877D02*
X086504Y033877D01*
X086832Y033877D01*
X086504Y033877D01*
X086179Y033877D01*
X086179Y033876D02*
X086504Y033876D01*
X086833Y033876D01*
X086504Y033876D01*
X086179Y033876D01*
X086179Y033875D02*
X086504Y033875D01*
X086833Y033875D01*
X086504Y033875D01*
X086178Y033875D01*
X086504Y033875D01*
X086834Y033875D01*
X086504Y033875D01*
X086178Y033875D01*
X086178Y033874D02*
X086504Y033874D01*
X086834Y033874D01*
X086504Y033874D01*
X086177Y033874D01*
X086177Y033873D02*
X086504Y033873D01*
X086835Y033873D01*
X086504Y033873D01*
X086177Y033873D01*
X086177Y033872D02*
X086504Y033872D01*
X086835Y033872D01*
X086504Y033872D01*
X086176Y033872D01*
X086176Y033871D02*
X086504Y033871D01*
X086836Y033871D01*
X086504Y033871D01*
X086176Y033871D01*
X086504Y033871D01*
X086836Y033871D01*
X086504Y033871D01*
X086175Y033871D01*
X086175Y033870D02*
X086504Y033870D01*
X086837Y033870D01*
X086504Y033870D01*
X086175Y033870D01*
X086175Y033869D02*
X086504Y033869D01*
X086837Y033869D01*
X086504Y033869D01*
X086174Y033869D01*
X086174Y033868D02*
X086504Y033868D01*
X086838Y033868D01*
X086504Y033868D01*
X086175Y033868D01*
X086174Y033867D02*
X086504Y033867D01*
X086838Y033867D01*
X086504Y033867D01*
X086173Y033867D01*
X086504Y033867D01*
X086839Y033867D01*
X086504Y033867D01*
X086174Y033867D01*
X086173Y033866D02*
X086504Y033866D01*
X086839Y033866D01*
X086504Y033866D01*
X086172Y033866D01*
X086172Y033865D02*
X086504Y033865D01*
X086840Y033865D01*
X086504Y033865D01*
X086173Y033865D01*
X086172Y033864D02*
X086504Y033864D01*
X086840Y033864D01*
X086504Y033864D01*
X086172Y033864D01*
X086172Y033863D02*
X086504Y033863D01*
X086841Y033863D01*
X086504Y033863D01*
X086171Y033863D01*
X086504Y033863D01*
X086841Y033863D01*
X086504Y033863D01*
X086171Y033863D01*
X086171Y033862D02*
X086504Y033862D01*
X086842Y033862D01*
X086504Y033862D01*
X086170Y033862D01*
X086170Y033861D02*
X086504Y033861D01*
X086842Y033861D01*
X086504Y033861D01*
X086170Y033861D01*
X086170Y033860D02*
X086504Y033860D01*
X086843Y033860D01*
X086504Y033860D01*
X086169Y033860D01*
X086169Y033859D02*
X086504Y033859D01*
X086843Y033859D01*
X086504Y033859D01*
X086169Y033859D01*
X086504Y033859D01*
X086844Y033859D01*
X086504Y033859D01*
X086168Y033859D01*
X086168Y033858D02*
X086504Y033858D01*
X086844Y033858D01*
X086504Y033858D01*
X086168Y033858D01*
X086168Y033857D02*
X086504Y033857D01*
X086845Y033857D01*
X086504Y033857D01*
X086167Y033857D01*
X086167Y033856D02*
X086504Y033856D01*
X086845Y033856D01*
X086504Y033856D01*
X086167Y033856D01*
X086167Y033855D02*
X086504Y033855D01*
X086846Y033855D01*
X086504Y033855D01*
X086166Y033855D01*
X086504Y033855D01*
X086846Y033855D01*
X086504Y033855D01*
X086166Y033855D01*
X086166Y033854D02*
X086504Y033854D01*
X086847Y033854D01*
X086504Y033854D01*
X086165Y033854D01*
X086165Y033853D02*
X086504Y033853D01*
X086847Y033853D01*
X086504Y033853D01*
X086165Y033853D01*
X086165Y033852D02*
X086504Y033852D01*
X086848Y033852D01*
X086504Y033852D01*
X086164Y033852D01*
X086164Y033851D02*
X086504Y033851D01*
X086848Y033851D01*
X086504Y033851D01*
X086165Y033851D01*
X086184Y033883D02*
X086504Y033883D01*
X086828Y033883D01*
X086823Y033891D02*
X086504Y033891D01*
X086190Y033891D01*
X086237Y033932D02*
X086504Y033932D01*
X086777Y033932D01*
X086789Y033924D02*
X086504Y033924D01*
X086790Y033924D01*
X086764Y033940D02*
X086504Y033940D01*
X086249Y033940D01*
X086340Y033968D02*
X086504Y033968D01*
X086670Y033968D01*
X086667Y033969D02*
X086504Y033969D01*
X086663Y033969D01*
X086674Y033968D02*
X086504Y033968D01*
X086348Y033968D01*
X086354Y033969D02*
X086504Y033969D01*
X086363Y033969D01*
X086504Y033944D02*
X086757Y033944D01*
X086758Y033944D02*
X086504Y033944D01*
X086504Y033899D02*
X086815Y033899D01*
X086504Y033899D01*
X086504Y033895D02*
X086819Y033895D01*
X086504Y033895D01*
X086663Y033850D02*
X086848Y033850D01*
X086666Y033850D01*
X086669Y033850D02*
X086849Y033850D01*
X086672Y033850D01*
X086675Y033849D02*
X086849Y033849D01*
X086678Y033849D01*
X086681Y033848D02*
X086849Y033848D01*
X086684Y033848D01*
X086685Y033847D02*
X086849Y033847D01*
X086850Y033847D02*
X086686Y033847D01*
X086687Y033846D02*
X086850Y033846D01*
X086689Y033846D01*
X086688Y033846D02*
X086850Y033846D01*
X086690Y033846D01*
X086691Y033845D02*
X086850Y033845D01*
X086692Y033845D01*
X086693Y033844D02*
X086851Y033844D01*
X086694Y033844D01*
X086695Y033843D02*
X086851Y033843D01*
X086696Y033843D01*
X086697Y033842D02*
X086851Y033842D01*
X086698Y033842D01*
X086699Y033842D02*
X086851Y033842D01*
X086852Y033842D02*
X086700Y033842D01*
X086701Y033841D02*
X086852Y033841D01*
X086702Y033841D01*
X086703Y033840D02*
X086852Y033840D01*
X086704Y033840D01*
X086705Y033839D02*
X086852Y033839D01*
X086706Y033839D01*
X086706Y033838D02*
X086853Y033838D01*
X086708Y033838D01*
X086707Y033838D02*
X086853Y033838D01*
X086707Y033838D01*
X086709Y033837D02*
X086853Y033837D01*
X086709Y033837D01*
X086710Y033836D02*
X086853Y033836D01*
X086854Y033836D02*
X086710Y033836D01*
X086711Y033835D02*
X086854Y033835D01*
X086711Y033835D01*
X086712Y033834D02*
X086854Y033834D01*
X086712Y033834D01*
X086713Y033834D02*
X086854Y033834D01*
X086713Y033834D01*
X086714Y033833D02*
X086855Y033833D01*
X086714Y033833D01*
X086715Y033832D02*
X086855Y033832D01*
X086715Y033832D01*
X086716Y033831D02*
X086855Y033831D01*
X086716Y033831D01*
X086717Y033830D02*
X086855Y033830D01*
X086856Y033830D02*
X086717Y033830D01*
X086718Y033830D02*
X086856Y033830D01*
X086718Y033830D01*
X086719Y033829D02*
X086856Y033829D01*
X086720Y033829D01*
X086720Y033828D02*
X086856Y033828D01*
X086721Y033828D01*
X086721Y033827D02*
X086856Y033827D01*
X086857Y033827D02*
X086722Y033827D01*
X086722Y033826D02*
X086857Y033826D01*
X086723Y033826D01*
X086857Y033826D01*
X086724Y033826D01*
X086724Y033825D02*
X086857Y033825D01*
X086725Y033825D01*
X086725Y033824D02*
X086858Y033824D01*
X086725Y033824D01*
X086725Y033823D02*
X086858Y033823D01*
X086726Y033823D01*
X086726Y033822D02*
X086858Y033822D01*
X086726Y033822D01*
X086727Y033822D02*
X086858Y033822D01*
X086859Y033822D02*
X086727Y033822D01*
X086727Y033821D02*
X086859Y033821D01*
X086728Y033821D01*
X086728Y033820D02*
X086859Y033820D01*
X086728Y033820D01*
X086729Y033819D02*
X086859Y033819D01*
X086729Y033819D01*
X086729Y033818D02*
X086860Y033818D01*
X086729Y033818D01*
X086730Y033818D02*
X086860Y033818D01*
X086730Y033818D01*
X086730Y033817D02*
X086860Y033817D01*
X086731Y033817D01*
X086731Y033816D02*
X086860Y033816D01*
X086861Y033816D02*
X086731Y033816D01*
X086732Y033815D02*
X086861Y033815D01*
X086732Y033815D01*
X086732Y033814D02*
X086861Y033814D01*
X086733Y033814D01*
X086861Y033814D01*
X086733Y033814D01*
X086734Y033813D02*
X086862Y033813D01*
X086734Y033813D01*
X086734Y033812D02*
X086862Y033812D01*
X086734Y033812D01*
X086735Y033811D02*
X086862Y033811D01*
X086735Y033811D01*
X086735Y033810D02*
X086862Y033810D01*
X086863Y033810D02*
X086736Y033810D01*
X086863Y033810D01*
X086736Y033810D01*
X086737Y033809D02*
X086863Y033809D01*
X086737Y033809D01*
X086737Y033808D02*
X086863Y033808D01*
X086738Y033808D01*
X086738Y033807D02*
X086863Y033807D01*
X086738Y033807D01*
X086738Y033806D02*
X086863Y033806D01*
X086739Y033806D01*
X086864Y033806D01*
X086863Y033806D02*
X086739Y033806D01*
X086739Y033805D02*
X086864Y033805D01*
X086739Y033805D01*
X086739Y033804D02*
X086864Y033804D01*
X086740Y033804D01*
X086740Y033803D02*
X086864Y033803D01*
X086740Y033803D01*
X086740Y033802D02*
X086864Y033802D01*
X086740Y033802D01*
X086740Y033801D02*
X086864Y033801D01*
X086741Y033801D01*
X086864Y033801D01*
X086741Y033801D01*
X086741Y033800D02*
X086864Y033800D01*
X086741Y033800D01*
X086741Y033799D02*
X086864Y033799D01*
X086742Y033799D01*
X086742Y033798D02*
X086864Y033798D01*
X086742Y033798D01*
X086742Y033797D02*
X086864Y033797D01*
X086742Y033797D01*
X086864Y033797D01*
X086865Y033797D02*
X086743Y033797D01*
X086743Y033796D02*
X086865Y033796D01*
X086743Y033796D01*
X086743Y033795D02*
X086865Y033795D01*
X086743Y033795D01*
X086743Y033794D02*
X086865Y033794D01*
X086744Y033794D01*
X086744Y033793D02*
X086865Y033793D01*
X086744Y033793D01*
X086865Y033793D01*
X086744Y033793D01*
X086744Y033792D02*
X086865Y033792D01*
X086745Y033792D01*
X086745Y033791D02*
X086865Y033791D01*
X086745Y033791D01*
X086745Y033790D02*
X086865Y033790D01*
X086745Y033790D01*
X086745Y033789D02*
X086865Y033789D01*
X086746Y033789D01*
X086865Y033789D01*
X086746Y033789D01*
X086746Y033788D02*
X086865Y033788D01*
X086866Y033788D02*
X086746Y033788D01*
X086746Y033787D02*
X086866Y033787D01*
X086747Y033787D01*
X086747Y033786D02*
X086866Y033786D01*
X086747Y033786D01*
X086747Y033785D02*
X086866Y033785D01*
X086747Y033785D01*
X086866Y033785D01*
X086747Y033785D01*
X086747Y033784D02*
X086866Y033784D01*
X086747Y033784D01*
X086748Y033783D02*
X086866Y033783D01*
X086748Y033783D01*
X086748Y033782D02*
X086866Y033782D01*
X086748Y033782D01*
X086748Y033781D02*
X086866Y033781D01*
X086748Y033781D01*
X086866Y033781D01*
X086748Y033781D01*
X086748Y033780D02*
X086866Y033780D01*
X086748Y033780D01*
X086748Y033779D02*
X086866Y033779D01*
X086867Y033779D02*
X086748Y033779D01*
X086748Y033778D02*
X086867Y033778D01*
X086748Y033778D01*
X086748Y033777D02*
X086867Y033777D01*
X086748Y033777D01*
X086867Y033777D01*
X086748Y033777D01*
X086748Y033776D02*
X086867Y033776D01*
X086749Y033776D01*
X086749Y033775D02*
X086867Y033775D01*
X086749Y033775D01*
X086749Y033774D02*
X086867Y033774D01*
X086749Y033774D01*
X086749Y033773D02*
X086867Y033773D01*
X086749Y033773D01*
X086867Y033773D01*
X086749Y033773D01*
X086749Y033772D02*
X086867Y033772D01*
X086749Y033772D01*
X086749Y033771D02*
X086867Y033771D01*
X086749Y033771D01*
X086749Y033770D02*
X086867Y033770D01*
X086868Y033770D02*
X086749Y033770D01*
X086749Y033769D02*
X086868Y033769D01*
X086749Y033769D01*
X086868Y033769D01*
X086749Y033769D01*
X086750Y033768D02*
X086868Y033768D01*
X086750Y033768D01*
X086750Y033767D02*
X086868Y033767D01*
X086750Y033767D01*
X086750Y033766D02*
X086868Y033766D01*
X086750Y033766D01*
X086750Y033765D02*
X086868Y033765D01*
X086750Y033765D01*
X086868Y033765D01*
X086750Y033765D01*
X086750Y033764D02*
X086868Y033764D01*
X086750Y033764D01*
X086750Y033763D02*
X086868Y033763D01*
X086750Y033763D01*
X086750Y033762D02*
X086868Y033762D01*
X086750Y033762D01*
X086750Y033761D02*
X086868Y033761D01*
X086750Y033761D01*
X086868Y033761D01*
X086750Y033761D01*
X086750Y033760D02*
X086868Y033760D01*
X086750Y033760D01*
X086750Y033759D02*
X086868Y033759D01*
X086750Y033759D01*
X086750Y033758D02*
X086868Y033758D01*
X086750Y033758D01*
X086750Y033757D02*
X086868Y033757D01*
X086750Y033757D01*
X086750Y033756D02*
X086868Y033756D01*
X086867Y033756D02*
X086749Y033756D01*
X086867Y033756D01*
X086868Y033756D02*
X086749Y033756D01*
X086749Y033755D02*
X086867Y033755D01*
X086749Y033755D01*
X086749Y033754D02*
X086867Y033754D01*
X086749Y033754D01*
X086749Y033753D02*
X086867Y033753D01*
X086749Y033753D01*
X086749Y033752D02*
X086867Y033752D01*
X086749Y033752D01*
X086867Y033752D01*
X086749Y033752D01*
X086749Y033751D02*
X086867Y033751D01*
X086749Y033751D01*
X086749Y033750D02*
X086867Y033750D01*
X086749Y033750D01*
X086749Y033749D02*
X086867Y033749D01*
X086749Y033749D01*
X086748Y033748D02*
X086866Y033748D01*
X086748Y033748D01*
X086866Y033748D01*
X086748Y033748D01*
X086748Y033747D02*
X086866Y033747D01*
X086748Y033747D01*
X086748Y033746D02*
X086866Y033746D01*
X086748Y033746D01*
X086748Y033745D02*
X086866Y033745D01*
X086748Y033745D01*
X086748Y033744D02*
X086866Y033744D01*
X086748Y033744D01*
X086866Y033744D01*
X086748Y033744D01*
X086748Y033743D02*
X086866Y033743D01*
X086748Y033743D01*
X086748Y033742D02*
X086865Y033742D01*
X086866Y033742D02*
X086748Y033742D01*
X086748Y033741D02*
X086865Y033741D01*
X086747Y033741D01*
X086747Y033740D02*
X086865Y033740D01*
X086747Y033740D01*
X086865Y033740D01*
X086747Y033740D01*
X086747Y033739D02*
X086865Y033739D01*
X086747Y033739D01*
X086747Y033738D02*
X086865Y033738D01*
X086747Y033738D01*
X086746Y033737D02*
X086865Y033737D01*
X086746Y033737D01*
X086746Y033736D02*
X086865Y033736D01*
X086746Y033736D01*
X086865Y033736D01*
X086746Y033736D01*
X086745Y033735D02*
X086864Y033735D01*
X086745Y033735D01*
X086745Y033734D02*
X086864Y033734D01*
X086745Y033734D01*
X086745Y033733D02*
X086864Y033733D01*
X086745Y033733D01*
X086744Y033732D02*
X086864Y033732D01*
X086744Y033732D01*
X086864Y033732D01*
X086744Y033732D01*
X086744Y033731D02*
X086864Y033731D01*
X086744Y033731D01*
X086743Y033730D02*
X086864Y033730D01*
X086743Y033730D01*
X086743Y033729D02*
X086864Y033729D01*
X086743Y033729D01*
X086743Y033728D02*
X086863Y033728D01*
X086742Y033728D01*
X086863Y033728D01*
X086864Y033728D02*
X086743Y033728D01*
X086742Y033727D02*
X086863Y033727D01*
X086742Y033727D01*
X086742Y033726D02*
X086863Y033726D01*
X086742Y033726D01*
X086741Y033725D02*
X086863Y033725D01*
X086741Y033725D01*
X086741Y033724D02*
X086863Y033724D01*
X086741Y033724D01*
X086863Y033724D01*
X086741Y033724D01*
X086740Y033723D02*
X086863Y033723D01*
X086740Y033723D01*
X086740Y033722D02*
X086863Y033722D01*
X086740Y033722D01*
X086740Y033721D02*
X086862Y033721D01*
X086863Y033721D02*
X086740Y033721D01*
X086739Y033720D02*
X086862Y033720D01*
X086739Y033720D01*
X086862Y033720D01*
X086739Y033720D01*
X086739Y033719D02*
X086862Y033719D01*
X086739Y033719D01*
X086738Y033718D02*
X086862Y033718D01*
X086738Y033718D01*
X086738Y033717D02*
X086861Y033717D01*
X086738Y033717D01*
X086737Y033716D02*
X086861Y033716D01*
X086737Y033716D01*
X086861Y033716D01*
X086736Y033716D01*
X086736Y033715D02*
X086860Y033715D01*
X086736Y033715D01*
X086735Y033714D02*
X086860Y033714D01*
X086735Y033714D01*
X086735Y033713D02*
X086860Y033713D01*
X086735Y033713D01*
X086734Y033712D02*
X086860Y033712D01*
X086734Y033712D01*
X086859Y033712D01*
X086733Y033712D01*
X086733Y033711D02*
X086859Y033711D01*
X086733Y033711D01*
X086732Y033710D02*
X086859Y033710D01*
X086732Y033710D01*
X086732Y033709D02*
X086858Y033709D01*
X086731Y033709D01*
X086731Y033708D02*
X086858Y033708D01*
X086731Y033708D01*
X086730Y033707D02*
X086858Y033707D01*
X086730Y033707D01*
X086858Y033707D01*
X086730Y033707D01*
X086729Y033706D02*
X086857Y033706D01*
X086729Y033706D01*
X086729Y033705D02*
X086857Y033705D01*
X086728Y033705D01*
X086728Y033704D02*
X086857Y033704D01*
X086728Y033704D01*
X086727Y033703D02*
X086856Y033703D01*
X086727Y033703D01*
X086857Y033703D01*
X086856Y033703D02*
X086726Y033703D01*
X086726Y033702D02*
X086856Y033702D01*
X086726Y033702D01*
X086726Y033701D02*
X086856Y033701D01*
X086725Y033701D01*
X086725Y033700D02*
X086855Y033700D01*
X086725Y033700D01*
X086724Y033699D02*
X086855Y033699D01*
X086723Y033699D01*
X086855Y033699D01*
X086724Y033699D01*
X086722Y033698D02*
X086854Y033698D01*
X086855Y033698D02*
X086722Y033698D01*
X086721Y033697D02*
X086854Y033697D01*
X086721Y033697D01*
X086720Y033696D02*
X086854Y033696D01*
X086720Y033696D01*
X086719Y033695D02*
X086854Y033695D01*
X086719Y033695D01*
X086718Y033695D02*
X086853Y033695D01*
X086718Y033695D01*
X086717Y033694D02*
X086853Y033694D01*
X086716Y033694D01*
X086716Y033693D02*
X086853Y033693D01*
X086715Y033693D01*
X086715Y033692D02*
X086852Y033692D01*
X086852Y033691D02*
X086714Y033691D01*
X086713Y033691D02*
X086852Y033691D01*
X086712Y033691D01*
X086713Y033691D02*
X086852Y033691D01*
X086852Y033690D02*
X086711Y033690D01*
X086712Y033690D02*
X086852Y033690D01*
X086851Y033689D02*
X086710Y033689D01*
X086711Y033689D02*
X086851Y033689D01*
X086851Y033688D02*
X086710Y033688D01*
X086709Y033688D02*
X086851Y033688D01*
X086851Y033687D02*
X086708Y033687D01*
X086850Y033687D01*
X086851Y033687D02*
X086707Y033687D01*
X086707Y033686D02*
X086850Y033686D01*
X086706Y033686D01*
X086705Y033685D02*
X086850Y033685D01*
X086704Y033685D01*
X086703Y033684D02*
X086850Y033684D01*
X086702Y033684D01*
X086701Y033683D02*
X086849Y033683D01*
X086699Y033683D01*
X086698Y033683D02*
X086849Y033683D01*
X086850Y033683D02*
X086700Y033683D01*
X086697Y033682D02*
X086849Y033682D01*
X086696Y033682D01*
X086695Y033681D02*
X086848Y033681D01*
X086849Y033681D02*
X086694Y033681D01*
X086693Y033680D02*
X086848Y033680D01*
X086692Y033680D01*
X086692Y033679D02*
X086848Y033679D01*
X086691Y033679D01*
X086690Y033679D02*
X086847Y033679D01*
X086689Y033679D01*
X086688Y033678D02*
X086847Y033678D01*
X086687Y033678D01*
X086686Y033677D02*
X086846Y033677D01*
X086685Y033677D01*
X086682Y033676D02*
X086846Y033676D01*
X086679Y033676D01*
X086676Y033675D02*
X086845Y033675D01*
X086667Y033675D01*
X086670Y033675D02*
X086845Y033675D01*
X086673Y033675D01*
X086664Y033674D02*
X086844Y033674D01*
X086845Y033674D02*
X086504Y033674D01*
X086160Y033674D01*
X086195Y033624D02*
X086504Y033624D01*
X086809Y033624D01*
X086807Y033622D02*
X086504Y033622D01*
X086197Y033622D01*
X086275Y033570D02*
X086504Y033570D01*
X086730Y033570D01*
X086709Y033687D02*
X086851Y033687D01*
X086853Y033692D02*
X086714Y033692D01*
X086668Y031153D02*
X086504Y031153D01*
X086672Y031153D01*
X086675Y031153D02*
X086504Y031153D01*
X086345Y031153D01*
X086338Y031153D02*
X086504Y031153D01*
X086664Y031153D01*
X086679Y031152D02*
X086504Y031152D01*
X086330Y031152D01*
X086324Y031152D02*
X086504Y031152D01*
X086682Y031152D01*
X086686Y031151D02*
X086504Y031151D01*
X086322Y031151D01*
X086319Y031151D02*
X086504Y031151D01*
X086689Y031151D01*
X086693Y031150D02*
X086504Y031150D01*
X086319Y031150D01*
X086316Y031150D02*
X086504Y031150D01*
X086696Y031150D01*
X086700Y031149D02*
X086504Y031149D01*
X086707Y031149D01*
X086709Y031149D02*
X086504Y031149D01*
X086313Y031149D01*
X086504Y031149D01*
X086310Y031149D01*
X086309Y031148D02*
X086504Y031148D01*
X086710Y031148D01*
X086711Y031148D02*
X086504Y031148D01*
X086307Y031148D01*
X086306Y031147D02*
X086504Y031147D01*
X086712Y031147D01*
X086713Y031147D02*
X086504Y031147D01*
X086304Y031147D01*
X086303Y031146D02*
X086504Y031146D01*
X086714Y031146D01*
X086716Y031146D02*
X086504Y031146D01*
X086301Y031146D01*
X086300Y031145D02*
X086504Y031145D01*
X086719Y031145D01*
X086720Y031145D02*
X086504Y031145D01*
X086297Y031145D01*
X086298Y031145D02*
X086504Y031145D01*
X086295Y031145D01*
X086294Y031144D02*
X086504Y031144D01*
X086721Y031144D01*
X086722Y031144D02*
X086504Y031144D01*
X086292Y031144D01*
X086290Y031143D02*
X086504Y031143D01*
X086724Y031143D01*
X086725Y031143D02*
X086504Y031143D01*
X086288Y031143D01*
X086287Y031142D02*
X086504Y031142D01*
X086726Y031142D01*
X086727Y031142D02*
X086504Y031142D01*
X086285Y031142D01*
X086284Y031141D02*
X086504Y031141D01*
X086730Y031141D01*
X086729Y031141D02*
X086504Y031141D01*
X086282Y031141D01*
X086504Y031141D01*
X086732Y031141D01*
X086733Y031140D02*
X086504Y031140D01*
X086280Y031140D01*
X086280Y031141D02*
X086504Y031141D01*
X086728Y031141D01*
X086734Y031140D02*
X086504Y031140D01*
X086278Y031140D01*
X086278Y031139D02*
X086504Y031139D01*
X086735Y031139D01*
X086736Y031139D02*
X086504Y031139D01*
X086277Y031139D01*
X086277Y031138D02*
X086504Y031138D01*
X086737Y031138D01*
X086739Y031138D02*
X086504Y031138D01*
X086275Y031138D01*
X086275Y031137D02*
X086504Y031137D01*
X086742Y031137D01*
X086743Y031137D02*
X086504Y031137D01*
X086273Y031137D01*
X086504Y031137D01*
X086272Y031137D01*
X086272Y031136D02*
X086504Y031136D01*
X086744Y031136D01*
X086745Y031136D02*
X086504Y031136D01*
X086270Y031136D01*
X086270Y031135D02*
X086504Y031135D01*
X086747Y031135D01*
X086748Y031135D02*
X086504Y031135D01*
X086268Y031135D01*
X086268Y031134D02*
X086504Y031134D01*
X086749Y031134D01*
X086750Y031134D02*
X086504Y031134D01*
X086267Y031134D01*
X086267Y031133D02*
X086504Y031133D01*
X086753Y031133D01*
X086504Y031133D01*
X086265Y031133D01*
X086504Y031133D01*
X086264Y031133D01*
X086263Y031132D02*
X086504Y031132D01*
X086754Y031132D01*
X086504Y031132D01*
X086262Y031132D01*
X086262Y031131D02*
X086504Y031131D01*
X086755Y031131D01*
X086756Y031131D02*
X086504Y031131D01*
X086260Y031131D01*
X086260Y031130D02*
X086504Y031130D01*
X086756Y031130D01*
X086757Y031130D02*
X086504Y031130D01*
X086259Y031130D01*
X086258Y031129D02*
X086504Y031129D01*
X086758Y031129D01*
X086504Y031129D01*
X086257Y031129D01*
X086504Y031129D01*
X086759Y031129D01*
X086760Y031129D02*
X086504Y031129D01*
X086255Y031129D01*
X086255Y031128D02*
X086504Y031128D01*
X086760Y031128D01*
X086761Y031128D02*
X086504Y031128D01*
X086254Y031128D01*
X086253Y031127D02*
X086504Y031127D01*
X086761Y031127D01*
X086762Y031127D02*
X086504Y031127D01*
X086252Y031127D01*
X086252Y031126D02*
X086504Y031126D01*
X086763Y031126D01*
X086504Y031126D01*
X086250Y031126D01*
X086250Y031125D02*
X086504Y031125D01*
X086764Y031125D01*
X086765Y031125D02*
X086504Y031125D01*
X086249Y031125D01*
X086248Y031125D02*
X086504Y031125D01*
X086765Y031125D01*
X086766Y031125D02*
X086504Y031125D01*
X086247Y031125D01*
X086247Y031124D02*
X086504Y031124D01*
X086767Y031124D01*
X086504Y031124D01*
X086245Y031124D01*
X086245Y031123D02*
X086504Y031123D01*
X086768Y031123D01*
X086504Y031123D01*
X086244Y031123D01*
X086244Y031122D02*
X086504Y031122D01*
X086769Y031122D01*
X086770Y031122D02*
X086504Y031122D01*
X086242Y031122D01*
X086243Y031121D02*
X086504Y031121D01*
X086770Y031121D01*
X086771Y031121D02*
X086504Y031121D01*
X086241Y031121D01*
X086504Y031121D01*
X086772Y031121D01*
X086504Y031121D01*
X086240Y031121D01*
X086240Y031120D02*
X086504Y031120D01*
X086773Y031120D01*
X086774Y031120D02*
X086504Y031120D01*
X086239Y031120D01*
X086239Y031119D02*
X086504Y031119D01*
X086774Y031119D01*
X086775Y031119D02*
X086504Y031119D01*
X086238Y031119D01*
X086238Y031118D02*
X086504Y031118D01*
X086776Y031118D01*
X086504Y031118D01*
X086237Y031118D01*
X086237Y031117D02*
X086504Y031117D01*
X086777Y031117D01*
X086504Y031117D01*
X086236Y031117D01*
X086504Y031117D01*
X086778Y031117D01*
X086779Y031117D02*
X086504Y031117D01*
X086235Y031117D01*
X086235Y031116D02*
X086504Y031116D01*
X086779Y031116D01*
X086780Y031116D02*
X086504Y031116D01*
X086234Y031116D01*
X086234Y031115D02*
X086504Y031115D01*
X086781Y031115D01*
X086504Y031115D01*
X086233Y031115D01*
X086233Y031114D02*
X086504Y031114D01*
X086782Y031114D01*
X086783Y031114D02*
X086504Y031114D01*
X086232Y031114D01*
X086232Y031113D02*
X086504Y031113D01*
X086783Y031113D01*
X086784Y031113D02*
X086504Y031113D01*
X086231Y031113D01*
X086504Y031113D01*
X086784Y031113D01*
X086785Y031113D02*
X086504Y031113D01*
X086230Y031113D01*
X086230Y031112D02*
X086504Y031112D01*
X086786Y031112D01*
X086504Y031112D01*
X086228Y031112D01*
X086229Y031111D02*
X086504Y031111D01*
X086787Y031111D01*
X086788Y031111D02*
X086504Y031111D01*
X086227Y031111D01*
X086227Y031110D02*
X086504Y031110D01*
X086788Y031110D01*
X086789Y031110D02*
X086504Y031110D01*
X086226Y031110D01*
X086226Y031109D02*
X086504Y031109D01*
X086790Y031109D01*
X086504Y031109D01*
X086225Y031109D01*
X086504Y031109D01*
X086791Y031109D01*
X086504Y031109D01*
X086224Y031109D01*
X086224Y031108D02*
X086504Y031108D01*
X086792Y031108D01*
X086504Y031108D01*
X086223Y031108D01*
X086223Y031107D02*
X086504Y031107D01*
X086792Y031107D01*
X086793Y031107D02*
X086504Y031107D01*
X086222Y031107D01*
X086222Y031106D02*
X086504Y031106D01*
X086793Y031106D01*
X086794Y031106D02*
X086504Y031106D01*
X086221Y031106D01*
X086221Y031105D02*
X086504Y031105D01*
X086794Y031105D01*
X086504Y031105D01*
X086220Y031105D01*
X086220Y031104D02*
X086504Y031104D01*
X086796Y031104D01*
X086504Y031104D01*
X086219Y031104D01*
X086504Y031104D01*
X086218Y031104D01*
X086218Y031103D02*
X086504Y031103D01*
X086796Y031103D01*
X086797Y031103D02*
X086504Y031103D01*
X086217Y031103D01*
X086217Y031102D02*
X086504Y031102D01*
X086797Y031102D01*
X086798Y031102D02*
X086504Y031102D01*
X086216Y031102D01*
X086216Y031101D02*
X086504Y031101D01*
X086798Y031101D01*
X086504Y031101D01*
X086215Y031101D01*
X086215Y031100D02*
X086504Y031100D01*
X086800Y031100D01*
X086504Y031100D01*
X086214Y031100D01*
X086504Y031100D01*
X086213Y031100D01*
X086212Y031099D02*
X086504Y031099D01*
X086800Y031099D01*
X086801Y031099D02*
X086504Y031099D01*
X086211Y031099D01*
X086211Y031098D02*
X086504Y031098D01*
X086801Y031098D01*
X086802Y031098D02*
X086504Y031098D01*
X086210Y031098D01*
X086210Y031097D02*
X086504Y031097D01*
X086802Y031097D01*
X086504Y031097D01*
X086209Y031097D01*
X086209Y031096D02*
X086504Y031096D01*
X086804Y031096D01*
X086504Y031096D01*
X086209Y031096D01*
X086210Y031096D02*
X086504Y031096D01*
X086208Y031096D01*
X086208Y031095D02*
X086504Y031095D01*
X086804Y031095D01*
X086805Y031095D02*
X086504Y031095D01*
X086207Y031095D01*
X086207Y031094D02*
X086504Y031094D01*
X086805Y031094D01*
X086806Y031094D02*
X086504Y031094D01*
X086206Y031094D01*
X086206Y031093D02*
X086504Y031093D01*
X086806Y031093D01*
X086504Y031093D01*
X086207Y031093D01*
X086206Y031092D02*
X086504Y031092D01*
X086808Y031092D01*
X086504Y031092D01*
X086205Y031092D01*
X086504Y031092D01*
X086204Y031092D01*
X086204Y031091D02*
X086504Y031091D01*
X086808Y031091D01*
X086809Y031091D02*
X086504Y031091D01*
X086205Y031091D01*
X086204Y031090D02*
X086504Y031090D01*
X086809Y031090D01*
X086810Y031090D02*
X086504Y031090D01*
X086203Y031090D01*
X086203Y031089D02*
X086504Y031089D01*
X086810Y031089D01*
X086504Y031089D01*
X086202Y031089D01*
X086202Y031088D02*
X086504Y031088D01*
X086812Y031088D01*
X086504Y031088D01*
X086202Y031088D01*
X086201Y031088D02*
X086504Y031088D01*
X086201Y031088D01*
X086201Y031087D02*
X086504Y031087D01*
X086812Y031087D01*
X086813Y031087D02*
X086504Y031087D01*
X086200Y031087D01*
X086200Y031086D02*
X086504Y031086D01*
X086813Y031086D01*
X086814Y031086D02*
X086504Y031086D01*
X086199Y031086D01*
X086199Y031085D02*
X086504Y031085D01*
X086814Y031085D01*
X086504Y031085D01*
X086199Y031085D01*
X086199Y031084D02*
X086504Y031084D01*
X086815Y031084D01*
X086504Y031084D01*
X086198Y031084D01*
X086504Y031084D01*
X086816Y031084D01*
X086504Y031084D01*
X086197Y031084D01*
X086197Y031083D02*
X086504Y031083D01*
X086816Y031083D01*
X086817Y031083D02*
X086504Y031083D01*
X086196Y031083D01*
X086196Y031082D02*
X086504Y031082D01*
X086817Y031082D01*
X086818Y031082D02*
X086504Y031082D01*
X086197Y031082D01*
X086196Y031081D02*
X086504Y031081D01*
X086818Y031081D01*
X086504Y031081D01*
X086195Y031081D01*
X086195Y031080D02*
X086504Y031080D01*
X086819Y031080D01*
X086504Y031080D01*
X086194Y031080D01*
X086504Y031080D01*
X086820Y031080D01*
X086504Y031080D01*
X086194Y031080D01*
X086194Y031079D02*
X086504Y031079D01*
X086820Y031079D01*
X086821Y031079D02*
X086504Y031079D01*
X086193Y031079D01*
X086193Y031078D02*
X086504Y031078D01*
X086821Y031078D01*
X086822Y031078D02*
X086504Y031078D01*
X086192Y031078D01*
X086192Y031077D02*
X086504Y031077D01*
X086822Y031077D01*
X086504Y031077D01*
X086191Y031077D01*
X086191Y031076D02*
X086504Y031076D01*
X086823Y031076D01*
X086504Y031076D01*
X086192Y031076D01*
X086191Y031076D02*
X086504Y031076D01*
X086824Y031076D01*
X086504Y031076D01*
X086190Y031076D01*
X086190Y031075D02*
X086504Y031075D01*
X086824Y031075D01*
X086504Y031075D01*
X086189Y031075D01*
X086189Y031074D02*
X086504Y031074D01*
X086825Y031074D01*
X086504Y031074D01*
X086189Y031074D01*
X086189Y031073D02*
X086504Y031073D01*
X086825Y031073D01*
X086504Y031073D01*
X086188Y031073D01*
X086188Y031072D02*
X086504Y031072D01*
X086826Y031072D01*
X086504Y031072D01*
X086187Y031072D01*
X086504Y031072D01*
X086826Y031072D01*
X086504Y031072D01*
X086186Y031072D01*
X086186Y031071D02*
X086504Y031071D01*
X086827Y031071D01*
X086504Y031071D01*
X086186Y031071D01*
X086186Y031070D02*
X086504Y031070D01*
X086827Y031070D01*
X086504Y031070D01*
X086185Y031070D01*
X086185Y031069D02*
X086504Y031069D01*
X086828Y031069D01*
X086504Y031069D01*
X086184Y031069D01*
X086184Y031068D02*
X086504Y031068D01*
X086828Y031068D01*
X086504Y031068D01*
X086184Y031068D01*
X086504Y031068D01*
X086829Y031068D01*
X086504Y031068D01*
X086183Y031068D01*
X086183Y031067D02*
X086504Y031067D01*
X086829Y031067D01*
X086504Y031067D01*
X086182Y031067D01*
X086182Y031066D02*
X086504Y031066D01*
X086830Y031066D01*
X086504Y031066D01*
X086181Y031066D01*
X086181Y031065D02*
X086504Y031065D01*
X086830Y031065D01*
X086504Y031065D01*
X086182Y031065D01*
X086181Y031064D02*
X086504Y031064D01*
X086831Y031064D01*
X086504Y031064D01*
X086180Y031064D01*
X086504Y031064D01*
X086831Y031064D01*
X086504Y031064D01*
X086181Y031064D01*
X086180Y031063D02*
X086504Y031063D01*
X086832Y031063D01*
X086504Y031063D01*
X086179Y031063D01*
X086179Y031062D02*
X086504Y031062D01*
X086832Y031062D01*
X086504Y031062D01*
X086180Y031062D01*
X086179Y031061D02*
X086504Y031061D01*
X086833Y031061D01*
X086504Y031061D01*
X086179Y031061D01*
X086179Y031060D02*
X086504Y031060D01*
X086833Y031060D01*
X086504Y031060D01*
X086178Y031060D01*
X086178Y031059D02*
X086504Y031059D01*
X086834Y031059D01*
X086504Y031059D01*
X086178Y031059D01*
X086504Y031059D01*
X086177Y031059D01*
X086177Y031058D02*
X086504Y031058D01*
X086835Y031058D01*
X086504Y031058D01*
X086177Y031058D01*
X086177Y031057D02*
X086504Y031057D01*
X086835Y031057D01*
X086504Y031057D01*
X086176Y031057D01*
X086176Y031056D02*
X086504Y031056D01*
X086836Y031056D01*
X086504Y031056D01*
X086176Y031056D01*
X086176Y031055D02*
X086504Y031055D01*
X086837Y031055D01*
X086504Y031055D01*
X086175Y031055D01*
X086504Y031055D01*
X086836Y031055D01*
X086504Y031055D01*
X086175Y031055D01*
X086175Y031054D02*
X086504Y031054D01*
X086837Y031054D01*
X086504Y031054D01*
X086174Y031054D01*
X086174Y031053D02*
X086504Y031053D01*
X086838Y031053D01*
X086504Y031053D01*
X086174Y031053D01*
X086174Y031052D02*
X086504Y031052D01*
X086838Y031052D01*
X086504Y031052D01*
X086173Y031052D01*
X086173Y031051D02*
X086504Y031051D01*
X086839Y031051D01*
X086504Y031051D01*
X086173Y031051D01*
X086504Y031051D01*
X086839Y031051D01*
X086504Y031051D01*
X086172Y031051D01*
X086172Y031050D02*
X086504Y031050D01*
X086840Y031050D01*
X086504Y031050D01*
X086173Y031050D01*
X086172Y031049D02*
X086504Y031049D01*
X086840Y031049D01*
X086504Y031049D01*
X086171Y031049D01*
X086171Y031048D02*
X086504Y031048D01*
X086841Y031048D01*
X086504Y031048D01*
X086172Y031048D01*
X086171Y031047D02*
X086504Y031047D01*
X086842Y031047D01*
X086504Y031047D01*
X086171Y031047D01*
X086170Y031047D02*
X086504Y031047D01*
X086170Y031047D01*
X086170Y031046D02*
X086504Y031046D01*
X086842Y031046D01*
X086504Y031046D01*
X086170Y031046D01*
X086170Y031045D02*
X086504Y031045D01*
X086843Y031045D01*
X086504Y031045D01*
X086169Y031045D01*
X086169Y031044D02*
X086504Y031044D01*
X086843Y031044D01*
X086504Y031044D01*
X086169Y031044D01*
X086169Y031043D02*
X086504Y031043D01*
X086844Y031043D01*
X086504Y031043D01*
X086168Y031043D01*
X086504Y031043D01*
X086844Y031043D01*
X086504Y031043D01*
X086168Y031043D01*
X086168Y031042D02*
X086504Y031042D01*
X086845Y031042D01*
X086504Y031042D01*
X086167Y031042D01*
X086167Y031041D02*
X086504Y031041D01*
X086845Y031041D01*
X086504Y031041D01*
X086167Y031041D01*
X086167Y031040D02*
X086504Y031040D01*
X086846Y031040D01*
X086504Y031040D01*
X086166Y031040D01*
X086166Y031039D02*
X086504Y031039D01*
X086847Y031039D01*
X086504Y031039D01*
X086166Y031039D01*
X086504Y031039D01*
X086165Y031039D01*
X086165Y031038D02*
X086504Y031038D01*
X086847Y031038D01*
X086848Y031038D02*
X086504Y031038D01*
X086165Y031038D01*
X086165Y031037D02*
X086504Y031037D01*
X086848Y031037D01*
X086504Y031037D01*
X086164Y031037D01*
X086164Y031036D02*
X086504Y031036D01*
X086848Y031036D01*
X086504Y031036D01*
X086164Y031036D01*
X086164Y031035D02*
X086344Y031035D01*
X086341Y031035D02*
X086163Y031035D01*
X086335Y031035D01*
X086332Y031034D02*
X086163Y031034D01*
X086162Y031034D02*
X086329Y031034D01*
X086326Y031033D02*
X086163Y031033D01*
X086162Y031033D02*
X086324Y031033D01*
X086323Y031032D02*
X086162Y031032D01*
X086322Y031032D01*
X086321Y031031D02*
X086162Y031031D01*
X086161Y031031D02*
X086319Y031031D01*
X086320Y031031D02*
X086161Y031031D01*
X086318Y031031D01*
X086317Y031030D02*
X086161Y031030D01*
X086160Y031030D02*
X086316Y031030D01*
X086315Y031029D02*
X086160Y031029D01*
X086314Y031029D01*
X086313Y031028D02*
X086160Y031028D01*
X086159Y031028D02*
X086312Y031028D01*
X086311Y031027D02*
X086160Y031027D01*
X086159Y031027D02*
X086309Y031027D01*
X086308Y031027D02*
X086159Y031027D01*
X086310Y031027D01*
X086307Y031026D02*
X086159Y031026D01*
X086306Y031026D01*
X086305Y031025D02*
X086159Y031025D01*
X086158Y031025D02*
X086304Y031025D01*
X086303Y031024D02*
X086158Y031024D01*
X086302Y031024D01*
X086302Y031023D02*
X086158Y031023D01*
X086301Y031023D01*
X086158Y031023D01*
X086157Y031023D02*
X086300Y031023D01*
X086300Y031022D02*
X086158Y031022D01*
X086157Y031022D02*
X086299Y031022D01*
X086299Y031021D02*
X086157Y031021D01*
X086298Y031021D01*
X086298Y031020D02*
X086157Y031020D01*
X086297Y031020D01*
X086297Y031019D02*
X086157Y031019D01*
X086156Y031019D02*
X086296Y031019D01*
X086156Y031019D01*
X086295Y031019D01*
X086294Y031018D02*
X086156Y031018D01*
X086294Y031018D01*
X086293Y031017D02*
X086156Y031017D01*
X086155Y031017D02*
X086293Y031017D01*
X086292Y031016D02*
X086156Y031016D01*
X086155Y031016D02*
X086292Y031016D01*
X086291Y031015D02*
X086155Y031015D01*
X086291Y031015D01*
X086290Y031015D02*
X086155Y031015D01*
X086290Y031015D01*
X086289Y031014D02*
X086155Y031014D01*
X086154Y031014D02*
X086289Y031014D01*
X086288Y031013D02*
X086155Y031013D01*
X086154Y031013D02*
X086288Y031013D01*
X086287Y031012D02*
X086154Y031012D01*
X086287Y031012D01*
X086286Y031011D02*
X086154Y031011D01*
X086286Y031011D01*
X086285Y031010D02*
X086154Y031010D01*
X086153Y031010D02*
X086284Y031010D01*
X086153Y031010D01*
X086285Y031010D01*
X086283Y031009D02*
X086153Y031009D01*
X086283Y031009D01*
X086283Y031008D02*
X086153Y031008D01*
X086152Y031008D02*
X086282Y031008D01*
X086282Y031007D02*
X086152Y031007D01*
X086152Y031006D02*
X086281Y031006D01*
X086152Y031006D01*
X086282Y031006D01*
X086282Y031007D02*
X086153Y031007D01*
X086152Y031006D02*
X086281Y031006D01*
X086280Y031005D02*
X086152Y031005D01*
X086151Y031005D02*
X086280Y031005D01*
X086280Y031004D02*
X086151Y031004D01*
X086279Y031004D01*
X086279Y031003D02*
X086151Y031003D01*
X086279Y031003D01*
X086278Y031002D02*
X086151Y031002D01*
X086278Y031002D01*
X086150Y031002D01*
X086278Y031002D01*
X086277Y031001D02*
X086150Y031001D01*
X086277Y031001D01*
X086277Y031000D02*
X086150Y031000D01*
X086276Y031000D01*
X086276Y030999D02*
X086150Y030999D01*
X086149Y030999D02*
X086276Y030999D01*
X086275Y030998D02*
X086149Y030998D01*
X086275Y030998D01*
X086149Y030998D01*
X086274Y030998D01*
X086274Y030997D02*
X086148Y030997D01*
X086149Y030997D02*
X086274Y030997D01*
X086274Y030996D02*
X086149Y030996D01*
X086148Y030996D02*
X086273Y030996D01*
X086273Y030995D02*
X086148Y030995D01*
X086273Y030995D01*
X086272Y030994D02*
X086148Y030994D01*
X086272Y030994D01*
X086148Y030994D01*
X086147Y030994D02*
X086271Y030994D01*
X086271Y030993D02*
X086147Y030993D01*
X086271Y030993D01*
X086270Y030992D02*
X086147Y030992D01*
X086270Y030992D01*
X086270Y030991D02*
X086147Y030991D01*
X086270Y030991D01*
X086270Y030990D02*
X086147Y030990D01*
X086146Y030990D02*
X086269Y030990D01*
X086146Y030990D01*
X086269Y030990D01*
X086269Y030989D02*
X086146Y030989D01*
X086269Y030989D01*
X086269Y030988D02*
X086146Y030988D01*
X086268Y030988D01*
X086268Y030987D02*
X086146Y030987D01*
X086268Y030987D01*
X086268Y030986D02*
X086146Y030986D01*
X086268Y030986D01*
X086145Y030986D01*
X086267Y030986D01*
X086267Y030985D02*
X086145Y030985D01*
X086267Y030985D01*
X086267Y030984D02*
X086145Y030984D01*
X086267Y030984D01*
X086267Y030983D02*
X086145Y030983D01*
X086266Y030983D01*
X086266Y030982D02*
X086145Y030982D01*
X086266Y030982D01*
X086145Y030982D01*
X086266Y030982D01*
X086266Y030981D02*
X086145Y030981D01*
X086265Y030981D01*
X086265Y030980D02*
X086145Y030980D01*
X086265Y030980D01*
X086265Y030979D02*
X086145Y030979D01*
X086144Y030979D02*
X086265Y030979D01*
X086265Y030978D02*
X086145Y030978D01*
X086144Y030978D02*
X086264Y030978D01*
X086144Y030978D01*
X086264Y030978D01*
X086264Y030977D02*
X086144Y030977D01*
X086264Y030977D01*
X086264Y030976D02*
X086144Y030976D01*
X086263Y030976D01*
X086263Y030975D02*
X086144Y030975D01*
X086263Y030975D01*
X086263Y030974D02*
X086144Y030974D01*
X086263Y030974D01*
X086144Y030974D01*
X086262Y030974D01*
X086262Y030973D02*
X086144Y030973D01*
X086262Y030973D01*
X086262Y030972D02*
X086144Y030972D01*
X086143Y030972D02*
X086262Y030972D01*
X086262Y030971D02*
X086143Y030971D01*
X086261Y030971D01*
X086261Y030970D02*
X086143Y030970D01*
X086261Y030970D01*
X086143Y030970D01*
X086261Y030970D01*
X086261Y030969D02*
X086143Y030969D01*
X086261Y030969D01*
X086261Y030968D02*
X086143Y030968D01*
X086261Y030968D01*
X086261Y030967D02*
X086143Y030967D01*
X086261Y030967D01*
X086261Y030966D02*
X086143Y030966D01*
X086261Y030966D01*
X086261Y030965D02*
X086143Y030965D01*
X086260Y030965D01*
X086142Y030965D01*
X086143Y030965D02*
X086261Y030965D01*
X086260Y030964D02*
X086142Y030964D01*
X086260Y030964D01*
X086260Y030963D02*
X086142Y030963D01*
X086260Y030963D01*
X086260Y030962D02*
X086142Y030962D01*
X086260Y030962D01*
X086260Y030961D02*
X086142Y030961D01*
X086260Y030961D01*
X086142Y030961D01*
X086260Y030961D01*
X086260Y030960D02*
X086142Y030960D01*
X086260Y030960D01*
X086260Y030959D02*
X086142Y030959D01*
X086260Y030959D01*
X086260Y030958D02*
X086142Y030958D01*
X086260Y030958D01*
X086259Y030957D02*
X086142Y030957D01*
X086141Y030957D02*
X086259Y030957D01*
X086141Y030957D01*
X086259Y030957D01*
X086259Y030956D02*
X086141Y030956D01*
X086259Y030956D01*
X086259Y030955D02*
X086141Y030955D01*
X086259Y030955D01*
X086259Y030954D02*
X086141Y030954D01*
X086259Y030954D01*
X086259Y030953D02*
X086141Y030953D01*
X086259Y030953D01*
X086141Y030953D01*
X086259Y030953D01*
X086259Y030952D02*
X086141Y030952D01*
X086259Y030952D01*
X086259Y030951D02*
X086141Y030951D01*
X086259Y030951D01*
X086259Y030950D02*
X086140Y030950D01*
X086258Y030950D01*
X086258Y030949D02*
X086140Y030949D01*
X086258Y030949D01*
X086140Y030949D01*
X086258Y030949D01*
X086258Y030948D02*
X086140Y030948D01*
X086258Y030948D01*
X086258Y030947D02*
X086140Y030947D01*
X086258Y030947D01*
X086258Y030946D02*
X086140Y030946D01*
X086258Y030946D01*
X086258Y030945D02*
X086140Y030945D01*
X086258Y030945D01*
X086140Y030945D01*
X086259Y030945D01*
X086259Y030944D02*
X086140Y030944D01*
X086259Y030944D01*
X086259Y030943D02*
X086141Y030943D01*
X086140Y030943D02*
X086259Y030943D01*
X086259Y030942D02*
X086141Y030942D01*
X086259Y030942D01*
X086259Y030941D02*
X086141Y030941D01*
X086259Y030941D01*
X086141Y030941D01*
X086259Y030941D01*
X086259Y030940D02*
X086141Y030940D01*
X086259Y030940D01*
X086259Y030939D02*
X086141Y030939D01*
X086259Y030939D01*
X086259Y030938D02*
X086141Y030938D01*
X086259Y030938D01*
X086259Y030937D02*
X086141Y030937D01*
X086259Y030937D01*
X086260Y030937D02*
X086141Y030937D01*
X086260Y030937D01*
X086260Y030936D02*
X086141Y030936D01*
X086260Y030936D01*
X086260Y030935D02*
X086141Y030935D01*
X086260Y030935D01*
X086260Y030934D02*
X086142Y030934D01*
X086141Y030934D02*
X086260Y030934D01*
X086260Y030933D02*
X086142Y030933D01*
X086260Y030933D01*
X086142Y030933D01*
X086260Y030933D01*
X086260Y030932D02*
X086142Y030932D01*
X086260Y030932D01*
X086260Y030931D02*
X086142Y030931D01*
X086260Y030931D01*
X086260Y030930D02*
X086142Y030930D01*
X086260Y030930D01*
X086260Y030929D02*
X086142Y030929D01*
X086261Y030929D01*
X086142Y030929D01*
X086261Y030929D01*
X086261Y030928D02*
X086142Y030928D01*
X086261Y030928D01*
X086261Y030927D02*
X086142Y030927D01*
X086261Y030927D01*
X086261Y030926D02*
X086142Y030926D01*
X086261Y030926D01*
X086261Y030925D02*
X086142Y030925D01*
X086143Y030925D02*
X086261Y030925D01*
X086143Y030925D01*
X086261Y030925D01*
X086261Y030924D02*
X086143Y030924D01*
X086262Y030924D01*
X086262Y030923D02*
X086143Y030923D01*
X086262Y030923D01*
X086262Y030922D02*
X086143Y030922D01*
X086262Y030922D01*
X086262Y030921D02*
X086143Y030921D01*
X086263Y030921D01*
X086143Y030921D01*
X086263Y030921D01*
X086263Y030920D02*
X086143Y030920D01*
X086263Y030920D01*
X086263Y030919D02*
X086143Y030919D01*
X086264Y030919D01*
X086264Y030918D02*
X086143Y030918D01*
X086264Y030918D01*
X086264Y030917D02*
X086143Y030917D01*
X086264Y030917D01*
X086264Y030916D02*
X086143Y030916D01*
X086144Y030916D02*
X086265Y030916D01*
X086144Y030916D01*
X086265Y030916D01*
X086265Y030915D02*
X086144Y030915D01*
X086265Y030915D01*
X086265Y030914D02*
X086144Y030914D01*
X086266Y030914D01*
X086266Y030913D02*
X086144Y030913D01*
X086266Y030913D01*
X086266Y030912D02*
X086144Y030912D01*
X086266Y030912D01*
X086144Y030912D01*
X086267Y030912D01*
X086267Y030911D02*
X086144Y030911D01*
X086267Y030911D01*
X086267Y030910D02*
X086144Y030910D01*
X086267Y030910D01*
X086267Y030909D02*
X086144Y030909D01*
X086268Y030909D01*
X086268Y030908D02*
X086144Y030908D01*
X086268Y030908D01*
X086145Y030908D01*
X086144Y030908D02*
X086268Y030908D01*
X086268Y030907D02*
X086145Y030907D01*
X086268Y030907D01*
X086269Y030906D02*
X086145Y030906D01*
X086269Y030906D01*
X086269Y030905D02*
X086145Y030905D01*
X086269Y030905D01*
X086269Y030904D02*
X086145Y030904D01*
X086270Y030904D01*
X086145Y030904D01*
X086269Y030904D01*
X086270Y030903D02*
X086145Y030903D01*
X086270Y030903D01*
X086271Y030902D02*
X086145Y030902D01*
X086271Y030902D01*
X086271Y030901D02*
X086145Y030901D01*
X086272Y030901D01*
X086272Y030900D02*
X086146Y030900D01*
X086273Y030900D01*
X086272Y030900D02*
X086146Y030900D01*
X086145Y030900D02*
X086272Y030900D01*
X086273Y030899D02*
X086146Y030899D01*
X086273Y030899D01*
X086274Y030898D02*
X086146Y030898D01*
X086274Y030898D01*
X086274Y030897D02*
X086147Y030897D01*
X086275Y030897D01*
X086275Y030896D02*
X086147Y030896D01*
X086275Y030896D01*
X086276Y030896D02*
X086147Y030896D01*
X086276Y030896D01*
X086276Y030895D02*
X086147Y030895D01*
X086148Y030895D02*
X086276Y030895D01*
X086277Y030894D02*
X086148Y030894D01*
X086277Y030894D01*
X086277Y030893D02*
X086148Y030893D01*
X086278Y030893D01*
X086278Y030892D02*
X086148Y030892D01*
X086278Y030892D01*
X086279Y030892D02*
X086149Y030892D01*
X086279Y030892D01*
X086279Y030891D02*
X086149Y030891D01*
X086280Y030891D01*
X086280Y030890D02*
X086149Y030890D01*
X086280Y030890D01*
X086280Y030889D02*
X086149Y030889D01*
X086150Y030889D02*
X086281Y030889D01*
X086281Y030888D02*
X086150Y030888D01*
X086281Y030888D01*
X086282Y030888D02*
X086150Y030888D01*
X086282Y030888D01*
X086282Y030887D02*
X086150Y030887D01*
X086283Y030887D01*
X086283Y030886D02*
X086151Y030886D01*
X086283Y030886D01*
X086284Y030885D02*
X086151Y030885D01*
X086284Y030885D01*
X086284Y030884D02*
X086151Y030884D01*
X086285Y030884D01*
X086151Y030884D01*
X086286Y030884D01*
X086286Y030883D02*
X086152Y030883D01*
X086287Y030883D01*
X086287Y030882D02*
X086152Y030882D01*
X086288Y030882D01*
X086288Y030881D02*
X086152Y030881D01*
X086289Y030881D01*
X086289Y030880D02*
X086152Y030880D01*
X086153Y030880D02*
X086290Y030880D01*
X086291Y030880D02*
X086153Y030880D01*
X086291Y030880D01*
X086292Y030879D02*
X086153Y030879D01*
X086292Y030879D01*
X086293Y030878D02*
X086153Y030878D01*
X086293Y030878D01*
X086294Y030877D02*
X086154Y030877D01*
X086294Y030877D01*
X086295Y030876D02*
X086154Y030876D01*
X086295Y030876D01*
X086296Y030876D02*
X086154Y030876D01*
X086296Y030876D01*
X086297Y030875D02*
X086154Y030875D01*
X086155Y030875D02*
X086297Y030875D01*
X086298Y030874D02*
X086155Y030874D01*
X086298Y030874D01*
X086299Y030873D02*
X086155Y030873D01*
X086299Y030873D01*
X086300Y030872D02*
X086155Y030872D01*
X086300Y030872D01*
X086301Y030871D02*
X086156Y030871D01*
X086303Y030871D01*
X086302Y030871D02*
X086156Y030871D01*
X086302Y030871D01*
X086304Y030870D02*
X086156Y030870D01*
X086305Y030870D01*
X086306Y030869D02*
X086156Y030869D01*
X086157Y030869D02*
X086307Y030869D01*
X086308Y030868D02*
X086157Y030868D01*
X086308Y030868D01*
X086309Y030867D02*
X086157Y030867D01*
X086311Y030867D01*
X086310Y030867D02*
X086157Y030867D01*
X086312Y030867D01*
X086313Y030866D02*
X086158Y030866D01*
X086314Y030866D01*
X086315Y030865D02*
X086158Y030865D01*
X086316Y030865D01*
X086317Y030864D02*
X086158Y030864D01*
X086318Y030864D01*
X086319Y030863D02*
X086158Y030863D01*
X086159Y030863D02*
X086320Y030863D01*
X086321Y030863D02*
X086159Y030863D01*
X086322Y030863D01*
X086323Y030862D02*
X086159Y030862D01*
X086324Y030862D01*
X086328Y030861D02*
X086159Y030861D01*
X086331Y030861D01*
X086334Y030860D02*
X086160Y030860D01*
X086337Y030860D01*
X086340Y030859D02*
X086160Y030859D01*
X086346Y030859D01*
X086343Y030859D02*
X086160Y030859D01*
X086504Y030859D01*
X086844Y030859D01*
X086663Y030859D01*
X086666Y030859D02*
X086845Y030859D01*
X086669Y030859D01*
X086672Y030860D02*
X086845Y030860D01*
X086675Y030860D01*
X086678Y030861D02*
X086846Y030861D01*
X086681Y030861D01*
X086684Y030862D02*
X086846Y030862D01*
X086685Y030862D01*
X086686Y030863D02*
X086847Y030863D01*
X086687Y030863D01*
X086688Y030863D02*
X086847Y030863D01*
X086689Y030863D01*
X086690Y030864D02*
X086848Y030864D01*
X086691Y030864D01*
X086692Y030865D02*
X086848Y030865D01*
X086693Y030865D01*
X086694Y030866D02*
X086849Y030866D01*
X086848Y030866D02*
X086695Y030866D01*
X086696Y030867D02*
X086849Y030867D01*
X086697Y030867D01*
X086698Y030867D02*
X086849Y030867D01*
X086699Y030867D01*
X086700Y030868D02*
X086849Y030868D01*
X086701Y030868D01*
X086702Y030869D02*
X086850Y030869D01*
X086703Y030869D01*
X086704Y030870D02*
X086850Y030870D01*
X086705Y030870D01*
X086706Y030871D02*
X086850Y030871D01*
X086706Y030871D01*
X086707Y030871D02*
X086851Y030871D01*
X086850Y030871D02*
X086707Y030871D01*
X086708Y030872D02*
X086851Y030872D01*
X086708Y030872D01*
X086709Y030873D02*
X086851Y030873D01*
X086710Y030873D01*
X086710Y030874D02*
X086851Y030874D01*
X086711Y030874D01*
X086711Y030875D02*
X086852Y030875D01*
X086852Y030876D02*
X086712Y030876D01*
X086713Y030876D02*
X086852Y030876D01*
X086714Y030876D01*
X086713Y030876D02*
X086852Y030876D01*
X086852Y030877D02*
X086715Y030877D01*
X086714Y030877D02*
X086853Y030877D01*
X086853Y030878D02*
X086715Y030878D01*
X086716Y030878D02*
X086853Y030878D01*
X086853Y030879D02*
X086717Y030879D01*
X086717Y030880D02*
X086853Y030880D01*
X086718Y030880D01*
X086854Y030880D01*
X086719Y030880D01*
X086719Y030881D02*
X086854Y030881D01*
X086720Y030881D01*
X086721Y030882D02*
X086854Y030882D01*
X086721Y030882D01*
X086722Y030883D02*
X086855Y030883D01*
X086855Y030884D02*
X086723Y030884D01*
X086855Y030884D01*
X086724Y030884D01*
X086855Y030884D01*
X086855Y030885D02*
X086725Y030885D01*
X086855Y030885D01*
X086856Y030886D02*
X086725Y030886D01*
X086856Y030886D01*
X086856Y030887D02*
X086726Y030887D01*
X086856Y030887D01*
X086856Y030888D02*
X086727Y030888D01*
X086856Y030888D01*
X086726Y030888D01*
X086727Y030888D02*
X086856Y030888D01*
X086857Y030889D02*
X086728Y030889D01*
X086857Y030889D01*
X086857Y030890D02*
X086729Y030890D01*
X086728Y030890D02*
X086857Y030890D01*
X086857Y030891D02*
X086729Y030891D01*
X086857Y030891D01*
X086858Y030892D02*
X086730Y030892D01*
X086858Y030892D01*
X086730Y030892D01*
X086729Y030892D02*
X086858Y030892D01*
X086858Y030893D02*
X086731Y030893D01*
X086858Y030893D01*
X086858Y030894D02*
X086732Y030894D01*
X086731Y030894D02*
X086858Y030894D01*
X086859Y030895D02*
X086732Y030895D01*
X086859Y030895D01*
X086859Y030896D02*
X086733Y030896D01*
X086859Y030896D01*
X086733Y030896D01*
X086859Y030896D01*
X086860Y030897D02*
X086734Y030897D01*
X086860Y030897D01*
X086860Y030898D02*
X086734Y030898D01*
X086735Y030898D02*
X086860Y030898D01*
X086860Y030899D02*
X086735Y030899D01*
X086860Y030899D01*
X086860Y030900D02*
X086736Y030900D01*
X086861Y030900D01*
X086737Y030900D01*
X086737Y030901D02*
X086861Y030901D01*
X086737Y030901D01*
X086737Y030902D02*
X086861Y030902D01*
X086738Y030902D01*
X086738Y030903D02*
X086862Y030903D01*
X086738Y030903D01*
X086739Y030904D02*
X086862Y030904D01*
X086739Y030904D01*
X086862Y030904D01*
X086739Y030904D01*
X086739Y030905D02*
X086862Y030905D01*
X086739Y030905D01*
X086740Y030906D02*
X086863Y030906D01*
X086862Y030906D02*
X086740Y030906D01*
X086740Y030907D02*
X086863Y030907D01*
X086740Y030907D01*
X086740Y030908D02*
X086863Y030908D01*
X086741Y030908D01*
X086863Y030908D01*
X086740Y030908D01*
X086741Y030909D02*
X086863Y030909D01*
X086741Y030909D01*
X086741Y030910D02*
X086863Y030910D01*
X086741Y030910D01*
X086742Y030911D02*
X086863Y030911D01*
X086742Y030911D01*
X086742Y030912D02*
X086863Y030912D01*
X086742Y030912D01*
X086863Y030912D01*
X086742Y030912D01*
X086743Y030913D02*
X086864Y030913D01*
X086863Y030913D02*
X086743Y030913D01*
X086743Y030914D02*
X086864Y030914D01*
X086743Y030914D01*
X086743Y030915D02*
X086864Y030915D01*
X086743Y030915D01*
X086744Y030916D02*
X086864Y030916D01*
X086744Y030916D01*
X086864Y030916D01*
X086744Y030916D01*
X086744Y030917D02*
X086864Y030917D01*
X086744Y030917D01*
X086745Y030918D02*
X086864Y030918D01*
X086745Y030918D01*
X086745Y030919D02*
X086864Y030919D01*
X086745Y030919D01*
X086745Y030920D02*
X086864Y030920D01*
X086745Y030920D01*
X086746Y030921D02*
X086865Y030921D01*
X086746Y030921D01*
X086865Y030921D01*
X086746Y030921D01*
X086746Y030922D02*
X086865Y030922D01*
X086746Y030922D01*
X086747Y030923D02*
X086865Y030923D01*
X086747Y030923D01*
X086747Y030924D02*
X086865Y030924D01*
X086747Y030924D01*
X086747Y030925D02*
X086865Y030925D01*
X086747Y030925D01*
X086865Y030925D01*
X086747Y030925D01*
X086747Y030926D02*
X086865Y030926D01*
X086748Y030926D01*
X086748Y030927D02*
X086865Y030927D01*
X086748Y030927D01*
X086748Y030928D02*
X086866Y030928D01*
X086748Y030928D01*
X086748Y030929D02*
X086866Y030929D01*
X086748Y030929D01*
X086866Y030929D01*
X086748Y030929D01*
X086748Y030930D02*
X086866Y030930D01*
X086748Y030930D01*
X086748Y030931D02*
X086866Y030931D01*
X086748Y030931D01*
X086748Y030932D02*
X086866Y030932D01*
X086748Y030932D01*
X086748Y030933D02*
X086866Y030933D01*
X086748Y030933D01*
X086866Y030933D01*
X086748Y030933D01*
X086749Y030934D02*
X086867Y030934D01*
X086866Y030934D02*
X086749Y030934D01*
X086749Y030935D02*
X086867Y030935D01*
X086749Y030935D01*
X086749Y030936D02*
X086867Y030936D01*
X086749Y030936D01*
X086749Y030937D02*
X086867Y030937D01*
X086749Y030937D01*
X086867Y030937D01*
X086749Y030937D01*
X086749Y030938D02*
X086867Y030938D01*
X086749Y030938D01*
X086749Y030939D02*
X086867Y030939D01*
X086749Y030939D01*
X086749Y030940D02*
X086867Y030940D01*
X086749Y030940D01*
X086749Y030941D02*
X086867Y030941D01*
X086749Y030941D01*
X086868Y030941D01*
X086750Y030941D01*
X086750Y030942D02*
X086868Y030942D01*
X086750Y030942D01*
X086750Y030943D02*
X086868Y030943D01*
X086750Y030943D01*
X086750Y030944D02*
X086868Y030944D01*
X086750Y030944D01*
X086750Y030945D02*
X086868Y030945D01*
X086750Y030945D01*
X086868Y030945D01*
X086750Y030945D01*
X086750Y030946D02*
X086868Y030946D01*
X086750Y030946D01*
X086750Y030947D02*
X086868Y030947D01*
X086750Y030947D01*
X086750Y030948D02*
X086868Y030948D01*
X086750Y030948D01*
X086750Y030949D02*
X086868Y030949D01*
X086750Y030949D01*
X086868Y030949D01*
X086750Y030949D01*
X086750Y030950D02*
X086868Y030950D01*
X086750Y030950D01*
X086750Y030951D02*
X086868Y030951D01*
X086750Y030951D01*
X086750Y030952D02*
X086868Y030952D01*
X086750Y030952D01*
X086750Y030953D02*
X086868Y030953D01*
X086750Y030953D01*
X086749Y030953D02*
X086868Y030953D01*
X086749Y030953D01*
X086749Y030954D02*
X086868Y030954D01*
X086749Y030954D01*
X086749Y030955D02*
X086867Y030955D01*
X086868Y030955D02*
X086749Y030955D01*
X086749Y030956D02*
X086867Y030956D01*
X086749Y030956D01*
X086749Y030957D02*
X086867Y030957D01*
X086749Y030957D01*
X086867Y030957D01*
X086749Y030957D01*
X086749Y030958D02*
X086867Y030958D01*
X086749Y030958D01*
X086749Y030959D02*
X086867Y030959D01*
X086749Y030959D01*
X086749Y030960D02*
X086867Y030960D01*
X086749Y030960D01*
X086749Y030961D02*
X086867Y030961D01*
X086748Y030961D01*
X086867Y030961D01*
X086748Y030961D01*
X086748Y030962D02*
X086867Y030962D01*
X086748Y030962D01*
X086748Y030963D02*
X086867Y030963D01*
X086748Y030963D01*
X086748Y030964D02*
X086866Y030964D01*
X086867Y030964D02*
X086748Y030964D01*
X086748Y030965D02*
X086866Y030965D01*
X086748Y030965D01*
X086866Y030965D01*
X086748Y030965D01*
X086748Y030966D02*
X086866Y030966D01*
X086748Y030966D01*
X086748Y030967D02*
X086866Y030967D01*
X086748Y030967D01*
X086748Y030968D02*
X086866Y030968D01*
X086748Y030968D01*
X086747Y030969D02*
X086866Y030969D01*
X086747Y030969D01*
X086747Y030970D02*
X086866Y030970D01*
X086747Y030970D01*
X086866Y030970D01*
X086747Y030970D01*
X086747Y030971D02*
X086866Y030971D01*
X086747Y030971D01*
X086747Y030972D02*
X086866Y030972D01*
X086746Y030972D01*
X086746Y030973D02*
X086865Y030973D01*
X086866Y030973D02*
X086746Y030973D01*
X086746Y030974D02*
X086865Y030974D01*
X086745Y030974D01*
X086746Y030974D02*
X086865Y030974D01*
X086746Y030974D01*
X086745Y030975D02*
X086865Y030975D01*
X086745Y030975D01*
X086745Y030976D02*
X086865Y030976D01*
X086745Y030976D01*
X086745Y030977D02*
X086865Y030977D01*
X086744Y030977D01*
X086744Y030978D02*
X086865Y030978D01*
X086744Y030978D01*
X086865Y030978D01*
X086744Y030978D01*
X086744Y030979D02*
X086865Y030979D01*
X086743Y030979D01*
X086743Y030980D02*
X086865Y030980D01*
X086743Y030980D01*
X086743Y030981D02*
X086865Y030981D01*
X086743Y030981D01*
X086743Y030982D02*
X086865Y030982D01*
X086864Y030982D02*
X086742Y030982D01*
X086864Y030982D01*
X086742Y030982D01*
X086742Y030983D02*
X086864Y030983D01*
X086742Y030983D01*
X086742Y030984D02*
X086864Y030984D01*
X086741Y030984D01*
X086741Y030985D02*
X086864Y030985D01*
X086741Y030985D01*
X086741Y030986D02*
X086864Y030986D01*
X086741Y030986D01*
X086864Y030986D01*
X086740Y030986D01*
X086740Y030987D02*
X086864Y030987D01*
X086740Y030987D01*
X086740Y030988D02*
X086864Y030988D01*
X086740Y030988D01*
X086740Y030989D02*
X086864Y030989D01*
X086739Y030989D01*
X086739Y030990D02*
X086864Y030990D01*
X086739Y030990D01*
X086864Y030990D01*
X086863Y030990D02*
X086739Y030990D01*
X086739Y030991D02*
X086863Y030991D01*
X086738Y030991D01*
X086738Y030992D02*
X086863Y030992D01*
X086738Y030992D01*
X086738Y030993D02*
X086863Y030993D01*
X086737Y030993D01*
X086737Y030994D02*
X086863Y030994D01*
X086737Y030994D01*
X086736Y030994D02*
X086863Y030994D01*
X086736Y030994D01*
X086736Y030995D02*
X086863Y030995D01*
X086862Y030995D02*
X086735Y030995D01*
X086735Y030996D02*
X086862Y030996D01*
X086735Y030996D01*
X086735Y030997D02*
X086862Y030997D01*
X086734Y030997D01*
X086734Y030998D02*
X086862Y030998D01*
X086734Y030998D01*
X086733Y030998D02*
X086861Y030998D01*
X086733Y030998D01*
X086733Y030999D02*
X086861Y030999D01*
X086732Y030999D01*
X086732Y031000D02*
X086861Y031000D01*
X086732Y031000D01*
X086731Y031001D02*
X086861Y031001D01*
X086860Y031001D02*
X086731Y031001D01*
X086731Y031002D02*
X086860Y031002D01*
X086731Y031002D01*
X086730Y031002D02*
X086860Y031002D01*
X086730Y031002D01*
X086730Y031003D02*
X086860Y031003D01*
X086729Y031003D01*
X086729Y031004D02*
X086859Y031004D01*
X086729Y031004D01*
X086728Y031005D02*
X086859Y031005D01*
X086728Y031005D01*
X086728Y031006D02*
X086859Y031006D01*
X086727Y031006D01*
X086859Y031006D01*
X086727Y031006D01*
X086727Y031007D02*
X086858Y031007D01*
X086726Y031007D01*
X086726Y031008D02*
X086858Y031008D01*
X086726Y031008D01*
X086725Y031009D02*
X086858Y031009D01*
X086725Y031009D01*
X086725Y031010D02*
X086858Y031010D01*
X086857Y031010D02*
X086724Y031010D01*
X086857Y031010D01*
X086723Y031010D01*
X086723Y031011D02*
X086857Y031011D01*
X086722Y031011D01*
X086722Y031012D02*
X086857Y031012D01*
X086721Y031012D01*
X086721Y031013D02*
X086856Y031013D01*
X086720Y031013D01*
X086720Y031014D02*
X086856Y031014D01*
X086719Y031014D01*
X086719Y031015D02*
X086856Y031015D01*
X086718Y031015D01*
X086856Y031015D01*
X086855Y031015D02*
X086717Y031015D01*
X086717Y031016D02*
X086855Y031016D01*
X086716Y031016D01*
X086715Y031017D02*
X086855Y031017D01*
X086715Y031017D01*
X086714Y031018D02*
X086855Y031018D01*
X086714Y031018D01*
X086713Y031019D02*
X086854Y031019D01*
X086712Y031019D01*
X086854Y031019D01*
X086713Y031019D01*
X086711Y031020D02*
X086854Y031020D01*
X086711Y031020D01*
X086710Y031021D02*
X086854Y031021D01*
X086853Y031021D02*
X086710Y031021D01*
X086709Y031022D02*
X086853Y031022D01*
X086709Y031022D01*
X086708Y031023D02*
X086853Y031023D01*
X086707Y031023D01*
X086853Y031023D01*
X086708Y031023D01*
X086706Y031024D02*
X086852Y031024D01*
X086705Y031024D01*
X086704Y031025D02*
X086852Y031025D01*
X086703Y031025D01*
X086702Y031026D02*
X086852Y031026D01*
X086701Y031026D01*
X086700Y031027D02*
X086852Y031027D01*
X086851Y031027D02*
X086699Y031027D01*
X086698Y031027D02*
X086851Y031027D01*
X086697Y031027D01*
X086696Y031028D02*
X086851Y031028D01*
X086696Y031028D01*
X086695Y031029D02*
X086851Y031029D01*
X086694Y031029D01*
X086693Y031030D02*
X086850Y031030D01*
X086692Y031030D01*
X086691Y031031D02*
X086850Y031031D01*
X086689Y031031D01*
X086690Y031031D02*
X086850Y031031D01*
X086688Y031031D01*
X086687Y031032D02*
X086850Y031032D01*
X086686Y031032D01*
X086685Y031033D02*
X086849Y031033D01*
X086682Y031033D01*
X086679Y031034D02*
X086849Y031034D01*
X086676Y031034D01*
X086673Y031035D02*
X086849Y031035D01*
X086670Y031035D01*
X086667Y031035D02*
X086849Y031035D01*
X086848Y031035D02*
X086664Y031035D01*
X086704Y031149D02*
X086504Y031149D01*
X086316Y031149D01*
X086352Y031153D02*
X086504Y031153D01*
X086360Y031153D01*
X086338Y031035D02*
X086163Y031035D01*
X086160Y030858D02*
X086504Y030858D01*
X086844Y030858D01*
X086504Y030858D01*
X086160Y030858D01*
X086161Y030857D02*
X086504Y030857D01*
X086843Y030857D01*
X086504Y030857D01*
X086161Y030857D01*
X086161Y030856D02*
X086504Y030856D01*
X086843Y030856D01*
X086504Y030856D01*
X086161Y030856D01*
X086162Y030855D02*
X086504Y030855D01*
X086842Y030855D01*
X086504Y030855D01*
X086162Y030855D01*
X086504Y030855D01*
X086163Y030855D01*
X086163Y030854D02*
X086504Y030854D01*
X086841Y030854D01*
X086842Y030854D02*
X086504Y030854D01*
X086163Y030854D01*
X086163Y030853D02*
X086504Y030853D01*
X086841Y030853D01*
X086504Y030853D01*
X086164Y030853D01*
X086164Y030852D02*
X086504Y030852D01*
X086841Y030852D01*
X086504Y030852D01*
X086164Y030852D01*
X086164Y030851D02*
X086504Y030851D01*
X086840Y030851D01*
X086504Y030851D01*
X086165Y030851D01*
X086504Y030851D01*
X086840Y030851D01*
X086504Y030851D01*
X086165Y030851D01*
X086165Y030850D02*
X086504Y030850D01*
X086839Y030850D01*
X086504Y030850D01*
X086166Y030850D01*
X086166Y030849D02*
X086504Y030849D01*
X086839Y030849D01*
X086504Y030849D01*
X086166Y030849D01*
X086166Y030848D02*
X086504Y030848D01*
X086838Y030848D01*
X086504Y030848D01*
X086167Y030848D01*
X086167Y030847D02*
X086504Y030847D01*
X086838Y030847D01*
X086504Y030847D01*
X086167Y030847D01*
X086504Y030847D01*
X086837Y030847D01*
X086504Y030847D01*
X086168Y030847D01*
X086168Y030846D02*
X086504Y030846D01*
X086837Y030846D01*
X086504Y030846D01*
X086168Y030846D01*
X086168Y030845D02*
X086504Y030845D01*
X086836Y030845D01*
X086504Y030845D01*
X086169Y030845D01*
X086169Y030844D02*
X086504Y030844D01*
X086836Y030844D01*
X086504Y030844D01*
X086169Y030844D01*
X086169Y030843D02*
X086504Y030843D01*
X086835Y030843D01*
X086504Y030843D01*
X086835Y030843D01*
X086504Y030843D01*
X086170Y030843D01*
X086504Y030843D01*
X086170Y030843D01*
X086170Y030842D02*
X086504Y030842D01*
X086834Y030842D01*
X086504Y030842D01*
X086171Y030842D01*
X086171Y030841D02*
X086504Y030841D01*
X086834Y030841D01*
X086504Y030841D01*
X086171Y030841D01*
X086171Y030840D02*
X086504Y030840D01*
X086833Y030840D01*
X086834Y030840D02*
X086504Y030840D01*
X086172Y030840D01*
X086172Y030839D02*
X086504Y030839D01*
X086833Y030839D01*
X086504Y030839D01*
X086172Y030839D01*
X086504Y030839D01*
X086832Y030839D01*
X086833Y030839D02*
X086504Y030839D01*
X086173Y030839D01*
X086173Y030838D02*
X086504Y030838D01*
X086832Y030838D01*
X086504Y030838D01*
X086173Y030838D01*
X086173Y030837D02*
X086504Y030837D01*
X086831Y030837D01*
X086832Y030837D02*
X086504Y030837D01*
X086174Y030837D01*
X086174Y030836D02*
X086504Y030836D01*
X086831Y030836D01*
X086504Y030836D01*
X086174Y030836D01*
X086174Y030835D02*
X086504Y030835D01*
X086830Y030835D01*
X086504Y030835D01*
X086831Y030835D01*
X086830Y030835D02*
X086504Y030835D01*
X086175Y030835D01*
X086504Y030835D01*
X086175Y030835D01*
X086175Y030834D02*
X086504Y030834D01*
X086830Y030834D01*
X086504Y030834D01*
X086176Y030834D01*
X086176Y030833D02*
X086504Y030833D01*
X086829Y030833D01*
X086504Y030833D01*
X086176Y030833D01*
X086176Y030832D02*
X086504Y030832D01*
X086829Y030832D01*
X086504Y030832D01*
X086177Y030832D01*
X086177Y030831D02*
X086504Y030831D01*
X086828Y030831D01*
X086504Y030831D01*
X086177Y030831D01*
X086504Y030831D01*
X086828Y030831D01*
X086504Y030831D01*
X086178Y030831D01*
X086178Y030830D02*
X086504Y030830D01*
X086827Y030830D01*
X086504Y030830D01*
X086178Y030830D01*
X086178Y030829D02*
X086504Y030829D01*
X086827Y030829D01*
X086504Y030829D01*
X086179Y030829D01*
X086179Y030828D02*
X086504Y030828D01*
X086826Y030828D01*
X086504Y030828D01*
X086179Y030828D01*
X086179Y030827D02*
X086504Y030827D01*
X086825Y030827D01*
X086504Y030827D01*
X086180Y030827D01*
X086504Y030827D01*
X086825Y030827D01*
X086504Y030827D01*
X086180Y030827D01*
X086180Y030826D02*
X086504Y030826D01*
X086824Y030826D01*
X086504Y030826D01*
X086181Y030826D01*
X086181Y030825D02*
X086504Y030825D01*
X086823Y030825D01*
X086504Y030825D01*
X086181Y030825D01*
X086181Y030824D02*
X086504Y030824D01*
X086822Y030824D01*
X086823Y030824D02*
X086504Y030824D01*
X086182Y030824D01*
X086182Y030823D02*
X086504Y030823D01*
X086822Y030823D01*
X086504Y030823D01*
X086182Y030823D01*
X086182Y030822D02*
X086504Y030822D01*
X086820Y030822D01*
X086504Y030822D01*
X086183Y030822D01*
X086504Y030822D01*
X086821Y030822D01*
X086504Y030822D01*
X086183Y030822D01*
X086183Y030821D02*
X086504Y030821D01*
X086820Y030821D01*
X086504Y030821D01*
X086184Y030821D01*
X086184Y030820D02*
X086504Y030820D01*
X086819Y030820D01*
X086504Y030820D01*
X086184Y030820D01*
X086184Y030819D02*
X086504Y030819D01*
X086818Y030819D01*
X086504Y030819D01*
X086185Y030819D01*
X086185Y030818D02*
X086504Y030818D01*
X086817Y030818D01*
X086504Y030818D01*
X086186Y030818D01*
X086504Y030818D01*
X086817Y030818D01*
X086818Y030818D02*
X086504Y030818D01*
X086185Y030818D01*
X086186Y030817D02*
X086504Y030817D01*
X086816Y030817D01*
X086504Y030817D01*
X086187Y030817D01*
X086187Y030816D02*
X086504Y030816D01*
X086815Y030816D01*
X086504Y030816D01*
X086188Y030816D01*
X086188Y030815D02*
X086504Y030815D01*
X086815Y030815D01*
X086504Y030815D01*
X086188Y030815D01*
X086189Y030814D02*
X086504Y030814D01*
X086813Y030814D01*
X086504Y030814D01*
X086190Y030814D01*
X086504Y030814D01*
X086814Y030814D01*
X086504Y030814D01*
X086189Y030814D01*
X086191Y030813D02*
X086504Y030813D01*
X086812Y030813D01*
X086813Y030813D02*
X086504Y030813D01*
X086191Y030813D01*
X086191Y030812D02*
X086504Y030812D01*
X086812Y030812D01*
X086504Y030812D01*
X086192Y030812D01*
X086192Y030811D02*
X086504Y030811D01*
X086811Y030811D01*
X086504Y030811D01*
X086193Y030811D01*
X086193Y030810D02*
X086504Y030810D01*
X086809Y030810D01*
X086810Y030810D02*
X086504Y030810D01*
X086194Y030810D01*
X086504Y030810D01*
X086810Y030810D01*
X086504Y030810D01*
X086193Y030810D01*
X086195Y030809D02*
X086504Y030809D01*
X086809Y030809D01*
X086504Y030809D01*
X086195Y030809D01*
X086195Y030808D02*
X086504Y030808D01*
X086808Y030808D01*
X086504Y030808D01*
X086196Y030808D01*
X086196Y030807D02*
X086504Y030807D01*
X086807Y030807D01*
X086504Y030807D01*
X086197Y030807D01*
X086197Y030806D02*
X086504Y030806D01*
X086806Y030806D01*
X086504Y030806D01*
X086198Y030806D01*
X086504Y030806D01*
X086807Y030806D01*
X086504Y030806D01*
X086197Y030806D01*
X086199Y030805D02*
X086504Y030805D01*
X086805Y030805D01*
X086504Y030805D01*
X086199Y030805D01*
X086199Y030804D02*
X086504Y030804D01*
X086804Y030804D01*
X086805Y030804D02*
X086504Y030804D01*
X086200Y030804D01*
X086200Y030803D02*
X086504Y030803D01*
X086804Y030803D01*
X086504Y030803D01*
X086201Y030803D01*
X086201Y030802D02*
X086504Y030802D01*
X086802Y030802D01*
X086504Y030802D01*
X086202Y030802D01*
X086504Y030802D01*
X086803Y030802D01*
X086504Y030802D01*
X086201Y030802D01*
X086203Y030801D02*
X086504Y030801D01*
X086802Y030801D01*
X086504Y030801D01*
X086203Y030801D01*
X086203Y030800D02*
X086504Y030800D01*
X086801Y030800D01*
X086504Y030800D01*
X086204Y030800D01*
X086204Y030799D02*
X086504Y030799D01*
X086800Y030799D01*
X086504Y030799D01*
X086205Y030799D01*
X086205Y030798D02*
X086504Y030798D01*
X086799Y030798D01*
X086504Y030798D01*
X086800Y030798D01*
X086799Y030798D02*
X086504Y030798D01*
X086205Y030798D01*
X086206Y030798D02*
X086504Y030798D01*
X086206Y030798D01*
X086207Y030797D02*
X086504Y030797D01*
X086798Y030797D01*
X086504Y030797D01*
X086207Y030797D01*
X086207Y030796D02*
X086504Y030796D01*
X086797Y030796D01*
X086504Y030796D01*
X086208Y030796D01*
X086208Y030795D02*
X086504Y030795D01*
X086796Y030795D01*
X086504Y030795D01*
X086209Y030795D01*
X086209Y030794D02*
X086504Y030794D01*
X086795Y030794D01*
X086504Y030794D01*
X086209Y030794D01*
X086210Y030794D02*
X086504Y030794D01*
X086794Y030794D01*
X086504Y030794D01*
X086210Y030794D01*
X086211Y030793D02*
X086504Y030793D01*
X086792Y030793D01*
X086504Y030793D01*
X086211Y030793D01*
X086211Y030792D02*
X086504Y030792D01*
X086791Y030792D01*
X086504Y030792D01*
X086212Y030792D01*
X086212Y030791D02*
X086504Y030791D01*
X086790Y030791D01*
X086504Y030791D01*
X086213Y030791D01*
X086213Y030790D02*
X086504Y030790D01*
X086789Y030790D01*
X086504Y030790D01*
X086213Y030790D01*
X086214Y030790D02*
X086504Y030790D01*
X086788Y030790D01*
X086504Y030790D01*
X086214Y030790D01*
X086215Y030789D02*
X086504Y030789D01*
X086787Y030789D01*
X086504Y030789D01*
X086215Y030789D01*
X086215Y030788D02*
X086504Y030788D01*
X086786Y030788D01*
X086504Y030788D01*
X086216Y030788D01*
X086216Y030787D02*
X086504Y030787D01*
X086785Y030787D01*
X086504Y030787D01*
X086217Y030787D01*
X086217Y030786D02*
X086504Y030786D01*
X086784Y030786D01*
X086504Y030786D01*
X086217Y030786D01*
X086218Y030786D02*
X086504Y030786D01*
X086783Y030786D01*
X086504Y030786D01*
X086218Y030786D01*
X086219Y030785D02*
X086504Y030785D01*
X086782Y030785D01*
X086504Y030785D01*
X086220Y030785D01*
X086220Y030784D02*
X086504Y030784D01*
X086781Y030784D01*
X086504Y030784D01*
X086221Y030784D01*
X086222Y030783D02*
X086504Y030783D01*
X086780Y030783D01*
X086504Y030783D01*
X086222Y030783D01*
X086223Y030782D02*
X086504Y030782D01*
X086779Y030782D01*
X086504Y030782D01*
X086224Y030782D01*
X086504Y030782D01*
X086777Y030782D01*
X086778Y030782D02*
X086504Y030782D01*
X086225Y030782D01*
X086225Y030781D02*
X086504Y030781D01*
X086776Y030781D01*
X086504Y030781D01*
X086226Y030781D01*
X086227Y030780D02*
X086504Y030780D01*
X086775Y030780D01*
X086504Y030780D01*
X086227Y030780D01*
X086228Y030779D02*
X086504Y030779D01*
X086774Y030779D01*
X086504Y030779D01*
X086229Y030779D01*
X086229Y030778D02*
X086504Y030778D01*
X086773Y030778D01*
X086504Y030778D01*
X086230Y030778D01*
X086231Y030778D02*
X086504Y030778D01*
X086772Y030778D01*
X086504Y030778D01*
X086231Y030778D01*
X086232Y030777D02*
X086504Y030777D01*
X086771Y030777D01*
X086504Y030777D01*
X086233Y030777D01*
X086233Y030776D02*
X086504Y030776D01*
X086770Y030776D01*
X086504Y030776D01*
X086234Y030776D01*
X086234Y030775D02*
X086504Y030775D01*
X086769Y030775D01*
X086504Y030775D01*
X086235Y030775D01*
X086236Y030774D02*
X086504Y030774D01*
X086768Y030774D01*
X086504Y030774D01*
X086236Y030774D01*
X086237Y030773D02*
X086504Y030773D01*
X086766Y030773D01*
X086504Y030773D01*
X086238Y030773D01*
X086504Y030773D01*
X086239Y030773D01*
X086240Y030772D02*
X086504Y030772D01*
X086765Y030772D01*
X086504Y030772D01*
X086240Y030772D01*
X086241Y030771D02*
X086504Y030771D01*
X086763Y030771D01*
X086504Y030771D01*
X086241Y030771D01*
X086242Y030770D02*
X086504Y030770D01*
X086761Y030770D01*
X086504Y030770D01*
X086243Y030770D01*
X086243Y030769D02*
X086504Y030769D01*
X086758Y030769D01*
X086504Y030769D01*
X086245Y030769D01*
X086504Y030769D01*
X086760Y030769D01*
X086504Y030769D01*
X086244Y030769D01*
X086246Y030768D02*
X086504Y030768D01*
X086756Y030768D01*
X086504Y030768D01*
X086247Y030768D01*
X086247Y030767D02*
X086504Y030767D01*
X086755Y030767D01*
X086504Y030767D01*
X086248Y030767D01*
X086248Y030766D02*
X086504Y030766D01*
X086753Y030766D01*
X086504Y030766D01*
X086249Y030766D01*
X086250Y030765D02*
X086504Y030765D01*
X086750Y030765D01*
X086504Y030765D01*
X086251Y030765D01*
X086250Y030765D02*
X086504Y030765D01*
X086252Y030765D01*
X086252Y030764D02*
X086504Y030764D01*
X086748Y030764D01*
X086504Y030764D01*
X086253Y030764D01*
X086254Y030763D02*
X086504Y030763D01*
X086746Y030763D01*
X086504Y030763D01*
X086254Y030763D01*
X086255Y030762D02*
X086504Y030762D01*
X086745Y030762D01*
X086504Y030762D01*
X086256Y030762D01*
X086256Y030761D02*
X086504Y030761D01*
X086741Y030761D01*
X086504Y030761D01*
X086258Y030761D01*
X086259Y030761D02*
X086504Y030761D01*
X086743Y030761D01*
X086504Y030761D01*
X086257Y030761D01*
X086260Y030760D02*
X086504Y030760D01*
X086740Y030760D01*
X086504Y030760D01*
X086261Y030760D01*
X086262Y030759D02*
X086504Y030759D01*
X086738Y030759D01*
X086504Y030759D01*
X086263Y030759D01*
X086265Y030758D02*
X086504Y030758D01*
X086736Y030758D01*
X086504Y030758D01*
X086266Y030758D01*
X086267Y030757D02*
X086504Y030757D01*
X086733Y030757D01*
X086504Y030757D01*
X086269Y030757D01*
X086268Y030757D02*
X086504Y030757D01*
X086270Y030757D01*
X086272Y030756D02*
X086504Y030756D01*
X086731Y030756D01*
X086504Y030756D01*
X086273Y030756D01*
X086274Y030755D02*
X086504Y030755D01*
X086730Y030755D01*
X086504Y030755D01*
X086275Y030755D01*
X086276Y030754D02*
X086504Y030754D01*
X086728Y030754D01*
X086504Y030754D01*
X086277Y030754D01*
X086278Y030753D02*
X086504Y030753D01*
X086726Y030753D01*
X086725Y030753D02*
X086504Y030753D01*
X086723Y030753D01*
X086722Y030753D02*
X086504Y030753D01*
X086281Y030753D01*
X086282Y030753D02*
X086504Y030753D01*
X086280Y030753D01*
X086283Y030752D02*
X086504Y030752D01*
X086720Y030752D01*
X086719Y030752D02*
X086504Y030752D01*
X086284Y030752D01*
X086285Y030751D02*
X086504Y030751D01*
X086717Y030751D01*
X086716Y030751D02*
X086504Y030751D01*
X086286Y030751D01*
X086288Y030750D02*
X086504Y030750D01*
X086714Y030750D01*
X086713Y030750D02*
X086504Y030750D01*
X086289Y030750D01*
X086290Y030749D02*
X086504Y030749D01*
X086711Y030749D01*
X086710Y030749D02*
X086504Y030749D01*
X086291Y030749D01*
X086292Y030749D02*
X086504Y030749D01*
X086708Y030749D01*
X086707Y030749D02*
X086504Y030749D01*
X086293Y030749D01*
X086295Y030748D02*
X086504Y030748D01*
X086705Y030748D01*
X086704Y030748D02*
X086504Y030748D01*
X086296Y030748D01*
X086297Y030747D02*
X086504Y030747D01*
X086701Y030747D01*
X086504Y030747D01*
X086298Y030747D01*
X086299Y030746D02*
X086504Y030746D01*
X086698Y030746D01*
X086504Y030746D01*
X086300Y030746D01*
X086303Y030745D02*
X086504Y030745D01*
X086695Y030745D01*
X086694Y030745D02*
X086504Y030745D01*
X086306Y030745D01*
X086310Y030745D02*
X086504Y030745D01*
X086692Y030745D01*
X086691Y030745D02*
X086504Y030745D01*
X086313Y030745D01*
X086317Y030744D02*
X086504Y030744D01*
X086689Y030744D01*
X086688Y030744D02*
X086504Y030744D01*
X086321Y030744D01*
X086324Y030743D02*
X086504Y030743D01*
X086686Y030743D01*
X086681Y030743D02*
X086504Y030743D01*
X086328Y030743D01*
X086331Y030742D02*
X086504Y030742D01*
X086675Y030742D01*
X086667Y030742D02*
X086504Y030742D01*
X086335Y030742D01*
X086338Y030741D02*
X086504Y030741D01*
X086660Y030741D01*
X086653Y030741D02*
X086504Y030741D01*
X086342Y030741D01*
X086346Y030741D02*
X086504Y030741D01*
X086644Y030741D01*
X086735Y030757D02*
X086504Y030757D01*
X086735Y030757D01*
X086751Y030765D02*
X086504Y030765D01*
X086751Y030765D01*
X086767Y030773D02*
X086504Y030773D01*
X086767Y030773D01*
X086842Y030855D02*
X086504Y030855D01*
X086843Y030855D01*
X086852Y030875D02*
X086712Y030875D01*
X086716Y030879D02*
X086853Y030879D01*
X086854Y030883D02*
X086722Y030883D01*
X086736Y030900D02*
X086860Y030900D01*
X086847Y031039D02*
X086504Y031039D01*
X086846Y031039D01*
X086841Y031047D02*
X086504Y031047D01*
X086841Y031047D01*
X086834Y031059D02*
X086504Y031059D01*
X086834Y031059D01*
X086811Y031088D02*
X086504Y031088D01*
X086811Y031088D01*
X086807Y031092D02*
X086504Y031092D01*
X086807Y031092D01*
X086803Y031096D02*
X086504Y031096D01*
X086803Y031096D01*
X086799Y031100D02*
X086504Y031100D01*
X086799Y031100D01*
X086795Y031104D02*
X086504Y031104D01*
X086795Y031104D01*
X086752Y031133D02*
X086504Y031133D01*
X086751Y031133D01*
X086741Y031137D02*
X086504Y031137D01*
X086740Y031137D01*
X086718Y031145D02*
X086504Y031145D01*
X086717Y031145D01*
D12*
X085461Y031843D03*
X085461Y032099D03*
X085461Y032355D03*
X085461Y032614D03*
X085461Y032866D03*
D13*
X085626Y033268D03*
X085626Y031441D03*
D14*
X086504Y031912D03*
X086504Y032798D03*
D15*
X049406Y010733D03*
X046492Y011520D03*
D16*
X049406Y014433D03*
D17*
X054315Y019888D03*
X054315Y020388D03*
X054315Y020888D03*
X054315Y021388D03*
X056449Y021388D03*
X056449Y020888D03*
X056449Y020388D03*
X056449Y019888D03*
X044048Y019888D03*
X044048Y020388D03*
X044048Y020888D03*
X044048Y021388D03*
X041913Y021388D03*
X041913Y020888D03*
X041913Y020388D03*
X041913Y019888D03*
D18*
X040028Y019792D03*
X040028Y019122D03*
X038197Y019654D03*
X037528Y019654D03*
X037528Y020441D03*
X038197Y020441D03*
X039496Y020835D03*
X040166Y020835D03*
X040166Y021622D03*
X039496Y021622D03*
X045933Y021485D03*
X045933Y022154D03*
X046977Y020835D03*
X047646Y020835D03*
X050520Y022685D03*
X051189Y022685D03*
X054260Y022410D03*
X054929Y022410D03*
X067331Y013040D03*
X068000Y013040D03*
X067862Y012075D03*
X067862Y011406D03*
X072469Y011406D03*
X072469Y012075D03*
X082744Y022272D03*
X082744Y022941D03*
X080638Y025323D03*
X079969Y025323D03*
X077626Y025107D03*
X077626Y024437D03*
X077626Y023729D03*
X077626Y023059D03*
X034083Y011603D03*
X034083Y010933D03*
X033296Y010933D03*
X033296Y011603D03*
X027626Y043335D03*
X027626Y044004D03*
X046898Y055717D03*
X047567Y055717D03*
D19*
X045638Y024634D03*
X045638Y023729D03*
X051189Y021485D03*
X052095Y021485D03*
D20*
X047803Y024181D03*
D21*
X028414Y017508D03*
X028414Y018099D03*
X029083Y018099D03*
X029083Y017508D03*
X033709Y017488D03*
X034378Y017488D03*
X038847Y021288D03*
X038847Y021957D03*
X041859Y022410D03*
X042528Y022410D03*
X043374Y022429D03*
X043374Y023099D03*
X044162Y023099D03*
X044162Y022429D03*
X047626Y022154D03*
X047626Y021485D03*
X044555Y019201D03*
X044555Y018532D03*
X043788Y018551D03*
X043118Y018551D03*
X042390Y018532D03*
X042390Y019201D03*
X055835Y022410D03*
X056504Y022410D03*
X057016Y018788D03*
X057685Y018788D03*
X062646Y013866D03*
X063315Y013866D03*
X063315Y013079D03*
X062646Y013079D03*
X065992Y013040D03*
X066662Y013040D03*
X082744Y023650D03*
X082744Y024319D03*
X069319Y026406D03*
X069319Y027075D03*
X068335Y027075D03*
X068335Y026406D03*
X044496Y031268D03*
X043827Y031268D03*
X043827Y032055D03*
X044496Y032055D03*
D22*
X051642Y019319D03*
D23*
X078970Y022872D02*
X079688Y022872D01*
X078970Y022872D02*
X078970Y023046D01*
X079688Y023046D01*
X079688Y022872D01*
X079688Y022929D02*
X078970Y022929D01*
X078970Y022986D02*
X079688Y022986D01*
X079688Y023043D02*
X078970Y023043D01*
X078970Y023372D02*
X079688Y023372D01*
X078970Y023372D02*
X078970Y023546D01*
X079688Y023546D01*
X079688Y023372D01*
X079688Y023429D02*
X078970Y023429D01*
X078970Y023486D02*
X079688Y023486D01*
X079688Y023543D02*
X078970Y023543D01*
X078970Y023872D02*
X079688Y023872D01*
X078970Y023872D02*
X078970Y024046D01*
X079688Y024046D01*
X079688Y023872D01*
X079688Y023929D02*
X078970Y023929D01*
X078970Y023986D02*
X079688Y023986D01*
X079688Y024043D02*
X078970Y024043D01*
X078970Y024372D02*
X079688Y024372D01*
X078970Y024372D02*
X078970Y024546D01*
X079688Y024546D01*
X079688Y024372D01*
X079688Y024429D02*
X078970Y024429D01*
X078970Y024486D02*
X079688Y024486D01*
X079688Y024543D02*
X078970Y024543D01*
X080919Y024372D02*
X081637Y024372D01*
X080919Y024372D02*
X080919Y024546D01*
X081637Y024546D01*
X081637Y024372D01*
X081637Y024429D02*
X080919Y024429D01*
X080919Y024486D02*
X081637Y024486D01*
X081637Y024543D02*
X080919Y024543D01*
X080919Y023872D02*
X081637Y023872D01*
X080919Y023872D02*
X080919Y024046D01*
X081637Y024046D01*
X081637Y023872D01*
X081637Y023929D02*
X080919Y023929D01*
X080919Y023986D02*
X081637Y023986D01*
X081637Y024043D02*
X080919Y024043D01*
X080919Y023372D02*
X081637Y023372D01*
X080919Y023372D02*
X080919Y023546D01*
X081637Y023546D01*
X081637Y023372D01*
X081637Y023429D02*
X080919Y023429D01*
X080919Y023486D02*
X081637Y023486D01*
X081637Y023543D02*
X080919Y023543D01*
X080919Y022872D02*
X081637Y022872D01*
X080919Y022872D02*
X080919Y023046D01*
X081637Y023046D01*
X081637Y022872D01*
X081637Y022929D02*
X080919Y022929D01*
X080919Y022986D02*
X081637Y022986D01*
X081637Y023043D02*
X080919Y023043D01*
M02*
