G75*
%MOIN*%
%OFA0B0*%
%FSLAX24Y24*%
%IPPOS*%
%LPD*%
%AMOC8*
5,1,8,0,0,1.08239X$1,22.5*
%
%ADD10C,0.0000*%
D10*
X024083Y009811D02*
X087075Y009811D01*
X087075Y057055D01*
X024083Y057055D01*
X024083Y009811D01*
X025067Y011386D02*
X025069Y011434D01*
X025075Y011482D01*
X025085Y011529D01*
X025098Y011575D01*
X025116Y011620D01*
X025136Y011664D01*
X025161Y011706D01*
X025189Y011745D01*
X025219Y011782D01*
X025253Y011816D01*
X025290Y011848D01*
X025328Y011877D01*
X025369Y011902D01*
X025412Y011924D01*
X025457Y011942D01*
X025503Y011956D01*
X025550Y011967D01*
X025598Y011974D01*
X025646Y011977D01*
X025694Y011976D01*
X025742Y011971D01*
X025790Y011962D01*
X025836Y011950D01*
X025881Y011933D01*
X025925Y011913D01*
X025967Y011890D01*
X026007Y011863D01*
X026045Y011833D01*
X026080Y011800D01*
X026112Y011764D01*
X026142Y011726D01*
X026168Y011685D01*
X026190Y011642D01*
X026210Y011598D01*
X026225Y011553D01*
X026237Y011506D01*
X026245Y011458D01*
X026249Y011410D01*
X026249Y011362D01*
X026245Y011314D01*
X026237Y011266D01*
X026225Y011219D01*
X026210Y011174D01*
X026190Y011130D01*
X026168Y011087D01*
X026142Y011046D01*
X026112Y011008D01*
X026080Y010972D01*
X026045Y010939D01*
X026007Y010909D01*
X025967Y010882D01*
X025925Y010859D01*
X025881Y010839D01*
X025836Y010822D01*
X025790Y010810D01*
X025742Y010801D01*
X025694Y010796D01*
X025646Y010795D01*
X025598Y010798D01*
X025550Y010805D01*
X025503Y010816D01*
X025457Y010830D01*
X025412Y010848D01*
X025369Y010870D01*
X025328Y010895D01*
X025290Y010924D01*
X025253Y010956D01*
X025219Y010990D01*
X025189Y011027D01*
X025161Y011066D01*
X025136Y011108D01*
X025116Y011152D01*
X025098Y011197D01*
X025085Y011243D01*
X025075Y011290D01*
X025069Y011338D01*
X025067Y011386D01*
X041208Y010992D02*
X041210Y011040D01*
X041216Y011088D01*
X041226Y011135D01*
X041239Y011181D01*
X041257Y011226D01*
X041277Y011270D01*
X041302Y011312D01*
X041330Y011351D01*
X041360Y011388D01*
X041394Y011422D01*
X041431Y011454D01*
X041469Y011483D01*
X041510Y011508D01*
X041553Y011530D01*
X041598Y011548D01*
X041644Y011562D01*
X041691Y011573D01*
X041739Y011580D01*
X041787Y011583D01*
X041835Y011582D01*
X041883Y011577D01*
X041931Y011568D01*
X041977Y011556D01*
X042022Y011539D01*
X042066Y011519D01*
X042108Y011496D01*
X042148Y011469D01*
X042186Y011439D01*
X042221Y011406D01*
X042253Y011370D01*
X042283Y011332D01*
X042309Y011291D01*
X042331Y011248D01*
X042351Y011204D01*
X042366Y011159D01*
X042378Y011112D01*
X042386Y011064D01*
X042390Y011016D01*
X042390Y010968D01*
X042386Y010920D01*
X042378Y010872D01*
X042366Y010825D01*
X042351Y010780D01*
X042331Y010736D01*
X042309Y010693D01*
X042283Y010652D01*
X042253Y010614D01*
X042221Y010578D01*
X042186Y010545D01*
X042148Y010515D01*
X042108Y010488D01*
X042066Y010465D01*
X042022Y010445D01*
X041977Y010428D01*
X041931Y010416D01*
X041883Y010407D01*
X041835Y010402D01*
X041787Y010401D01*
X041739Y010404D01*
X041691Y010411D01*
X041644Y010422D01*
X041598Y010436D01*
X041553Y010454D01*
X041510Y010476D01*
X041469Y010501D01*
X041431Y010530D01*
X041394Y010562D01*
X041360Y010596D01*
X041330Y010633D01*
X041302Y010672D01*
X041277Y010714D01*
X041257Y010758D01*
X041239Y010803D01*
X041226Y010849D01*
X041216Y010896D01*
X041210Y010944D01*
X041208Y010992D01*
X047614Y011166D02*
X047616Y011202D01*
X047622Y011238D01*
X047632Y011273D01*
X047645Y011307D01*
X047662Y011339D01*
X047682Y011369D01*
X047706Y011396D01*
X047732Y011421D01*
X047761Y011443D01*
X047792Y011462D01*
X047825Y011477D01*
X047859Y011489D01*
X047895Y011497D01*
X047931Y011501D01*
X047967Y011501D01*
X048003Y011497D01*
X048039Y011489D01*
X048073Y011477D01*
X048106Y011462D01*
X048137Y011443D01*
X048166Y011421D01*
X048192Y011396D01*
X048216Y011369D01*
X048236Y011339D01*
X048253Y011307D01*
X048266Y011273D01*
X048276Y011238D01*
X048282Y011202D01*
X048284Y011166D01*
X048282Y011130D01*
X048276Y011094D01*
X048266Y011059D01*
X048253Y011025D01*
X048236Y010993D01*
X048216Y010963D01*
X048192Y010936D01*
X048166Y010911D01*
X048137Y010889D01*
X048106Y010870D01*
X048073Y010855D01*
X048039Y010843D01*
X048003Y010835D01*
X047967Y010831D01*
X047931Y010831D01*
X047895Y010835D01*
X047859Y010843D01*
X047825Y010855D01*
X047792Y010870D01*
X047761Y010889D01*
X047732Y010911D01*
X047706Y010936D01*
X047682Y010963D01*
X047662Y010993D01*
X047645Y011025D01*
X047632Y011059D01*
X047622Y011094D01*
X047616Y011130D01*
X047614Y011166D01*
X047614Y013922D02*
X047616Y013958D01*
X047622Y013994D01*
X047632Y014029D01*
X047645Y014063D01*
X047662Y014095D01*
X047682Y014125D01*
X047706Y014152D01*
X047732Y014177D01*
X047761Y014199D01*
X047792Y014218D01*
X047825Y014233D01*
X047859Y014245D01*
X047895Y014253D01*
X047931Y014257D01*
X047967Y014257D01*
X048003Y014253D01*
X048039Y014245D01*
X048073Y014233D01*
X048106Y014218D01*
X048137Y014199D01*
X048166Y014177D01*
X048192Y014152D01*
X048216Y014125D01*
X048236Y014095D01*
X048253Y014063D01*
X048266Y014029D01*
X048276Y013994D01*
X048282Y013958D01*
X048284Y013922D01*
X048282Y013886D01*
X048276Y013850D01*
X048266Y013815D01*
X048253Y013781D01*
X048236Y013749D01*
X048216Y013719D01*
X048192Y013692D01*
X048166Y013667D01*
X048137Y013645D01*
X048106Y013626D01*
X048073Y013611D01*
X048039Y013599D01*
X048003Y013591D01*
X047967Y013587D01*
X047931Y013587D01*
X047895Y013591D01*
X047859Y013599D01*
X047825Y013611D01*
X047792Y013626D01*
X047761Y013645D01*
X047732Y013667D01*
X047706Y013692D01*
X047682Y013719D01*
X047662Y013749D01*
X047645Y013781D01*
X047632Y013815D01*
X047622Y013850D01*
X047616Y013886D01*
X047614Y013922D01*
X063492Y010835D02*
X063494Y010883D01*
X063500Y010931D01*
X063510Y010978D01*
X063523Y011024D01*
X063541Y011069D01*
X063561Y011113D01*
X063586Y011155D01*
X063614Y011194D01*
X063644Y011231D01*
X063678Y011265D01*
X063715Y011297D01*
X063753Y011326D01*
X063794Y011351D01*
X063837Y011373D01*
X063882Y011391D01*
X063928Y011405D01*
X063975Y011416D01*
X064023Y011423D01*
X064071Y011426D01*
X064119Y011425D01*
X064167Y011420D01*
X064215Y011411D01*
X064261Y011399D01*
X064306Y011382D01*
X064350Y011362D01*
X064392Y011339D01*
X064432Y011312D01*
X064470Y011282D01*
X064505Y011249D01*
X064537Y011213D01*
X064567Y011175D01*
X064593Y011134D01*
X064615Y011091D01*
X064635Y011047D01*
X064650Y011002D01*
X064662Y010955D01*
X064670Y010907D01*
X064674Y010859D01*
X064674Y010811D01*
X064670Y010763D01*
X064662Y010715D01*
X064650Y010668D01*
X064635Y010623D01*
X064615Y010579D01*
X064593Y010536D01*
X064567Y010495D01*
X064537Y010457D01*
X064505Y010421D01*
X064470Y010388D01*
X064432Y010358D01*
X064392Y010331D01*
X064350Y010308D01*
X064306Y010288D01*
X064261Y010271D01*
X064215Y010259D01*
X064167Y010250D01*
X064119Y010245D01*
X064071Y010244D01*
X064023Y010247D01*
X063975Y010254D01*
X063928Y010265D01*
X063882Y010279D01*
X063837Y010297D01*
X063794Y010319D01*
X063753Y010344D01*
X063715Y010373D01*
X063678Y010405D01*
X063644Y010439D01*
X063614Y010476D01*
X063586Y010515D01*
X063561Y010557D01*
X063541Y010601D01*
X063523Y010646D01*
X063510Y010692D01*
X063500Y010739D01*
X063494Y010787D01*
X063492Y010835D01*
X084909Y011386D02*
X084911Y011434D01*
X084917Y011482D01*
X084927Y011529D01*
X084940Y011575D01*
X084958Y011620D01*
X084978Y011664D01*
X085003Y011706D01*
X085031Y011745D01*
X085061Y011782D01*
X085095Y011816D01*
X085132Y011848D01*
X085170Y011877D01*
X085211Y011902D01*
X085254Y011924D01*
X085299Y011942D01*
X085345Y011956D01*
X085392Y011967D01*
X085440Y011974D01*
X085488Y011977D01*
X085536Y011976D01*
X085584Y011971D01*
X085632Y011962D01*
X085678Y011950D01*
X085723Y011933D01*
X085767Y011913D01*
X085809Y011890D01*
X085849Y011863D01*
X085887Y011833D01*
X085922Y011800D01*
X085954Y011764D01*
X085984Y011726D01*
X086010Y011685D01*
X086032Y011642D01*
X086052Y011598D01*
X086067Y011553D01*
X086079Y011506D01*
X086087Y011458D01*
X086091Y011410D01*
X086091Y011362D01*
X086087Y011314D01*
X086079Y011266D01*
X086067Y011219D01*
X086052Y011174D01*
X086032Y011130D01*
X086010Y011087D01*
X085984Y011046D01*
X085954Y011008D01*
X085922Y010972D01*
X085887Y010939D01*
X085849Y010909D01*
X085809Y010882D01*
X085767Y010859D01*
X085723Y010839D01*
X085678Y010822D01*
X085632Y010810D01*
X085584Y010801D01*
X085536Y010796D01*
X085488Y010795D01*
X085440Y010798D01*
X085392Y010805D01*
X085345Y010816D01*
X085299Y010830D01*
X085254Y010848D01*
X085211Y010870D01*
X085170Y010895D01*
X085132Y010924D01*
X085095Y010956D01*
X085061Y010990D01*
X085031Y011027D01*
X085003Y011066D01*
X084978Y011108D01*
X084958Y011152D01*
X084940Y011197D01*
X084927Y011243D01*
X084917Y011290D01*
X084911Y011338D01*
X084909Y011386D01*
X086346Y030859D02*
X086662Y030859D01*
X086751Y030947D02*
X086749Y030964D01*
X086744Y030981D01*
X086736Y030996D01*
X086725Y031010D01*
X086711Y031021D01*
X086696Y031029D01*
X086679Y031034D01*
X086662Y031036D01*
X086346Y031036D01*
X086346Y031035D02*
X086329Y031033D01*
X086312Y031028D01*
X086297Y031020D01*
X086284Y031009D01*
X086273Y030996D01*
X086265Y030980D01*
X086260Y030964D01*
X086258Y030947D01*
X086257Y030947D02*
X086259Y030930D01*
X086264Y030913D01*
X086272Y030898D01*
X086283Y030884D01*
X086297Y030873D01*
X086312Y030865D01*
X086329Y030860D01*
X086346Y030858D01*
X086415Y030947D02*
X086417Y030966D01*
X086423Y030983D01*
X086432Y030999D01*
X086444Y031013D01*
X086459Y031024D01*
X086476Y031032D01*
X086495Y031036D01*
X086513Y031036D01*
X086532Y031032D01*
X086548Y031024D01*
X086564Y031013D01*
X086576Y030999D01*
X086585Y030983D01*
X086591Y030966D01*
X086593Y030947D01*
X086591Y030928D01*
X086585Y030911D01*
X086576Y030895D01*
X086564Y030881D01*
X086549Y030870D01*
X086532Y030862D01*
X086513Y030858D01*
X086495Y030858D01*
X086476Y030862D01*
X086460Y030870D01*
X086444Y030881D01*
X086432Y030895D01*
X086423Y030911D01*
X086417Y030928D01*
X086415Y030947D01*
X086662Y030858D02*
X086679Y030860D01*
X086696Y030865D01*
X086711Y030873D01*
X086725Y030884D01*
X086736Y030898D01*
X086744Y030913D01*
X086749Y030930D01*
X086751Y030947D01*
X086662Y033673D02*
X086346Y033673D01*
X086329Y033675D01*
X086312Y033680D01*
X086297Y033688D01*
X086283Y033699D01*
X086272Y033713D01*
X086264Y033728D01*
X086259Y033745D01*
X086257Y033762D01*
X086258Y033762D02*
X086260Y033779D01*
X086265Y033795D01*
X086273Y033811D01*
X086284Y033824D01*
X086297Y033835D01*
X086312Y033843D01*
X086329Y033848D01*
X086346Y033850D01*
X086346Y033851D02*
X086662Y033851D01*
X086679Y033849D01*
X086696Y033844D01*
X086711Y033836D01*
X086725Y033825D01*
X086736Y033811D01*
X086744Y033796D01*
X086749Y033779D01*
X086751Y033762D01*
X086749Y033745D01*
X086744Y033728D01*
X086736Y033713D01*
X086725Y033699D01*
X086711Y033688D01*
X086696Y033680D01*
X086679Y033675D01*
X086662Y033673D01*
X086415Y033762D02*
X086417Y033781D01*
X086423Y033798D01*
X086432Y033814D01*
X086444Y033828D01*
X086459Y033839D01*
X086476Y033847D01*
X086495Y033851D01*
X086513Y033851D01*
X086532Y033847D01*
X086548Y033839D01*
X086564Y033828D01*
X086576Y033814D01*
X086585Y033798D01*
X086591Y033781D01*
X086593Y033762D01*
X086591Y033743D01*
X086585Y033726D01*
X086576Y033710D01*
X086564Y033696D01*
X086549Y033685D01*
X086532Y033677D01*
X086513Y033673D01*
X086495Y033673D01*
X086476Y033677D01*
X086460Y033685D01*
X086444Y033696D01*
X086432Y033710D01*
X086423Y033726D01*
X086417Y033743D01*
X086415Y033762D01*
X069697Y032307D02*
X069699Y032357D01*
X069705Y032407D01*
X069715Y032456D01*
X069729Y032504D01*
X069746Y032551D01*
X069767Y032596D01*
X069792Y032640D01*
X069820Y032681D01*
X069852Y032720D01*
X069886Y032757D01*
X069923Y032791D01*
X069963Y032821D01*
X070005Y032848D01*
X070049Y032872D01*
X070095Y032893D01*
X070142Y032909D01*
X070190Y032922D01*
X070240Y032931D01*
X070289Y032936D01*
X070340Y032937D01*
X070390Y032934D01*
X070439Y032927D01*
X070488Y032916D01*
X070536Y032901D01*
X070582Y032883D01*
X070627Y032861D01*
X070670Y032835D01*
X070711Y032806D01*
X070750Y032774D01*
X070786Y032739D01*
X070818Y032701D01*
X070848Y032661D01*
X070875Y032618D01*
X070898Y032574D01*
X070917Y032528D01*
X070933Y032480D01*
X070945Y032431D01*
X070953Y032382D01*
X070957Y032332D01*
X070957Y032282D01*
X070953Y032232D01*
X070945Y032183D01*
X070933Y032134D01*
X070917Y032086D01*
X070898Y032040D01*
X070875Y031996D01*
X070848Y031953D01*
X070818Y031913D01*
X070786Y031875D01*
X070750Y031840D01*
X070711Y031808D01*
X070670Y031779D01*
X070627Y031753D01*
X070582Y031731D01*
X070536Y031713D01*
X070488Y031698D01*
X070439Y031687D01*
X070390Y031680D01*
X070340Y031677D01*
X070289Y031678D01*
X070240Y031683D01*
X070190Y031692D01*
X070142Y031705D01*
X070095Y031721D01*
X070049Y031742D01*
X070005Y031766D01*
X069963Y031793D01*
X069923Y031823D01*
X069886Y031857D01*
X069852Y031894D01*
X069820Y031933D01*
X069792Y031974D01*
X069767Y032018D01*
X069746Y032063D01*
X069729Y032110D01*
X069715Y032158D01*
X069705Y032207D01*
X069699Y032257D01*
X069697Y032307D01*
X060197Y044807D02*
X060199Y044857D01*
X060205Y044907D01*
X060215Y044956D01*
X060229Y045004D01*
X060246Y045051D01*
X060267Y045096D01*
X060292Y045140D01*
X060320Y045181D01*
X060352Y045220D01*
X060386Y045257D01*
X060423Y045291D01*
X060463Y045321D01*
X060505Y045348D01*
X060549Y045372D01*
X060595Y045393D01*
X060642Y045409D01*
X060690Y045422D01*
X060740Y045431D01*
X060789Y045436D01*
X060840Y045437D01*
X060890Y045434D01*
X060939Y045427D01*
X060988Y045416D01*
X061036Y045401D01*
X061082Y045383D01*
X061127Y045361D01*
X061170Y045335D01*
X061211Y045306D01*
X061250Y045274D01*
X061286Y045239D01*
X061318Y045201D01*
X061348Y045161D01*
X061375Y045118D01*
X061398Y045074D01*
X061417Y045028D01*
X061433Y044980D01*
X061445Y044931D01*
X061453Y044882D01*
X061457Y044832D01*
X061457Y044782D01*
X061453Y044732D01*
X061445Y044683D01*
X061433Y044634D01*
X061417Y044586D01*
X061398Y044540D01*
X061375Y044496D01*
X061348Y044453D01*
X061318Y044413D01*
X061286Y044375D01*
X061250Y044340D01*
X061211Y044308D01*
X061170Y044279D01*
X061127Y044253D01*
X061082Y044231D01*
X061036Y044213D01*
X060988Y044198D01*
X060939Y044187D01*
X060890Y044180D01*
X060840Y044177D01*
X060789Y044178D01*
X060740Y044183D01*
X060690Y044192D01*
X060642Y044205D01*
X060595Y044221D01*
X060549Y044242D01*
X060505Y044266D01*
X060463Y044293D01*
X060423Y044323D01*
X060386Y044357D01*
X060352Y044394D01*
X060320Y044433D01*
X060292Y044474D01*
X060267Y044518D01*
X060246Y044563D01*
X060229Y044610D01*
X060215Y044658D01*
X060205Y044707D01*
X060199Y044757D01*
X060197Y044807D01*
X069697Y050307D02*
X069699Y050357D01*
X069705Y050407D01*
X069715Y050456D01*
X069729Y050504D01*
X069746Y050551D01*
X069767Y050596D01*
X069792Y050640D01*
X069820Y050681D01*
X069852Y050720D01*
X069886Y050757D01*
X069923Y050791D01*
X069963Y050821D01*
X070005Y050848D01*
X070049Y050872D01*
X070095Y050893D01*
X070142Y050909D01*
X070190Y050922D01*
X070240Y050931D01*
X070289Y050936D01*
X070340Y050937D01*
X070390Y050934D01*
X070439Y050927D01*
X070488Y050916D01*
X070536Y050901D01*
X070582Y050883D01*
X070627Y050861D01*
X070670Y050835D01*
X070711Y050806D01*
X070750Y050774D01*
X070786Y050739D01*
X070818Y050701D01*
X070848Y050661D01*
X070875Y050618D01*
X070898Y050574D01*
X070917Y050528D01*
X070933Y050480D01*
X070945Y050431D01*
X070953Y050382D01*
X070957Y050332D01*
X070957Y050282D01*
X070953Y050232D01*
X070945Y050183D01*
X070933Y050134D01*
X070917Y050086D01*
X070898Y050040D01*
X070875Y049996D01*
X070848Y049953D01*
X070818Y049913D01*
X070786Y049875D01*
X070750Y049840D01*
X070711Y049808D01*
X070670Y049779D01*
X070627Y049753D01*
X070582Y049731D01*
X070536Y049713D01*
X070488Y049698D01*
X070439Y049687D01*
X070390Y049680D01*
X070340Y049677D01*
X070289Y049678D01*
X070240Y049683D01*
X070190Y049692D01*
X070142Y049705D01*
X070095Y049721D01*
X070049Y049742D01*
X070005Y049766D01*
X069963Y049793D01*
X069923Y049823D01*
X069886Y049857D01*
X069852Y049894D01*
X069820Y049933D01*
X069792Y049974D01*
X069767Y050018D01*
X069746Y050063D01*
X069729Y050110D01*
X069715Y050158D01*
X069705Y050207D01*
X069699Y050257D01*
X069697Y050307D01*
X084909Y055481D02*
X084911Y055529D01*
X084917Y055577D01*
X084927Y055624D01*
X084940Y055670D01*
X084958Y055715D01*
X084978Y055759D01*
X085003Y055801D01*
X085031Y055840D01*
X085061Y055877D01*
X085095Y055911D01*
X085132Y055943D01*
X085170Y055972D01*
X085211Y055997D01*
X085254Y056019D01*
X085299Y056037D01*
X085345Y056051D01*
X085392Y056062D01*
X085440Y056069D01*
X085488Y056072D01*
X085536Y056071D01*
X085584Y056066D01*
X085632Y056057D01*
X085678Y056045D01*
X085723Y056028D01*
X085767Y056008D01*
X085809Y055985D01*
X085849Y055958D01*
X085887Y055928D01*
X085922Y055895D01*
X085954Y055859D01*
X085984Y055821D01*
X086010Y055780D01*
X086032Y055737D01*
X086052Y055693D01*
X086067Y055648D01*
X086079Y055601D01*
X086087Y055553D01*
X086091Y055505D01*
X086091Y055457D01*
X086087Y055409D01*
X086079Y055361D01*
X086067Y055314D01*
X086052Y055269D01*
X086032Y055225D01*
X086010Y055182D01*
X085984Y055141D01*
X085954Y055103D01*
X085922Y055067D01*
X085887Y055034D01*
X085849Y055004D01*
X085809Y054977D01*
X085767Y054954D01*
X085723Y054934D01*
X085678Y054917D01*
X085632Y054905D01*
X085584Y054896D01*
X085536Y054891D01*
X085488Y054890D01*
X085440Y054893D01*
X085392Y054900D01*
X085345Y054911D01*
X085299Y054925D01*
X085254Y054943D01*
X085211Y054965D01*
X085170Y054990D01*
X085132Y055019D01*
X085095Y055051D01*
X085061Y055085D01*
X085031Y055122D01*
X085003Y055161D01*
X084978Y055203D01*
X084958Y055247D01*
X084940Y055292D01*
X084927Y055338D01*
X084917Y055385D01*
X084911Y055433D01*
X084909Y055481D01*
X040197Y050807D02*
X040199Y050857D01*
X040205Y050907D01*
X040215Y050956D01*
X040229Y051004D01*
X040246Y051051D01*
X040267Y051096D01*
X040292Y051140D01*
X040320Y051181D01*
X040352Y051220D01*
X040386Y051257D01*
X040423Y051291D01*
X040463Y051321D01*
X040505Y051348D01*
X040549Y051372D01*
X040595Y051393D01*
X040642Y051409D01*
X040690Y051422D01*
X040740Y051431D01*
X040789Y051436D01*
X040840Y051437D01*
X040890Y051434D01*
X040939Y051427D01*
X040988Y051416D01*
X041036Y051401D01*
X041082Y051383D01*
X041127Y051361D01*
X041170Y051335D01*
X041211Y051306D01*
X041250Y051274D01*
X041286Y051239D01*
X041318Y051201D01*
X041348Y051161D01*
X041375Y051118D01*
X041398Y051074D01*
X041417Y051028D01*
X041433Y050980D01*
X041445Y050931D01*
X041453Y050882D01*
X041457Y050832D01*
X041457Y050782D01*
X041453Y050732D01*
X041445Y050683D01*
X041433Y050634D01*
X041417Y050586D01*
X041398Y050540D01*
X041375Y050496D01*
X041348Y050453D01*
X041318Y050413D01*
X041286Y050375D01*
X041250Y050340D01*
X041211Y050308D01*
X041170Y050279D01*
X041127Y050253D01*
X041082Y050231D01*
X041036Y050213D01*
X040988Y050198D01*
X040939Y050187D01*
X040890Y050180D01*
X040840Y050177D01*
X040789Y050178D01*
X040740Y050183D01*
X040690Y050192D01*
X040642Y050205D01*
X040595Y050221D01*
X040549Y050242D01*
X040505Y050266D01*
X040463Y050293D01*
X040423Y050323D01*
X040386Y050357D01*
X040352Y050394D01*
X040320Y050433D01*
X040292Y050474D01*
X040267Y050518D01*
X040246Y050563D01*
X040229Y050610D01*
X040215Y050658D01*
X040205Y050707D01*
X040199Y050757D01*
X040197Y050807D01*
X025067Y055481D02*
X025069Y055529D01*
X025075Y055577D01*
X025085Y055624D01*
X025098Y055670D01*
X025116Y055715D01*
X025136Y055759D01*
X025161Y055801D01*
X025189Y055840D01*
X025219Y055877D01*
X025253Y055911D01*
X025290Y055943D01*
X025328Y055972D01*
X025369Y055997D01*
X025412Y056019D01*
X025457Y056037D01*
X025503Y056051D01*
X025550Y056062D01*
X025598Y056069D01*
X025646Y056072D01*
X025694Y056071D01*
X025742Y056066D01*
X025790Y056057D01*
X025836Y056045D01*
X025881Y056028D01*
X025925Y056008D01*
X025967Y055985D01*
X026007Y055958D01*
X026045Y055928D01*
X026080Y055895D01*
X026112Y055859D01*
X026142Y055821D01*
X026168Y055780D01*
X026190Y055737D01*
X026210Y055693D01*
X026225Y055648D01*
X026237Y055601D01*
X026245Y055553D01*
X026249Y055505D01*
X026249Y055457D01*
X026245Y055409D01*
X026237Y055361D01*
X026225Y055314D01*
X026210Y055269D01*
X026190Y055225D01*
X026168Y055182D01*
X026142Y055141D01*
X026112Y055103D01*
X026080Y055067D01*
X026045Y055034D01*
X026007Y055004D01*
X025967Y054977D01*
X025925Y054954D01*
X025881Y054934D01*
X025836Y054917D01*
X025790Y054905D01*
X025742Y054896D01*
X025694Y054891D01*
X025646Y054890D01*
X025598Y054893D01*
X025550Y054900D01*
X025503Y054911D01*
X025457Y054925D01*
X025412Y054943D01*
X025369Y054965D01*
X025328Y054990D01*
X025290Y055019D01*
X025253Y055051D01*
X025219Y055085D01*
X025189Y055122D01*
X025161Y055161D01*
X025136Y055203D01*
X025116Y055247D01*
X025098Y055292D01*
X025085Y055338D01*
X025075Y055385D01*
X025069Y055433D01*
X025067Y055481D01*
X039697Y031807D02*
X039699Y031857D01*
X039705Y031907D01*
X039715Y031956D01*
X039729Y032004D01*
X039746Y032051D01*
X039767Y032096D01*
X039792Y032140D01*
X039820Y032181D01*
X039852Y032220D01*
X039886Y032257D01*
X039923Y032291D01*
X039963Y032321D01*
X040005Y032348D01*
X040049Y032372D01*
X040095Y032393D01*
X040142Y032409D01*
X040190Y032422D01*
X040240Y032431D01*
X040289Y032436D01*
X040340Y032437D01*
X040390Y032434D01*
X040439Y032427D01*
X040488Y032416D01*
X040536Y032401D01*
X040582Y032383D01*
X040627Y032361D01*
X040670Y032335D01*
X040711Y032306D01*
X040750Y032274D01*
X040786Y032239D01*
X040818Y032201D01*
X040848Y032161D01*
X040875Y032118D01*
X040898Y032074D01*
X040917Y032028D01*
X040933Y031980D01*
X040945Y031931D01*
X040953Y031882D01*
X040957Y031832D01*
X040957Y031782D01*
X040953Y031732D01*
X040945Y031683D01*
X040933Y031634D01*
X040917Y031586D01*
X040898Y031540D01*
X040875Y031496D01*
X040848Y031453D01*
X040818Y031413D01*
X040786Y031375D01*
X040750Y031340D01*
X040711Y031308D01*
X040670Y031279D01*
X040627Y031253D01*
X040582Y031231D01*
X040536Y031213D01*
X040488Y031198D01*
X040439Y031187D01*
X040390Y031180D01*
X040340Y031177D01*
X040289Y031178D01*
X040240Y031183D01*
X040190Y031192D01*
X040142Y031205D01*
X040095Y031221D01*
X040049Y031242D01*
X040005Y031266D01*
X039963Y031293D01*
X039923Y031323D01*
X039886Y031357D01*
X039852Y031394D01*
X039820Y031433D01*
X039792Y031474D01*
X039767Y031518D01*
X039746Y031563D01*
X039729Y031610D01*
X039715Y031658D01*
X039705Y031707D01*
X039699Y031757D01*
X039697Y031807D01*
M02*
