%
M48
M72
T01C0.0079
T02C0.0157
T03C0.0177
T04C0.0236
T05C0.0320
T06C0.0402
T07C0.0433
T08C0.0492
T09C0.0669
T10C0.1181
T11C0.1260
%
T01
X25264Y12725
X25579Y14142
X27272Y14890
X28807Y13591
X29477Y13630
X29516Y12173
X28768Y12331
X26839Y13197
X26760Y10992
X28729Y10874
X30461Y11819
X31563Y12213
X31485Y10520
X35422Y10481
X36485Y11110
X38059Y10599
X40264Y10362
X40618Y11622
X43335Y11544
X44083Y11937
X44555Y11544
X44870Y11032
X45658Y11032
X47351Y10323
X48571Y11701
X45618Y12016
X45028Y12016
X44083Y11150
X43532Y10441
X44083Y13827
X43374Y14103
X44083Y14614
X44555Y14536
X45028Y15008
X45815Y15008
X46603Y15008
X47390Y15008
X48177Y15008
X48610Y14063
X47351Y14063
X46563Y14063
X45776Y14063
X45028Y13827
X44083Y15402
X44083Y16150
X44083Y16937
X44083Y17725
X43099Y17843
X42311Y17095
X40973Y16268
X42862Y15914
X45028Y15796
X45028Y16583
X45028Y17370
X45028Y18158
X46170Y18630
X47469Y18709
X45973Y19614
X43768Y19063
X43414Y19890
X43414Y20402
X43374Y21229
X42666Y21229
X42548Y20362
X41839Y18709
X41170Y19103
X40618Y19142
X40461Y18551
X40264Y17646
X39437Y18670
X37862Y18197
X36603Y18748
X36051Y19969
X35658Y19969
X35264Y19969
X34162Y19575
X33217Y19575
X32744Y18591
X31799Y17016
X30579Y17764
X29910Y18118
X29516Y18670
X29122Y18670
X30225Y20048
X31996Y20481
X32548Y22016
X34713Y23040
X35264Y21898
X35658Y21898
X36051Y21898
X36563Y21032
X37548Y21544
X37705Y21977
X38099Y21150
X38886Y20756
X38965Y22410
X38571Y22410
X38217Y23158
X36642Y23079
X36051Y24339
X35658Y24339
X35264Y24339
X33217Y25244
X33217Y26189
X34595Y27134
X35264Y26504
X35658Y26504
X36051Y26504
X37626Y26544
X37626Y26937
X37626Y27331
X38059Y28236
X38059Y28630
X38059Y29024
X38296Y29890
X37508Y29969
X36996Y29575
X36603Y29575
X36209Y29575
X35658Y28866
X34988Y29221
X32587Y28748
X32626Y30638
X30736Y29733
X30894Y31819
X32351Y32646
X34831Y31662
X36209Y32410
X36603Y32410
X36996Y32410
X38138Y31465
X38138Y33433
X36996Y34575
X36603Y34575
X36209Y34575
X35303Y33433
X34752Y35677
X35579Y36465
X36209Y36859
X36603Y36859
X36996Y36859
X36996Y37764
X36603Y37764
X36209Y37764
X35146Y38709
X35146Y39103
X35146Y39496
X35146Y40717
X35146Y41110
X35146Y41504
X36681Y42370
X37862Y41504
X37862Y41110
X37862Y40717
X36603Y40087
X38099Y38827
X40461Y40717
X40461Y41110
X40461Y41504
X41721Y41937
X42114Y41937
X42508Y41937
X40461Y42922
X41721Y44221
X42114Y44221
X42508Y44221
X44713Y44772
X46248Y44693
X48453Y46425
X49319Y47331
X50540Y47961
X50540Y48355
X50540Y48748
X49319Y49024
X47902Y48748
X47902Y48355
X47902Y47961
X46524Y47213
X45618Y47961
X45618Y48355
X45618Y48748
X46642Y49103
X44555Y49024
X43335Y48748
X43335Y48355
X43335Y47961
X42508Y47882
X42114Y47882
X41721Y47882
X40461Y46740
X38177Y47882
X36642Y48670
X38414Y49772
X36012Y50244
X34516Y49221
X32548Y50323
X34201Y51189
X32902Y53000
X35185Y53315
X37390Y53197
X38177Y51425
X40303Y52961
X40264Y54457
X40736Y55835
X42272Y56740
X43807Y56740
X43650Y55402
X44870Y54575
X46327Y55284
X46012Y55835
X45618Y55441
X47272Y54733
X48020Y55717
X49004Y55441
X50303Y54733
X51799Y55402
X52193Y56740
X54477Y56701
X56839Y56819
X58453Y56701
X60382Y56740
X62390Y56701
X64713Y56701
X67311Y56740
X69477Y56662
X69280Y54614
X70500Y54575
X71996Y54614
X73847Y54614
X75579Y54693
X77429Y54614
X77666Y53394
X80540Y53591
X80461Y55796
X79437Y56662
X76957Y56701
X74752Y56740
X72114Y56740
X67429Y54614
X65303Y54733
X63453Y54693
X61957Y54733
X60343Y54614
X59280Y54811
X57902Y54733
X56839Y54378
X55618Y55205
X54673Y54693
X53532Y55284
X56839Y55441
X57351Y51662
X59044Y51819
X60540Y51662
X62587Y51819
X64398Y51780
X65973Y51740
X67587Y51819
X71366Y51819
X73650Y51150
X74437Y49614
X75382Y51268
X76996Y50048
X77469Y51740
X80579Y50362
X80579Y49181
X82390Y48512
X80618Y46937
X80815Y44890
X82351Y44614
X84792Y44339
X86012Y44063
X85264Y45992
X86327Y46819
X85264Y47961
X85028Y48473
X85028Y50441
X86012Y50796
X83099Y51071
X84792Y52843
X83610Y53630
X86209Y53906
X84044Y55481
X81878Y55874
X76248Y48394
X77429Y46977
X74319Y47055
X72784Y48630
X70185Y47095
X68059Y46977
X67548Y45284
X69634Y44260
X66957Y42528
X64437Y41150
X61485Y42488
X58965Y41110
X60658Y38591
X62311Y36583
X62823Y34418
X63296Y32331
X63296Y31110
X62351Y29339
X63335Y28197
X64398Y29299
X65028Y28276
X64122Y27331
X64122Y26937
X64122Y26544
X64634Y25559
X66288Y26544
X66288Y26937
X66288Y27331
X66642Y27882
X67036Y27882
X67429Y27882
X68335Y27725
X69319Y27922
X70658Y26898
X71878Y26898
X71248Y25992
X69910Y25835
X69555Y25402
X69162Y25284
X68335Y25481
X67784Y25756
X67154Y25481
X64398Y23473
X63296Y22488
X61642Y22134
X61563Y23433
X59792Y24536
X59004Y24693
X58414Y24496
X57626Y23827
X56996Y25008
X55422Y25048
X55185Y26544
X55185Y26937
X55185Y27331
X53886Y27961
X52744Y27331
X52744Y26937
X52744Y26544
X51839Y25717
X52862Y24851
X53847Y25717
X50579Y26544
X50579Y26937
X50579Y27331
X49555Y27961
X48453Y27331
X48453Y26937
X48453Y26544
X49477Y25796
X50028Y24063
X48335Y23158
X49595Y22646
X50500Y21859
X51878Y21977
X52154Y22449
X52508Y21898
X52469Y21032
X52036Y20874
X51760Y20953
X50855Y20087
X48886Y20599
X49162Y19181
X50107Y18906
X50933Y18276
X51603Y17607
X52587Y17764
X53217Y18236
X54004Y18236
X54792Y18236
X55579Y18236
X55382Y18945
X56603Y18945
X57154Y19418
X58414Y19575
X59083Y19654
X59713Y19575
X58374Y18236
X57587Y18236
X56799Y18236
X56957Y17292
X57744Y17292
X58532Y17292
X59831Y17567
X61681Y17252
X60500Y16229
X58807Y15874
X57193Y15441
X55618Y15520
X54673Y15520
X53532Y15717
X53532Y16504
X53532Y17292
X54280Y17292
X55067Y17292
X55855Y17292
X53925Y19181
X53650Y19575
X53689Y20126
X53138Y21110
X55107Y20087
X55697Y20992
X58335Y22055
X59201Y22134
X59752Y22134
X61563Y20638
X62705Y18866
X63807Y20677
X65658Y21937
X65973Y20008
X67902Y20441
X69437Y20008
X69044Y21662
X67390Y23276
X71445Y22922
X72981Y21662
X71485Y21110
X73925Y20008
X75855Y20756
X76799Y21780
X74595Y22843
X76327Y23355
X76563Y24929
X76918Y25756
X76642Y26622
X74831Y26071
X73138Y26701
X72902Y25284
X72587Y29260
X71288Y29339
X71799Y30796
X72981Y31898
X73296Y30323
X74516Y31189
X75264Y30323
X76327Y29378
X74398Y29299
X77036Y30677
X76563Y32410
X75225Y32528
X74477Y33788
X72114Y34260
X72823Y36583
X74555Y37370
X76406Y38394
X77587Y38551
X79988Y38040
X81957Y39103
X84831Y40323
X85264Y40087
X86327Y40362
X86288Y38473
X85264Y38118
X85107Y37646
X84713Y36780
X83296Y37292
X83335Y35520
X81996Y35559
X80933Y35441
X80422Y33827
X82036Y33079
X84437Y34260
X85855Y34378
X86721Y34378
X86248Y35362
X85107Y35677
X77548Y36662
X75894Y40205
X74201Y40166
X73099Y42607
X77193Y43276
X76051Y44929
X73256Y45048
X80422Y42764
X82666Y42646
X82666Y40914
X85264Y42055
X86091Y42410
X83059Y46386
X68925Y40048
X67075Y37843
X67902Y36229
X69555Y37016
X65540Y36347
X67823Y34418
X69634Y33000
X67351Y32331
X65382Y32252
X66130Y31189
X66327Y29339
X68177Y31071
X65382Y33866
X61445Y32370
X60264Y31110
X59201Y32292
X58650Y33945
X59477Y34614
X57981Y36465
X54634Y36819
X54122Y38158
X52075Y38000
X54477Y39811
X51760Y42213
X50973Y43670
X52941Y43394
X50855Y45677
X53689Y47607
X53689Y48000
X52351Y48158
X52351Y49024
X51878Y50362
X51445Y51859
X49634Y51740
X47666Y51701
X45736Y51583
X43650Y51386
X38414Y56425
X35815Y55677
X32823Y56110
X28532Y56465
X27075Y55244
X26327Y56150
X24792Y56662
X24752Y53040
X27075Y53276
X28374Y51859
X27311Y50481
X28689Y49378
X27705Y48197
X28768Y47252
X30303Y48158
X30658Y50126
X30264Y51937
X24870Y50205
X25028Y47567
X25579Y45638
X27075Y44772
X27548Y44929
X27902Y44536
X29831Y44221
X32075Y44693
X32075Y46662
X34240Y46780
X36288Y47055
X35382Y43906
X33217Y42764
X31130Y41504
X31130Y41110
X31130Y40717
X32390Y40087
X31130Y39496
X31130Y39103
X31130Y38709
X32390Y38079
X30185Y37370
X28492Y38709
X28492Y39103
X28492Y39496
X28492Y40717
X28492Y41110
X28492Y41504
X25303Y41347
X25343Y39221
X24988Y36937
X26603Y36150
X26996Y35992
X28099Y34733
X26996Y34024
X26524Y32803
X27902Y31386
X25185Y30796
X26839Y28945
X28059Y27882
X29831Y26819
X32075Y26819
X30225Y24733
X31996Y24221
X29359Y22331
X27626Y20835
X25185Y20914
X26681Y23315
X24870Y24378
X26524Y25953
X27548Y25402
X24792Y28040
X25185Y34418
X30264Y35835
X30697Y34772
X32233Y35874
X38177Y35559
X38296Y36544
X40303Y35402
X40776Y37213
X42862Y37134
X44831Y37173
X46130Y37370
X49122Y36386
X48532Y34181
X46799Y33591
X45067Y34063
X44516Y32685
X44949Y31977
X44949Y31150
X42981Y31268
X40815Y29811
X40658Y29024
X40658Y28630
X40658Y28236
X40067Y27134
X40067Y26740
X41681Y26544
X41681Y26937
X41681Y27331
X43256Y28394
X44359Y29260
X45343Y28394
X46327Y28236
X46485Y29299
X48296Y29221
X47823Y27922
X46288Y27331
X46288Y26937
X46288Y26544
X46288Y25008
X44280Y24929
X42862Y24103
X42548Y23158
X40973Y22410
X40146Y23000
X40579Y24851
X37114Y24575
X43847Y26544
X43847Y26937
X43847Y27331
X46327Y23827
X46248Y22961
X45303Y23158
X44949Y22095
X52587Y18985
X52587Y16977
X52587Y16189
X52587Y15402
X51799Y14733
X51366Y15402
X52587Y14614
X52626Y13827
X53532Y14142
X53689Y13591
X54595Y13670
X54752Y14221
X55540Y14024
X57311Y13788
X58571Y13551
X59201Y13591
X59477Y14142
X60894Y13906
X62036Y13551
X63965Y12882
X64713Y13079
X64240Y13709
X63965Y14339
X65028Y14536
X65500Y13236
X65579Y12764
X66642Y12488
X68335Y12528
X69437Y12567
X70815Y12528
X71366Y12528
X73414Y13079
X75185Y13473
X75618Y13512
X76130Y13551
X75894Y12843
X75422Y12449
X75579Y11544
X76406Y12449
X77390Y12843
X76918Y13591
X77981Y13551
X77862Y14299
X76918Y14811
X77075Y15599
X75973Y15559
X75185Y14536
X74713Y14536
X73335Y14811
X71760Y15441
X70264Y15638
X70618Y14142
X71681Y14024
X68020Y15756
X67429Y14418
X66662Y13551
X65973Y15677
X63689Y15677
X61130Y14772
X60697Y12567
X61485Y12528
X62823Y12528
X61051Y10953
X62587Y10323
X65461Y11229
X67351Y11071
X67941Y10914
X68296Y11032
X69437Y11110
X70697Y10481
X72666Y10441
X73965Y11780
X75264Y10520
X77075Y11268
X78768Y11544
X79988Y11465
X79359Y12725
X79673Y13473
X78886Y13591
X78453Y12764
X80618Y12725
X80855Y13158
X81642Y13315
X81603Y12764
X82351Y11544
X84044Y11386
X84752Y10835
X81170Y10402
X78689Y10441
X80894Y14260
X83650Y14536
X85225Y14929
X86524Y14299
X86130Y13866
X86327Y15992
X86839Y17410
X86799Y18709
X85382Y19339
X85500Y20481
X86839Y20126
X86839Y21977
X85500Y22016
X84988Y21544
X84044Y20835
X82705Y21740
X82508Y21504
X81721Y22055
X80107Y22095
X80343Y23394
X80697Y24063
X79910Y24063
X81642Y24929
X81603Y26189
X83059Y26977
X85028Y26977
X84044Y25953
X85028Y24969
X86209Y25362
X85855Y23709
X86839Y23197
X84044Y23985
X81248Y21110
X81878Y19851
X80185Y19733
X81524Y18591
X81918Y17410
X82862Y18473
X84044Y19260
X85185Y17685
X80185Y17607
X80422Y16110
X76248Y18985
X75225Y18197
X72823Y17843
X71721Y19103
X69910Y17961
X67508Y18512
X65776Y17843
X57075Y10874
X59044Y10323
X54988Y10205
X52902Y10874
X51170Y10638
X51130Y13945
X53532Y14929
X50618Y17252
X47548Y17134
X46485Y17134
X40973Y14378
X39595Y15599
X38335Y14811
X37941Y14811
X37548Y14811
X36681Y15362
X36681Y15756
X36681Y16150
X36721Y17173
X36051Y17803
X35658Y17803
X35264Y17803
X34949Y17173
X34555Y15914
X32862Y15284
X34673Y14063
X35736Y13630
X36681Y13630
X36563Y14418
X36524Y12685
X35697Y12685
X30028Y15638
X29673Y17252
X28925Y16937
X26957Y18591
X25579Y18473
X25303Y16071
X34713Y18551
X38453Y16780
X53138Y22882
X58296Y25914
X57351Y26544
X57351Y26937
X57351Y27331
X58177Y27961
X57390Y28315
X57193Y29221
X55343Y29299
X55736Y28040
X55461Y30284
X57154Y30244
X57351Y31110
X58374Y30126
X59240Y29260
X60185Y28276
X59516Y27331
X59516Y26937
X59516Y26544
X60776Y25874
X61681Y26544
X61681Y26937
X61681Y27331
X62626Y25441
X59477Y25323
X52390Y29221
X51721Y28040
X50185Y29260
X50461Y30835
X51091Y31268
X50225Y32331
X49359Y31307
X48177Y32292
X47390Y31347
X50697Y34221
X52193Y33906
X53886Y33000
X52233Y32252
X53256Y30874
X53414Y30323
X55382Y32252
X57272Y32370
X55028Y34575
X49477Y39536
X46878Y40402
X44359Y40441
X42981Y38670
X42666Y35048
X41051Y33355
X43099Y32764
X49162Y43236
X55146Y45796
X56996Y44614
X57311Y46662
X56091Y47607
X56091Y48000
X55067Y48748
X57233Y48748
X58610Y48000
X58610Y47607
X59595Y48866
X60461Y48000
X60461Y47607
X62862Y48276
X65303Y48748
X64870Y46504
X64555Y44496
X55225Y51780
X53650Y51740
X49792Y56740
X47823Y56780
X45658Y56740
X24988Y44260
X37981Y43866
X79673Y25992
X80461Y27607
X80382Y29260
X81760Y28788
X83059Y28945
X84792Y29851
X85028Y28945
X86209Y28512
X86563Y30244
X84673Y30796
X82784Y30914
X80461Y30677
X67233Y10284
T02
X41859Y21859
T03
X86504Y30947
X86504Y33762
T04
X76819Y34673
X76819Y36032
X39595Y13709
X39595Y12016
X33689Y25087
X33689Y26347
X38256Y30638
T05
X59122Y24012
X59122Y23012
X59122Y21374
X59122Y20374
X59122Y18776
X59122Y17776
X83807Y31870
X83807Y32870
T06
X76827Y29807
X76827Y28807
X75827Y28807
X74827Y28807
X73827Y28807
X72827Y28807
X71827Y28807
X70827Y28807
X69827Y28807
X68827Y28807
X67827Y28807
X66827Y28807
X65827Y28807
X64827Y28807
X63827Y28807
X62827Y28807
X61827Y28807
X60827Y28807
X59827Y28807
X58827Y28807
X57827Y28807
X56827Y28807
X55827Y28807
X54827Y28807
X53827Y28807
X52827Y28807
X51827Y28807
X50827Y28807
X49827Y28807
X48827Y28807
X47827Y28807
X46827Y28807
X45827Y28807
X44827Y28807
X43827Y28807
X42827Y28807
X41827Y28807
X41827Y29807
X42827Y29807
X43827Y29807
X44827Y29807
X45827Y29807
X46827Y29807
X47827Y29807
X48827Y29807
X49827Y29807
X50827Y29807
X51827Y29807
X52827Y29807
X53827Y29807
X54827Y29807
X55827Y29807
X56827Y29807
X57827Y29807
X58827Y29807
X59827Y29807
X60827Y29807
X61827Y29807
X62827Y29807
X63827Y29807
X64827Y29807
X65827Y29807
X66827Y29807
X67827Y29807
X68827Y29807
X69827Y29807
X70827Y29807
X71827Y29807
X72827Y29807
X73827Y29807
X74827Y29807
X75827Y29807
X68827Y31807
X67827Y31807
X66827Y31807
X65827Y31807
X64827Y31807
X63827Y31807
X62827Y31807
X61827Y31807
X60827Y31807
X59827Y31807
X58827Y31807
X57827Y31807
X56827Y31807
X55827Y31807
X54827Y31807
X54827Y32807
X55827Y32807
X56827Y32807
X57827Y32807
X58827Y32807
X59827Y32807
X60827Y32807
X61827Y32807
X62827Y32807
X63827Y32807
X64827Y32807
X65827Y32807
X66827Y32807
X67827Y32807
X68827Y32807
X52827Y32807
X51827Y32807
X50827Y32807
X49827Y32807
X48827Y32807
X47827Y32807
X46827Y32807
X45827Y32807
X45827Y31807
X46827Y31807
X47827Y31807
X48827Y31807
X49827Y31807
X50827Y31807
X51827Y31807
X52827Y31807
X52827Y49807
X53827Y49807
X54827Y49807
X55827Y49807
X56827Y49807
X57827Y49807
X58827Y49807
X59827Y49807
X60827Y49807
X61827Y49807
X62827Y49807
X63827Y49807
X64827Y49807
X65827Y49807
X66827Y49807
X67827Y49807
X68827Y49807
X68827Y50807
X67827Y50807
X66827Y50807
X65827Y50807
X64827Y50807
X63827Y50807
X62827Y50807
X61827Y50807
X60827Y50807
X59827Y50807
X58827Y50807
X57827Y50807
X56827Y50807
X55827Y50807
X54827Y50807
X53827Y50807
X52827Y50807
X51227Y50807
X50227Y50807
X49227Y50807
X48227Y50807
X47227Y50807
X46227Y50807
X45227Y50807
X44227Y50807
X43227Y50807
X42227Y50807
X42227Y49807
X43227Y49807
X44227Y49807
X45227Y49807
X46227Y49807
X47227Y49807
X48227Y49807
X49227Y49807
X50227Y49807
X51227Y49807
X50835Y52807
X51835Y52807
X52835Y52807
X53835Y52807
X54835Y52807
X55835Y52807
X56835Y52807
X57835Y52807
X58835Y52807
X59835Y52807
X60835Y52807
X61835Y52807
X62835Y52807
X63835Y52807
X64835Y52807
X65835Y52807
X66835Y52807
X67835Y52807
X68835Y52807
X69835Y52807
X70835Y52807
X71835Y52807
X72835Y52807
X73835Y52807
X74835Y52807
X75835Y52807
X76835Y52807
X76835Y53807
X75835Y53807
X74835Y53807
X73835Y53807
X72835Y53807
X71835Y53807
X70835Y53807
X69835Y53807
X68835Y53807
X67835Y53807
X66835Y53807
X65835Y53807
X64835Y53807
X63835Y53807
X62835Y53807
X61835Y53807
X60835Y53807
X59835Y53807
X58835Y53807
X57835Y53807
X56835Y53807
X55835Y53807
X54835Y53807
X53835Y53807
X52835Y53807
X51835Y53807
X50835Y53807
X49835Y53807
X49835Y52807
X48835Y52807
X47835Y52807
X46835Y52807
X45835Y52807
X44835Y52807
X43835Y52807
X42835Y52807
X41835Y52807
X41835Y53807
X42835Y53807
X43835Y53807
X44835Y53807
X45835Y53807
X46835Y53807
X47835Y53807
X48835Y53807
X53036Y13051
X54036Y13051
X56890Y13028
X57890Y13028
X58890Y13028
X59890Y13028
X69079Y13028
X70079Y13028
X71079Y13028
X38118Y13028
X37118Y13028
X36118Y13028
X35118Y13028
X32213Y13048
X31213Y13048
X30213Y13048
X29213Y13048
X28213Y13048
T07
X75414Y14036
X76414Y14036
X77414Y14036
X78414Y14036
X79414Y14036
X80414Y14036
X81414Y14036
X81414Y15036
X80414Y15036
X79414Y15036
X78414Y15036
X77414Y15036
X76414Y15036
X75414Y15036
T08
X27626Y37292
X27626Y38292
X27626Y39292
X27626Y40292
X27626Y41292
X27626Y42292
T09
X47949Y13922
X47949Y11166
T10
X41799Y10992
X25658Y11386
X64083Y10835
X85500Y11386
X85500Y55481
X25658Y55481
T11
X40827Y50807
X60827Y44807
X70327Y50307
X70327Y32307
X40327Y31807
M30
