<?xml version="1.0" encoding="utf-8"?>
<!-- Generator: Adobe Illustrator 19.0.0, SVG Export Plug-In . SVG Version: 6.00 Build 0)  -->
<svg version="1.1" id="Layer_1" xmlns="http://www.w3.org/2000/svg" xmlns:xlink="http://www.w3.org/1999/xlink" x="0px" y="0px"
	 viewBox="0 0 500 500" style="enable-background:new 0 0 500 500;" xml:space="preserve">
<style type="text/css">
	.st0{fill:#990000;}
</style>
<g id="XMLID_1_">
	<path id="XMLID_13_" class="st0" d="M417.8,222.8l1-10.8h-17.5c-4.9,0-6.9-2.3-6.6-5.1c0.1-0.8,0.1-1.3,0.2-1.7l-13.5-0.1
		c-0.4,4.1,1.7,6.6,6.2,7.5l0,0.1h-5.9l-0.9,10.2H417.8z M420.8,191.7h-50.9l-1,10.7h50.9L420.8,191.7z M382.4,177.2h-11.6
		l-1.1,10.8h11.6L382.4,177.2z M422.2,177.2h-36.6l-1.1,10.8h36.6L422.2,177.2z M361.3,290h31.3c12,0,19.8-6.8,20.7-16.5
		c0.8-8.3-5.5-15.8-18.1-15.8c-9.4,0-19.4,6-20.2,14.3c-0.3,3.1,0.5,4.6,1.7,6.8h-14.5L361.3,290z M399.6,227.8
		c3.4,2.3,5.5,7.1,5.2,10.3c-0.1,1-0.4,2.4-0.9,3.3l-12.7-15.5c-7.3,2.5-12.4,7.8-13,14.7c-0.8,8.6,6,15.7,18.5,15.7
		c10.1,0,19-6.7,19.9-16.1c0.5-5.7-0.5-8.4-3.3-13.1L399.6,227.8z M385.9,172.5h36.7l1.1-11h-21.6c-1.7,0-4.5-0.5-4.5-2.8
		c0-2.3,2.3-2.9,3.8-2.9h22.8l1-10.9h-24.2c-7.1,0-13.6,2.7-14.1,8.4c-0.2,2.8,1.4,6.1,4.9,8.4l0,0.2H387L385.9,172.5z M347.5,136.8
		h85l-15.7,163.5c-2,47.5-41.2,85.5-89.2,85.5l-4,0L347.5,136.8z M393.6,278.7c-3.1,0-5.6-1.8-5.3-4.5c0.2-2.7,3.1-4.5,6.2-4.5
		c3.1,0,5.6,1.8,5.3,4.5C399.6,276.9,396.7,278.7,393.6,278.7z M397.4,244.8c-0.6,0.2-1.1,0.5-2.6,0.5c-3.1,0-6.1-1.9-5.9-4.7
		c0.1-1.5,0.6-2.6,2.2-3.5L397.4,244.8"/>
	<path id="XMLID_14_" class="st0" d="M335.5,160.5L313.9,385c-48-8.4-80.4-33.3-76-79.8l0-0.1l10.3-107.2H109
		C86,197.6,67.5,179,67.5,156c0-23,18.5-41.6,41.5-41.8h185c23,0.1,41.7,18.8,41.7,41.8C335.7,157.5,335.6,159,335.5,160.5"/>
	<polyline id="XMLID_15_" class="st0" points="152.6,207.1 228.9,207.1 213.9,363.4 137.5,363.4 152.6,207.1 	"/>
</g>
</svg>
