G04 #@! TF.GenerationSoftware,KiCad,Pcbnew,(5.1.5)-3*
G04 #@! TF.CreationDate,2020-03-10T17:23:55+01:00*
G04 #@! TF.ProjectId,User_Interface_Board,55736572-5f49-46e7-9465-72666163655f,rev?*
G04 #@! TF.SameCoordinates,Original*
G04 #@! TF.FileFunction,Copper,L2,Bot*
G04 #@! TF.FilePolarity,Positive*
%FSLAX46Y46*%
G04 Gerber Fmt 4.6, Leading zero omitted, Abs format (unit mm)*
G04 Created by KiCad (PCBNEW (5.1.5)-3) date 2020-03-10 17:23:55*
%MOMM*%
%LPD*%
G04 APERTURE LIST*
%ADD10C,0.250000*%
%ADD11C,1.524000*%
%ADD12R,1.700000X1.700000*%
%ADD13O,1.700000X1.700000*%
%ADD14C,0.100000*%
%ADD15C,3.500000*%
%ADD16C,2.500000*%
%ADD17C,1.500000*%
%ADD18C,0.800000*%
%ADD19C,0.600000*%
%ADD20C,0.800000*%
%ADD21C,0.254000*%
G04 APERTURE END LIST*
D10*
X173533333Y-64302380D02*
X173533333Y-63302380D01*
X173295238Y-63302380D01*
X173152380Y-63350000D01*
X173057142Y-63445238D01*
X173009523Y-63540476D01*
X172961904Y-63730952D01*
X172961904Y-63873809D01*
X173009523Y-64064285D01*
X173057142Y-64159523D01*
X173152380Y-64254761D01*
X173295238Y-64302380D01*
X173533333Y-64302380D01*
X172580952Y-64254761D02*
X172438095Y-64302380D01*
X172200000Y-64302380D01*
X172104761Y-64254761D01*
X172057142Y-64207142D01*
X172009523Y-64111904D01*
X172009523Y-64016666D01*
X172057142Y-63921428D01*
X172104761Y-63873809D01*
X172200000Y-63826190D01*
X172390476Y-63778571D01*
X172485714Y-63730952D01*
X172533333Y-63683333D01*
X172580952Y-63588095D01*
X172580952Y-63492857D01*
X172533333Y-63397619D01*
X172485714Y-63350000D01*
X172390476Y-63302380D01*
X172152380Y-63302380D01*
X172009523Y-63350000D01*
X171580952Y-64302380D02*
X171580952Y-63302380D01*
X171200000Y-63302380D01*
X171104761Y-63350000D01*
X171057142Y-63397619D01*
X171009523Y-63492857D01*
X171009523Y-63635714D01*
X171057142Y-63730952D01*
X171104761Y-63778571D01*
X171200000Y-63826190D01*
X171580952Y-63826190D01*
X169342857Y-64302380D02*
X169819047Y-64302380D01*
X169819047Y-63302380D01*
X169057142Y-64016666D02*
X168580952Y-64016666D01*
X169152380Y-64302380D02*
X168819047Y-63302380D01*
X168485714Y-64302380D01*
X167819047Y-63778571D02*
X167676190Y-63826190D01*
X167628571Y-63873809D01*
X167580952Y-63969047D01*
X167580952Y-64111904D01*
X167628571Y-64207142D01*
X167676190Y-64254761D01*
X167771428Y-64302380D01*
X168152380Y-64302380D01*
X168152380Y-63302380D01*
X167819047Y-63302380D01*
X167723809Y-63350000D01*
X167676190Y-63397619D01*
X167628571Y-63492857D01*
X167628571Y-63588095D01*
X167676190Y-63683333D01*
X167723809Y-63730952D01*
X167819047Y-63778571D01*
X168152380Y-63778571D01*
X173533333Y-65052380D02*
X173295238Y-66052380D01*
X173104761Y-65338095D01*
X172914285Y-66052380D01*
X172676190Y-65052380D01*
X172342857Y-66004761D02*
X172200000Y-66052380D01*
X171961904Y-66052380D01*
X171866666Y-66004761D01*
X171819047Y-65957142D01*
X171771428Y-65861904D01*
X171771428Y-65766666D01*
X171819047Y-65671428D01*
X171866666Y-65623809D01*
X171961904Y-65576190D01*
X172152380Y-65528571D01*
X172247619Y-65480952D01*
X172295238Y-65433333D01*
X172342857Y-65338095D01*
X172342857Y-65242857D01*
X172295238Y-65147619D01*
X172247619Y-65100000D01*
X172152380Y-65052380D01*
X171914285Y-65052380D01*
X171771428Y-65100000D01*
X170819047Y-66052380D02*
X171390476Y-66052380D01*
X171104761Y-66052380D02*
X171104761Y-65052380D01*
X171200000Y-65195238D01*
X171295238Y-65290476D01*
X171390476Y-65338095D01*
X170342857Y-66052380D02*
X170152380Y-66052380D01*
X170057142Y-66004761D01*
X170009523Y-65957142D01*
X169914285Y-65814285D01*
X169866666Y-65623809D01*
X169866666Y-65242857D01*
X169914285Y-65147619D01*
X169961904Y-65100000D01*
X170057142Y-65052380D01*
X170247619Y-65052380D01*
X170342857Y-65100000D01*
X170390476Y-65147619D01*
X170438095Y-65242857D01*
X170438095Y-65480952D01*
X170390476Y-65576190D01*
X170342857Y-65623809D01*
X170247619Y-65671428D01*
X170057142Y-65671428D01*
X169961904Y-65623809D01*
X169914285Y-65576190D01*
X169866666Y-65480952D01*
X168723809Y-65004761D02*
X169580952Y-66290476D01*
X168438095Y-65147619D02*
X168390476Y-65100000D01*
X168295238Y-65052380D01*
X168057142Y-65052380D01*
X167961904Y-65100000D01*
X167914285Y-65147619D01*
X167866666Y-65242857D01*
X167866666Y-65338095D01*
X167914285Y-65480952D01*
X168485714Y-66052380D01*
X167866666Y-66052380D01*
X167247619Y-65052380D02*
X167152380Y-65052380D01*
X167057142Y-65100000D01*
X167009523Y-65147619D01*
X166961904Y-65242857D01*
X166914285Y-65433333D01*
X166914285Y-65671428D01*
X166961904Y-65861904D01*
X167009523Y-65957142D01*
X167057142Y-66004761D01*
X167152380Y-66052380D01*
X167247619Y-66052380D01*
X167342857Y-66004761D01*
X167390476Y-65957142D01*
X167438095Y-65861904D01*
X167485714Y-65671428D01*
X167485714Y-65433333D01*
X167438095Y-65242857D01*
X167390476Y-65147619D01*
X167342857Y-65100000D01*
X167247619Y-65052380D01*
X175319047Y-66802380D02*
X175319047Y-67611904D01*
X175271428Y-67707142D01*
X175223809Y-67754761D01*
X175128571Y-67802380D01*
X174938095Y-67802380D01*
X174842857Y-67754761D01*
X174795238Y-67707142D01*
X174747619Y-67611904D01*
X174747619Y-66802380D01*
X174319047Y-67754761D02*
X174223809Y-67802380D01*
X174033333Y-67802380D01*
X173938095Y-67754761D01*
X173890476Y-67659523D01*
X173890476Y-67611904D01*
X173938095Y-67516666D01*
X174033333Y-67469047D01*
X174176190Y-67469047D01*
X174271428Y-67421428D01*
X174319047Y-67326190D01*
X174319047Y-67278571D01*
X174271428Y-67183333D01*
X174176190Y-67135714D01*
X174033333Y-67135714D01*
X173938095Y-67183333D01*
X173080952Y-67754761D02*
X173176190Y-67802380D01*
X173366666Y-67802380D01*
X173461904Y-67754761D01*
X173509523Y-67659523D01*
X173509523Y-67278571D01*
X173461904Y-67183333D01*
X173366666Y-67135714D01*
X173176190Y-67135714D01*
X173080952Y-67183333D01*
X173033333Y-67278571D01*
X173033333Y-67373809D01*
X173509523Y-67469047D01*
X172604761Y-67802380D02*
X172604761Y-67135714D01*
X172604761Y-67326190D02*
X172557142Y-67230952D01*
X172509523Y-67183333D01*
X172414285Y-67135714D01*
X172319047Y-67135714D01*
X171223809Y-67802380D02*
X171223809Y-66802380D01*
X170747619Y-67135714D02*
X170747619Y-67802380D01*
X170747619Y-67230952D02*
X170700000Y-67183333D01*
X170604761Y-67135714D01*
X170461904Y-67135714D01*
X170366666Y-67183333D01*
X170319047Y-67278571D01*
X170319047Y-67802380D01*
X169985714Y-67135714D02*
X169604761Y-67135714D01*
X169842857Y-66802380D02*
X169842857Y-67659523D01*
X169795238Y-67754761D01*
X169700000Y-67802380D01*
X169604761Y-67802380D01*
X168890476Y-67754761D02*
X168985714Y-67802380D01*
X169176190Y-67802380D01*
X169271428Y-67754761D01*
X169319047Y-67659523D01*
X169319047Y-67278571D01*
X169271428Y-67183333D01*
X169176190Y-67135714D01*
X168985714Y-67135714D01*
X168890476Y-67183333D01*
X168842857Y-67278571D01*
X168842857Y-67373809D01*
X169319047Y-67469047D01*
X168414285Y-67802380D02*
X168414285Y-67135714D01*
X168414285Y-67326190D02*
X168366666Y-67230952D01*
X168319047Y-67183333D01*
X168223809Y-67135714D01*
X168128571Y-67135714D01*
X167938095Y-67135714D02*
X167557142Y-67135714D01*
X167795238Y-67802380D02*
X167795238Y-66945238D01*
X167747619Y-66850000D01*
X167652380Y-66802380D01*
X167557142Y-66802380D01*
X166795238Y-67802380D02*
X166795238Y-67278571D01*
X166842857Y-67183333D01*
X166938095Y-67135714D01*
X167128571Y-67135714D01*
X167223809Y-67183333D01*
X166795238Y-67754761D02*
X166890476Y-67802380D01*
X167128571Y-67802380D01*
X167223809Y-67754761D01*
X167271428Y-67659523D01*
X167271428Y-67564285D01*
X167223809Y-67469047D01*
X167128571Y-67421428D01*
X166890476Y-67421428D01*
X166795238Y-67373809D01*
X165890476Y-67754761D02*
X165985714Y-67802380D01*
X166176190Y-67802380D01*
X166271428Y-67754761D01*
X166319047Y-67707142D01*
X166366666Y-67611904D01*
X166366666Y-67326190D01*
X166319047Y-67230952D01*
X166271428Y-67183333D01*
X166176190Y-67135714D01*
X165985714Y-67135714D01*
X165890476Y-67183333D01*
X165080952Y-67754761D02*
X165176190Y-67802380D01*
X165366666Y-67802380D01*
X165461904Y-67754761D01*
X165509523Y-67659523D01*
X165509523Y-67278571D01*
X165461904Y-67183333D01*
X165366666Y-67135714D01*
X165176190Y-67135714D01*
X165080952Y-67183333D01*
X165033333Y-67278571D01*
X165033333Y-67373809D01*
X165509523Y-67469047D01*
D11*
X138900000Y-87890000D03*
X138900000Y-85350000D03*
X138900000Y-82810000D03*
X138900000Y-80270000D03*
X138900000Y-77730000D03*
X138900000Y-75190000D03*
X138900000Y-72650000D03*
X138900000Y-70110000D03*
X141440000Y-87890000D03*
X141440000Y-85350000D03*
X141440000Y-82810000D03*
X141440000Y-80270000D03*
X141440000Y-77730000D03*
X141440000Y-75190000D03*
X141440000Y-72650000D03*
X141440000Y-70110000D03*
D12*
X132800000Y-101100000D03*
D13*
X132800000Y-103640000D03*
X149600000Y-116040000D03*
X149600000Y-113500000D03*
D12*
X149600000Y-110960000D03*
D13*
X147000000Y-88280000D03*
X147000000Y-85740000D03*
X147000000Y-83200000D03*
X147000000Y-80660000D03*
X147000000Y-78120000D03*
X147000000Y-75580000D03*
X147000000Y-73040000D03*
D12*
X147000000Y-70500000D03*
D13*
X192600000Y-115180000D03*
X192600000Y-112640000D03*
X192600000Y-110100000D03*
X192600000Y-107560000D03*
D12*
X192600000Y-105020000D03*
D13*
X138400000Y-103640000D03*
D12*
X138400000Y-101100000D03*
X144000000Y-101100000D03*
D13*
X144000000Y-103640000D03*
X149600000Y-103640000D03*
D12*
X149600000Y-101100000D03*
G04 #@! TA.AperFunction,SMDPad,CuDef*
D14*
G36*
X136074505Y-98476204D02*
G01*
X136098773Y-98479804D01*
X136122572Y-98485765D01*
X136145671Y-98494030D01*
X136167850Y-98504520D01*
X136188893Y-98517132D01*
X136208599Y-98531747D01*
X136226777Y-98548223D01*
X136243253Y-98566401D01*
X136257868Y-98586107D01*
X136270480Y-98607150D01*
X136280970Y-98629329D01*
X136289235Y-98652428D01*
X136295196Y-98676227D01*
X136298796Y-98700495D01*
X136300000Y-98724999D01*
X136300000Y-99375001D01*
X136298796Y-99399505D01*
X136295196Y-99423773D01*
X136289235Y-99447572D01*
X136280970Y-99470671D01*
X136270480Y-99492850D01*
X136257868Y-99513893D01*
X136243253Y-99533599D01*
X136226777Y-99551777D01*
X136208599Y-99568253D01*
X136188893Y-99582868D01*
X136167850Y-99595480D01*
X136145671Y-99605970D01*
X136122572Y-99614235D01*
X136098773Y-99620196D01*
X136074505Y-99623796D01*
X136050001Y-99625000D01*
X135149999Y-99625000D01*
X135125495Y-99623796D01*
X135101227Y-99620196D01*
X135077428Y-99614235D01*
X135054329Y-99605970D01*
X135032150Y-99595480D01*
X135011107Y-99582868D01*
X134991401Y-99568253D01*
X134973223Y-99551777D01*
X134956747Y-99533599D01*
X134942132Y-99513893D01*
X134929520Y-99492850D01*
X134919030Y-99470671D01*
X134910765Y-99447572D01*
X134904804Y-99423773D01*
X134901204Y-99399505D01*
X134900000Y-99375001D01*
X134900000Y-98724999D01*
X134901204Y-98700495D01*
X134904804Y-98676227D01*
X134910765Y-98652428D01*
X134919030Y-98629329D01*
X134929520Y-98607150D01*
X134942132Y-98586107D01*
X134956747Y-98566401D01*
X134973223Y-98548223D01*
X134991401Y-98531747D01*
X135011107Y-98517132D01*
X135032150Y-98504520D01*
X135054329Y-98494030D01*
X135077428Y-98485765D01*
X135101227Y-98479804D01*
X135125495Y-98476204D01*
X135149999Y-98475000D01*
X136050001Y-98475000D01*
X136074505Y-98476204D01*
G37*
G04 #@! TD.AperFunction*
G04 #@! TA.AperFunction,SMDPad,CuDef*
G36*
X136074505Y-100526204D02*
G01*
X136098773Y-100529804D01*
X136122572Y-100535765D01*
X136145671Y-100544030D01*
X136167850Y-100554520D01*
X136188893Y-100567132D01*
X136208599Y-100581747D01*
X136226777Y-100598223D01*
X136243253Y-100616401D01*
X136257868Y-100636107D01*
X136270480Y-100657150D01*
X136280970Y-100679329D01*
X136289235Y-100702428D01*
X136295196Y-100726227D01*
X136298796Y-100750495D01*
X136300000Y-100774999D01*
X136300000Y-101425001D01*
X136298796Y-101449505D01*
X136295196Y-101473773D01*
X136289235Y-101497572D01*
X136280970Y-101520671D01*
X136270480Y-101542850D01*
X136257868Y-101563893D01*
X136243253Y-101583599D01*
X136226777Y-101601777D01*
X136208599Y-101618253D01*
X136188893Y-101632868D01*
X136167850Y-101645480D01*
X136145671Y-101655970D01*
X136122572Y-101664235D01*
X136098773Y-101670196D01*
X136074505Y-101673796D01*
X136050001Y-101675000D01*
X135149999Y-101675000D01*
X135125495Y-101673796D01*
X135101227Y-101670196D01*
X135077428Y-101664235D01*
X135054329Y-101655970D01*
X135032150Y-101645480D01*
X135011107Y-101632868D01*
X134991401Y-101618253D01*
X134973223Y-101601777D01*
X134956747Y-101583599D01*
X134942132Y-101563893D01*
X134929520Y-101542850D01*
X134919030Y-101520671D01*
X134910765Y-101497572D01*
X134904804Y-101473773D01*
X134901204Y-101449505D01*
X134900000Y-101425001D01*
X134900000Y-100774999D01*
X134901204Y-100750495D01*
X134904804Y-100726227D01*
X134910765Y-100702428D01*
X134919030Y-100679329D01*
X134929520Y-100657150D01*
X134942132Y-100636107D01*
X134956747Y-100616401D01*
X134973223Y-100598223D01*
X134991401Y-100581747D01*
X135011107Y-100567132D01*
X135032150Y-100554520D01*
X135054329Y-100544030D01*
X135077428Y-100535765D01*
X135101227Y-100529804D01*
X135125495Y-100526204D01*
X135149999Y-100525000D01*
X136050001Y-100525000D01*
X136074505Y-100526204D01*
G37*
G04 #@! TD.AperFunction*
G04 #@! TA.AperFunction,SMDPad,CuDef*
G36*
X141674505Y-100526204D02*
G01*
X141698773Y-100529804D01*
X141722572Y-100535765D01*
X141745671Y-100544030D01*
X141767850Y-100554520D01*
X141788893Y-100567132D01*
X141808599Y-100581747D01*
X141826777Y-100598223D01*
X141843253Y-100616401D01*
X141857868Y-100636107D01*
X141870480Y-100657150D01*
X141880970Y-100679329D01*
X141889235Y-100702428D01*
X141895196Y-100726227D01*
X141898796Y-100750495D01*
X141900000Y-100774999D01*
X141900000Y-101425001D01*
X141898796Y-101449505D01*
X141895196Y-101473773D01*
X141889235Y-101497572D01*
X141880970Y-101520671D01*
X141870480Y-101542850D01*
X141857868Y-101563893D01*
X141843253Y-101583599D01*
X141826777Y-101601777D01*
X141808599Y-101618253D01*
X141788893Y-101632868D01*
X141767850Y-101645480D01*
X141745671Y-101655970D01*
X141722572Y-101664235D01*
X141698773Y-101670196D01*
X141674505Y-101673796D01*
X141650001Y-101675000D01*
X140749999Y-101675000D01*
X140725495Y-101673796D01*
X140701227Y-101670196D01*
X140677428Y-101664235D01*
X140654329Y-101655970D01*
X140632150Y-101645480D01*
X140611107Y-101632868D01*
X140591401Y-101618253D01*
X140573223Y-101601777D01*
X140556747Y-101583599D01*
X140542132Y-101563893D01*
X140529520Y-101542850D01*
X140519030Y-101520671D01*
X140510765Y-101497572D01*
X140504804Y-101473773D01*
X140501204Y-101449505D01*
X140500000Y-101425001D01*
X140500000Y-100774999D01*
X140501204Y-100750495D01*
X140504804Y-100726227D01*
X140510765Y-100702428D01*
X140519030Y-100679329D01*
X140529520Y-100657150D01*
X140542132Y-100636107D01*
X140556747Y-100616401D01*
X140573223Y-100598223D01*
X140591401Y-100581747D01*
X140611107Y-100567132D01*
X140632150Y-100554520D01*
X140654329Y-100544030D01*
X140677428Y-100535765D01*
X140701227Y-100529804D01*
X140725495Y-100526204D01*
X140749999Y-100525000D01*
X141650001Y-100525000D01*
X141674505Y-100526204D01*
G37*
G04 #@! TD.AperFunction*
G04 #@! TA.AperFunction,SMDPad,CuDef*
G36*
X141674505Y-98476204D02*
G01*
X141698773Y-98479804D01*
X141722572Y-98485765D01*
X141745671Y-98494030D01*
X141767850Y-98504520D01*
X141788893Y-98517132D01*
X141808599Y-98531747D01*
X141826777Y-98548223D01*
X141843253Y-98566401D01*
X141857868Y-98586107D01*
X141870480Y-98607150D01*
X141880970Y-98629329D01*
X141889235Y-98652428D01*
X141895196Y-98676227D01*
X141898796Y-98700495D01*
X141900000Y-98724999D01*
X141900000Y-99375001D01*
X141898796Y-99399505D01*
X141895196Y-99423773D01*
X141889235Y-99447572D01*
X141880970Y-99470671D01*
X141870480Y-99492850D01*
X141857868Y-99513893D01*
X141843253Y-99533599D01*
X141826777Y-99551777D01*
X141808599Y-99568253D01*
X141788893Y-99582868D01*
X141767850Y-99595480D01*
X141745671Y-99605970D01*
X141722572Y-99614235D01*
X141698773Y-99620196D01*
X141674505Y-99623796D01*
X141650001Y-99625000D01*
X140749999Y-99625000D01*
X140725495Y-99623796D01*
X140701227Y-99620196D01*
X140677428Y-99614235D01*
X140654329Y-99605970D01*
X140632150Y-99595480D01*
X140611107Y-99582868D01*
X140591401Y-99568253D01*
X140573223Y-99551777D01*
X140556747Y-99533599D01*
X140542132Y-99513893D01*
X140529520Y-99492850D01*
X140519030Y-99470671D01*
X140510765Y-99447572D01*
X140504804Y-99423773D01*
X140501204Y-99399505D01*
X140500000Y-99375001D01*
X140500000Y-98724999D01*
X140501204Y-98700495D01*
X140504804Y-98676227D01*
X140510765Y-98652428D01*
X140519030Y-98629329D01*
X140529520Y-98607150D01*
X140542132Y-98586107D01*
X140556747Y-98566401D01*
X140573223Y-98548223D01*
X140591401Y-98531747D01*
X140611107Y-98517132D01*
X140632150Y-98504520D01*
X140654329Y-98494030D01*
X140677428Y-98485765D01*
X140701227Y-98479804D01*
X140725495Y-98476204D01*
X140749999Y-98475000D01*
X141650001Y-98475000D01*
X141674505Y-98476204D01*
G37*
G04 #@! TD.AperFunction*
G04 #@! TA.AperFunction,SMDPad,CuDef*
G36*
X147274505Y-98476204D02*
G01*
X147298773Y-98479804D01*
X147322572Y-98485765D01*
X147345671Y-98494030D01*
X147367850Y-98504520D01*
X147388893Y-98517132D01*
X147408599Y-98531747D01*
X147426777Y-98548223D01*
X147443253Y-98566401D01*
X147457868Y-98586107D01*
X147470480Y-98607150D01*
X147480970Y-98629329D01*
X147489235Y-98652428D01*
X147495196Y-98676227D01*
X147498796Y-98700495D01*
X147500000Y-98724999D01*
X147500000Y-99375001D01*
X147498796Y-99399505D01*
X147495196Y-99423773D01*
X147489235Y-99447572D01*
X147480970Y-99470671D01*
X147470480Y-99492850D01*
X147457868Y-99513893D01*
X147443253Y-99533599D01*
X147426777Y-99551777D01*
X147408599Y-99568253D01*
X147388893Y-99582868D01*
X147367850Y-99595480D01*
X147345671Y-99605970D01*
X147322572Y-99614235D01*
X147298773Y-99620196D01*
X147274505Y-99623796D01*
X147250001Y-99625000D01*
X146349999Y-99625000D01*
X146325495Y-99623796D01*
X146301227Y-99620196D01*
X146277428Y-99614235D01*
X146254329Y-99605970D01*
X146232150Y-99595480D01*
X146211107Y-99582868D01*
X146191401Y-99568253D01*
X146173223Y-99551777D01*
X146156747Y-99533599D01*
X146142132Y-99513893D01*
X146129520Y-99492850D01*
X146119030Y-99470671D01*
X146110765Y-99447572D01*
X146104804Y-99423773D01*
X146101204Y-99399505D01*
X146100000Y-99375001D01*
X146100000Y-98724999D01*
X146101204Y-98700495D01*
X146104804Y-98676227D01*
X146110765Y-98652428D01*
X146119030Y-98629329D01*
X146129520Y-98607150D01*
X146142132Y-98586107D01*
X146156747Y-98566401D01*
X146173223Y-98548223D01*
X146191401Y-98531747D01*
X146211107Y-98517132D01*
X146232150Y-98504520D01*
X146254329Y-98494030D01*
X146277428Y-98485765D01*
X146301227Y-98479804D01*
X146325495Y-98476204D01*
X146349999Y-98475000D01*
X147250001Y-98475000D01*
X147274505Y-98476204D01*
G37*
G04 #@! TD.AperFunction*
G04 #@! TA.AperFunction,SMDPad,CuDef*
G36*
X147274505Y-100526204D02*
G01*
X147298773Y-100529804D01*
X147322572Y-100535765D01*
X147345671Y-100544030D01*
X147367850Y-100554520D01*
X147388893Y-100567132D01*
X147408599Y-100581747D01*
X147426777Y-100598223D01*
X147443253Y-100616401D01*
X147457868Y-100636107D01*
X147470480Y-100657150D01*
X147480970Y-100679329D01*
X147489235Y-100702428D01*
X147495196Y-100726227D01*
X147498796Y-100750495D01*
X147500000Y-100774999D01*
X147500000Y-101425001D01*
X147498796Y-101449505D01*
X147495196Y-101473773D01*
X147489235Y-101497572D01*
X147480970Y-101520671D01*
X147470480Y-101542850D01*
X147457868Y-101563893D01*
X147443253Y-101583599D01*
X147426777Y-101601777D01*
X147408599Y-101618253D01*
X147388893Y-101632868D01*
X147367850Y-101645480D01*
X147345671Y-101655970D01*
X147322572Y-101664235D01*
X147298773Y-101670196D01*
X147274505Y-101673796D01*
X147250001Y-101675000D01*
X146349999Y-101675000D01*
X146325495Y-101673796D01*
X146301227Y-101670196D01*
X146277428Y-101664235D01*
X146254329Y-101655970D01*
X146232150Y-101645480D01*
X146211107Y-101632868D01*
X146191401Y-101618253D01*
X146173223Y-101601777D01*
X146156747Y-101583599D01*
X146142132Y-101563893D01*
X146129520Y-101542850D01*
X146119030Y-101520671D01*
X146110765Y-101497572D01*
X146104804Y-101473773D01*
X146101204Y-101449505D01*
X146100000Y-101425001D01*
X146100000Y-100774999D01*
X146101204Y-100750495D01*
X146104804Y-100726227D01*
X146110765Y-100702428D01*
X146119030Y-100679329D01*
X146129520Y-100657150D01*
X146142132Y-100636107D01*
X146156747Y-100616401D01*
X146173223Y-100598223D01*
X146191401Y-100581747D01*
X146211107Y-100567132D01*
X146232150Y-100554520D01*
X146254329Y-100544030D01*
X146277428Y-100535765D01*
X146301227Y-100529804D01*
X146325495Y-100526204D01*
X146349999Y-100525000D01*
X147250001Y-100525000D01*
X147274505Y-100526204D01*
G37*
G04 #@! TD.AperFunction*
G04 #@! TA.AperFunction,SMDPad,CuDef*
G36*
X152874505Y-100526204D02*
G01*
X152898773Y-100529804D01*
X152922572Y-100535765D01*
X152945671Y-100544030D01*
X152967850Y-100554520D01*
X152988893Y-100567132D01*
X153008599Y-100581747D01*
X153026777Y-100598223D01*
X153043253Y-100616401D01*
X153057868Y-100636107D01*
X153070480Y-100657150D01*
X153080970Y-100679329D01*
X153089235Y-100702428D01*
X153095196Y-100726227D01*
X153098796Y-100750495D01*
X153100000Y-100774999D01*
X153100000Y-101425001D01*
X153098796Y-101449505D01*
X153095196Y-101473773D01*
X153089235Y-101497572D01*
X153080970Y-101520671D01*
X153070480Y-101542850D01*
X153057868Y-101563893D01*
X153043253Y-101583599D01*
X153026777Y-101601777D01*
X153008599Y-101618253D01*
X152988893Y-101632868D01*
X152967850Y-101645480D01*
X152945671Y-101655970D01*
X152922572Y-101664235D01*
X152898773Y-101670196D01*
X152874505Y-101673796D01*
X152850001Y-101675000D01*
X151949999Y-101675000D01*
X151925495Y-101673796D01*
X151901227Y-101670196D01*
X151877428Y-101664235D01*
X151854329Y-101655970D01*
X151832150Y-101645480D01*
X151811107Y-101632868D01*
X151791401Y-101618253D01*
X151773223Y-101601777D01*
X151756747Y-101583599D01*
X151742132Y-101563893D01*
X151729520Y-101542850D01*
X151719030Y-101520671D01*
X151710765Y-101497572D01*
X151704804Y-101473773D01*
X151701204Y-101449505D01*
X151700000Y-101425001D01*
X151700000Y-100774999D01*
X151701204Y-100750495D01*
X151704804Y-100726227D01*
X151710765Y-100702428D01*
X151719030Y-100679329D01*
X151729520Y-100657150D01*
X151742132Y-100636107D01*
X151756747Y-100616401D01*
X151773223Y-100598223D01*
X151791401Y-100581747D01*
X151811107Y-100567132D01*
X151832150Y-100554520D01*
X151854329Y-100544030D01*
X151877428Y-100535765D01*
X151901227Y-100529804D01*
X151925495Y-100526204D01*
X151949999Y-100525000D01*
X152850001Y-100525000D01*
X152874505Y-100526204D01*
G37*
G04 #@! TD.AperFunction*
G04 #@! TA.AperFunction,SMDPad,CuDef*
G36*
X152874505Y-98476204D02*
G01*
X152898773Y-98479804D01*
X152922572Y-98485765D01*
X152945671Y-98494030D01*
X152967850Y-98504520D01*
X152988893Y-98517132D01*
X153008599Y-98531747D01*
X153026777Y-98548223D01*
X153043253Y-98566401D01*
X153057868Y-98586107D01*
X153070480Y-98607150D01*
X153080970Y-98629329D01*
X153089235Y-98652428D01*
X153095196Y-98676227D01*
X153098796Y-98700495D01*
X153100000Y-98724999D01*
X153100000Y-99375001D01*
X153098796Y-99399505D01*
X153095196Y-99423773D01*
X153089235Y-99447572D01*
X153080970Y-99470671D01*
X153070480Y-99492850D01*
X153057868Y-99513893D01*
X153043253Y-99533599D01*
X153026777Y-99551777D01*
X153008599Y-99568253D01*
X152988893Y-99582868D01*
X152967850Y-99595480D01*
X152945671Y-99605970D01*
X152922572Y-99614235D01*
X152898773Y-99620196D01*
X152874505Y-99623796D01*
X152850001Y-99625000D01*
X151949999Y-99625000D01*
X151925495Y-99623796D01*
X151901227Y-99620196D01*
X151877428Y-99614235D01*
X151854329Y-99605970D01*
X151832150Y-99595480D01*
X151811107Y-99582868D01*
X151791401Y-99568253D01*
X151773223Y-99551777D01*
X151756747Y-99533599D01*
X151742132Y-99513893D01*
X151729520Y-99492850D01*
X151719030Y-99470671D01*
X151710765Y-99447572D01*
X151704804Y-99423773D01*
X151701204Y-99399505D01*
X151700000Y-99375001D01*
X151700000Y-98724999D01*
X151701204Y-98700495D01*
X151704804Y-98676227D01*
X151710765Y-98652428D01*
X151719030Y-98629329D01*
X151729520Y-98607150D01*
X151742132Y-98586107D01*
X151756747Y-98566401D01*
X151773223Y-98548223D01*
X151791401Y-98531747D01*
X151811107Y-98517132D01*
X151832150Y-98504520D01*
X151854329Y-98494030D01*
X151877428Y-98485765D01*
X151901227Y-98479804D01*
X151925495Y-98476204D01*
X151949999Y-98475000D01*
X152850001Y-98475000D01*
X152874505Y-98476204D01*
G37*
G04 #@! TD.AperFunction*
D15*
X182420000Y-99910000D03*
X182420000Y-119410000D03*
X156920000Y-119410000D03*
X156920000Y-99910000D03*
D16*
X152500000Y-65500000D03*
X195500000Y-65500000D03*
X195500000Y-93500000D03*
X152500000Y-93500000D03*
D17*
X135600000Y-97100000D03*
X120200000Y-113200000D03*
X155800000Y-58300000D03*
X189600000Y-105000000D03*
X141200000Y-107600000D03*
X141200000Y-97100000D03*
X146800000Y-97100000D03*
D18*
X120100000Y-108600000D03*
D17*
X140400000Y-90700000D03*
X149100000Y-90700000D03*
X144000000Y-63900000D03*
X152400000Y-97350010D03*
X143699999Y-89600000D03*
D19*
X137822370Y-72650000D02*
X138900000Y-72650000D01*
X137000000Y-71827630D02*
X137822370Y-72650000D01*
X192600000Y-107560000D02*
X189520022Y-110639978D01*
X189520022Y-110639978D02*
X177839978Y-110639978D01*
X177839978Y-110639978D02*
X151100000Y-83900000D01*
X151100000Y-83900000D02*
X151100000Y-68800000D01*
X148799953Y-66499953D02*
X139600047Y-66499953D01*
X151100000Y-68800000D02*
X148799953Y-66499953D01*
X139600047Y-66499953D02*
X137000000Y-69100000D01*
X137000000Y-69100000D02*
X137000000Y-71827630D01*
X177011542Y-112640000D02*
X191397919Y-112640000D01*
X149099978Y-69628434D02*
X149099978Y-84728436D01*
X149099978Y-84728436D02*
X177011542Y-112640000D01*
X191397919Y-112640000D02*
X192600000Y-112640000D01*
X147971544Y-68500000D02*
X149099978Y-69628434D01*
X145590000Y-68500000D02*
X147971544Y-68500000D01*
X141440000Y-72650000D02*
X145590000Y-68500000D01*
X150099989Y-69214217D02*
X150099989Y-84314218D01*
X150099989Y-84314218D02*
X177425760Y-111639989D01*
X177425760Y-111639989D02*
X191060011Y-111639989D01*
X191060011Y-111639989D02*
X191750001Y-110949999D01*
X191750001Y-110949999D02*
X192600000Y-110100000D01*
X148385761Y-67499989D02*
X150099989Y-69214217D01*
X141510011Y-67499989D02*
X148385761Y-67499989D01*
X138900000Y-70110000D02*
X141510011Y-67499989D01*
X141440000Y-87890000D02*
X145900000Y-83430000D01*
X145900000Y-83430000D02*
X147000000Y-83430000D01*
X141440000Y-85350000D02*
X142540000Y-85350000D01*
X142540000Y-85350000D02*
X147000000Y-80890000D01*
X141440000Y-82810000D02*
X142540000Y-82810000D01*
X142540000Y-82810000D02*
X147000000Y-78350000D01*
X141440000Y-80270000D02*
X142540000Y-80270000D01*
X142540000Y-80270000D02*
X147000000Y-75810000D01*
X141440000Y-77730000D02*
X142540000Y-77730000D01*
X142540000Y-77730000D02*
X147000000Y-73270000D01*
X142540000Y-75190000D02*
X141440000Y-75190000D01*
X147000000Y-70730000D02*
X142540000Y-75190000D01*
D20*
X138400000Y-103640000D02*
X144000000Y-103640000D01*
X144000000Y-103640000D02*
X149600000Y-103640000D01*
D19*
X138360000Y-103600000D02*
X138400000Y-103640000D01*
X132800000Y-103640000D02*
X132840000Y-103600000D01*
D20*
X132840000Y-103600000D02*
X138360000Y-103600000D01*
X138400000Y-104800000D02*
X141200000Y-107600000D01*
X138400000Y-103640000D02*
X138400000Y-104800000D01*
X144000000Y-104800000D02*
X141200000Y-107600000D01*
X144000000Y-103640000D02*
X144000000Y-104800000D01*
D19*
X149600000Y-116000000D02*
X149600000Y-116040000D01*
D20*
X191740000Y-116040000D02*
X192600000Y-115180000D01*
X149600000Y-116040000D02*
X191740000Y-116040000D01*
X135600000Y-97100000D02*
X135600000Y-99050000D01*
X141200000Y-97100000D02*
X141200000Y-99050000D01*
X146800000Y-97100000D02*
X146800000Y-99050000D01*
X152400000Y-99050000D02*
X152400000Y-97350010D01*
D19*
X192580000Y-105000000D02*
X192600000Y-105020000D01*
D20*
X189600000Y-105000000D02*
X192580000Y-105000000D01*
D19*
X154500000Y-107510000D02*
X151050000Y-110960000D01*
X154500000Y-100450000D02*
X154500000Y-107510000D01*
X152400000Y-99050000D02*
X153100000Y-99050000D01*
X151050000Y-110960000D02*
X149600000Y-110960000D01*
X153100000Y-99050000D02*
X154500000Y-100450000D01*
D20*
X145680000Y-89600000D02*
X143699999Y-89600000D01*
X147000000Y-88280000D02*
X145680000Y-89600000D01*
D19*
X150201040Y-113500000D02*
X149600000Y-113500000D01*
X137899990Y-92899990D02*
X146699990Y-92899990D01*
X146699990Y-92899990D02*
X149700000Y-95900000D01*
X138900000Y-87890000D02*
X136900000Y-89890000D01*
X136900000Y-89890000D02*
X136900000Y-91900000D01*
X136900000Y-91900000D02*
X137899990Y-92899990D01*
X149700000Y-95900000D02*
X156400000Y-95900000D01*
X156400000Y-95900000D02*
X159370001Y-98870001D01*
X159370001Y-101086001D02*
X155700000Y-104756002D01*
X159370001Y-98870001D02*
X159370001Y-101086001D01*
X155700000Y-108001040D02*
X150201040Y-113500000D01*
X155700000Y-104756002D02*
X155700000Y-108001040D01*
X149600000Y-101100000D02*
X152400000Y-101100000D01*
X137685772Y-94100001D02*
X135899989Y-92314218D01*
X146202931Y-94100001D02*
X137685772Y-94100001D01*
X135899989Y-92314218D02*
X135899989Y-88350011D01*
X135899989Y-88350011D02*
X138138001Y-86111999D01*
X138138001Y-86111999D02*
X138900000Y-85350000D01*
X149600000Y-97497070D02*
X146202931Y-94100001D01*
X149600000Y-101100000D02*
X149600000Y-97497070D01*
X144000000Y-101100000D02*
X146800000Y-101100000D01*
X134799989Y-92628447D02*
X134799989Y-86910011D01*
X138138001Y-83571999D02*
X138900000Y-82810000D01*
X134799989Y-86910011D02*
X138138001Y-83571999D01*
X144000000Y-97457998D02*
X141642014Y-95100012D01*
X144000000Y-101100000D02*
X144000000Y-97457998D01*
X137271554Y-95100012D02*
X134799989Y-92628447D01*
X141642014Y-95100012D02*
X137271554Y-95100012D01*
X138400000Y-101100000D02*
X141200000Y-101100000D01*
X133799978Y-85370022D02*
X138138001Y-81031999D01*
X138400000Y-97642687D02*
X133799978Y-93042665D01*
X133799978Y-93042665D02*
X133799978Y-85370022D01*
X138138001Y-81031999D02*
X138900000Y-80270000D01*
X138400000Y-101100000D02*
X138400000Y-97642687D01*
X132800000Y-101100000D02*
X135600000Y-101100000D01*
X138138001Y-78491999D02*
X138900000Y-77730000D01*
X132800000Y-101100000D02*
X132800000Y-99650000D01*
X132799978Y-83830022D02*
X138138001Y-78491999D01*
X132800000Y-99650000D02*
X132799978Y-99649978D01*
X132799978Y-99649978D02*
X132799978Y-83830022D01*
D21*
G36*
X164082857Y-68952500D02*
G01*
X176317143Y-68952500D01*
X176317143Y-65314344D01*
X193615000Y-65314344D01*
X193615000Y-65685656D01*
X193687439Y-66049834D01*
X193829534Y-66392882D01*
X194035825Y-66701618D01*
X194298382Y-66964175D01*
X194607118Y-67170466D01*
X194950166Y-67312561D01*
X195314344Y-67385000D01*
X195685656Y-67385000D01*
X196049834Y-67312561D01*
X196392882Y-67170466D01*
X196701618Y-66964175D01*
X196964175Y-66701618D01*
X197170466Y-66392882D01*
X197312561Y-66049834D01*
X197385000Y-65685656D01*
X197385000Y-65314344D01*
X197312561Y-64950166D01*
X197170466Y-64607118D01*
X196964175Y-64298382D01*
X196701618Y-64035825D01*
X196392882Y-63829534D01*
X196049834Y-63687439D01*
X195685656Y-63615000D01*
X195314344Y-63615000D01*
X194950166Y-63687439D01*
X194607118Y-63829534D01*
X194298382Y-64035825D01*
X194035825Y-64298382D01*
X193829534Y-64607118D01*
X193687439Y-64950166D01*
X193615000Y-65314344D01*
X176317143Y-65314344D01*
X176317143Y-62910000D01*
X198340001Y-62910000D01*
X198340000Y-124340000D01*
X128660000Y-124340000D01*
X128660000Y-119175098D01*
X154535000Y-119175098D01*
X154535000Y-119644902D01*
X154626654Y-120105679D01*
X154806440Y-120539721D01*
X155067450Y-120930349D01*
X155399651Y-121262550D01*
X155790279Y-121523560D01*
X156224321Y-121703346D01*
X156685098Y-121795000D01*
X157154902Y-121795000D01*
X157615679Y-121703346D01*
X158049721Y-121523560D01*
X158440349Y-121262550D01*
X158772550Y-120930349D01*
X159033560Y-120539721D01*
X159213346Y-120105679D01*
X159305000Y-119644902D01*
X159305000Y-119175098D01*
X180035000Y-119175098D01*
X180035000Y-119644902D01*
X180126654Y-120105679D01*
X180306440Y-120539721D01*
X180567450Y-120930349D01*
X180899651Y-121262550D01*
X181290279Y-121523560D01*
X181724321Y-121703346D01*
X182185098Y-121795000D01*
X182654902Y-121795000D01*
X183115679Y-121703346D01*
X183549721Y-121523560D01*
X183940349Y-121262550D01*
X184272550Y-120930349D01*
X184533560Y-120539721D01*
X184713346Y-120105679D01*
X184805000Y-119644902D01*
X184805000Y-119175098D01*
X184713346Y-118714321D01*
X184533560Y-118280279D01*
X184272550Y-117889651D01*
X183940349Y-117557450D01*
X183549721Y-117296440D01*
X183115679Y-117116654D01*
X182654902Y-117025000D01*
X182185098Y-117025000D01*
X181724321Y-117116654D01*
X181290279Y-117296440D01*
X180899651Y-117557450D01*
X180567450Y-117889651D01*
X180306440Y-118280279D01*
X180126654Y-118714321D01*
X180035000Y-119175098D01*
X159305000Y-119175098D01*
X159213346Y-118714321D01*
X159033560Y-118280279D01*
X158772550Y-117889651D01*
X158440349Y-117557450D01*
X158049721Y-117296440D01*
X157615679Y-117116654D01*
X157154902Y-117025000D01*
X156685098Y-117025000D01*
X156224321Y-117116654D01*
X155790279Y-117296440D01*
X155399651Y-117557450D01*
X155067450Y-117889651D01*
X154806440Y-118280279D01*
X154626654Y-118714321D01*
X154535000Y-119175098D01*
X128660000Y-119175098D01*
X128660000Y-116396890D01*
X148158524Y-116396890D01*
X148203175Y-116544099D01*
X148328359Y-116806920D01*
X148502412Y-117040269D01*
X148718645Y-117235178D01*
X148968748Y-117384157D01*
X149243109Y-117481481D01*
X149473000Y-117360814D01*
X149473000Y-116167000D01*
X149727000Y-116167000D01*
X149727000Y-117360814D01*
X149956891Y-117481481D01*
X150231252Y-117384157D01*
X150481355Y-117235178D01*
X150697588Y-117040269D01*
X150871641Y-116806920D01*
X150996825Y-116544099D01*
X151041476Y-116396890D01*
X150920155Y-116167000D01*
X149727000Y-116167000D01*
X149473000Y-116167000D01*
X148279845Y-116167000D01*
X148158524Y-116396890D01*
X128660000Y-116396890D01*
X128660000Y-103996890D01*
X131358524Y-103996890D01*
X131403175Y-104144099D01*
X131528359Y-104406920D01*
X131702412Y-104640269D01*
X131918645Y-104835178D01*
X132168748Y-104984157D01*
X132443109Y-105081481D01*
X132673000Y-104960814D01*
X132673000Y-103767000D01*
X132927000Y-103767000D01*
X132927000Y-104960814D01*
X133156891Y-105081481D01*
X133431252Y-104984157D01*
X133681355Y-104835178D01*
X133897588Y-104640269D01*
X134071641Y-104406920D01*
X134196825Y-104144099D01*
X134241476Y-103996890D01*
X136958524Y-103996890D01*
X137003175Y-104144099D01*
X137128359Y-104406920D01*
X137302412Y-104640269D01*
X137518645Y-104835178D01*
X137768748Y-104984157D01*
X138043109Y-105081481D01*
X138273000Y-104960814D01*
X138273000Y-103767000D01*
X138527000Y-103767000D01*
X138527000Y-104960814D01*
X138756891Y-105081481D01*
X139031252Y-104984157D01*
X139281355Y-104835178D01*
X139497588Y-104640269D01*
X139671641Y-104406920D01*
X139796825Y-104144099D01*
X139841476Y-103996890D01*
X142558524Y-103996890D01*
X142603175Y-104144099D01*
X142728359Y-104406920D01*
X142902412Y-104640269D01*
X143118645Y-104835178D01*
X143368748Y-104984157D01*
X143643109Y-105081481D01*
X143873000Y-104960814D01*
X143873000Y-103767000D01*
X144127000Y-103767000D01*
X144127000Y-104960814D01*
X144356891Y-105081481D01*
X144631252Y-104984157D01*
X144881355Y-104835178D01*
X145097588Y-104640269D01*
X145271641Y-104406920D01*
X145396825Y-104144099D01*
X145441476Y-103996890D01*
X148158524Y-103996890D01*
X148203175Y-104144099D01*
X148328359Y-104406920D01*
X148502412Y-104640269D01*
X148718645Y-104835178D01*
X148968748Y-104984157D01*
X149243109Y-105081481D01*
X149473000Y-104960814D01*
X149473000Y-103767000D01*
X149727000Y-103767000D01*
X149727000Y-104960814D01*
X149956891Y-105081481D01*
X150231252Y-104984157D01*
X150481355Y-104835178D01*
X150697588Y-104640269D01*
X150871641Y-104406920D01*
X150996825Y-104144099D01*
X151041476Y-103996890D01*
X150920155Y-103767000D01*
X149727000Y-103767000D01*
X149473000Y-103767000D01*
X148279845Y-103767000D01*
X148158524Y-103996890D01*
X145441476Y-103996890D01*
X145320155Y-103767000D01*
X144127000Y-103767000D01*
X143873000Y-103767000D01*
X142679845Y-103767000D01*
X142558524Y-103996890D01*
X139841476Y-103996890D01*
X139720155Y-103767000D01*
X138527000Y-103767000D01*
X138273000Y-103767000D01*
X137079845Y-103767000D01*
X136958524Y-103996890D01*
X134241476Y-103996890D01*
X134120155Y-103767000D01*
X132927000Y-103767000D01*
X132673000Y-103767000D01*
X131479845Y-103767000D01*
X131358524Y-103996890D01*
X128660000Y-103996890D01*
X128660000Y-100250000D01*
X131311928Y-100250000D01*
X131311928Y-101950000D01*
X131324188Y-102074482D01*
X131360498Y-102194180D01*
X131419463Y-102304494D01*
X131498815Y-102401185D01*
X131595506Y-102480537D01*
X131705820Y-102539502D01*
X131786466Y-102563966D01*
X131702412Y-102639731D01*
X131528359Y-102873080D01*
X131403175Y-103135901D01*
X131358524Y-103283110D01*
X131479845Y-103513000D01*
X132673000Y-103513000D01*
X132673000Y-103493000D01*
X132927000Y-103493000D01*
X132927000Y-103513000D01*
X134120155Y-103513000D01*
X134241476Y-103283110D01*
X134196825Y-103135901D01*
X134071641Y-102873080D01*
X133897588Y-102639731D01*
X133813534Y-102563966D01*
X133894180Y-102539502D01*
X134004494Y-102480537D01*
X134101185Y-102401185D01*
X134180537Y-102304494D01*
X134239502Y-102194180D01*
X134275812Y-102074482D01*
X134279701Y-102035000D01*
X134507297Y-102035000D01*
X134522038Y-102052962D01*
X134656613Y-102163405D01*
X134810149Y-102245472D01*
X134976745Y-102296008D01*
X135149999Y-102313072D01*
X136050001Y-102313072D01*
X136223255Y-102296008D01*
X136389851Y-102245472D01*
X136543387Y-102163405D01*
X136677962Y-102052962D01*
X136788405Y-101918387D01*
X136870472Y-101764851D01*
X136911928Y-101628188D01*
X136911928Y-101950000D01*
X136924188Y-102074482D01*
X136960498Y-102194180D01*
X137019463Y-102304494D01*
X137098815Y-102401185D01*
X137195506Y-102480537D01*
X137305820Y-102539502D01*
X137386466Y-102563966D01*
X137302412Y-102639731D01*
X137128359Y-102873080D01*
X137003175Y-103135901D01*
X136958524Y-103283110D01*
X137079845Y-103513000D01*
X138273000Y-103513000D01*
X138273000Y-103493000D01*
X138527000Y-103493000D01*
X138527000Y-103513000D01*
X139720155Y-103513000D01*
X139841476Y-103283110D01*
X139796825Y-103135901D01*
X139671641Y-102873080D01*
X139497588Y-102639731D01*
X139413534Y-102563966D01*
X139494180Y-102539502D01*
X139604494Y-102480537D01*
X139701185Y-102401185D01*
X139780537Y-102304494D01*
X139839502Y-102194180D01*
X139875812Y-102074482D01*
X139879701Y-102035000D01*
X140107297Y-102035000D01*
X140122038Y-102052962D01*
X140256613Y-102163405D01*
X140410149Y-102245472D01*
X140576745Y-102296008D01*
X140749999Y-102313072D01*
X141650001Y-102313072D01*
X141823255Y-102296008D01*
X141989851Y-102245472D01*
X142143387Y-102163405D01*
X142277962Y-102052962D01*
X142388405Y-101918387D01*
X142470472Y-101764851D01*
X142511928Y-101628188D01*
X142511928Y-101950000D01*
X142524188Y-102074482D01*
X142560498Y-102194180D01*
X142619463Y-102304494D01*
X142698815Y-102401185D01*
X142795506Y-102480537D01*
X142905820Y-102539502D01*
X142986466Y-102563966D01*
X142902412Y-102639731D01*
X142728359Y-102873080D01*
X142603175Y-103135901D01*
X142558524Y-103283110D01*
X142679845Y-103513000D01*
X143873000Y-103513000D01*
X143873000Y-103493000D01*
X144127000Y-103493000D01*
X144127000Y-103513000D01*
X145320155Y-103513000D01*
X145441476Y-103283110D01*
X145396825Y-103135901D01*
X145271641Y-102873080D01*
X145097588Y-102639731D01*
X145013534Y-102563966D01*
X145094180Y-102539502D01*
X145204494Y-102480537D01*
X145301185Y-102401185D01*
X145380537Y-102304494D01*
X145439502Y-102194180D01*
X145475812Y-102074482D01*
X145479701Y-102035000D01*
X145707297Y-102035000D01*
X145722038Y-102052962D01*
X145856613Y-102163405D01*
X146010149Y-102245472D01*
X146176745Y-102296008D01*
X146349999Y-102313072D01*
X147250001Y-102313072D01*
X147423255Y-102296008D01*
X147589851Y-102245472D01*
X147743387Y-102163405D01*
X147877962Y-102052962D01*
X147988405Y-101918387D01*
X148070472Y-101764851D01*
X148111928Y-101628188D01*
X148111928Y-101950000D01*
X148124188Y-102074482D01*
X148160498Y-102194180D01*
X148219463Y-102304494D01*
X148298815Y-102401185D01*
X148395506Y-102480537D01*
X148505820Y-102539502D01*
X148586466Y-102563966D01*
X148502412Y-102639731D01*
X148328359Y-102873080D01*
X148203175Y-103135901D01*
X148158524Y-103283110D01*
X148279845Y-103513000D01*
X149473000Y-103513000D01*
X149473000Y-103493000D01*
X149727000Y-103493000D01*
X149727000Y-103513000D01*
X150920155Y-103513000D01*
X151041476Y-103283110D01*
X150996825Y-103135901D01*
X150871641Y-102873080D01*
X150697588Y-102639731D01*
X150613534Y-102563966D01*
X150694180Y-102539502D01*
X150804494Y-102480537D01*
X150901185Y-102401185D01*
X150980537Y-102304494D01*
X151039502Y-102194180D01*
X151075812Y-102074482D01*
X151079701Y-102035000D01*
X151307297Y-102035000D01*
X151322038Y-102052962D01*
X151456613Y-102163405D01*
X151610149Y-102245472D01*
X151776745Y-102296008D01*
X151949999Y-102313072D01*
X152850001Y-102313072D01*
X153023255Y-102296008D01*
X153189851Y-102245472D01*
X153343387Y-102163405D01*
X153477962Y-102052962D01*
X153565000Y-101946906D01*
X153565001Y-107122710D01*
X150958751Y-109728960D01*
X150901185Y-109658815D01*
X150804494Y-109579463D01*
X150694180Y-109520498D01*
X150574482Y-109484188D01*
X150450000Y-109471928D01*
X148750000Y-109471928D01*
X148625518Y-109484188D01*
X148505820Y-109520498D01*
X148395506Y-109579463D01*
X148298815Y-109658815D01*
X148219463Y-109755506D01*
X148160498Y-109865820D01*
X148124188Y-109985518D01*
X148111928Y-110110000D01*
X148111928Y-111810000D01*
X148124188Y-111934482D01*
X148160498Y-112054180D01*
X148219463Y-112164494D01*
X148298815Y-112261185D01*
X148395506Y-112340537D01*
X148505820Y-112399502D01*
X148578380Y-112421513D01*
X148446525Y-112553368D01*
X148284010Y-112796589D01*
X148172068Y-113066842D01*
X148115000Y-113353740D01*
X148115000Y-113646260D01*
X148172068Y-113933158D01*
X148284010Y-114203411D01*
X148446525Y-114446632D01*
X148653368Y-114653475D01*
X148835534Y-114775195D01*
X148718645Y-114844822D01*
X148502412Y-115039731D01*
X148328359Y-115273080D01*
X148203175Y-115535901D01*
X148158524Y-115683110D01*
X148279845Y-115913000D01*
X149473000Y-115913000D01*
X149473000Y-115893000D01*
X149727000Y-115893000D01*
X149727000Y-115913000D01*
X150920155Y-115913000D01*
X151041476Y-115683110D01*
X150997125Y-115536890D01*
X191158524Y-115536890D01*
X191203175Y-115684099D01*
X191328359Y-115946920D01*
X191502412Y-116180269D01*
X191718645Y-116375178D01*
X191968748Y-116524157D01*
X192243109Y-116621481D01*
X192473000Y-116500814D01*
X192473000Y-115307000D01*
X192727000Y-115307000D01*
X192727000Y-116500814D01*
X192956891Y-116621481D01*
X193231252Y-116524157D01*
X193481355Y-116375178D01*
X193697588Y-116180269D01*
X193871641Y-115946920D01*
X193996825Y-115684099D01*
X194041476Y-115536890D01*
X193920155Y-115307000D01*
X192727000Y-115307000D01*
X192473000Y-115307000D01*
X191279845Y-115307000D01*
X191158524Y-115536890D01*
X150997125Y-115536890D01*
X150996825Y-115535901D01*
X150871641Y-115273080D01*
X150697588Y-115039731D01*
X150481355Y-114844822D01*
X150364466Y-114775195D01*
X150546632Y-114653475D01*
X150753475Y-114446632D01*
X150915990Y-114203411D01*
X150983923Y-114039406D01*
X156328659Y-108694670D01*
X156364344Y-108665384D01*
X156481186Y-108523012D01*
X156568007Y-108360580D01*
X156621471Y-108184332D01*
X156635000Y-108046972D01*
X156639524Y-108001040D01*
X156635000Y-107955108D01*
X156635000Y-105143291D01*
X159998665Y-101779627D01*
X160034345Y-101750345D01*
X160151187Y-101607973D01*
X160238008Y-101445541D01*
X160276695Y-101318006D01*
X160291472Y-101269294D01*
X160309525Y-101086002D01*
X160305001Y-101040070D01*
X160305001Y-98915936D01*
X160309525Y-98870001D01*
X160291473Y-98686709D01*
X160238008Y-98510460D01*
X160207766Y-98453881D01*
X160151187Y-98348029D01*
X160034345Y-98205657D01*
X159998661Y-98176372D01*
X157093630Y-95271341D01*
X157064344Y-95235656D01*
X156921972Y-95118814D01*
X156759540Y-95031993D01*
X156583292Y-94978529D01*
X156445932Y-94965000D01*
X156400000Y-94960476D01*
X156354068Y-94965000D01*
X153700383Y-94965000D01*
X153701618Y-94964175D01*
X153964175Y-94701618D01*
X154170466Y-94392882D01*
X154312561Y-94049834D01*
X154385000Y-93685656D01*
X154385000Y-93314344D01*
X154312561Y-92950166D01*
X154170466Y-92607118D01*
X153964175Y-92298382D01*
X153701618Y-92035825D01*
X153392882Y-91829534D01*
X153049834Y-91687439D01*
X152685656Y-91615000D01*
X152314344Y-91615000D01*
X151950166Y-91687439D01*
X151607118Y-91829534D01*
X151298382Y-92035825D01*
X151035825Y-92298382D01*
X150829534Y-92607118D01*
X150687439Y-92950166D01*
X150615000Y-93314344D01*
X150615000Y-93685656D01*
X150687439Y-94049834D01*
X150829534Y-94392882D01*
X151035825Y-94701618D01*
X151298382Y-94964175D01*
X151299617Y-94965000D01*
X150087289Y-94965000D01*
X147393620Y-92271331D01*
X147364334Y-92235646D01*
X147221962Y-92118804D01*
X147059530Y-92031983D01*
X146883282Y-91978519D01*
X146745922Y-91964990D01*
X146699990Y-91960466D01*
X146654058Y-91964990D01*
X138287280Y-91964990D01*
X137835000Y-91512711D01*
X137835000Y-90277289D01*
X138648700Y-89463589D01*
X142314999Y-89463589D01*
X142314999Y-89736411D01*
X142368224Y-90003989D01*
X142472628Y-90256043D01*
X142624200Y-90482886D01*
X142817113Y-90675799D01*
X143043956Y-90827371D01*
X143296010Y-90931775D01*
X143563588Y-90985000D01*
X143836410Y-90985000D01*
X144103988Y-90931775D01*
X144356042Y-90827371D01*
X144582885Y-90675799D01*
X144623684Y-90635000D01*
X145629172Y-90635000D01*
X145680000Y-90640006D01*
X145730828Y-90635000D01*
X145730838Y-90635000D01*
X145882895Y-90620024D01*
X146077993Y-90560841D01*
X146257797Y-90464734D01*
X146415396Y-90335396D01*
X146447807Y-90295903D01*
X146978710Y-89765000D01*
X147146260Y-89765000D01*
X147433158Y-89707932D01*
X147703411Y-89595990D01*
X147946632Y-89433475D01*
X148153475Y-89226632D01*
X148315990Y-88983411D01*
X148427932Y-88713158D01*
X148485000Y-88426260D01*
X148485000Y-88133740D01*
X148427932Y-87846842D01*
X148315990Y-87576589D01*
X148153475Y-87333368D01*
X147946632Y-87126525D01*
X147764466Y-87004805D01*
X147881355Y-86935178D01*
X148097588Y-86740269D01*
X148271641Y-86506920D01*
X148396825Y-86244099D01*
X148441476Y-86096890D01*
X148320155Y-85867000D01*
X147127000Y-85867000D01*
X147127000Y-85887000D01*
X146873000Y-85887000D01*
X146873000Y-85867000D01*
X145679845Y-85867000D01*
X145558524Y-86096890D01*
X145603175Y-86244099D01*
X145728359Y-86506920D01*
X145902412Y-86740269D01*
X146118645Y-86935178D01*
X146235534Y-87004805D01*
X146053368Y-87126525D01*
X145846525Y-87333368D01*
X145684010Y-87576589D01*
X145572068Y-87846842D01*
X145515000Y-88133740D01*
X145515000Y-88301290D01*
X145251290Y-88565000D01*
X144623684Y-88565000D01*
X144582885Y-88524201D01*
X144356042Y-88372629D01*
X144103988Y-88268225D01*
X143836410Y-88215000D01*
X143563588Y-88215000D01*
X143296010Y-88268225D01*
X143043956Y-88372629D01*
X142817113Y-88524201D01*
X142624200Y-88717114D01*
X142472628Y-88943957D01*
X142368224Y-89196011D01*
X142314999Y-89463589D01*
X138648700Y-89463589D01*
X138825290Y-89287000D01*
X139037592Y-89287000D01*
X139307490Y-89233314D01*
X139561727Y-89128005D01*
X139790535Y-88975120D01*
X139985120Y-88780535D01*
X140138005Y-88551727D01*
X140170000Y-88474485D01*
X140201995Y-88551727D01*
X140354880Y-88780535D01*
X140549465Y-88975120D01*
X140778273Y-89128005D01*
X141032510Y-89233314D01*
X141302408Y-89287000D01*
X141577592Y-89287000D01*
X141847490Y-89233314D01*
X142101727Y-89128005D01*
X142330535Y-88975120D01*
X142525120Y-88780535D01*
X142678005Y-88551727D01*
X142783314Y-88297490D01*
X142837000Y-88027592D01*
X142837000Y-87815289D01*
X145872628Y-84779662D01*
X145728359Y-84973080D01*
X145603175Y-85235901D01*
X145558524Y-85383110D01*
X145679845Y-85613000D01*
X146873000Y-85613000D01*
X146873000Y-85593000D01*
X147127000Y-85593000D01*
X147127000Y-85613000D01*
X148320155Y-85613000D01*
X148436150Y-85393203D01*
X148471314Y-85422061D01*
X176317917Y-113268665D01*
X176347198Y-113304344D01*
X176489570Y-113421186D01*
X176652002Y-113508007D01*
X176774785Y-113545253D01*
X176828249Y-113561471D01*
X177011541Y-113579524D01*
X177057473Y-113575000D01*
X191438753Y-113575000D01*
X191446525Y-113586632D01*
X191653368Y-113793475D01*
X191835534Y-113915195D01*
X191718645Y-113984822D01*
X191502412Y-114179731D01*
X191328359Y-114413080D01*
X191203175Y-114675901D01*
X191158524Y-114823110D01*
X191279845Y-115053000D01*
X192473000Y-115053000D01*
X192473000Y-115033000D01*
X192727000Y-115033000D01*
X192727000Y-115053000D01*
X193920155Y-115053000D01*
X194041476Y-114823110D01*
X193996825Y-114675901D01*
X193871641Y-114413080D01*
X193697588Y-114179731D01*
X193481355Y-113984822D01*
X193364466Y-113915195D01*
X193546632Y-113793475D01*
X193753475Y-113586632D01*
X193915990Y-113343411D01*
X194027932Y-113073158D01*
X194085000Y-112786260D01*
X194085000Y-112493740D01*
X194027932Y-112206842D01*
X193915990Y-111936589D01*
X193753475Y-111693368D01*
X193546632Y-111486525D01*
X193372240Y-111370000D01*
X193546632Y-111253475D01*
X193753475Y-111046632D01*
X193915990Y-110803411D01*
X194027932Y-110533158D01*
X194085000Y-110246260D01*
X194085000Y-109953740D01*
X194027932Y-109666842D01*
X193915990Y-109396589D01*
X193753475Y-109153368D01*
X193546632Y-108946525D01*
X193372240Y-108830000D01*
X193546632Y-108713475D01*
X193753475Y-108506632D01*
X193915990Y-108263411D01*
X194027932Y-107993158D01*
X194085000Y-107706260D01*
X194085000Y-107413740D01*
X194027932Y-107126842D01*
X193915990Y-106856589D01*
X193753475Y-106613368D01*
X193621620Y-106481513D01*
X193694180Y-106459502D01*
X193804494Y-106400537D01*
X193901185Y-106321185D01*
X193980537Y-106224494D01*
X194039502Y-106114180D01*
X194075812Y-105994482D01*
X194088072Y-105870000D01*
X194088072Y-104170000D01*
X194075812Y-104045518D01*
X194039502Y-103925820D01*
X193980537Y-103815506D01*
X193901185Y-103718815D01*
X193804494Y-103639463D01*
X193694180Y-103580498D01*
X193574482Y-103544188D01*
X193450000Y-103531928D01*
X191750000Y-103531928D01*
X191625518Y-103544188D01*
X191505820Y-103580498D01*
X191395506Y-103639463D01*
X191298815Y-103718815D01*
X191219463Y-103815506D01*
X191160498Y-103925820D01*
X191148613Y-103965000D01*
X190523685Y-103965000D01*
X190482886Y-103924201D01*
X190256043Y-103772629D01*
X190003989Y-103668225D01*
X189736411Y-103615000D01*
X189463589Y-103615000D01*
X189196011Y-103668225D01*
X188943957Y-103772629D01*
X188717114Y-103924201D01*
X188524201Y-104117114D01*
X188372629Y-104343957D01*
X188268225Y-104596011D01*
X188215000Y-104863589D01*
X188215000Y-105136411D01*
X188268225Y-105403989D01*
X188372629Y-105656043D01*
X188524201Y-105882886D01*
X188717114Y-106075799D01*
X188943957Y-106227371D01*
X189196011Y-106331775D01*
X189463589Y-106385000D01*
X189736411Y-106385000D01*
X190003989Y-106331775D01*
X190256043Y-106227371D01*
X190482886Y-106075799D01*
X190523685Y-106035000D01*
X191136479Y-106035000D01*
X191160498Y-106114180D01*
X191219463Y-106224494D01*
X191298815Y-106321185D01*
X191395506Y-106400537D01*
X191505820Y-106459502D01*
X191578380Y-106481513D01*
X191446525Y-106613368D01*
X191284010Y-106856589D01*
X191172068Y-107126842D01*
X191115000Y-107413740D01*
X191115000Y-107706260D01*
X191117729Y-107719982D01*
X189132733Y-109704978D01*
X178227267Y-109704978D01*
X168197387Y-99675098D01*
X180035000Y-99675098D01*
X180035000Y-100144902D01*
X180126654Y-100605679D01*
X180306440Y-101039721D01*
X180567450Y-101430349D01*
X180899651Y-101762550D01*
X181290279Y-102023560D01*
X181724321Y-102203346D01*
X182185098Y-102295000D01*
X182654902Y-102295000D01*
X183115679Y-102203346D01*
X183549721Y-102023560D01*
X183940349Y-101762550D01*
X184272550Y-101430349D01*
X184533560Y-101039721D01*
X184713346Y-100605679D01*
X184805000Y-100144902D01*
X184805000Y-99675098D01*
X184713346Y-99214321D01*
X184533560Y-98780279D01*
X184272550Y-98389651D01*
X183940349Y-98057450D01*
X183549721Y-97796440D01*
X183115679Y-97616654D01*
X182654902Y-97525000D01*
X182185098Y-97525000D01*
X181724321Y-97616654D01*
X181290279Y-97796440D01*
X180899651Y-98057450D01*
X180567450Y-98389651D01*
X180306440Y-98780279D01*
X180126654Y-99214321D01*
X180035000Y-99675098D01*
X168197387Y-99675098D01*
X161836633Y-93314344D01*
X193615000Y-93314344D01*
X193615000Y-93685656D01*
X193687439Y-94049834D01*
X193829534Y-94392882D01*
X194035825Y-94701618D01*
X194298382Y-94964175D01*
X194607118Y-95170466D01*
X194950166Y-95312561D01*
X195314344Y-95385000D01*
X195685656Y-95385000D01*
X196049834Y-95312561D01*
X196392882Y-95170466D01*
X196701618Y-94964175D01*
X196964175Y-94701618D01*
X197170466Y-94392882D01*
X197312561Y-94049834D01*
X197385000Y-93685656D01*
X197385000Y-93314344D01*
X197312561Y-92950166D01*
X197170466Y-92607118D01*
X196964175Y-92298382D01*
X196701618Y-92035825D01*
X196392882Y-91829534D01*
X196049834Y-91687439D01*
X195685656Y-91615000D01*
X195314344Y-91615000D01*
X194950166Y-91687439D01*
X194607118Y-91829534D01*
X194298382Y-92035825D01*
X194035825Y-92298382D01*
X193829534Y-92607118D01*
X193687439Y-92950166D01*
X193615000Y-93314344D01*
X161836633Y-93314344D01*
X152035000Y-83512711D01*
X152035000Y-68845935D01*
X152039524Y-68800000D01*
X152021472Y-68616708D01*
X151968007Y-68440459D01*
X151937765Y-68383880D01*
X151881186Y-68278028D01*
X151764344Y-68135656D01*
X151728659Y-68106370D01*
X149493583Y-65871294D01*
X149464297Y-65835609D01*
X149321925Y-65718767D01*
X149159493Y-65631946D01*
X148983245Y-65578482D01*
X148845885Y-65564953D01*
X148799953Y-65560429D01*
X148754021Y-65564953D01*
X139645982Y-65564953D01*
X139600047Y-65560429D01*
X139416755Y-65578481D01*
X139312875Y-65609994D01*
X139240507Y-65631946D01*
X139078075Y-65718767D01*
X138935703Y-65835609D01*
X138906417Y-65871294D01*
X136371341Y-68406370D01*
X136335656Y-68435656D01*
X136218814Y-68578029D01*
X136131993Y-68740461D01*
X136097346Y-68854677D01*
X136078529Y-68916709D01*
X136060476Y-69100000D01*
X136065000Y-69145932D01*
X136065001Y-71781688D01*
X136060476Y-71827630D01*
X136078529Y-72010921D01*
X136114054Y-72128029D01*
X136131994Y-72187170D01*
X136218815Y-72349602D01*
X136335657Y-72491974D01*
X136371336Y-72521255D01*
X137128740Y-73278659D01*
X137158026Y-73314344D01*
X137300398Y-73431186D01*
X137462830Y-73518007D01*
X137639078Y-73571471D01*
X137822370Y-73589524D01*
X137860148Y-73585803D01*
X138009465Y-73735120D01*
X138238273Y-73888005D01*
X138309943Y-73917692D01*
X138296977Y-73922364D01*
X138181020Y-73984344D01*
X138114040Y-74224435D01*
X138900000Y-75010395D01*
X139685960Y-74224435D01*
X139618980Y-73984344D01*
X139483240Y-73920515D01*
X139561727Y-73888005D01*
X139790535Y-73735120D01*
X139985120Y-73540535D01*
X140138005Y-73311727D01*
X140170000Y-73234485D01*
X140201995Y-73311727D01*
X140354880Y-73540535D01*
X140549465Y-73735120D01*
X140778273Y-73888005D01*
X140855515Y-73920000D01*
X140778273Y-73951995D01*
X140549465Y-74104880D01*
X140354880Y-74299465D01*
X140201995Y-74528273D01*
X140172308Y-74599943D01*
X140167636Y-74586977D01*
X140105656Y-74471020D01*
X139865565Y-74404040D01*
X139079605Y-75190000D01*
X139865565Y-75975960D01*
X140105656Y-75908980D01*
X140169485Y-75773240D01*
X140201995Y-75851727D01*
X140354880Y-76080535D01*
X140549465Y-76275120D01*
X140778273Y-76428005D01*
X140855515Y-76460000D01*
X140778273Y-76491995D01*
X140549465Y-76644880D01*
X140354880Y-76839465D01*
X140201995Y-77068273D01*
X140170000Y-77145515D01*
X140138005Y-77068273D01*
X139985120Y-76839465D01*
X139790535Y-76644880D01*
X139561727Y-76491995D01*
X139490057Y-76462308D01*
X139503023Y-76457636D01*
X139618980Y-76395656D01*
X139685960Y-76155565D01*
X138900000Y-75369605D01*
X138114040Y-76155565D01*
X138181020Y-76395656D01*
X138316760Y-76459485D01*
X138238273Y-76491995D01*
X138009465Y-76644880D01*
X137814880Y-76839465D01*
X137661995Y-77068273D01*
X137556686Y-77322510D01*
X137503000Y-77592408D01*
X137503000Y-77804710D01*
X132171314Y-83136397D01*
X132135635Y-83165678D01*
X132018793Y-83308050D01*
X131931972Y-83470482D01*
X131878507Y-83646731D01*
X131860454Y-83830022D01*
X131864979Y-83875964D01*
X131864978Y-99604046D01*
X131863361Y-99620461D01*
X131825518Y-99624188D01*
X131705820Y-99660498D01*
X131595506Y-99719463D01*
X131498815Y-99798815D01*
X131419463Y-99895506D01*
X131360498Y-100005820D01*
X131324188Y-100125518D01*
X131311928Y-100250000D01*
X128660000Y-100250000D01*
X128660000Y-75262017D01*
X137498090Y-75262017D01*
X137539078Y-75534133D01*
X137632364Y-75793023D01*
X137694344Y-75908980D01*
X137934435Y-75975960D01*
X138720395Y-75190000D01*
X137934435Y-74404040D01*
X137694344Y-74471020D01*
X137577244Y-74720048D01*
X137510977Y-74987135D01*
X137498090Y-75262017D01*
X128660000Y-75262017D01*
X128660000Y-65314344D01*
X150615000Y-65314344D01*
X150615000Y-65685656D01*
X150687439Y-66049834D01*
X150829534Y-66392882D01*
X151035825Y-66701618D01*
X151298382Y-66964175D01*
X151607118Y-67170466D01*
X151950166Y-67312561D01*
X152314344Y-67385000D01*
X152685656Y-67385000D01*
X153049834Y-67312561D01*
X153392882Y-67170466D01*
X153701618Y-66964175D01*
X153964175Y-66701618D01*
X154170466Y-66392882D01*
X154312561Y-66049834D01*
X154385000Y-65685656D01*
X154385000Y-65314344D01*
X154312561Y-64950166D01*
X154170466Y-64607118D01*
X153964175Y-64298382D01*
X153701618Y-64035825D01*
X153392882Y-63829534D01*
X153049834Y-63687439D01*
X152685656Y-63615000D01*
X152314344Y-63615000D01*
X151950166Y-63687439D01*
X151607118Y-63829534D01*
X151298382Y-64035825D01*
X151035825Y-64298382D01*
X150829534Y-64607118D01*
X150687439Y-64950166D01*
X150615000Y-65314344D01*
X128660000Y-65314344D01*
X128660000Y-62910000D01*
X164082857Y-62910000D01*
X164082857Y-68952500D01*
G37*
X164082857Y-68952500D02*
X176317143Y-68952500D01*
X176317143Y-65314344D01*
X193615000Y-65314344D01*
X193615000Y-65685656D01*
X193687439Y-66049834D01*
X193829534Y-66392882D01*
X194035825Y-66701618D01*
X194298382Y-66964175D01*
X194607118Y-67170466D01*
X194950166Y-67312561D01*
X195314344Y-67385000D01*
X195685656Y-67385000D01*
X196049834Y-67312561D01*
X196392882Y-67170466D01*
X196701618Y-66964175D01*
X196964175Y-66701618D01*
X197170466Y-66392882D01*
X197312561Y-66049834D01*
X197385000Y-65685656D01*
X197385000Y-65314344D01*
X197312561Y-64950166D01*
X197170466Y-64607118D01*
X196964175Y-64298382D01*
X196701618Y-64035825D01*
X196392882Y-63829534D01*
X196049834Y-63687439D01*
X195685656Y-63615000D01*
X195314344Y-63615000D01*
X194950166Y-63687439D01*
X194607118Y-63829534D01*
X194298382Y-64035825D01*
X194035825Y-64298382D01*
X193829534Y-64607118D01*
X193687439Y-64950166D01*
X193615000Y-65314344D01*
X176317143Y-65314344D01*
X176317143Y-62910000D01*
X198340001Y-62910000D01*
X198340000Y-124340000D01*
X128660000Y-124340000D01*
X128660000Y-119175098D01*
X154535000Y-119175098D01*
X154535000Y-119644902D01*
X154626654Y-120105679D01*
X154806440Y-120539721D01*
X155067450Y-120930349D01*
X155399651Y-121262550D01*
X155790279Y-121523560D01*
X156224321Y-121703346D01*
X156685098Y-121795000D01*
X157154902Y-121795000D01*
X157615679Y-121703346D01*
X158049721Y-121523560D01*
X158440349Y-121262550D01*
X158772550Y-120930349D01*
X159033560Y-120539721D01*
X159213346Y-120105679D01*
X159305000Y-119644902D01*
X159305000Y-119175098D01*
X180035000Y-119175098D01*
X180035000Y-119644902D01*
X180126654Y-120105679D01*
X180306440Y-120539721D01*
X180567450Y-120930349D01*
X180899651Y-121262550D01*
X181290279Y-121523560D01*
X181724321Y-121703346D01*
X182185098Y-121795000D01*
X182654902Y-121795000D01*
X183115679Y-121703346D01*
X183549721Y-121523560D01*
X183940349Y-121262550D01*
X184272550Y-120930349D01*
X184533560Y-120539721D01*
X184713346Y-120105679D01*
X184805000Y-119644902D01*
X184805000Y-119175098D01*
X184713346Y-118714321D01*
X184533560Y-118280279D01*
X184272550Y-117889651D01*
X183940349Y-117557450D01*
X183549721Y-117296440D01*
X183115679Y-117116654D01*
X182654902Y-117025000D01*
X182185098Y-117025000D01*
X181724321Y-117116654D01*
X181290279Y-117296440D01*
X180899651Y-117557450D01*
X180567450Y-117889651D01*
X180306440Y-118280279D01*
X180126654Y-118714321D01*
X180035000Y-119175098D01*
X159305000Y-119175098D01*
X159213346Y-118714321D01*
X159033560Y-118280279D01*
X158772550Y-117889651D01*
X158440349Y-117557450D01*
X158049721Y-117296440D01*
X157615679Y-117116654D01*
X157154902Y-117025000D01*
X156685098Y-117025000D01*
X156224321Y-117116654D01*
X155790279Y-117296440D01*
X155399651Y-117557450D01*
X155067450Y-117889651D01*
X154806440Y-118280279D01*
X154626654Y-118714321D01*
X154535000Y-119175098D01*
X128660000Y-119175098D01*
X128660000Y-116396890D01*
X148158524Y-116396890D01*
X148203175Y-116544099D01*
X148328359Y-116806920D01*
X148502412Y-117040269D01*
X148718645Y-117235178D01*
X148968748Y-117384157D01*
X149243109Y-117481481D01*
X149473000Y-117360814D01*
X149473000Y-116167000D01*
X149727000Y-116167000D01*
X149727000Y-117360814D01*
X149956891Y-117481481D01*
X150231252Y-117384157D01*
X150481355Y-117235178D01*
X150697588Y-117040269D01*
X150871641Y-116806920D01*
X150996825Y-116544099D01*
X151041476Y-116396890D01*
X150920155Y-116167000D01*
X149727000Y-116167000D01*
X149473000Y-116167000D01*
X148279845Y-116167000D01*
X148158524Y-116396890D01*
X128660000Y-116396890D01*
X128660000Y-103996890D01*
X131358524Y-103996890D01*
X131403175Y-104144099D01*
X131528359Y-104406920D01*
X131702412Y-104640269D01*
X131918645Y-104835178D01*
X132168748Y-104984157D01*
X132443109Y-105081481D01*
X132673000Y-104960814D01*
X132673000Y-103767000D01*
X132927000Y-103767000D01*
X132927000Y-104960814D01*
X133156891Y-105081481D01*
X133431252Y-104984157D01*
X133681355Y-104835178D01*
X133897588Y-104640269D01*
X134071641Y-104406920D01*
X134196825Y-104144099D01*
X134241476Y-103996890D01*
X136958524Y-103996890D01*
X137003175Y-104144099D01*
X137128359Y-104406920D01*
X137302412Y-104640269D01*
X137518645Y-104835178D01*
X137768748Y-104984157D01*
X138043109Y-105081481D01*
X138273000Y-104960814D01*
X138273000Y-103767000D01*
X138527000Y-103767000D01*
X138527000Y-104960814D01*
X138756891Y-105081481D01*
X139031252Y-104984157D01*
X139281355Y-104835178D01*
X139497588Y-104640269D01*
X139671641Y-104406920D01*
X139796825Y-104144099D01*
X139841476Y-103996890D01*
X142558524Y-103996890D01*
X142603175Y-104144099D01*
X142728359Y-104406920D01*
X142902412Y-104640269D01*
X143118645Y-104835178D01*
X143368748Y-104984157D01*
X143643109Y-105081481D01*
X143873000Y-104960814D01*
X143873000Y-103767000D01*
X144127000Y-103767000D01*
X144127000Y-104960814D01*
X144356891Y-105081481D01*
X144631252Y-104984157D01*
X144881355Y-104835178D01*
X145097588Y-104640269D01*
X145271641Y-104406920D01*
X145396825Y-104144099D01*
X145441476Y-103996890D01*
X148158524Y-103996890D01*
X148203175Y-104144099D01*
X148328359Y-104406920D01*
X148502412Y-104640269D01*
X148718645Y-104835178D01*
X148968748Y-104984157D01*
X149243109Y-105081481D01*
X149473000Y-104960814D01*
X149473000Y-103767000D01*
X149727000Y-103767000D01*
X149727000Y-104960814D01*
X149956891Y-105081481D01*
X150231252Y-104984157D01*
X150481355Y-104835178D01*
X150697588Y-104640269D01*
X150871641Y-104406920D01*
X150996825Y-104144099D01*
X151041476Y-103996890D01*
X150920155Y-103767000D01*
X149727000Y-103767000D01*
X149473000Y-103767000D01*
X148279845Y-103767000D01*
X148158524Y-103996890D01*
X145441476Y-103996890D01*
X145320155Y-103767000D01*
X144127000Y-103767000D01*
X143873000Y-103767000D01*
X142679845Y-103767000D01*
X142558524Y-103996890D01*
X139841476Y-103996890D01*
X139720155Y-103767000D01*
X138527000Y-103767000D01*
X138273000Y-103767000D01*
X137079845Y-103767000D01*
X136958524Y-103996890D01*
X134241476Y-103996890D01*
X134120155Y-103767000D01*
X132927000Y-103767000D01*
X132673000Y-103767000D01*
X131479845Y-103767000D01*
X131358524Y-103996890D01*
X128660000Y-103996890D01*
X128660000Y-100250000D01*
X131311928Y-100250000D01*
X131311928Y-101950000D01*
X131324188Y-102074482D01*
X131360498Y-102194180D01*
X131419463Y-102304494D01*
X131498815Y-102401185D01*
X131595506Y-102480537D01*
X131705820Y-102539502D01*
X131786466Y-102563966D01*
X131702412Y-102639731D01*
X131528359Y-102873080D01*
X131403175Y-103135901D01*
X131358524Y-103283110D01*
X131479845Y-103513000D01*
X132673000Y-103513000D01*
X132673000Y-103493000D01*
X132927000Y-103493000D01*
X132927000Y-103513000D01*
X134120155Y-103513000D01*
X134241476Y-103283110D01*
X134196825Y-103135901D01*
X134071641Y-102873080D01*
X133897588Y-102639731D01*
X133813534Y-102563966D01*
X133894180Y-102539502D01*
X134004494Y-102480537D01*
X134101185Y-102401185D01*
X134180537Y-102304494D01*
X134239502Y-102194180D01*
X134275812Y-102074482D01*
X134279701Y-102035000D01*
X134507297Y-102035000D01*
X134522038Y-102052962D01*
X134656613Y-102163405D01*
X134810149Y-102245472D01*
X134976745Y-102296008D01*
X135149999Y-102313072D01*
X136050001Y-102313072D01*
X136223255Y-102296008D01*
X136389851Y-102245472D01*
X136543387Y-102163405D01*
X136677962Y-102052962D01*
X136788405Y-101918387D01*
X136870472Y-101764851D01*
X136911928Y-101628188D01*
X136911928Y-101950000D01*
X136924188Y-102074482D01*
X136960498Y-102194180D01*
X137019463Y-102304494D01*
X137098815Y-102401185D01*
X137195506Y-102480537D01*
X137305820Y-102539502D01*
X137386466Y-102563966D01*
X137302412Y-102639731D01*
X137128359Y-102873080D01*
X137003175Y-103135901D01*
X136958524Y-103283110D01*
X137079845Y-103513000D01*
X138273000Y-103513000D01*
X138273000Y-103493000D01*
X138527000Y-103493000D01*
X138527000Y-103513000D01*
X139720155Y-103513000D01*
X139841476Y-103283110D01*
X139796825Y-103135901D01*
X139671641Y-102873080D01*
X139497588Y-102639731D01*
X139413534Y-102563966D01*
X139494180Y-102539502D01*
X139604494Y-102480537D01*
X139701185Y-102401185D01*
X139780537Y-102304494D01*
X139839502Y-102194180D01*
X139875812Y-102074482D01*
X139879701Y-102035000D01*
X140107297Y-102035000D01*
X140122038Y-102052962D01*
X140256613Y-102163405D01*
X140410149Y-102245472D01*
X140576745Y-102296008D01*
X140749999Y-102313072D01*
X141650001Y-102313072D01*
X141823255Y-102296008D01*
X141989851Y-102245472D01*
X142143387Y-102163405D01*
X142277962Y-102052962D01*
X142388405Y-101918387D01*
X142470472Y-101764851D01*
X142511928Y-101628188D01*
X142511928Y-101950000D01*
X142524188Y-102074482D01*
X142560498Y-102194180D01*
X142619463Y-102304494D01*
X142698815Y-102401185D01*
X142795506Y-102480537D01*
X142905820Y-102539502D01*
X142986466Y-102563966D01*
X142902412Y-102639731D01*
X142728359Y-102873080D01*
X142603175Y-103135901D01*
X142558524Y-103283110D01*
X142679845Y-103513000D01*
X143873000Y-103513000D01*
X143873000Y-103493000D01*
X144127000Y-103493000D01*
X144127000Y-103513000D01*
X145320155Y-103513000D01*
X145441476Y-103283110D01*
X145396825Y-103135901D01*
X145271641Y-102873080D01*
X145097588Y-102639731D01*
X145013534Y-102563966D01*
X145094180Y-102539502D01*
X145204494Y-102480537D01*
X145301185Y-102401185D01*
X145380537Y-102304494D01*
X145439502Y-102194180D01*
X145475812Y-102074482D01*
X145479701Y-102035000D01*
X145707297Y-102035000D01*
X145722038Y-102052962D01*
X145856613Y-102163405D01*
X146010149Y-102245472D01*
X146176745Y-102296008D01*
X146349999Y-102313072D01*
X147250001Y-102313072D01*
X147423255Y-102296008D01*
X147589851Y-102245472D01*
X147743387Y-102163405D01*
X147877962Y-102052962D01*
X147988405Y-101918387D01*
X148070472Y-101764851D01*
X148111928Y-101628188D01*
X148111928Y-101950000D01*
X148124188Y-102074482D01*
X148160498Y-102194180D01*
X148219463Y-102304494D01*
X148298815Y-102401185D01*
X148395506Y-102480537D01*
X148505820Y-102539502D01*
X148586466Y-102563966D01*
X148502412Y-102639731D01*
X148328359Y-102873080D01*
X148203175Y-103135901D01*
X148158524Y-103283110D01*
X148279845Y-103513000D01*
X149473000Y-103513000D01*
X149473000Y-103493000D01*
X149727000Y-103493000D01*
X149727000Y-103513000D01*
X150920155Y-103513000D01*
X151041476Y-103283110D01*
X150996825Y-103135901D01*
X150871641Y-102873080D01*
X150697588Y-102639731D01*
X150613534Y-102563966D01*
X150694180Y-102539502D01*
X150804494Y-102480537D01*
X150901185Y-102401185D01*
X150980537Y-102304494D01*
X151039502Y-102194180D01*
X151075812Y-102074482D01*
X151079701Y-102035000D01*
X151307297Y-102035000D01*
X151322038Y-102052962D01*
X151456613Y-102163405D01*
X151610149Y-102245472D01*
X151776745Y-102296008D01*
X151949999Y-102313072D01*
X152850001Y-102313072D01*
X153023255Y-102296008D01*
X153189851Y-102245472D01*
X153343387Y-102163405D01*
X153477962Y-102052962D01*
X153565000Y-101946906D01*
X153565001Y-107122710D01*
X150958751Y-109728960D01*
X150901185Y-109658815D01*
X150804494Y-109579463D01*
X150694180Y-109520498D01*
X150574482Y-109484188D01*
X150450000Y-109471928D01*
X148750000Y-109471928D01*
X148625518Y-109484188D01*
X148505820Y-109520498D01*
X148395506Y-109579463D01*
X148298815Y-109658815D01*
X148219463Y-109755506D01*
X148160498Y-109865820D01*
X148124188Y-109985518D01*
X148111928Y-110110000D01*
X148111928Y-111810000D01*
X148124188Y-111934482D01*
X148160498Y-112054180D01*
X148219463Y-112164494D01*
X148298815Y-112261185D01*
X148395506Y-112340537D01*
X148505820Y-112399502D01*
X148578380Y-112421513D01*
X148446525Y-112553368D01*
X148284010Y-112796589D01*
X148172068Y-113066842D01*
X148115000Y-113353740D01*
X148115000Y-113646260D01*
X148172068Y-113933158D01*
X148284010Y-114203411D01*
X148446525Y-114446632D01*
X148653368Y-114653475D01*
X148835534Y-114775195D01*
X148718645Y-114844822D01*
X148502412Y-115039731D01*
X148328359Y-115273080D01*
X148203175Y-115535901D01*
X148158524Y-115683110D01*
X148279845Y-115913000D01*
X149473000Y-115913000D01*
X149473000Y-115893000D01*
X149727000Y-115893000D01*
X149727000Y-115913000D01*
X150920155Y-115913000D01*
X151041476Y-115683110D01*
X150997125Y-115536890D01*
X191158524Y-115536890D01*
X191203175Y-115684099D01*
X191328359Y-115946920D01*
X191502412Y-116180269D01*
X191718645Y-116375178D01*
X191968748Y-116524157D01*
X192243109Y-116621481D01*
X192473000Y-116500814D01*
X192473000Y-115307000D01*
X192727000Y-115307000D01*
X192727000Y-116500814D01*
X192956891Y-116621481D01*
X193231252Y-116524157D01*
X193481355Y-116375178D01*
X193697588Y-116180269D01*
X193871641Y-115946920D01*
X193996825Y-115684099D01*
X194041476Y-115536890D01*
X193920155Y-115307000D01*
X192727000Y-115307000D01*
X192473000Y-115307000D01*
X191279845Y-115307000D01*
X191158524Y-115536890D01*
X150997125Y-115536890D01*
X150996825Y-115535901D01*
X150871641Y-115273080D01*
X150697588Y-115039731D01*
X150481355Y-114844822D01*
X150364466Y-114775195D01*
X150546632Y-114653475D01*
X150753475Y-114446632D01*
X150915990Y-114203411D01*
X150983923Y-114039406D01*
X156328659Y-108694670D01*
X156364344Y-108665384D01*
X156481186Y-108523012D01*
X156568007Y-108360580D01*
X156621471Y-108184332D01*
X156635000Y-108046972D01*
X156639524Y-108001040D01*
X156635000Y-107955108D01*
X156635000Y-105143291D01*
X159998665Y-101779627D01*
X160034345Y-101750345D01*
X160151187Y-101607973D01*
X160238008Y-101445541D01*
X160276695Y-101318006D01*
X160291472Y-101269294D01*
X160309525Y-101086002D01*
X160305001Y-101040070D01*
X160305001Y-98915936D01*
X160309525Y-98870001D01*
X160291473Y-98686709D01*
X160238008Y-98510460D01*
X160207766Y-98453881D01*
X160151187Y-98348029D01*
X160034345Y-98205657D01*
X159998661Y-98176372D01*
X157093630Y-95271341D01*
X157064344Y-95235656D01*
X156921972Y-95118814D01*
X156759540Y-95031993D01*
X156583292Y-94978529D01*
X156445932Y-94965000D01*
X156400000Y-94960476D01*
X156354068Y-94965000D01*
X153700383Y-94965000D01*
X153701618Y-94964175D01*
X153964175Y-94701618D01*
X154170466Y-94392882D01*
X154312561Y-94049834D01*
X154385000Y-93685656D01*
X154385000Y-93314344D01*
X154312561Y-92950166D01*
X154170466Y-92607118D01*
X153964175Y-92298382D01*
X153701618Y-92035825D01*
X153392882Y-91829534D01*
X153049834Y-91687439D01*
X152685656Y-91615000D01*
X152314344Y-91615000D01*
X151950166Y-91687439D01*
X151607118Y-91829534D01*
X151298382Y-92035825D01*
X151035825Y-92298382D01*
X150829534Y-92607118D01*
X150687439Y-92950166D01*
X150615000Y-93314344D01*
X150615000Y-93685656D01*
X150687439Y-94049834D01*
X150829534Y-94392882D01*
X151035825Y-94701618D01*
X151298382Y-94964175D01*
X151299617Y-94965000D01*
X150087289Y-94965000D01*
X147393620Y-92271331D01*
X147364334Y-92235646D01*
X147221962Y-92118804D01*
X147059530Y-92031983D01*
X146883282Y-91978519D01*
X146745922Y-91964990D01*
X146699990Y-91960466D01*
X146654058Y-91964990D01*
X138287280Y-91964990D01*
X137835000Y-91512711D01*
X137835000Y-90277289D01*
X138648700Y-89463589D01*
X142314999Y-89463589D01*
X142314999Y-89736411D01*
X142368224Y-90003989D01*
X142472628Y-90256043D01*
X142624200Y-90482886D01*
X142817113Y-90675799D01*
X143043956Y-90827371D01*
X143296010Y-90931775D01*
X143563588Y-90985000D01*
X143836410Y-90985000D01*
X144103988Y-90931775D01*
X144356042Y-90827371D01*
X144582885Y-90675799D01*
X144623684Y-90635000D01*
X145629172Y-90635000D01*
X145680000Y-90640006D01*
X145730828Y-90635000D01*
X145730838Y-90635000D01*
X145882895Y-90620024D01*
X146077993Y-90560841D01*
X146257797Y-90464734D01*
X146415396Y-90335396D01*
X146447807Y-90295903D01*
X146978710Y-89765000D01*
X147146260Y-89765000D01*
X147433158Y-89707932D01*
X147703411Y-89595990D01*
X147946632Y-89433475D01*
X148153475Y-89226632D01*
X148315990Y-88983411D01*
X148427932Y-88713158D01*
X148485000Y-88426260D01*
X148485000Y-88133740D01*
X148427932Y-87846842D01*
X148315990Y-87576589D01*
X148153475Y-87333368D01*
X147946632Y-87126525D01*
X147764466Y-87004805D01*
X147881355Y-86935178D01*
X148097588Y-86740269D01*
X148271641Y-86506920D01*
X148396825Y-86244099D01*
X148441476Y-86096890D01*
X148320155Y-85867000D01*
X147127000Y-85867000D01*
X147127000Y-85887000D01*
X146873000Y-85887000D01*
X146873000Y-85867000D01*
X145679845Y-85867000D01*
X145558524Y-86096890D01*
X145603175Y-86244099D01*
X145728359Y-86506920D01*
X145902412Y-86740269D01*
X146118645Y-86935178D01*
X146235534Y-87004805D01*
X146053368Y-87126525D01*
X145846525Y-87333368D01*
X145684010Y-87576589D01*
X145572068Y-87846842D01*
X145515000Y-88133740D01*
X145515000Y-88301290D01*
X145251290Y-88565000D01*
X144623684Y-88565000D01*
X144582885Y-88524201D01*
X144356042Y-88372629D01*
X144103988Y-88268225D01*
X143836410Y-88215000D01*
X143563588Y-88215000D01*
X143296010Y-88268225D01*
X143043956Y-88372629D01*
X142817113Y-88524201D01*
X142624200Y-88717114D01*
X142472628Y-88943957D01*
X142368224Y-89196011D01*
X142314999Y-89463589D01*
X138648700Y-89463589D01*
X138825290Y-89287000D01*
X139037592Y-89287000D01*
X139307490Y-89233314D01*
X139561727Y-89128005D01*
X139790535Y-88975120D01*
X139985120Y-88780535D01*
X140138005Y-88551727D01*
X140170000Y-88474485D01*
X140201995Y-88551727D01*
X140354880Y-88780535D01*
X140549465Y-88975120D01*
X140778273Y-89128005D01*
X141032510Y-89233314D01*
X141302408Y-89287000D01*
X141577592Y-89287000D01*
X141847490Y-89233314D01*
X142101727Y-89128005D01*
X142330535Y-88975120D01*
X142525120Y-88780535D01*
X142678005Y-88551727D01*
X142783314Y-88297490D01*
X142837000Y-88027592D01*
X142837000Y-87815289D01*
X145872628Y-84779662D01*
X145728359Y-84973080D01*
X145603175Y-85235901D01*
X145558524Y-85383110D01*
X145679845Y-85613000D01*
X146873000Y-85613000D01*
X146873000Y-85593000D01*
X147127000Y-85593000D01*
X147127000Y-85613000D01*
X148320155Y-85613000D01*
X148436150Y-85393203D01*
X148471314Y-85422061D01*
X176317917Y-113268665D01*
X176347198Y-113304344D01*
X176489570Y-113421186D01*
X176652002Y-113508007D01*
X176774785Y-113545253D01*
X176828249Y-113561471D01*
X177011541Y-113579524D01*
X177057473Y-113575000D01*
X191438753Y-113575000D01*
X191446525Y-113586632D01*
X191653368Y-113793475D01*
X191835534Y-113915195D01*
X191718645Y-113984822D01*
X191502412Y-114179731D01*
X191328359Y-114413080D01*
X191203175Y-114675901D01*
X191158524Y-114823110D01*
X191279845Y-115053000D01*
X192473000Y-115053000D01*
X192473000Y-115033000D01*
X192727000Y-115033000D01*
X192727000Y-115053000D01*
X193920155Y-115053000D01*
X194041476Y-114823110D01*
X193996825Y-114675901D01*
X193871641Y-114413080D01*
X193697588Y-114179731D01*
X193481355Y-113984822D01*
X193364466Y-113915195D01*
X193546632Y-113793475D01*
X193753475Y-113586632D01*
X193915990Y-113343411D01*
X194027932Y-113073158D01*
X194085000Y-112786260D01*
X194085000Y-112493740D01*
X194027932Y-112206842D01*
X193915990Y-111936589D01*
X193753475Y-111693368D01*
X193546632Y-111486525D01*
X193372240Y-111370000D01*
X193546632Y-111253475D01*
X193753475Y-111046632D01*
X193915990Y-110803411D01*
X194027932Y-110533158D01*
X194085000Y-110246260D01*
X194085000Y-109953740D01*
X194027932Y-109666842D01*
X193915990Y-109396589D01*
X193753475Y-109153368D01*
X193546632Y-108946525D01*
X193372240Y-108830000D01*
X193546632Y-108713475D01*
X193753475Y-108506632D01*
X193915990Y-108263411D01*
X194027932Y-107993158D01*
X194085000Y-107706260D01*
X194085000Y-107413740D01*
X194027932Y-107126842D01*
X193915990Y-106856589D01*
X193753475Y-106613368D01*
X193621620Y-106481513D01*
X193694180Y-106459502D01*
X193804494Y-106400537D01*
X193901185Y-106321185D01*
X193980537Y-106224494D01*
X194039502Y-106114180D01*
X194075812Y-105994482D01*
X194088072Y-105870000D01*
X194088072Y-104170000D01*
X194075812Y-104045518D01*
X194039502Y-103925820D01*
X193980537Y-103815506D01*
X193901185Y-103718815D01*
X193804494Y-103639463D01*
X193694180Y-103580498D01*
X193574482Y-103544188D01*
X193450000Y-103531928D01*
X191750000Y-103531928D01*
X191625518Y-103544188D01*
X191505820Y-103580498D01*
X191395506Y-103639463D01*
X191298815Y-103718815D01*
X191219463Y-103815506D01*
X191160498Y-103925820D01*
X191148613Y-103965000D01*
X190523685Y-103965000D01*
X190482886Y-103924201D01*
X190256043Y-103772629D01*
X190003989Y-103668225D01*
X189736411Y-103615000D01*
X189463589Y-103615000D01*
X189196011Y-103668225D01*
X188943957Y-103772629D01*
X188717114Y-103924201D01*
X188524201Y-104117114D01*
X188372629Y-104343957D01*
X188268225Y-104596011D01*
X188215000Y-104863589D01*
X188215000Y-105136411D01*
X188268225Y-105403989D01*
X188372629Y-105656043D01*
X188524201Y-105882886D01*
X188717114Y-106075799D01*
X188943957Y-106227371D01*
X189196011Y-106331775D01*
X189463589Y-106385000D01*
X189736411Y-106385000D01*
X190003989Y-106331775D01*
X190256043Y-106227371D01*
X190482886Y-106075799D01*
X190523685Y-106035000D01*
X191136479Y-106035000D01*
X191160498Y-106114180D01*
X191219463Y-106224494D01*
X191298815Y-106321185D01*
X191395506Y-106400537D01*
X191505820Y-106459502D01*
X191578380Y-106481513D01*
X191446525Y-106613368D01*
X191284010Y-106856589D01*
X191172068Y-107126842D01*
X191115000Y-107413740D01*
X191115000Y-107706260D01*
X191117729Y-107719982D01*
X189132733Y-109704978D01*
X178227267Y-109704978D01*
X168197387Y-99675098D01*
X180035000Y-99675098D01*
X180035000Y-100144902D01*
X180126654Y-100605679D01*
X180306440Y-101039721D01*
X180567450Y-101430349D01*
X180899651Y-101762550D01*
X181290279Y-102023560D01*
X181724321Y-102203346D01*
X182185098Y-102295000D01*
X182654902Y-102295000D01*
X183115679Y-102203346D01*
X183549721Y-102023560D01*
X183940349Y-101762550D01*
X184272550Y-101430349D01*
X184533560Y-101039721D01*
X184713346Y-100605679D01*
X184805000Y-100144902D01*
X184805000Y-99675098D01*
X184713346Y-99214321D01*
X184533560Y-98780279D01*
X184272550Y-98389651D01*
X183940349Y-98057450D01*
X183549721Y-97796440D01*
X183115679Y-97616654D01*
X182654902Y-97525000D01*
X182185098Y-97525000D01*
X181724321Y-97616654D01*
X181290279Y-97796440D01*
X180899651Y-98057450D01*
X180567450Y-98389651D01*
X180306440Y-98780279D01*
X180126654Y-99214321D01*
X180035000Y-99675098D01*
X168197387Y-99675098D01*
X161836633Y-93314344D01*
X193615000Y-93314344D01*
X193615000Y-93685656D01*
X193687439Y-94049834D01*
X193829534Y-94392882D01*
X194035825Y-94701618D01*
X194298382Y-94964175D01*
X194607118Y-95170466D01*
X194950166Y-95312561D01*
X195314344Y-95385000D01*
X195685656Y-95385000D01*
X196049834Y-95312561D01*
X196392882Y-95170466D01*
X196701618Y-94964175D01*
X196964175Y-94701618D01*
X197170466Y-94392882D01*
X197312561Y-94049834D01*
X197385000Y-93685656D01*
X197385000Y-93314344D01*
X197312561Y-92950166D01*
X197170466Y-92607118D01*
X196964175Y-92298382D01*
X196701618Y-92035825D01*
X196392882Y-91829534D01*
X196049834Y-91687439D01*
X195685656Y-91615000D01*
X195314344Y-91615000D01*
X194950166Y-91687439D01*
X194607118Y-91829534D01*
X194298382Y-92035825D01*
X194035825Y-92298382D01*
X193829534Y-92607118D01*
X193687439Y-92950166D01*
X193615000Y-93314344D01*
X161836633Y-93314344D01*
X152035000Y-83512711D01*
X152035000Y-68845935D01*
X152039524Y-68800000D01*
X152021472Y-68616708D01*
X151968007Y-68440459D01*
X151937765Y-68383880D01*
X151881186Y-68278028D01*
X151764344Y-68135656D01*
X151728659Y-68106370D01*
X149493583Y-65871294D01*
X149464297Y-65835609D01*
X149321925Y-65718767D01*
X149159493Y-65631946D01*
X148983245Y-65578482D01*
X148845885Y-65564953D01*
X148799953Y-65560429D01*
X148754021Y-65564953D01*
X139645982Y-65564953D01*
X139600047Y-65560429D01*
X139416755Y-65578481D01*
X139312875Y-65609994D01*
X139240507Y-65631946D01*
X139078075Y-65718767D01*
X138935703Y-65835609D01*
X138906417Y-65871294D01*
X136371341Y-68406370D01*
X136335656Y-68435656D01*
X136218814Y-68578029D01*
X136131993Y-68740461D01*
X136097346Y-68854677D01*
X136078529Y-68916709D01*
X136060476Y-69100000D01*
X136065000Y-69145932D01*
X136065001Y-71781688D01*
X136060476Y-71827630D01*
X136078529Y-72010921D01*
X136114054Y-72128029D01*
X136131994Y-72187170D01*
X136218815Y-72349602D01*
X136335657Y-72491974D01*
X136371336Y-72521255D01*
X137128740Y-73278659D01*
X137158026Y-73314344D01*
X137300398Y-73431186D01*
X137462830Y-73518007D01*
X137639078Y-73571471D01*
X137822370Y-73589524D01*
X137860148Y-73585803D01*
X138009465Y-73735120D01*
X138238273Y-73888005D01*
X138309943Y-73917692D01*
X138296977Y-73922364D01*
X138181020Y-73984344D01*
X138114040Y-74224435D01*
X138900000Y-75010395D01*
X139685960Y-74224435D01*
X139618980Y-73984344D01*
X139483240Y-73920515D01*
X139561727Y-73888005D01*
X139790535Y-73735120D01*
X139985120Y-73540535D01*
X140138005Y-73311727D01*
X140170000Y-73234485D01*
X140201995Y-73311727D01*
X140354880Y-73540535D01*
X140549465Y-73735120D01*
X140778273Y-73888005D01*
X140855515Y-73920000D01*
X140778273Y-73951995D01*
X140549465Y-74104880D01*
X140354880Y-74299465D01*
X140201995Y-74528273D01*
X140172308Y-74599943D01*
X140167636Y-74586977D01*
X140105656Y-74471020D01*
X139865565Y-74404040D01*
X139079605Y-75190000D01*
X139865565Y-75975960D01*
X140105656Y-75908980D01*
X140169485Y-75773240D01*
X140201995Y-75851727D01*
X140354880Y-76080535D01*
X140549465Y-76275120D01*
X140778273Y-76428005D01*
X140855515Y-76460000D01*
X140778273Y-76491995D01*
X140549465Y-76644880D01*
X140354880Y-76839465D01*
X140201995Y-77068273D01*
X140170000Y-77145515D01*
X140138005Y-77068273D01*
X139985120Y-76839465D01*
X139790535Y-76644880D01*
X139561727Y-76491995D01*
X139490057Y-76462308D01*
X139503023Y-76457636D01*
X139618980Y-76395656D01*
X139685960Y-76155565D01*
X138900000Y-75369605D01*
X138114040Y-76155565D01*
X138181020Y-76395656D01*
X138316760Y-76459485D01*
X138238273Y-76491995D01*
X138009465Y-76644880D01*
X137814880Y-76839465D01*
X137661995Y-77068273D01*
X137556686Y-77322510D01*
X137503000Y-77592408D01*
X137503000Y-77804710D01*
X132171314Y-83136397D01*
X132135635Y-83165678D01*
X132018793Y-83308050D01*
X131931972Y-83470482D01*
X131878507Y-83646731D01*
X131860454Y-83830022D01*
X131864979Y-83875964D01*
X131864978Y-99604046D01*
X131863361Y-99620461D01*
X131825518Y-99624188D01*
X131705820Y-99660498D01*
X131595506Y-99719463D01*
X131498815Y-99798815D01*
X131419463Y-99895506D01*
X131360498Y-100005820D01*
X131324188Y-100125518D01*
X131311928Y-100250000D01*
X128660000Y-100250000D01*
X128660000Y-75262017D01*
X137498090Y-75262017D01*
X137539078Y-75534133D01*
X137632364Y-75793023D01*
X137694344Y-75908980D01*
X137934435Y-75975960D01*
X138720395Y-75190000D01*
X137934435Y-74404040D01*
X137694344Y-74471020D01*
X137577244Y-74720048D01*
X137510977Y-74987135D01*
X137498090Y-75262017D01*
X128660000Y-75262017D01*
X128660000Y-65314344D01*
X150615000Y-65314344D01*
X150615000Y-65685656D01*
X150687439Y-66049834D01*
X150829534Y-66392882D01*
X151035825Y-66701618D01*
X151298382Y-66964175D01*
X151607118Y-67170466D01*
X151950166Y-67312561D01*
X152314344Y-67385000D01*
X152685656Y-67385000D01*
X153049834Y-67312561D01*
X153392882Y-67170466D01*
X153701618Y-66964175D01*
X153964175Y-66701618D01*
X154170466Y-66392882D01*
X154312561Y-66049834D01*
X154385000Y-65685656D01*
X154385000Y-65314344D01*
X154312561Y-64950166D01*
X154170466Y-64607118D01*
X153964175Y-64298382D01*
X153701618Y-64035825D01*
X153392882Y-63829534D01*
X153049834Y-63687439D01*
X152685656Y-63615000D01*
X152314344Y-63615000D01*
X151950166Y-63687439D01*
X151607118Y-63829534D01*
X151298382Y-64035825D01*
X151035825Y-64298382D01*
X150829534Y-64607118D01*
X150687439Y-64950166D01*
X150615000Y-65314344D01*
X128660000Y-65314344D01*
X128660000Y-62910000D01*
X164082857Y-62910000D01*
X164082857Y-68952500D01*
M02*
