G04 #@! TF.GenerationSoftware,KiCad,Pcbnew,(5.1.5)-3*
G04 #@! TF.CreationDate,2020-03-10T17:23:55+01:00*
G04 #@! TF.ProjectId,User_Interface_Board,55736572-5f49-46e7-9465-72666163655f,rev?*
G04 #@! TF.SameCoordinates,Original*
G04 #@! TF.FileFunction,Legend,Bot*
G04 #@! TF.FilePolarity,Positive*
%FSLAX46Y46*%
G04 Gerber Fmt 4.6, Leading zero omitted, Abs format (unit mm)*
G04 Created by KiCad (PCBNEW (5.1.5)-3) date 2020-03-10 17:23:55*
%MOMM*%
%LPD*%
G04 APERTURE LIST*
%ADD10C,0.120000*%
%ADD11C,0.150000*%
G04 APERTURE END LIST*
D10*
X134890000Y-99813748D02*
X134890000Y-100336252D01*
X136310000Y-99813748D02*
X136310000Y-100336252D01*
X141910000Y-99813748D02*
X141910000Y-100336252D01*
X140490000Y-99813748D02*
X140490000Y-100336252D01*
X146090000Y-99813748D02*
X146090000Y-100336252D01*
X147510000Y-99813748D02*
X147510000Y-100336252D01*
X153110000Y-99813748D02*
X153110000Y-100336252D01*
X151690000Y-99813748D02*
X151690000Y-100336252D01*
D11*
X135846266Y-102979880D02*
X136179600Y-102503690D01*
X136417695Y-102979880D02*
X136417695Y-101979880D01*
X136036742Y-101979880D01*
X135941504Y-102027500D01*
X135893885Y-102075119D01*
X135846266Y-102170357D01*
X135846266Y-102313214D01*
X135893885Y-102408452D01*
X135941504Y-102456071D01*
X136036742Y-102503690D01*
X136417695Y-102503690D01*
X134893885Y-102979880D02*
X135465314Y-102979880D01*
X135179600Y-102979880D02*
X135179600Y-101979880D01*
X135274838Y-102122738D01*
X135370076Y-102217976D01*
X135465314Y-102265595D01*
X143560080Y-99908333D02*
X143083890Y-99575000D01*
X143560080Y-99336904D02*
X142560080Y-99336904D01*
X142560080Y-99717857D01*
X142607700Y-99813095D01*
X142655319Y-99860714D01*
X142750557Y-99908333D01*
X142893414Y-99908333D01*
X142988652Y-99860714D01*
X143036271Y-99813095D01*
X143083890Y-99717857D01*
X143083890Y-99336904D01*
X142655319Y-100289285D02*
X142607700Y-100336904D01*
X142560080Y-100432142D01*
X142560080Y-100670238D01*
X142607700Y-100765476D01*
X142655319Y-100813095D01*
X142750557Y-100860714D01*
X142845795Y-100860714D01*
X142988652Y-100813095D01*
X143560080Y-100241666D01*
X143560080Y-100860714D01*
X149202380Y-99883333D02*
X148726190Y-99550000D01*
X149202380Y-99311904D02*
X148202380Y-99311904D01*
X148202380Y-99692857D01*
X148250000Y-99788095D01*
X148297619Y-99835714D01*
X148392857Y-99883333D01*
X148535714Y-99883333D01*
X148630952Y-99835714D01*
X148678571Y-99788095D01*
X148726190Y-99692857D01*
X148726190Y-99311904D01*
X148202380Y-100216666D02*
X148202380Y-100835714D01*
X148583333Y-100502380D01*
X148583333Y-100645238D01*
X148630952Y-100740476D01*
X148678571Y-100788095D01*
X148773809Y-100835714D01*
X149011904Y-100835714D01*
X149107142Y-100788095D01*
X149154761Y-100740476D01*
X149202380Y-100645238D01*
X149202380Y-100359523D01*
X149154761Y-100264285D01*
X149107142Y-100216666D01*
X157802380Y-99883333D02*
X157326190Y-99550000D01*
X157802380Y-99311904D02*
X156802380Y-99311904D01*
X156802380Y-99692857D01*
X156850000Y-99788095D01*
X156897619Y-99835714D01*
X156992857Y-99883333D01*
X157135714Y-99883333D01*
X157230952Y-99835714D01*
X157278571Y-99788095D01*
X157326190Y-99692857D01*
X157326190Y-99311904D01*
X157135714Y-100740476D02*
X157802380Y-100740476D01*
X156754761Y-100502380D02*
X157469047Y-100264285D01*
X157469047Y-100883333D01*
M02*
