G04 #@! TF.GenerationSoftware,KiCad,Pcbnew,(5.1.5)-3*
G04 #@! TF.CreationDate,2020-03-10T17:23:55+01:00*
G04 #@! TF.ProjectId,User_Interface_Board,55736572-5f49-46e7-9465-72666163655f,rev?*
G04 #@! TF.SameCoordinates,Original*
G04 #@! TF.FileFunction,Legend,Top*
G04 #@! TF.FilePolarity,Positive*
%FSLAX46Y46*%
G04 Gerber Fmt 4.6, Leading zero omitted, Abs format (unit mm)*
G04 Created by KiCad (PCBNEW (5.1.5)-3) date 2020-03-10 17:23:55*
%MOMM*%
%LPD*%
G04 APERTURE LIST*
%ADD10C,0.150000*%
%ADD11C,0.120000*%
%ADD12C,0.050000*%
G04 APERTURE END LIST*
D10*
X187128571Y-132722380D02*
X186557142Y-132722380D01*
X186842857Y-132722380D02*
X186842857Y-131722380D01*
X186747619Y-131865238D01*
X186652380Y-131960476D01*
X186557142Y-132008095D01*
X187985714Y-131722380D02*
X187795238Y-131722380D01*
X187700000Y-131770000D01*
X187652380Y-131817619D01*
X187557142Y-131960476D01*
X187509523Y-132150952D01*
X187509523Y-132531904D01*
X187557142Y-132627142D01*
X187604761Y-132674761D01*
X187700000Y-132722380D01*
X187890476Y-132722380D01*
X187985714Y-132674761D01*
X188033333Y-132627142D01*
X188080952Y-132531904D01*
X188080952Y-132293809D01*
X188033333Y-132198571D01*
X187985714Y-132150952D01*
X187890476Y-132103333D01*
X187700000Y-132103333D01*
X187604761Y-132150952D01*
X187557142Y-132198571D01*
X187509523Y-132293809D01*
X188557142Y-132674761D02*
X188557142Y-132722380D01*
X188509523Y-132817619D01*
X188461904Y-132865238D01*
X189414285Y-131722380D02*
X189223809Y-131722380D01*
X189128571Y-131770000D01*
X189080952Y-131817619D01*
X188985714Y-131960476D01*
X188938095Y-132150952D01*
X188938095Y-132531904D01*
X188985714Y-132627142D01*
X189033333Y-132674761D01*
X189128571Y-132722380D01*
X189319047Y-132722380D01*
X189414285Y-132674761D01*
X189461904Y-132627142D01*
X189509523Y-132531904D01*
X189509523Y-132293809D01*
X189461904Y-132198571D01*
X189414285Y-132150952D01*
X189319047Y-132103333D01*
X189128571Y-132103333D01*
X189033333Y-132150952D01*
X188985714Y-132198571D01*
X188938095Y-132293809D01*
X190128571Y-131722380D02*
X190223809Y-131722380D01*
X190319047Y-131770000D01*
X190366666Y-131817619D01*
X190414285Y-131912857D01*
X190461904Y-132103333D01*
X190461904Y-132341428D01*
X190414285Y-132531904D01*
X190366666Y-132627142D01*
X190319047Y-132674761D01*
X190223809Y-132722380D01*
X190128571Y-132722380D01*
X190033333Y-132674761D01*
X189985714Y-132627142D01*
X189938095Y-132531904D01*
X189890476Y-132341428D01*
X189890476Y-132103333D01*
X189938095Y-131912857D01*
X189985714Y-131817619D01*
X190033333Y-131770000D01*
X190128571Y-131722380D01*
X191080952Y-131722380D02*
X191176190Y-131722380D01*
X191271428Y-131770000D01*
X191319047Y-131817619D01*
X191366666Y-131912857D01*
X191414285Y-132103333D01*
X191414285Y-132341428D01*
X191366666Y-132531904D01*
X191319047Y-132627142D01*
X191271428Y-132674761D01*
X191176190Y-132722380D01*
X191080952Y-132722380D01*
X190985714Y-132674761D01*
X190938095Y-132627142D01*
X190890476Y-132531904D01*
X190842857Y-132341428D01*
X190842857Y-132103333D01*
X190890476Y-131912857D01*
X190938095Y-131817619D01*
X190985714Y-131770000D01*
X191080952Y-131722380D01*
X192604761Y-132722380D02*
X192604761Y-132055714D01*
X192604761Y-132150952D02*
X192652380Y-132103333D01*
X192747619Y-132055714D01*
X192890476Y-132055714D01*
X192985714Y-132103333D01*
X193033333Y-132198571D01*
X193033333Y-132722380D01*
X193033333Y-132198571D02*
X193080952Y-132103333D01*
X193176190Y-132055714D01*
X193319047Y-132055714D01*
X193414285Y-132103333D01*
X193461904Y-132198571D01*
X193461904Y-132722380D01*
X193938095Y-132722380D02*
X193938095Y-132055714D01*
X193938095Y-132150952D02*
X193985714Y-132103333D01*
X194080952Y-132055714D01*
X194223809Y-132055714D01*
X194319047Y-132103333D01*
X194366666Y-132198571D01*
X194366666Y-132722380D01*
X194366666Y-132198571D02*
X194414285Y-132103333D01*
X194509523Y-132055714D01*
X194652380Y-132055714D01*
X194747619Y-132103333D01*
X194795238Y-132198571D01*
X194795238Y-132722380D01*
D11*
X182400000Y-131000000D02*
X199000000Y-131000000D01*
X182400000Y-119400000D02*
X182400000Y-131586421D01*
X199000000Y-119400000D02*
X199000000Y-131586421D01*
X199000000Y-131000000D02*
X197873496Y-131586421D01*
X199000000Y-131000000D02*
X197873496Y-130413579D01*
X182400000Y-131000000D02*
X183526504Y-131586421D01*
X182400000Y-131000000D02*
X183526504Y-130413579D01*
D10*
X204022380Y-113221428D02*
X204022380Y-113792857D01*
X204022380Y-113507142D02*
X203022380Y-113507142D01*
X203165238Y-113602380D01*
X203260476Y-113697619D01*
X203308095Y-113792857D01*
X204022380Y-112745238D02*
X204022380Y-112554761D01*
X203974761Y-112459523D01*
X203927142Y-112411904D01*
X203784285Y-112316666D01*
X203593809Y-112269047D01*
X203212857Y-112269047D01*
X203117619Y-112316666D01*
X203070000Y-112364285D01*
X203022380Y-112459523D01*
X203022380Y-112650000D01*
X203070000Y-112745238D01*
X203117619Y-112792857D01*
X203212857Y-112840476D01*
X203450952Y-112840476D01*
X203546190Y-112792857D01*
X203593809Y-112745238D01*
X203641428Y-112650000D01*
X203641428Y-112459523D01*
X203593809Y-112364285D01*
X203546190Y-112316666D01*
X203450952Y-112269047D01*
X203974761Y-111792857D02*
X204022380Y-111792857D01*
X204117619Y-111840476D01*
X204165238Y-111888095D01*
X203022380Y-110888095D02*
X203022380Y-111364285D01*
X203498571Y-111411904D01*
X203450952Y-111364285D01*
X203403333Y-111269047D01*
X203403333Y-111030952D01*
X203450952Y-110935714D01*
X203498571Y-110888095D01*
X203593809Y-110840476D01*
X203831904Y-110840476D01*
X203927142Y-110888095D01*
X203974761Y-110935714D01*
X204022380Y-111030952D01*
X204022380Y-111269047D01*
X203974761Y-111364285D01*
X203927142Y-111411904D01*
X203022380Y-110221428D02*
X203022380Y-110126190D01*
X203070000Y-110030952D01*
X203117619Y-109983333D01*
X203212857Y-109935714D01*
X203403333Y-109888095D01*
X203641428Y-109888095D01*
X203831904Y-109935714D01*
X203927142Y-109983333D01*
X203974761Y-110030952D01*
X204022380Y-110126190D01*
X204022380Y-110221428D01*
X203974761Y-110316666D01*
X203927142Y-110364285D01*
X203831904Y-110411904D01*
X203641428Y-110459523D01*
X203403333Y-110459523D01*
X203212857Y-110411904D01*
X203117619Y-110364285D01*
X203070000Y-110316666D01*
X203022380Y-110221428D01*
X203022380Y-109269047D02*
X203022380Y-109173809D01*
X203070000Y-109078571D01*
X203117619Y-109030952D01*
X203212857Y-108983333D01*
X203403333Y-108935714D01*
X203641428Y-108935714D01*
X203831904Y-108983333D01*
X203927142Y-109030952D01*
X203974761Y-109078571D01*
X204022380Y-109173809D01*
X204022380Y-109269047D01*
X203974761Y-109364285D01*
X203927142Y-109411904D01*
X203831904Y-109459523D01*
X203641428Y-109507142D01*
X203403333Y-109507142D01*
X203212857Y-109459523D01*
X203117619Y-109411904D01*
X203070000Y-109364285D01*
X203022380Y-109269047D01*
X204022380Y-107745238D02*
X203355714Y-107745238D01*
X203450952Y-107745238D02*
X203403333Y-107697619D01*
X203355714Y-107602380D01*
X203355714Y-107459523D01*
X203403333Y-107364285D01*
X203498571Y-107316666D01*
X204022380Y-107316666D01*
X203498571Y-107316666D02*
X203403333Y-107269047D01*
X203355714Y-107173809D01*
X203355714Y-107030952D01*
X203403333Y-106935714D01*
X203498571Y-106888095D01*
X204022380Y-106888095D01*
X204022380Y-106411904D02*
X203355714Y-106411904D01*
X203450952Y-106411904D02*
X203403333Y-106364285D01*
X203355714Y-106269047D01*
X203355714Y-106126190D01*
X203403333Y-106030952D01*
X203498571Y-105983333D01*
X204022380Y-105983333D01*
X203498571Y-105983333D02*
X203403333Y-105935714D01*
X203355714Y-105840476D01*
X203355714Y-105697619D01*
X203403333Y-105602380D01*
X203498571Y-105554761D01*
X204022380Y-105554761D01*
D11*
X202300000Y-119400000D02*
X202300000Y-99900000D01*
X182400000Y-119400000D02*
X202886421Y-119400000D01*
X182400000Y-99900000D02*
X202886421Y-99900000D01*
X202300000Y-99900000D02*
X202886421Y-101026504D01*
X202300000Y-99900000D02*
X201713579Y-101026504D01*
X202300000Y-119400000D02*
X202886421Y-118273496D01*
X202300000Y-119400000D02*
X201713579Y-118273496D01*
D10*
X165507142Y-131817619D02*
X165554761Y-131770000D01*
X165650000Y-131722380D01*
X165888095Y-131722380D01*
X165983333Y-131770000D01*
X166030952Y-131817619D01*
X166078571Y-131912857D01*
X166078571Y-132008095D01*
X166030952Y-132150952D01*
X165459523Y-132722380D01*
X166078571Y-132722380D01*
X166983333Y-131722380D02*
X166507142Y-131722380D01*
X166459523Y-132198571D01*
X166507142Y-132150952D01*
X166602380Y-132103333D01*
X166840476Y-132103333D01*
X166935714Y-132150952D01*
X166983333Y-132198571D01*
X167030952Y-132293809D01*
X167030952Y-132531904D01*
X166983333Y-132627142D01*
X166935714Y-132674761D01*
X166840476Y-132722380D01*
X166602380Y-132722380D01*
X166507142Y-132674761D01*
X166459523Y-132627142D01*
X167507142Y-132674761D02*
X167507142Y-132722380D01*
X167459523Y-132817619D01*
X167411904Y-132865238D01*
X168411904Y-131722380D02*
X167935714Y-131722380D01*
X167888095Y-132198571D01*
X167935714Y-132150952D01*
X168030952Y-132103333D01*
X168269047Y-132103333D01*
X168364285Y-132150952D01*
X168411904Y-132198571D01*
X168459523Y-132293809D01*
X168459523Y-132531904D01*
X168411904Y-132627142D01*
X168364285Y-132674761D01*
X168269047Y-132722380D01*
X168030952Y-132722380D01*
X167935714Y-132674761D01*
X167888095Y-132627142D01*
X169078571Y-131722380D02*
X169173809Y-131722380D01*
X169269047Y-131770000D01*
X169316666Y-131817619D01*
X169364285Y-131912857D01*
X169411904Y-132103333D01*
X169411904Y-132341428D01*
X169364285Y-132531904D01*
X169316666Y-132627142D01*
X169269047Y-132674761D01*
X169173809Y-132722380D01*
X169078571Y-132722380D01*
X168983333Y-132674761D01*
X168935714Y-132627142D01*
X168888095Y-132531904D01*
X168840476Y-132341428D01*
X168840476Y-132103333D01*
X168888095Y-131912857D01*
X168935714Y-131817619D01*
X168983333Y-131770000D01*
X169078571Y-131722380D01*
X170030952Y-131722380D02*
X170126190Y-131722380D01*
X170221428Y-131770000D01*
X170269047Y-131817619D01*
X170316666Y-131912857D01*
X170364285Y-132103333D01*
X170364285Y-132341428D01*
X170316666Y-132531904D01*
X170269047Y-132627142D01*
X170221428Y-132674761D01*
X170126190Y-132722380D01*
X170030952Y-132722380D01*
X169935714Y-132674761D01*
X169888095Y-132627142D01*
X169840476Y-132531904D01*
X169792857Y-132341428D01*
X169792857Y-132103333D01*
X169840476Y-131912857D01*
X169888095Y-131817619D01*
X169935714Y-131770000D01*
X170030952Y-131722380D01*
X171554761Y-132722380D02*
X171554761Y-132055714D01*
X171554761Y-132150952D02*
X171602380Y-132103333D01*
X171697619Y-132055714D01*
X171840476Y-132055714D01*
X171935714Y-132103333D01*
X171983333Y-132198571D01*
X171983333Y-132722380D01*
X171983333Y-132198571D02*
X172030952Y-132103333D01*
X172126190Y-132055714D01*
X172269047Y-132055714D01*
X172364285Y-132103333D01*
X172411904Y-132198571D01*
X172411904Y-132722380D01*
X172888095Y-132722380D02*
X172888095Y-132055714D01*
X172888095Y-132150952D02*
X172935714Y-132103333D01*
X173030952Y-132055714D01*
X173173809Y-132055714D01*
X173269047Y-132103333D01*
X173316666Y-132198571D01*
X173316666Y-132722380D01*
X173316666Y-132198571D02*
X173364285Y-132103333D01*
X173459523Y-132055714D01*
X173602380Y-132055714D01*
X173697619Y-132103333D01*
X173745238Y-132198571D01*
X173745238Y-132722380D01*
D11*
X156900000Y-131000000D02*
X182400000Y-131000000D01*
X156900000Y-119400000D02*
X156900000Y-131586421D01*
X182400000Y-119400000D02*
X182400000Y-131586421D01*
X182400000Y-131000000D02*
X181273496Y-131586421D01*
X182400000Y-131000000D02*
X181273496Y-130413579D01*
X156900000Y-131000000D02*
X158026504Y-131586421D01*
X156900000Y-131000000D02*
X158026504Y-130413579D01*
D12*
X154240000Y-97420000D02*
X154250000Y-123400000D01*
X184920000Y-97410000D02*
X154240000Y-97420000D01*
X184920000Y-123410000D02*
X154250000Y-123400000D01*
X184920000Y-97410000D02*
X184920000Y-123410000D01*
D10*
X146229523Y-109862380D02*
X146229523Y-108862380D01*
X146467619Y-108862380D01*
X146610476Y-108910000D01*
X146705714Y-109005238D01*
X146753333Y-109100476D01*
X146800952Y-109290952D01*
X146800952Y-109433809D01*
X146753333Y-109624285D01*
X146705714Y-109719523D01*
X146610476Y-109814761D01*
X146467619Y-109862380D01*
X146229523Y-109862380D01*
X147229523Y-109338571D02*
X147562857Y-109338571D01*
X147705714Y-109862380D02*
X147229523Y-109862380D01*
X147229523Y-108862380D01*
X147705714Y-108862380D01*
X148467619Y-109338571D02*
X148610476Y-109386190D01*
X148658095Y-109433809D01*
X148705714Y-109529047D01*
X148705714Y-109671904D01*
X148658095Y-109767142D01*
X148610476Y-109814761D01*
X148515238Y-109862380D01*
X148134285Y-109862380D01*
X148134285Y-108862380D01*
X148467619Y-108862380D01*
X148562857Y-108910000D01*
X148610476Y-108957619D01*
X148658095Y-109052857D01*
X148658095Y-109148095D01*
X148610476Y-109243333D01*
X148562857Y-109290952D01*
X148467619Y-109338571D01*
X148134285Y-109338571D01*
X149324761Y-108862380D02*
X149515238Y-108862380D01*
X149610476Y-108910000D01*
X149705714Y-109005238D01*
X149753333Y-109195714D01*
X149753333Y-109529047D01*
X149705714Y-109719523D01*
X149610476Y-109814761D01*
X149515238Y-109862380D01*
X149324761Y-109862380D01*
X149229523Y-109814761D01*
X149134285Y-109719523D01*
X149086666Y-109529047D01*
X149086666Y-109195714D01*
X149134285Y-109005238D01*
X149229523Y-108910000D01*
X149324761Y-108862380D01*
X150800952Y-108862380D02*
X151372380Y-108862380D01*
X151086666Y-109862380D02*
X151086666Y-108862380D01*
X151705714Y-109862380D02*
X151705714Y-108862380D01*
X151705714Y-109338571D02*
X152277142Y-109338571D01*
X152277142Y-109862380D02*
X152277142Y-108862380D01*
X152753333Y-108862380D02*
X152753333Y-109671904D01*
X152800952Y-109767142D01*
X152848571Y-109814761D01*
X152943809Y-109862380D01*
X153134285Y-109862380D01*
X153229523Y-109814761D01*
X153277142Y-109767142D01*
X153324761Y-109671904D01*
X153324761Y-108862380D01*
X153800952Y-109862380D02*
X153800952Y-108862380D01*
X154134285Y-109576666D01*
X154467619Y-108862380D01*
X154467619Y-109862380D01*
X155277142Y-109338571D02*
X155420000Y-109386190D01*
X155467619Y-109433809D01*
X155515238Y-109529047D01*
X155515238Y-109671904D01*
X155467619Y-109767142D01*
X155420000Y-109814761D01*
X155324761Y-109862380D01*
X154943809Y-109862380D01*
X154943809Y-108862380D01*
X155277142Y-108862380D01*
X155372380Y-108910000D01*
X155420000Y-108957619D01*
X155467619Y-109052857D01*
X155467619Y-109148095D01*
X155420000Y-109243333D01*
X155372380Y-109290952D01*
X155277142Y-109338571D01*
X154943809Y-109338571D01*
X156991428Y-108862380D02*
X156991428Y-109576666D01*
X156943809Y-109719523D01*
X156848571Y-109814761D01*
X156705714Y-109862380D01*
X156610476Y-109862380D01*
X157658095Y-108862380D02*
X157848571Y-108862380D01*
X157943809Y-108910000D01*
X158039047Y-109005238D01*
X158086666Y-109195714D01*
X158086666Y-109529047D01*
X158039047Y-109719523D01*
X157943809Y-109814761D01*
X157848571Y-109862380D01*
X157658095Y-109862380D01*
X157562857Y-109814761D01*
X157467619Y-109719523D01*
X157420000Y-109529047D01*
X157420000Y-109195714D01*
X157467619Y-109005238D01*
X157562857Y-108910000D01*
X157658095Y-108862380D01*
X158705714Y-109386190D02*
X158705714Y-109862380D01*
X158372380Y-108862380D02*
X158705714Y-109386190D01*
X159039047Y-108862380D01*
X160134285Y-109338571D02*
X160467619Y-109338571D01*
X160610476Y-109862380D02*
X160134285Y-109862380D01*
X160134285Y-108862380D01*
X160610476Y-108862380D01*
X161039047Y-109195714D02*
X161039047Y-109862380D01*
X161039047Y-109290952D02*
X161086666Y-109243333D01*
X161181904Y-109195714D01*
X161324761Y-109195714D01*
X161420000Y-109243333D01*
X161467619Y-109338571D01*
X161467619Y-109862380D01*
X161800952Y-109195714D02*
X162181904Y-109195714D01*
X161943809Y-108862380D02*
X161943809Y-109719523D01*
X161991428Y-109814761D01*
X162086666Y-109862380D01*
X162181904Y-109862380D01*
X162420000Y-109195714D02*
X162610476Y-109862380D01*
X162800952Y-109386190D01*
X162991428Y-109862380D01*
X163181904Y-109195714D01*
X163562857Y-109862380D02*
X163562857Y-109195714D01*
X163562857Y-108862380D02*
X163515238Y-108910000D01*
X163562857Y-108957619D01*
X163610476Y-108910000D01*
X163562857Y-108862380D01*
X163562857Y-108957619D01*
X164467619Y-109814761D02*
X164372380Y-109862380D01*
X164181904Y-109862380D01*
X164086666Y-109814761D01*
X164039047Y-109767142D01*
X163991428Y-109671904D01*
X163991428Y-109386190D01*
X164039047Y-109290952D01*
X164086666Y-109243333D01*
X164181904Y-109195714D01*
X164372380Y-109195714D01*
X164467619Y-109243333D01*
X164896190Y-109862380D02*
X164896190Y-108862380D01*
X164991428Y-109481428D02*
X165277142Y-109862380D01*
X165277142Y-109195714D02*
X164896190Y-109576666D01*
X165848571Y-109862380D02*
X165753333Y-109814761D01*
X165705714Y-109719523D01*
X165705714Y-108862380D01*
X166610476Y-109814761D02*
X166515238Y-109862380D01*
X166324761Y-109862380D01*
X166229523Y-109814761D01*
X166181904Y-109719523D01*
X166181904Y-109338571D01*
X166229523Y-109243333D01*
X166324761Y-109195714D01*
X166515238Y-109195714D01*
X166610476Y-109243333D01*
X166658095Y-109338571D01*
X166658095Y-109433809D01*
X166181904Y-109529047D01*
X167086666Y-109862380D02*
X167086666Y-109195714D01*
X167086666Y-109386190D02*
X167134285Y-109290952D01*
X167181904Y-109243333D01*
X167277142Y-109195714D01*
X167372380Y-109195714D01*
X167705714Y-109862380D02*
X167705714Y-108862380D01*
X167705714Y-109243333D02*
X167800952Y-109195714D01*
X167991428Y-109195714D01*
X168086666Y-109243333D01*
X168134285Y-109290952D01*
X168181904Y-109386190D01*
X168181904Y-109671904D01*
X168134285Y-109767142D01*
X168086666Y-109814761D01*
X167991428Y-109862380D01*
X167800952Y-109862380D01*
X167705714Y-109814761D01*
X168753333Y-109862380D02*
X168658095Y-109814761D01*
X168610476Y-109767142D01*
X168562857Y-109671904D01*
X168562857Y-109386190D01*
X168610476Y-109290952D01*
X168658095Y-109243333D01*
X168753333Y-109195714D01*
X168896190Y-109195714D01*
X168991428Y-109243333D01*
X169039047Y-109290952D01*
X169086666Y-109386190D01*
X169086666Y-109671904D01*
X169039047Y-109767142D01*
X168991428Y-109814761D01*
X168896190Y-109862380D01*
X168753333Y-109862380D01*
X169943809Y-109862380D02*
X169943809Y-109338571D01*
X169896190Y-109243333D01*
X169800952Y-109195714D01*
X169610476Y-109195714D01*
X169515238Y-109243333D01*
X169943809Y-109814761D02*
X169848571Y-109862380D01*
X169610476Y-109862380D01*
X169515238Y-109814761D01*
X169467619Y-109719523D01*
X169467619Y-109624285D01*
X169515238Y-109529047D01*
X169610476Y-109481428D01*
X169848571Y-109481428D01*
X169943809Y-109433809D01*
X170420000Y-109862380D02*
X170420000Y-109195714D01*
X170420000Y-109386190D02*
X170467619Y-109290952D01*
X170515238Y-109243333D01*
X170610476Y-109195714D01*
X170705714Y-109195714D01*
X171467619Y-109862380D02*
X171467619Y-108862380D01*
X171467619Y-109814761D02*
X171372380Y-109862380D01*
X171181904Y-109862380D01*
X171086666Y-109814761D01*
X171039047Y-109767142D01*
X170991428Y-109671904D01*
X170991428Y-109386190D01*
X171039047Y-109290952D01*
X171086666Y-109243333D01*
X171181904Y-109195714D01*
X171372380Y-109195714D01*
X171467619Y-109243333D01*
X171896190Y-109814761D02*
X171991428Y-109862380D01*
X172181904Y-109862380D01*
X172277142Y-109814761D01*
X172324761Y-109719523D01*
X172324761Y-109671904D01*
X172277142Y-109576666D01*
X172181904Y-109529047D01*
X172039047Y-109529047D01*
X171943809Y-109481428D01*
X171896190Y-109386190D01*
X171896190Y-109338571D01*
X171943809Y-109243333D01*
X172039047Y-109195714D01*
X172181904Y-109195714D01*
X172277142Y-109243333D01*
X172753333Y-109481428D02*
X173515238Y-109481428D01*
X174277142Y-108862380D02*
X174277142Y-109576666D01*
X174229523Y-109719523D01*
X174134285Y-109814761D01*
X173991428Y-109862380D01*
X173896190Y-109862380D01*
X174896190Y-109862380D02*
X174800952Y-109814761D01*
X174753333Y-109767142D01*
X174705714Y-109671904D01*
X174705714Y-109386190D01*
X174753333Y-109290952D01*
X174800952Y-109243333D01*
X174896190Y-109195714D01*
X175039047Y-109195714D01*
X175134285Y-109243333D01*
X175181904Y-109290952D01*
X175229523Y-109386190D01*
X175229523Y-109671904D01*
X175181904Y-109767142D01*
X175134285Y-109814761D01*
X175039047Y-109862380D01*
X174896190Y-109862380D01*
X175562857Y-109195714D02*
X175800952Y-109862380D01*
X176039047Y-109195714D02*
X175800952Y-109862380D01*
X175705714Y-110100476D01*
X175658095Y-110148095D01*
X175562857Y-110195714D01*
X176372380Y-109814761D02*
X176467619Y-109862380D01*
X176658095Y-109862380D01*
X176753333Y-109814761D01*
X176800952Y-109719523D01*
X176800952Y-109671904D01*
X176753333Y-109576666D01*
X176658095Y-109529047D01*
X176515238Y-109529047D01*
X176420000Y-109481428D01*
X176372380Y-109386190D01*
X176372380Y-109338571D01*
X176420000Y-109243333D01*
X176515238Y-109195714D01*
X176658095Y-109195714D01*
X176753333Y-109243333D01*
X177086666Y-109195714D02*
X177467619Y-109195714D01*
X177229523Y-108862380D02*
X177229523Y-109719523D01*
X177277142Y-109814761D01*
X177372380Y-109862380D01*
X177467619Y-109862380D01*
X177800952Y-109862380D02*
X177800952Y-109195714D01*
X177800952Y-108862380D02*
X177753333Y-108910000D01*
X177800952Y-108957619D01*
X177848571Y-108910000D01*
X177800952Y-108862380D01*
X177800952Y-108957619D01*
X178705714Y-109814761D02*
X178610476Y-109862380D01*
X178420000Y-109862380D01*
X178324761Y-109814761D01*
X178277142Y-109767142D01*
X178229523Y-109671904D01*
X178229523Y-109386190D01*
X178277142Y-109290952D01*
X178324761Y-109243333D01*
X178420000Y-109195714D01*
X178610476Y-109195714D01*
X178705714Y-109243333D01*
X179134285Y-109862380D02*
X179134285Y-108862380D01*
X179229523Y-109481428D02*
X179515238Y-109862380D01*
X179515238Y-109195714D02*
X179134285Y-109576666D01*
X180705714Y-109862380D02*
X180705714Y-108862380D01*
X181039047Y-109576666D01*
X181372380Y-108862380D01*
X181372380Y-109862380D01*
X181991428Y-109862380D02*
X181896190Y-109814761D01*
X181848571Y-109767142D01*
X181800952Y-109671904D01*
X181800952Y-109386190D01*
X181848571Y-109290952D01*
X181896190Y-109243333D01*
X181991428Y-109195714D01*
X182134285Y-109195714D01*
X182229523Y-109243333D01*
X182277142Y-109290952D01*
X182324761Y-109386190D01*
X182324761Y-109671904D01*
X182277142Y-109767142D01*
X182229523Y-109814761D01*
X182134285Y-109862380D01*
X181991428Y-109862380D01*
X183181904Y-109862380D02*
X183181904Y-108862380D01*
X183181904Y-109814761D02*
X183086666Y-109862380D01*
X182896190Y-109862380D01*
X182800952Y-109814761D01*
X182753333Y-109767142D01*
X182705714Y-109671904D01*
X182705714Y-109386190D01*
X182753333Y-109290952D01*
X182800952Y-109243333D01*
X182896190Y-109195714D01*
X183086666Y-109195714D01*
X183181904Y-109243333D01*
X184086666Y-109195714D02*
X184086666Y-109862380D01*
X183658095Y-109195714D02*
X183658095Y-109719523D01*
X183705714Y-109814761D01*
X183800952Y-109862380D01*
X183943809Y-109862380D01*
X184039047Y-109814761D01*
X184086666Y-109767142D01*
X184705714Y-109862380D02*
X184610476Y-109814761D01*
X184562857Y-109719523D01*
X184562857Y-108862380D01*
X157976190Y-78952380D02*
X158214285Y-79952380D01*
X158404761Y-79238095D01*
X158595238Y-79952380D01*
X158833333Y-78952380D01*
X159642857Y-79952380D02*
X159642857Y-79428571D01*
X159595238Y-79333333D01*
X159500000Y-79285714D01*
X159309523Y-79285714D01*
X159214285Y-79333333D01*
X159642857Y-79904761D02*
X159547619Y-79952380D01*
X159309523Y-79952380D01*
X159214285Y-79904761D01*
X159166666Y-79809523D01*
X159166666Y-79714285D01*
X159214285Y-79619047D01*
X159309523Y-79571428D01*
X159547619Y-79571428D01*
X159642857Y-79523809D01*
X160023809Y-79285714D02*
X160261904Y-79952380D01*
X160500000Y-79285714D01*
X161261904Y-79904761D02*
X161166666Y-79952380D01*
X160976190Y-79952380D01*
X160880952Y-79904761D01*
X160833333Y-79809523D01*
X160833333Y-79428571D01*
X160880952Y-79333333D01*
X160976190Y-79285714D01*
X161166666Y-79285714D01*
X161261904Y-79333333D01*
X161309523Y-79428571D01*
X161309523Y-79523809D01*
X160833333Y-79619047D01*
X161690476Y-79904761D02*
X161785714Y-79952380D01*
X161976190Y-79952380D01*
X162071428Y-79904761D01*
X162119047Y-79809523D01*
X162119047Y-79761904D01*
X162071428Y-79666666D01*
X161976190Y-79619047D01*
X161833333Y-79619047D01*
X161738095Y-79571428D01*
X161690476Y-79476190D01*
X161690476Y-79428571D01*
X161738095Y-79333333D01*
X161833333Y-79285714D01*
X161976190Y-79285714D01*
X162071428Y-79333333D01*
X162547619Y-79952380D02*
X162547619Y-78952380D01*
X162976190Y-79952380D02*
X162976190Y-79428571D01*
X162928571Y-79333333D01*
X162833333Y-79285714D01*
X162690476Y-79285714D01*
X162595238Y-79333333D01*
X162547619Y-79380952D01*
X163880952Y-79952380D02*
X163880952Y-79428571D01*
X163833333Y-79333333D01*
X163738095Y-79285714D01*
X163547619Y-79285714D01*
X163452380Y-79333333D01*
X163880952Y-79904761D02*
X163785714Y-79952380D01*
X163547619Y-79952380D01*
X163452380Y-79904761D01*
X163404761Y-79809523D01*
X163404761Y-79714285D01*
X163452380Y-79619047D01*
X163547619Y-79571428D01*
X163785714Y-79571428D01*
X163880952Y-79523809D01*
X164357142Y-79952380D02*
X164357142Y-79285714D01*
X164357142Y-79476190D02*
X164404761Y-79380952D01*
X164452380Y-79333333D01*
X164547619Y-79285714D01*
X164642857Y-79285714D01*
X165357142Y-79904761D02*
X165261904Y-79952380D01*
X165071428Y-79952380D01*
X164976190Y-79904761D01*
X164928571Y-79809523D01*
X164928571Y-79428571D01*
X164976190Y-79333333D01*
X165071428Y-79285714D01*
X165261904Y-79285714D01*
X165357142Y-79333333D01*
X165404761Y-79428571D01*
X165404761Y-79523809D01*
X164928571Y-79619047D01*
X167119047Y-79952380D02*
X166547619Y-79952380D01*
X166833333Y-79952380D02*
X166833333Y-78952380D01*
X166738095Y-79095238D01*
X166642857Y-79190476D01*
X166547619Y-79238095D01*
X167547619Y-79857142D02*
X167595238Y-79904761D01*
X167547619Y-79952380D01*
X167500000Y-79904761D01*
X167547619Y-79857142D01*
X167547619Y-79952380D01*
X168500000Y-78952380D02*
X168023809Y-78952380D01*
X167976190Y-79428571D01*
X168023809Y-79380952D01*
X168119047Y-79333333D01*
X168357142Y-79333333D01*
X168452380Y-79380952D01*
X168500000Y-79428571D01*
X168547619Y-79523809D01*
X168547619Y-79761904D01*
X168500000Y-79857142D01*
X168452380Y-79904761D01*
X168357142Y-79952380D01*
X168119047Y-79952380D01*
X168023809Y-79904761D01*
X167976190Y-79857142D01*
X169404761Y-79285714D02*
X169404761Y-79952380D01*
X169166666Y-78904761D02*
X168928571Y-79619047D01*
X169547619Y-79619047D01*
X169928571Y-79952380D02*
X169928571Y-79285714D01*
X169928571Y-78952380D02*
X169880952Y-79000000D01*
X169928571Y-79047619D01*
X169976190Y-79000000D01*
X169928571Y-78952380D01*
X169928571Y-79047619D01*
X170404761Y-79285714D02*
X170404761Y-79952380D01*
X170404761Y-79380952D02*
X170452380Y-79333333D01*
X170547619Y-79285714D01*
X170690476Y-79285714D01*
X170785714Y-79333333D01*
X170833333Y-79428571D01*
X170833333Y-79952380D01*
X171738095Y-79904761D02*
X171642857Y-79952380D01*
X171452380Y-79952380D01*
X171357142Y-79904761D01*
X171309523Y-79857142D01*
X171261904Y-79761904D01*
X171261904Y-79476190D01*
X171309523Y-79380952D01*
X171357142Y-79333333D01*
X171452380Y-79285714D01*
X171642857Y-79285714D01*
X171738095Y-79333333D01*
X172166666Y-79952380D02*
X172166666Y-78952380D01*
X172595238Y-79952380D02*
X172595238Y-79428571D01*
X172547619Y-79333333D01*
X172452380Y-79285714D01*
X172309523Y-79285714D01*
X172214285Y-79333333D01*
X172166666Y-79380952D01*
X173833333Y-79428571D02*
X174166666Y-79428571D01*
X174309523Y-79952380D02*
X173833333Y-79952380D01*
X173833333Y-78952380D01*
X174309523Y-78952380D01*
X174738095Y-79571428D02*
X175500000Y-79571428D01*
X175976190Y-79952380D02*
X175976190Y-78952380D01*
X176452380Y-79285714D02*
X176452380Y-79952380D01*
X176452380Y-79380952D02*
X176500000Y-79333333D01*
X176595238Y-79285714D01*
X176738095Y-79285714D01*
X176833333Y-79333333D01*
X176880952Y-79428571D01*
X176880952Y-79952380D01*
X177357142Y-79952380D02*
X177357142Y-78952380D01*
X177452380Y-79571428D02*
X177738095Y-79952380D01*
X177738095Y-79285714D02*
X177357142Y-79666666D01*
X179357142Y-79952380D02*
X179357142Y-78952380D01*
X179357142Y-79904761D02*
X179261904Y-79952380D01*
X179071428Y-79952380D01*
X178976190Y-79904761D01*
X178928571Y-79857142D01*
X178880952Y-79761904D01*
X178880952Y-79476190D01*
X178928571Y-79380952D01*
X178976190Y-79333333D01*
X179071428Y-79285714D01*
X179261904Y-79285714D01*
X179357142Y-79333333D01*
X179833333Y-79952380D02*
X179833333Y-79285714D01*
X179833333Y-78952380D02*
X179785714Y-79000000D01*
X179833333Y-79047619D01*
X179880952Y-79000000D01*
X179833333Y-78952380D01*
X179833333Y-79047619D01*
X180261904Y-79904761D02*
X180357142Y-79952380D01*
X180547619Y-79952380D01*
X180642857Y-79904761D01*
X180690476Y-79809523D01*
X180690476Y-79761904D01*
X180642857Y-79666666D01*
X180547619Y-79619047D01*
X180404761Y-79619047D01*
X180309523Y-79571428D01*
X180261904Y-79476190D01*
X180261904Y-79428571D01*
X180309523Y-79333333D01*
X180404761Y-79285714D01*
X180547619Y-79285714D01*
X180642857Y-79333333D01*
X181119047Y-79285714D02*
X181119047Y-80285714D01*
X181119047Y-79333333D02*
X181214285Y-79285714D01*
X181404761Y-79285714D01*
X181500000Y-79333333D01*
X181547619Y-79380952D01*
X181595238Y-79476190D01*
X181595238Y-79761904D01*
X181547619Y-79857142D01*
X181500000Y-79904761D01*
X181404761Y-79952380D01*
X181214285Y-79952380D01*
X181119047Y-79904761D01*
X182166666Y-79952380D02*
X182071428Y-79904761D01*
X182023809Y-79809523D01*
X182023809Y-78952380D01*
X182976190Y-79952380D02*
X182976190Y-79428571D01*
X182928571Y-79333333D01*
X182833333Y-79285714D01*
X182642857Y-79285714D01*
X182547619Y-79333333D01*
X182976190Y-79904761D02*
X182880952Y-79952380D01*
X182642857Y-79952380D01*
X182547619Y-79904761D01*
X182500000Y-79809523D01*
X182500000Y-79714285D01*
X182547619Y-79619047D01*
X182642857Y-79571428D01*
X182880952Y-79571428D01*
X182976190Y-79523809D01*
X183357142Y-79285714D02*
X183595238Y-79952380D01*
X183833333Y-79285714D02*
X183595238Y-79952380D01*
X183500000Y-80190476D01*
X183452380Y-80238095D01*
X183357142Y-80285714D01*
X184976190Y-79952380D02*
X184976190Y-79285714D01*
X184976190Y-79380952D02*
X185023809Y-79333333D01*
X185119047Y-79285714D01*
X185261904Y-79285714D01*
X185357142Y-79333333D01*
X185404761Y-79428571D01*
X185404761Y-79952380D01*
X185404761Y-79428571D02*
X185452380Y-79333333D01*
X185547619Y-79285714D01*
X185690476Y-79285714D01*
X185785714Y-79333333D01*
X185833333Y-79428571D01*
X185833333Y-79952380D01*
X186452380Y-79952380D02*
X186357142Y-79904761D01*
X186309523Y-79857142D01*
X186261904Y-79761904D01*
X186261904Y-79476190D01*
X186309523Y-79380952D01*
X186357142Y-79333333D01*
X186452380Y-79285714D01*
X186595238Y-79285714D01*
X186690476Y-79333333D01*
X186738095Y-79380952D01*
X186785714Y-79476190D01*
X186785714Y-79761904D01*
X186738095Y-79857142D01*
X186690476Y-79904761D01*
X186595238Y-79952380D01*
X186452380Y-79952380D01*
X187642857Y-79952380D02*
X187642857Y-78952380D01*
X187642857Y-79904761D02*
X187547619Y-79952380D01*
X187357142Y-79952380D01*
X187261904Y-79904761D01*
X187214285Y-79857142D01*
X187166666Y-79761904D01*
X187166666Y-79476190D01*
X187214285Y-79380952D01*
X187261904Y-79333333D01*
X187357142Y-79285714D01*
X187547619Y-79285714D01*
X187642857Y-79333333D01*
X188547619Y-79285714D02*
X188547619Y-79952380D01*
X188119047Y-79285714D02*
X188119047Y-79809523D01*
X188166666Y-79904761D01*
X188261904Y-79952380D01*
X188404761Y-79952380D01*
X188500000Y-79904761D01*
X188547619Y-79857142D01*
X189166666Y-79952380D02*
X189071428Y-79904761D01*
X189023809Y-79809523D01*
X189023809Y-78952380D01*
X189928571Y-79904761D02*
X189833333Y-79952380D01*
X189642857Y-79952380D01*
X189547619Y-79904761D01*
X189500000Y-79809523D01*
X189500000Y-79428571D01*
X189547619Y-79333333D01*
X189642857Y-79285714D01*
X189833333Y-79285714D01*
X189928571Y-79333333D01*
X189976190Y-79428571D01*
X189976190Y-79523809D01*
X189500000Y-79619047D01*
D12*
X198000000Y-63000000D02*
X150000000Y-63000000D01*
X198000000Y-96000000D02*
X198000000Y-63000000D01*
X150000000Y-96000000D02*
X198000000Y-96000000D01*
X150000000Y-63000000D02*
X150000000Y-96000000D01*
D11*
X144710000Y-67486252D02*
X144710000Y-66963748D01*
X143290000Y-67486252D02*
X143290000Y-66963748D01*
X138900000Y-65300000D02*
X128740000Y-65300000D01*
X128740000Y-65300000D02*
X127960000Y-65300000D01*
X142710000Y-70110000D02*
X142710000Y-65300000D01*
X138900000Y-92700000D02*
X128740000Y-92700000D01*
X128740000Y-92700000D02*
X127960000Y-92700000D01*
X142710000Y-92700000D02*
X142710000Y-87890000D01*
X127960000Y-92700000D02*
X127960000Y-65300000D01*
X142710000Y-70110000D02*
X142710000Y-87890000D01*
X138900000Y-92700000D02*
X142710000Y-92700000D01*
X142710000Y-65300000D02*
X138900000Y-65300000D01*
X131470000Y-104970000D02*
X134130000Y-104970000D01*
X131470000Y-102370000D02*
X131470000Y-104970000D01*
X134130000Y-102370000D02*
X134130000Y-104970000D01*
X131470000Y-102370000D02*
X134130000Y-102370000D01*
X131470000Y-101100000D02*
X131470000Y-99770000D01*
X131470000Y-99770000D02*
X132800000Y-99770000D01*
X148270000Y-109630000D02*
X149600000Y-109630000D01*
X148270000Y-110960000D02*
X148270000Y-109630000D01*
X148270000Y-112230000D02*
X150930000Y-112230000D01*
X150930000Y-112230000D02*
X150930000Y-117370000D01*
X148270000Y-112230000D02*
X148270000Y-117370000D01*
X148270000Y-117370000D02*
X150930000Y-117370000D01*
X147000000Y-69170000D02*
X148330000Y-69170000D01*
X148330000Y-69170000D02*
X148330000Y-70500000D01*
X148330000Y-71770000D02*
X148330000Y-89610000D01*
X145670000Y-89610000D02*
X148330000Y-89610000D01*
X145670000Y-71770000D02*
X145670000Y-89610000D01*
X145670000Y-71770000D02*
X148330000Y-71770000D01*
X192600000Y-103690000D02*
X193930000Y-103690000D01*
X193930000Y-103690000D02*
X193930000Y-105020000D01*
X193930000Y-106290000D02*
X193930000Y-116510000D01*
X191270000Y-116510000D02*
X193930000Y-116510000D01*
X191270000Y-106290000D02*
X191270000Y-116510000D01*
X191270000Y-106290000D02*
X193930000Y-106290000D01*
X137070000Y-99770000D02*
X138400000Y-99770000D01*
X137070000Y-101100000D02*
X137070000Y-99770000D01*
X137070000Y-102370000D02*
X139730000Y-102370000D01*
X139730000Y-102370000D02*
X139730000Y-104970000D01*
X137070000Y-102370000D02*
X137070000Y-104970000D01*
X137070000Y-104970000D02*
X139730000Y-104970000D01*
X142670000Y-104970000D02*
X145330000Y-104970000D01*
X142670000Y-102370000D02*
X142670000Y-104970000D01*
X145330000Y-102370000D02*
X145330000Y-104970000D01*
X142670000Y-102370000D02*
X145330000Y-102370000D01*
X142670000Y-101100000D02*
X142670000Y-99770000D01*
X142670000Y-99770000D02*
X144000000Y-99770000D01*
X148270000Y-99770000D02*
X149600000Y-99770000D01*
X148270000Y-101100000D02*
X148270000Y-99770000D01*
X148270000Y-102370000D02*
X150930000Y-102370000D01*
X150930000Y-102370000D02*
X150930000Y-104970000D01*
X148270000Y-102370000D02*
X148270000Y-104970000D01*
X148270000Y-104970000D02*
X150930000Y-104970000D01*
D10*
X143912933Y-65129642D02*
X143865314Y-65177261D01*
X143722457Y-65224880D01*
X143627219Y-65224880D01*
X143484361Y-65177261D01*
X143389123Y-65082023D01*
X143341504Y-64986785D01*
X143293885Y-64796309D01*
X143293885Y-64653452D01*
X143341504Y-64462976D01*
X143389123Y-64367738D01*
X143484361Y-64272500D01*
X143627219Y-64224880D01*
X143722457Y-64224880D01*
X143865314Y-64272500D01*
X143912933Y-64320119D01*
X144865314Y-65224880D02*
X144293885Y-65224880D01*
X144579600Y-65224880D02*
X144579600Y-64224880D01*
X144484361Y-64367738D01*
X144389123Y-64462976D01*
X144293885Y-64510595D01*
X128566666Y-63952380D02*
X128566666Y-64666666D01*
X128519047Y-64809523D01*
X128423809Y-64904761D01*
X128280952Y-64952380D01*
X128185714Y-64952380D01*
X129566666Y-64952380D02*
X128995238Y-64952380D01*
X129280952Y-64952380D02*
X129280952Y-63952380D01*
X129185714Y-64095238D01*
X129090476Y-64190476D01*
X128995238Y-64238095D01*
X134663080Y-102655433D02*
X135377366Y-102655433D01*
X135520223Y-102703052D01*
X135615461Y-102798290D01*
X135663080Y-102941147D01*
X135663080Y-103036385D01*
X134758319Y-102226861D02*
X134710700Y-102179242D01*
X134663080Y-102084004D01*
X134663080Y-101845909D01*
X134710700Y-101750671D01*
X134758319Y-101703052D01*
X134853557Y-101655433D01*
X134948795Y-101655433D01*
X135091652Y-101703052D01*
X135663080Y-102274480D01*
X135663080Y-101655433D01*
X149266666Y-108082380D02*
X149266666Y-108796666D01*
X149219047Y-108939523D01*
X149123809Y-109034761D01*
X148980952Y-109082380D01*
X148885714Y-109082380D01*
X149885714Y-108510952D02*
X149790476Y-108463333D01*
X149742857Y-108415714D01*
X149695238Y-108320476D01*
X149695238Y-108272857D01*
X149742857Y-108177619D01*
X149790476Y-108130000D01*
X149885714Y-108082380D01*
X150076190Y-108082380D01*
X150171428Y-108130000D01*
X150219047Y-108177619D01*
X150266666Y-108272857D01*
X150266666Y-108320476D01*
X150219047Y-108415714D01*
X150171428Y-108463333D01*
X150076190Y-108510952D01*
X149885714Y-108510952D01*
X149790476Y-108558571D01*
X149742857Y-108606190D01*
X149695238Y-108701428D01*
X149695238Y-108891904D01*
X149742857Y-108987142D01*
X149790476Y-109034761D01*
X149885714Y-109082380D01*
X150076190Y-109082380D01*
X150171428Y-109034761D01*
X150219047Y-108987142D01*
X150266666Y-108891904D01*
X150266666Y-108701428D01*
X150219047Y-108606190D01*
X150171428Y-108558571D01*
X150076190Y-108510952D01*
X146666666Y-67182380D02*
X146666666Y-67896666D01*
X146619047Y-68039523D01*
X146523809Y-68134761D01*
X146380952Y-68182380D01*
X146285714Y-68182380D01*
X147571428Y-67182380D02*
X147380952Y-67182380D01*
X147285714Y-67230000D01*
X147238095Y-67277619D01*
X147142857Y-67420476D01*
X147095238Y-67610952D01*
X147095238Y-67991904D01*
X147142857Y-68087142D01*
X147190476Y-68134761D01*
X147285714Y-68182380D01*
X147476190Y-68182380D01*
X147571428Y-68134761D01*
X147619047Y-68087142D01*
X147666666Y-67991904D01*
X147666666Y-67753809D01*
X147619047Y-67658571D01*
X147571428Y-67610952D01*
X147476190Y-67563333D01*
X147285714Y-67563333D01*
X147190476Y-67610952D01*
X147142857Y-67658571D01*
X147095238Y-67753809D01*
X192266666Y-117132380D02*
X192266666Y-117846666D01*
X192219047Y-117989523D01*
X192123809Y-118084761D01*
X191980952Y-118132380D01*
X191885714Y-118132380D01*
X192647619Y-117132380D02*
X193314285Y-117132380D01*
X192885714Y-118132380D01*
X138223866Y-105749080D02*
X138223866Y-106463366D01*
X138176247Y-106606223D01*
X138081009Y-106701461D01*
X137938152Y-106749080D01*
X137842914Y-106749080D01*
X138604819Y-105749080D02*
X139223866Y-105749080D01*
X138890533Y-106130033D01*
X139033390Y-106130033D01*
X139128628Y-106177652D01*
X139176247Y-106225271D01*
X139223866Y-106320509D01*
X139223866Y-106558604D01*
X139176247Y-106653842D01*
X139128628Y-106701461D01*
X139033390Y-106749080D01*
X138747676Y-106749080D01*
X138652438Y-106701461D01*
X138604819Y-106653842D01*
X143583066Y-105749080D02*
X143583066Y-106463366D01*
X143535447Y-106606223D01*
X143440209Y-106701461D01*
X143297352Y-106749080D01*
X143202114Y-106749080D01*
X144487828Y-106082414D02*
X144487828Y-106749080D01*
X144249733Y-105701461D02*
X144011638Y-106415747D01*
X144630685Y-106415747D01*
X146240680Y-102604633D02*
X146954966Y-102604633D01*
X147097823Y-102652252D01*
X147193061Y-102747490D01*
X147240680Y-102890347D01*
X147240680Y-102985585D01*
X146240680Y-101652252D02*
X146240680Y-102128442D01*
X146716871Y-102176061D01*
X146669252Y-102128442D01*
X146621633Y-102033204D01*
X146621633Y-101795109D01*
X146669252Y-101699871D01*
X146716871Y-101652252D01*
X146812109Y-101604633D01*
X147050204Y-101604633D01*
X147145442Y-101652252D01*
X147193061Y-101699871D01*
X147240680Y-101795109D01*
X147240680Y-102033204D01*
X147193061Y-102128442D01*
X147145442Y-102176061D01*
M02*
