G04 #@! TF.GenerationSoftware,KiCad,Pcbnew,(5.1.5)-3*
G04 #@! TF.CreationDate,2020-03-10T17:23:55+01:00*
G04 #@! TF.ProjectId,User_Interface_Board,55736572-5f49-46e7-9465-72666163655f,rev?*
G04 #@! TF.SameCoordinates,Original*
G04 #@! TF.FileFunction,Copper,L1,Top*
G04 #@! TF.FilePolarity,Positive*
%FSLAX46Y46*%
G04 Gerber Fmt 4.6, Leading zero omitted, Abs format (unit mm)*
G04 Created by KiCad (PCBNEW (5.1.5)-3) date 2020-03-10 17:23:55*
%MOMM*%
%LPD*%
G04 APERTURE LIST*
%ADD10C,0.187500*%
%ADD11C,0.100000*%
%ADD12C,1.524000*%
%ADD13R,1.700000X1.700000*%
%ADD14O,1.700000X1.700000*%
%ADD15C,3.500000*%
%ADD16C,2.500000*%
%ADD17C,1.500000*%
%ADD18C,0.800000*%
%ADD19C,0.600000*%
%ADD20C,0.800000*%
%ADD21C,0.254000*%
G04 APERTURE END LIST*
D10*
X132014285Y-98739285D02*
X131585714Y-98739285D01*
X131800000Y-98739285D02*
X131800000Y-97989285D01*
X131728571Y-98096428D01*
X131657142Y-98167857D01*
X131585714Y-98203571D01*
X148825000Y-71496428D02*
X148932142Y-71532142D01*
X148967857Y-71567857D01*
X149003571Y-71639285D01*
X149003571Y-71746428D01*
X148967857Y-71817857D01*
X148932142Y-71853571D01*
X148860714Y-71889285D01*
X148575000Y-71889285D01*
X148575000Y-71139285D01*
X148825000Y-71139285D01*
X148896428Y-71175000D01*
X148932142Y-71210714D01*
X148967857Y-71282142D01*
X148967857Y-71353571D01*
X148932142Y-71425000D01*
X148896428Y-71460714D01*
X148825000Y-71496428D01*
X148575000Y-71496428D01*
X149646428Y-71389285D02*
X149646428Y-71889285D01*
X149325000Y-71389285D02*
X149325000Y-71782142D01*
X149360714Y-71853571D01*
X149432142Y-71889285D01*
X149539285Y-71889285D01*
X149610714Y-71853571D01*
X149646428Y-71817857D01*
X149967857Y-71853571D02*
X150039285Y-71889285D01*
X150182142Y-71889285D01*
X150253571Y-71853571D01*
X150289285Y-71782142D01*
X150289285Y-71746428D01*
X150253571Y-71675000D01*
X150182142Y-71639285D01*
X150075000Y-71639285D01*
X150003571Y-71603571D01*
X149967857Y-71532142D01*
X149967857Y-71496428D01*
X150003571Y-71425000D01*
X150075000Y-71389285D01*
X150182142Y-71389285D01*
X150253571Y-71425000D01*
X150539285Y-71389285D02*
X150717857Y-71889285D01*
X150896428Y-71389285D02*
X150717857Y-71889285D01*
X150646428Y-72067857D01*
X150610714Y-72103571D01*
X150539285Y-72139285D01*
X149289285Y-73201785D02*
X149039285Y-72844642D01*
X148860714Y-73201785D02*
X148860714Y-72451785D01*
X149146428Y-72451785D01*
X149217857Y-72487500D01*
X149253571Y-72523214D01*
X149289285Y-72594642D01*
X149289285Y-72701785D01*
X149253571Y-72773214D01*
X149217857Y-72808928D01*
X149146428Y-72844642D01*
X148860714Y-72844642D01*
X149575000Y-73166071D02*
X149682142Y-73201785D01*
X149860714Y-73201785D01*
X149932142Y-73166071D01*
X149967857Y-73130357D01*
X150003571Y-73058928D01*
X150003571Y-72987500D01*
X149967857Y-72916071D01*
X149932142Y-72880357D01*
X149860714Y-72844642D01*
X149717857Y-72808928D01*
X149646428Y-72773214D01*
X149610714Y-72737500D01*
X149575000Y-72666071D01*
X149575000Y-72594642D01*
X149610714Y-72523214D01*
X149646428Y-72487500D01*
X149717857Y-72451785D01*
X149896428Y-72451785D01*
X150003571Y-72487500D01*
X150217857Y-72451785D02*
X150646428Y-72451785D01*
X150432142Y-73201785D02*
X150432142Y-72451785D01*
X149128571Y-74514285D02*
X149128571Y-73764285D01*
X149307142Y-73764285D01*
X149414285Y-73800000D01*
X149485714Y-73871428D01*
X149521428Y-73942857D01*
X149557142Y-74085714D01*
X149557142Y-74192857D01*
X149521428Y-74335714D01*
X149485714Y-74407142D01*
X149414285Y-74478571D01*
X149307142Y-74514285D01*
X149128571Y-74514285D01*
X150307142Y-74442857D02*
X150271428Y-74478571D01*
X150164285Y-74514285D01*
X150092857Y-74514285D01*
X149985714Y-74478571D01*
X149914285Y-74407142D01*
X149878571Y-74335714D01*
X149842857Y-74192857D01*
X149842857Y-74085714D01*
X149878571Y-73942857D01*
X149914285Y-73871428D01*
X149985714Y-73800000D01*
X150092857Y-73764285D01*
X150164285Y-73764285D01*
X150271428Y-73800000D01*
X150307142Y-73835714D01*
X149575000Y-75755357D02*
X149539285Y-75791071D01*
X149432142Y-75826785D01*
X149360714Y-75826785D01*
X149253571Y-75791071D01*
X149182142Y-75719642D01*
X149146428Y-75648214D01*
X149110714Y-75505357D01*
X149110714Y-75398214D01*
X149146428Y-75255357D01*
X149182142Y-75183928D01*
X149253571Y-75112500D01*
X149360714Y-75076785D01*
X149432142Y-75076785D01*
X149539285Y-75112500D01*
X149575000Y-75148214D01*
X149860714Y-75791071D02*
X149967857Y-75826785D01*
X150146428Y-75826785D01*
X150217857Y-75791071D01*
X150253571Y-75755357D01*
X150289285Y-75683928D01*
X150289285Y-75612500D01*
X150253571Y-75541071D01*
X150217857Y-75505357D01*
X150146428Y-75469642D01*
X150003571Y-75433928D01*
X149932142Y-75398214D01*
X149896428Y-75362500D01*
X149860714Y-75291071D01*
X149860714Y-75219642D01*
X149896428Y-75148214D01*
X149932142Y-75112500D01*
X150003571Y-75076785D01*
X150182142Y-75076785D01*
X150289285Y-75112500D01*
X149253571Y-78380357D02*
X149217857Y-78416071D01*
X149110714Y-78451785D01*
X149039285Y-78451785D01*
X148932142Y-78416071D01*
X148860714Y-78344642D01*
X148825000Y-78273214D01*
X148789285Y-78130357D01*
X148789285Y-78023214D01*
X148825000Y-77880357D01*
X148860714Y-77808928D01*
X148932142Y-77737500D01*
X149039285Y-77701785D01*
X149110714Y-77701785D01*
X149217857Y-77737500D01*
X149253571Y-77773214D01*
X149932142Y-78451785D02*
X149575000Y-78451785D01*
X149575000Y-77701785D01*
X150182142Y-78451785D02*
X150182142Y-77701785D01*
X150610714Y-78451785D02*
X150289285Y-78023214D01*
X150610714Y-77701785D02*
X150182142Y-78130357D01*
X148932142Y-79764285D02*
X148932142Y-79014285D01*
X149110714Y-79014285D01*
X149217857Y-79050000D01*
X149289285Y-79121428D01*
X149325000Y-79192857D01*
X149360714Y-79335714D01*
X149360714Y-79442857D01*
X149325000Y-79585714D01*
X149289285Y-79657142D01*
X149217857Y-79728571D01*
X149110714Y-79764285D01*
X148932142Y-79764285D01*
X149682142Y-79764285D02*
X149682142Y-79014285D01*
X150039285Y-79764285D02*
X150039285Y-79014285D01*
X150467857Y-79764285D01*
X150467857Y-79014285D01*
X149128571Y-80362500D02*
X149057142Y-80326785D01*
X148950000Y-80326785D01*
X148842857Y-80362500D01*
X148771428Y-80433928D01*
X148735714Y-80505357D01*
X148700000Y-80648214D01*
X148700000Y-80755357D01*
X148735714Y-80898214D01*
X148771428Y-80969642D01*
X148842857Y-81041071D01*
X148950000Y-81076785D01*
X149021428Y-81076785D01*
X149128571Y-81041071D01*
X149164285Y-81005357D01*
X149164285Y-80755357D01*
X149021428Y-80755357D01*
X149485714Y-81076785D02*
X149485714Y-80326785D01*
X149914285Y-81076785D01*
X149914285Y-80326785D01*
X150271428Y-81076785D02*
X150271428Y-80326785D01*
X150450000Y-80326785D01*
X150557142Y-80362500D01*
X150628571Y-80433928D01*
X150664285Y-80505357D01*
X150700000Y-80648214D01*
X150700000Y-80755357D01*
X150664285Y-80898214D01*
X150628571Y-80969642D01*
X150557142Y-81041071D01*
X150450000Y-81076785D01*
X150271428Y-81076785D01*
X148771428Y-81639285D02*
X149235714Y-81639285D01*
X148985714Y-81925000D01*
X149092857Y-81925000D01*
X149164285Y-81960714D01*
X149200000Y-81996428D01*
X149235714Y-82067857D01*
X149235714Y-82246428D01*
X149200000Y-82317857D01*
X149164285Y-82353571D01*
X149092857Y-82389285D01*
X148878571Y-82389285D01*
X148807142Y-82353571D01*
X148771428Y-82317857D01*
X149450000Y-81639285D02*
X149700000Y-82389285D01*
X149950000Y-81639285D01*
X150128571Y-81639285D02*
X150592857Y-81639285D01*
X150342857Y-81925000D01*
X150450000Y-81925000D01*
X150521428Y-81960714D01*
X150557142Y-81996428D01*
X150592857Y-82067857D01*
X150592857Y-82246428D01*
X150557142Y-82317857D01*
X150521428Y-82353571D01*
X150450000Y-82389285D01*
X150235714Y-82389285D01*
X150164285Y-82353571D01*
X150128571Y-82317857D01*
X151571428Y-110276785D02*
X152035714Y-110276785D01*
X151785714Y-110562500D01*
X151892857Y-110562500D01*
X151964285Y-110598214D01*
X152000000Y-110633928D01*
X152035714Y-110705357D01*
X152035714Y-110883928D01*
X152000000Y-110955357D01*
X151964285Y-110991071D01*
X151892857Y-111026785D01*
X151678571Y-111026785D01*
X151607142Y-110991071D01*
X151571428Y-110955357D01*
X152250000Y-110276785D02*
X152500000Y-111026785D01*
X152750000Y-110276785D01*
X152928571Y-110276785D02*
X153392857Y-110276785D01*
X153142857Y-110562500D01*
X153250000Y-110562500D01*
X153321428Y-110598214D01*
X153357142Y-110633928D01*
X153392857Y-110705357D01*
X153392857Y-110883928D01*
X153357142Y-110955357D01*
X153321428Y-110991071D01*
X153250000Y-111026785D01*
X153035714Y-111026785D01*
X152964285Y-110991071D01*
X152928571Y-110955357D01*
X151571428Y-112339285D02*
X151571428Y-111589285D01*
X151857142Y-111589285D01*
X151928571Y-111625000D01*
X151964285Y-111660714D01*
X152000000Y-111732142D01*
X152000000Y-111839285D01*
X151964285Y-111910714D01*
X151928571Y-111946428D01*
X151857142Y-111982142D01*
X151571428Y-111982142D01*
X152428571Y-112339285D02*
X152357142Y-112303571D01*
X152321428Y-112267857D01*
X152285714Y-112196428D01*
X152285714Y-111982142D01*
X152321428Y-111910714D01*
X152357142Y-111875000D01*
X152428571Y-111839285D01*
X152535714Y-111839285D01*
X152607142Y-111875000D01*
X152642857Y-111910714D01*
X152678571Y-111982142D01*
X152678571Y-112196428D01*
X152642857Y-112267857D01*
X152607142Y-112303571D01*
X152535714Y-112339285D01*
X152428571Y-112339285D01*
X152892857Y-111839285D02*
X153178571Y-111839285D01*
X153000000Y-111589285D02*
X153000000Y-112232142D01*
X153035714Y-112303571D01*
X153107142Y-112339285D01*
X153178571Y-112339285D01*
X153428571Y-112339285D02*
X153428571Y-111839285D01*
X153428571Y-111589285D02*
X153392857Y-111625000D01*
X153428571Y-111660714D01*
X153464285Y-111625000D01*
X153428571Y-111589285D01*
X153428571Y-111660714D01*
X151928571Y-112937500D02*
X151857142Y-112901785D01*
X151750000Y-112901785D01*
X151642857Y-112937500D01*
X151571428Y-113008928D01*
X151535714Y-113080357D01*
X151500000Y-113223214D01*
X151500000Y-113330357D01*
X151535714Y-113473214D01*
X151571428Y-113544642D01*
X151642857Y-113616071D01*
X151750000Y-113651785D01*
X151821428Y-113651785D01*
X151928571Y-113616071D01*
X151964285Y-113580357D01*
X151964285Y-113330357D01*
X151821428Y-113330357D01*
X152285714Y-113651785D02*
X152285714Y-112901785D01*
X152714285Y-113651785D01*
X152714285Y-112901785D01*
X153071428Y-113651785D02*
X153071428Y-112901785D01*
X153250000Y-112901785D01*
X153357142Y-112937500D01*
X153428571Y-113008928D01*
X153464285Y-113080357D01*
X153500000Y-113223214D01*
X153500000Y-113330357D01*
X153464285Y-113473214D01*
X153428571Y-113544642D01*
X153357142Y-113616071D01*
X153250000Y-113651785D01*
X153071428Y-113651785D01*
X188771428Y-106664285D02*
X189235714Y-106664285D01*
X188985714Y-106950000D01*
X189092857Y-106950000D01*
X189164285Y-106985714D01*
X189200000Y-107021428D01*
X189235714Y-107092857D01*
X189235714Y-107271428D01*
X189200000Y-107342857D01*
X189164285Y-107378571D01*
X189092857Y-107414285D01*
X188878571Y-107414285D01*
X188807142Y-107378571D01*
X188771428Y-107342857D01*
X189450000Y-106664285D02*
X189700000Y-107414285D01*
X189950000Y-106664285D01*
X190128571Y-106664285D02*
X190592857Y-106664285D01*
X190342857Y-106950000D01*
X190450000Y-106950000D01*
X190521428Y-106985714D01*
X190557142Y-107021428D01*
X190592857Y-107092857D01*
X190592857Y-107271428D01*
X190557142Y-107342857D01*
X190521428Y-107378571D01*
X190450000Y-107414285D01*
X190235714Y-107414285D01*
X190164285Y-107378571D01*
X190128571Y-107342857D01*
X189057142Y-108691071D02*
X189164285Y-108726785D01*
X189342857Y-108726785D01*
X189414285Y-108691071D01*
X189450000Y-108655357D01*
X189485714Y-108583928D01*
X189485714Y-108512500D01*
X189450000Y-108441071D01*
X189414285Y-108405357D01*
X189342857Y-108369642D01*
X189200000Y-108333928D01*
X189128571Y-108298214D01*
X189092857Y-108262500D01*
X189057142Y-108191071D01*
X189057142Y-108119642D01*
X189092857Y-108048214D01*
X189128571Y-108012500D01*
X189200000Y-107976785D01*
X189378571Y-107976785D01*
X189485714Y-108012500D01*
X189735714Y-107976785D02*
X189914285Y-108726785D01*
X190057142Y-108191071D01*
X190200000Y-108726785D01*
X190378571Y-107976785D01*
X189450000Y-109289285D02*
X189950000Y-110039285D01*
X189950000Y-109289285D02*
X189450000Y-110039285D01*
X189700000Y-110994642D02*
X189700000Y-111351785D01*
X189450000Y-110601785D02*
X189700000Y-110994642D01*
X189950000Y-110601785D01*
X189128571Y-111950000D02*
X189057142Y-111914285D01*
X188950000Y-111914285D01*
X188842857Y-111950000D01*
X188771428Y-112021428D01*
X188735714Y-112092857D01*
X188700000Y-112235714D01*
X188700000Y-112342857D01*
X188735714Y-112485714D01*
X188771428Y-112557142D01*
X188842857Y-112628571D01*
X188950000Y-112664285D01*
X189021428Y-112664285D01*
X189128571Y-112628571D01*
X189164285Y-112592857D01*
X189164285Y-112342857D01*
X189021428Y-112342857D01*
X189485714Y-112664285D02*
X189485714Y-111914285D01*
X189914285Y-112664285D01*
X189914285Y-111914285D01*
X190271428Y-112664285D02*
X190271428Y-111914285D01*
X190450000Y-111914285D01*
X190557142Y-111950000D01*
X190628571Y-112021428D01*
X190664285Y-112092857D01*
X190700000Y-112235714D01*
X190700000Y-112342857D01*
X190664285Y-112485714D01*
X190628571Y-112557142D01*
X190557142Y-112628571D01*
X190450000Y-112664285D01*
X190271428Y-112664285D01*
G04 #@! TA.AperFunction,SMDPad,CuDef*
D11*
G36*
X144474910Y-65626202D02*
G01*
X144499135Y-65629795D01*
X144522891Y-65635746D01*
X144545949Y-65643996D01*
X144568087Y-65654467D01*
X144589093Y-65667057D01*
X144608763Y-65681645D01*
X144626908Y-65698092D01*
X144643355Y-65716237D01*
X144657943Y-65735907D01*
X144670533Y-65756913D01*
X144681004Y-65779051D01*
X144689254Y-65802109D01*
X144695205Y-65825865D01*
X144698798Y-65850090D01*
X144700000Y-65874550D01*
X144700000Y-66525450D01*
X144698798Y-66549910D01*
X144695205Y-66574135D01*
X144689254Y-66597891D01*
X144681004Y-66620949D01*
X144670533Y-66643087D01*
X144657943Y-66664093D01*
X144643355Y-66683763D01*
X144626908Y-66701908D01*
X144608763Y-66718355D01*
X144589093Y-66732943D01*
X144568087Y-66745533D01*
X144545949Y-66756004D01*
X144522891Y-66764254D01*
X144499135Y-66770205D01*
X144474910Y-66773798D01*
X144450450Y-66775000D01*
X143549550Y-66775000D01*
X143525090Y-66773798D01*
X143500865Y-66770205D01*
X143477109Y-66764254D01*
X143454051Y-66756004D01*
X143431913Y-66745533D01*
X143410907Y-66732943D01*
X143391237Y-66718355D01*
X143373092Y-66701908D01*
X143356645Y-66683763D01*
X143342057Y-66664093D01*
X143329467Y-66643087D01*
X143318996Y-66620949D01*
X143310746Y-66597891D01*
X143304795Y-66574135D01*
X143301202Y-66549910D01*
X143300000Y-66525450D01*
X143300000Y-65874550D01*
X143301202Y-65850090D01*
X143304795Y-65825865D01*
X143310746Y-65802109D01*
X143318996Y-65779051D01*
X143329467Y-65756913D01*
X143342057Y-65735907D01*
X143356645Y-65716237D01*
X143373092Y-65698092D01*
X143391237Y-65681645D01*
X143410907Y-65667057D01*
X143431913Y-65654467D01*
X143454051Y-65643996D01*
X143477109Y-65635746D01*
X143500865Y-65629795D01*
X143525090Y-65626202D01*
X143549550Y-65625000D01*
X144450450Y-65625000D01*
X144474910Y-65626202D01*
G37*
G04 #@! TD.AperFunction*
G04 #@! TA.AperFunction,SMDPad,CuDef*
G36*
X144474505Y-67676204D02*
G01*
X144498773Y-67679804D01*
X144522572Y-67685765D01*
X144545671Y-67694030D01*
X144567850Y-67704520D01*
X144588893Y-67717132D01*
X144608599Y-67731747D01*
X144626777Y-67748223D01*
X144643253Y-67766401D01*
X144657868Y-67786107D01*
X144670480Y-67807150D01*
X144680970Y-67829329D01*
X144689235Y-67852428D01*
X144695196Y-67876227D01*
X144698796Y-67900495D01*
X144700000Y-67924999D01*
X144700000Y-68575001D01*
X144698796Y-68599505D01*
X144695196Y-68623773D01*
X144689235Y-68647572D01*
X144680970Y-68670671D01*
X144670480Y-68692850D01*
X144657868Y-68713893D01*
X144643253Y-68733599D01*
X144626777Y-68751777D01*
X144608599Y-68768253D01*
X144588893Y-68782868D01*
X144567850Y-68795480D01*
X144545671Y-68805970D01*
X144522572Y-68814235D01*
X144498773Y-68820196D01*
X144474505Y-68823796D01*
X144450001Y-68825000D01*
X143549999Y-68825000D01*
X143525495Y-68823796D01*
X143501227Y-68820196D01*
X143477428Y-68814235D01*
X143454329Y-68805970D01*
X143432150Y-68795480D01*
X143411107Y-68782868D01*
X143391401Y-68768253D01*
X143373223Y-68751777D01*
X143356747Y-68733599D01*
X143342132Y-68713893D01*
X143329520Y-68692850D01*
X143319030Y-68670671D01*
X143310765Y-68647572D01*
X143304804Y-68623773D01*
X143301204Y-68599505D01*
X143300000Y-68575001D01*
X143300000Y-67924999D01*
X143301204Y-67900495D01*
X143304804Y-67876227D01*
X143310765Y-67852428D01*
X143319030Y-67829329D01*
X143329520Y-67807150D01*
X143342132Y-67786107D01*
X143356747Y-67766401D01*
X143373223Y-67748223D01*
X143391401Y-67731747D01*
X143411107Y-67717132D01*
X143432150Y-67704520D01*
X143454329Y-67694030D01*
X143477428Y-67685765D01*
X143501227Y-67679804D01*
X143525495Y-67676204D01*
X143549999Y-67675000D01*
X144450001Y-67675000D01*
X144474505Y-67676204D01*
G37*
G04 #@! TD.AperFunction*
D12*
X138900000Y-87890000D03*
X138900000Y-85350000D03*
X138900000Y-82810000D03*
X138900000Y-80270000D03*
X138900000Y-77730000D03*
X138900000Y-75190000D03*
X138900000Y-72650000D03*
X138900000Y-70110000D03*
X141440000Y-87890000D03*
X141440000Y-85350000D03*
X141440000Y-82810000D03*
X141440000Y-80270000D03*
X141440000Y-77730000D03*
X141440000Y-75190000D03*
X141440000Y-72650000D03*
X141440000Y-70110000D03*
D13*
X132800000Y-101100000D03*
D14*
X132800000Y-103640000D03*
X149600000Y-116040000D03*
X149600000Y-113500000D03*
D13*
X149600000Y-110960000D03*
D14*
X147000000Y-88280000D03*
X147000000Y-85740000D03*
X147000000Y-83200000D03*
X147000000Y-80660000D03*
X147000000Y-78120000D03*
X147000000Y-75580000D03*
X147000000Y-73040000D03*
D13*
X147000000Y-70500000D03*
D14*
X192600000Y-115180000D03*
X192600000Y-112640000D03*
X192600000Y-110100000D03*
X192600000Y-107560000D03*
D13*
X192600000Y-105020000D03*
D14*
X138400000Y-103640000D03*
D13*
X138400000Y-101100000D03*
X144000000Y-101100000D03*
D14*
X144000000Y-103640000D03*
X149600000Y-103640000D03*
D13*
X149600000Y-101100000D03*
D15*
X182420000Y-99910000D03*
X182420000Y-119410000D03*
X156920000Y-119410000D03*
X156920000Y-99910000D03*
D16*
X152500000Y-65500000D03*
X195500000Y-65500000D03*
X195500000Y-93500000D03*
X152500000Y-93500000D03*
D17*
X135600000Y-97100000D03*
X120200000Y-113200000D03*
X155800000Y-58300000D03*
X189600000Y-105000000D03*
X141200000Y-107600000D03*
X141200000Y-97100000D03*
X146800000Y-97100000D03*
D18*
X120100000Y-108600000D03*
D17*
X140400000Y-90700000D03*
X149100000Y-90700000D03*
X144000000Y-63900000D03*
X152400000Y-97350010D03*
X143699999Y-89600000D03*
D19*
X147000000Y-83430000D02*
X147000000Y-83200000D01*
X147000000Y-80890000D02*
X147000000Y-80660000D01*
X147000000Y-78350000D02*
X147000000Y-78120000D01*
X147000000Y-75810000D02*
X147000000Y-75580000D01*
X147000000Y-73270000D02*
X147000000Y-73040000D01*
X147000000Y-70500000D02*
X147000000Y-70730000D01*
D20*
X135600000Y-97100000D02*
X141200000Y-97100000D01*
D19*
X144200000Y-97000000D02*
X144300000Y-97100000D01*
D20*
X141200000Y-97100000D02*
X144300000Y-97100000D01*
X144300000Y-97100000D02*
X146800000Y-97100000D01*
X152149990Y-97100000D02*
X152400000Y-97350010D01*
X146800000Y-97100000D02*
X152149990Y-97100000D01*
X188539340Y-105000000D02*
X189600000Y-105000000D01*
X170041390Y-105000000D02*
X188539340Y-105000000D01*
X162141390Y-97100000D02*
X170041390Y-105000000D01*
X152400000Y-97350010D02*
X152650010Y-97100000D01*
X152650010Y-97100000D02*
X162141390Y-97100000D01*
X142140000Y-70110000D02*
X144000000Y-68250000D01*
X141440000Y-70110000D02*
X142140000Y-70110000D01*
X144200000Y-97000000D02*
X143699999Y-96499999D01*
X143699999Y-90660660D02*
X143699999Y-89600000D01*
X143699999Y-96499999D02*
X143699999Y-90660660D01*
X143500000Y-89400001D02*
X143699999Y-89600000D01*
X144000000Y-68250000D02*
X143500000Y-68750000D01*
X143500000Y-68750000D02*
X143500000Y-89400001D01*
D19*
X138900000Y-80270000D02*
X138900000Y-80500000D01*
D21*
G36*
X198340000Y-124340000D02*
G01*
X128660000Y-124340000D01*
X128660000Y-119175098D01*
X154535000Y-119175098D01*
X154535000Y-119644902D01*
X154626654Y-120105679D01*
X154806440Y-120539721D01*
X155067450Y-120930349D01*
X155399651Y-121262550D01*
X155790279Y-121523560D01*
X156224321Y-121703346D01*
X156685098Y-121795000D01*
X157154902Y-121795000D01*
X157615679Y-121703346D01*
X158049721Y-121523560D01*
X158440349Y-121262550D01*
X158772550Y-120930349D01*
X159033560Y-120539721D01*
X159213346Y-120105679D01*
X159305000Y-119644902D01*
X159305000Y-119175098D01*
X180035000Y-119175098D01*
X180035000Y-119644902D01*
X180126654Y-120105679D01*
X180306440Y-120539721D01*
X180567450Y-120930349D01*
X180899651Y-121262550D01*
X181290279Y-121523560D01*
X181724321Y-121703346D01*
X182185098Y-121795000D01*
X182654902Y-121795000D01*
X183115679Y-121703346D01*
X183549721Y-121523560D01*
X183940349Y-121262550D01*
X184272550Y-120930349D01*
X184533560Y-120539721D01*
X184713346Y-120105679D01*
X184805000Y-119644902D01*
X184805000Y-119175098D01*
X184713346Y-118714321D01*
X184533560Y-118280279D01*
X184272550Y-117889651D01*
X183940349Y-117557450D01*
X183549721Y-117296440D01*
X183115679Y-117116654D01*
X182654902Y-117025000D01*
X182185098Y-117025000D01*
X181724321Y-117116654D01*
X181290279Y-117296440D01*
X180899651Y-117557450D01*
X180567450Y-117889651D01*
X180306440Y-118280279D01*
X180126654Y-118714321D01*
X180035000Y-119175098D01*
X159305000Y-119175098D01*
X159213346Y-118714321D01*
X159033560Y-118280279D01*
X158772550Y-117889651D01*
X158440349Y-117557450D01*
X158049721Y-117296440D01*
X157615679Y-117116654D01*
X157154902Y-117025000D01*
X156685098Y-117025000D01*
X156224321Y-117116654D01*
X155790279Y-117296440D01*
X155399651Y-117557450D01*
X155067450Y-117889651D01*
X154806440Y-118280279D01*
X154626654Y-118714321D01*
X154535000Y-119175098D01*
X128660000Y-119175098D01*
X128660000Y-116396890D01*
X148158524Y-116396890D01*
X148203175Y-116544099D01*
X148328359Y-116806920D01*
X148502412Y-117040269D01*
X148718645Y-117235178D01*
X148968748Y-117384157D01*
X149243109Y-117481481D01*
X149473000Y-117360814D01*
X149473000Y-116167000D01*
X149727000Y-116167000D01*
X149727000Y-117360814D01*
X149956891Y-117481481D01*
X150231252Y-117384157D01*
X150481355Y-117235178D01*
X150697588Y-117040269D01*
X150871641Y-116806920D01*
X150996825Y-116544099D01*
X151041476Y-116396890D01*
X150920155Y-116167000D01*
X149727000Y-116167000D01*
X149473000Y-116167000D01*
X148279845Y-116167000D01*
X148158524Y-116396890D01*
X128660000Y-116396890D01*
X128660000Y-110110000D01*
X148111928Y-110110000D01*
X148111928Y-111810000D01*
X148124188Y-111934482D01*
X148160498Y-112054180D01*
X148219463Y-112164494D01*
X148298815Y-112261185D01*
X148395506Y-112340537D01*
X148505820Y-112399502D01*
X148578380Y-112421513D01*
X148446525Y-112553368D01*
X148284010Y-112796589D01*
X148172068Y-113066842D01*
X148115000Y-113353740D01*
X148115000Y-113646260D01*
X148172068Y-113933158D01*
X148284010Y-114203411D01*
X148446525Y-114446632D01*
X148653368Y-114653475D01*
X148835534Y-114775195D01*
X148718645Y-114844822D01*
X148502412Y-115039731D01*
X148328359Y-115273080D01*
X148203175Y-115535901D01*
X148158524Y-115683110D01*
X148279845Y-115913000D01*
X149473000Y-115913000D01*
X149473000Y-115893000D01*
X149727000Y-115893000D01*
X149727000Y-115913000D01*
X150920155Y-115913000D01*
X151041476Y-115683110D01*
X150997125Y-115536890D01*
X191158524Y-115536890D01*
X191203175Y-115684099D01*
X191328359Y-115946920D01*
X191502412Y-116180269D01*
X191718645Y-116375178D01*
X191968748Y-116524157D01*
X192243109Y-116621481D01*
X192473000Y-116500814D01*
X192473000Y-115307000D01*
X192727000Y-115307000D01*
X192727000Y-116500814D01*
X192956891Y-116621481D01*
X193231252Y-116524157D01*
X193481355Y-116375178D01*
X193697588Y-116180269D01*
X193871641Y-115946920D01*
X193996825Y-115684099D01*
X194041476Y-115536890D01*
X193920155Y-115307000D01*
X192727000Y-115307000D01*
X192473000Y-115307000D01*
X191279845Y-115307000D01*
X191158524Y-115536890D01*
X150997125Y-115536890D01*
X150996825Y-115535901D01*
X150871641Y-115273080D01*
X150697588Y-115039731D01*
X150481355Y-114844822D01*
X150364466Y-114775195D01*
X150546632Y-114653475D01*
X150628393Y-114571714D01*
X150628393Y-114673125D01*
X154371607Y-114673125D01*
X154371607Y-109465625D01*
X150628393Y-109465625D01*
X150628393Y-109500542D01*
X150574482Y-109484188D01*
X150450000Y-109471928D01*
X148750000Y-109471928D01*
X148625518Y-109484188D01*
X148505820Y-109520498D01*
X148395506Y-109579463D01*
X148298815Y-109658815D01*
X148219463Y-109755506D01*
X148160498Y-109865820D01*
X148124188Y-109985518D01*
X148111928Y-110110000D01*
X128660000Y-110110000D01*
X128660000Y-103996890D01*
X131358524Y-103996890D01*
X131403175Y-104144099D01*
X131528359Y-104406920D01*
X131702412Y-104640269D01*
X131918645Y-104835178D01*
X132168748Y-104984157D01*
X132443109Y-105081481D01*
X132673000Y-104960814D01*
X132673000Y-103767000D01*
X132927000Y-103767000D01*
X132927000Y-104960814D01*
X133156891Y-105081481D01*
X133431252Y-104984157D01*
X133681355Y-104835178D01*
X133897588Y-104640269D01*
X134071641Y-104406920D01*
X134196825Y-104144099D01*
X134241476Y-103996890D01*
X136958524Y-103996890D01*
X137003175Y-104144099D01*
X137128359Y-104406920D01*
X137302412Y-104640269D01*
X137518645Y-104835178D01*
X137768748Y-104984157D01*
X138043109Y-105081481D01*
X138273000Y-104960814D01*
X138273000Y-103767000D01*
X138527000Y-103767000D01*
X138527000Y-104960814D01*
X138756891Y-105081481D01*
X139031252Y-104984157D01*
X139281355Y-104835178D01*
X139497588Y-104640269D01*
X139671641Y-104406920D01*
X139796825Y-104144099D01*
X139841476Y-103996890D01*
X142558524Y-103996890D01*
X142603175Y-104144099D01*
X142728359Y-104406920D01*
X142902412Y-104640269D01*
X143118645Y-104835178D01*
X143368748Y-104984157D01*
X143643109Y-105081481D01*
X143873000Y-104960814D01*
X143873000Y-103767000D01*
X144127000Y-103767000D01*
X144127000Y-104960814D01*
X144356891Y-105081481D01*
X144631252Y-104984157D01*
X144881355Y-104835178D01*
X145097588Y-104640269D01*
X145271641Y-104406920D01*
X145396825Y-104144099D01*
X145441476Y-103996890D01*
X148158524Y-103996890D01*
X148203175Y-104144099D01*
X148328359Y-104406920D01*
X148502412Y-104640269D01*
X148718645Y-104835178D01*
X148968748Y-104984157D01*
X149243109Y-105081481D01*
X149473000Y-104960814D01*
X149473000Y-103767000D01*
X149727000Y-103767000D01*
X149727000Y-104960814D01*
X149956891Y-105081481D01*
X150231252Y-104984157D01*
X150481355Y-104835178D01*
X150697588Y-104640269D01*
X150871641Y-104406920D01*
X150996825Y-104144099D01*
X151041476Y-103996890D01*
X150920155Y-103767000D01*
X149727000Y-103767000D01*
X149473000Y-103767000D01*
X148279845Y-103767000D01*
X148158524Y-103996890D01*
X145441476Y-103996890D01*
X145320155Y-103767000D01*
X144127000Y-103767000D01*
X143873000Y-103767000D01*
X142679845Y-103767000D01*
X142558524Y-103996890D01*
X139841476Y-103996890D01*
X139720155Y-103767000D01*
X138527000Y-103767000D01*
X138273000Y-103767000D01*
X137079845Y-103767000D01*
X136958524Y-103996890D01*
X134241476Y-103996890D01*
X134120155Y-103767000D01*
X132927000Y-103767000D01*
X132673000Y-103767000D01*
X131479845Y-103767000D01*
X131358524Y-103996890D01*
X128660000Y-103996890D01*
X128660000Y-97178125D01*
X130714107Y-97178125D01*
X130714107Y-99760625D01*
X131545350Y-99760625D01*
X131498815Y-99798815D01*
X131419463Y-99895506D01*
X131360498Y-100005820D01*
X131324188Y-100125518D01*
X131311928Y-100250000D01*
X131311928Y-101950000D01*
X131324188Y-102074482D01*
X131360498Y-102194180D01*
X131419463Y-102304494D01*
X131498815Y-102401185D01*
X131595506Y-102480537D01*
X131705820Y-102539502D01*
X131786466Y-102563966D01*
X131702412Y-102639731D01*
X131528359Y-102873080D01*
X131403175Y-103135901D01*
X131358524Y-103283110D01*
X131479845Y-103513000D01*
X132673000Y-103513000D01*
X132673000Y-103493000D01*
X132927000Y-103493000D01*
X132927000Y-103513000D01*
X134120155Y-103513000D01*
X134241476Y-103283110D01*
X134196825Y-103135901D01*
X134071641Y-102873080D01*
X133897588Y-102639731D01*
X133813534Y-102563966D01*
X133894180Y-102539502D01*
X134004494Y-102480537D01*
X134101185Y-102401185D01*
X134180537Y-102304494D01*
X134239502Y-102194180D01*
X134275812Y-102074482D01*
X134288072Y-101950000D01*
X134288072Y-100250000D01*
X136911928Y-100250000D01*
X136911928Y-101950000D01*
X136924188Y-102074482D01*
X136960498Y-102194180D01*
X137019463Y-102304494D01*
X137098815Y-102401185D01*
X137195506Y-102480537D01*
X137305820Y-102539502D01*
X137386466Y-102563966D01*
X137302412Y-102639731D01*
X137128359Y-102873080D01*
X137003175Y-103135901D01*
X136958524Y-103283110D01*
X137079845Y-103513000D01*
X138273000Y-103513000D01*
X138273000Y-103493000D01*
X138527000Y-103493000D01*
X138527000Y-103513000D01*
X139720155Y-103513000D01*
X139841476Y-103283110D01*
X139796825Y-103135901D01*
X139671641Y-102873080D01*
X139497588Y-102639731D01*
X139413534Y-102563966D01*
X139494180Y-102539502D01*
X139604494Y-102480537D01*
X139701185Y-102401185D01*
X139780537Y-102304494D01*
X139839502Y-102194180D01*
X139875812Y-102074482D01*
X139888072Y-101950000D01*
X139888072Y-100250000D01*
X142511928Y-100250000D01*
X142511928Y-101950000D01*
X142524188Y-102074482D01*
X142560498Y-102194180D01*
X142619463Y-102304494D01*
X142698815Y-102401185D01*
X142795506Y-102480537D01*
X142905820Y-102539502D01*
X142986466Y-102563966D01*
X142902412Y-102639731D01*
X142728359Y-102873080D01*
X142603175Y-103135901D01*
X142558524Y-103283110D01*
X142679845Y-103513000D01*
X143873000Y-103513000D01*
X143873000Y-103493000D01*
X144127000Y-103493000D01*
X144127000Y-103513000D01*
X145320155Y-103513000D01*
X145441476Y-103283110D01*
X145396825Y-103135901D01*
X145271641Y-102873080D01*
X145097588Y-102639731D01*
X145013534Y-102563966D01*
X145094180Y-102539502D01*
X145204494Y-102480537D01*
X145301185Y-102401185D01*
X145380537Y-102304494D01*
X145439502Y-102194180D01*
X145475812Y-102074482D01*
X145488072Y-101950000D01*
X145488072Y-100250000D01*
X148111928Y-100250000D01*
X148111928Y-101950000D01*
X148124188Y-102074482D01*
X148160498Y-102194180D01*
X148219463Y-102304494D01*
X148298815Y-102401185D01*
X148395506Y-102480537D01*
X148505820Y-102539502D01*
X148586466Y-102563966D01*
X148502412Y-102639731D01*
X148328359Y-102873080D01*
X148203175Y-103135901D01*
X148158524Y-103283110D01*
X148279845Y-103513000D01*
X149473000Y-103513000D01*
X149473000Y-103493000D01*
X149727000Y-103493000D01*
X149727000Y-103513000D01*
X150920155Y-103513000D01*
X151041476Y-103283110D01*
X150996825Y-103135901D01*
X150871641Y-102873080D01*
X150697588Y-102639731D01*
X150613534Y-102563966D01*
X150694180Y-102539502D01*
X150804494Y-102480537D01*
X150901185Y-102401185D01*
X150980537Y-102304494D01*
X151039502Y-102194180D01*
X151075812Y-102074482D01*
X151088072Y-101950000D01*
X151088072Y-100250000D01*
X151075812Y-100125518D01*
X151039502Y-100005820D01*
X150980537Y-99895506D01*
X150901185Y-99798815D01*
X150804494Y-99719463D01*
X150694180Y-99660498D01*
X150574482Y-99624188D01*
X150450000Y-99611928D01*
X148750000Y-99611928D01*
X148625518Y-99624188D01*
X148505820Y-99660498D01*
X148395506Y-99719463D01*
X148298815Y-99798815D01*
X148219463Y-99895506D01*
X148160498Y-100005820D01*
X148124188Y-100125518D01*
X148111928Y-100250000D01*
X145488072Y-100250000D01*
X145475812Y-100125518D01*
X145439502Y-100005820D01*
X145380537Y-99895506D01*
X145301185Y-99798815D01*
X145204494Y-99719463D01*
X145094180Y-99660498D01*
X144974482Y-99624188D01*
X144850000Y-99611928D01*
X143150000Y-99611928D01*
X143025518Y-99624188D01*
X142905820Y-99660498D01*
X142795506Y-99719463D01*
X142698815Y-99798815D01*
X142619463Y-99895506D01*
X142560498Y-100005820D01*
X142524188Y-100125518D01*
X142511928Y-100250000D01*
X139888072Y-100250000D01*
X139875812Y-100125518D01*
X139839502Y-100005820D01*
X139780537Y-99895506D01*
X139701185Y-99798815D01*
X139604494Y-99719463D01*
X139494180Y-99660498D01*
X139374482Y-99624188D01*
X139250000Y-99611928D01*
X137550000Y-99611928D01*
X137425518Y-99624188D01*
X137305820Y-99660498D01*
X137195506Y-99719463D01*
X137098815Y-99798815D01*
X137019463Y-99895506D01*
X136960498Y-100005820D01*
X136924188Y-100125518D01*
X136911928Y-100250000D01*
X134288072Y-100250000D01*
X134275812Y-100125518D01*
X134239502Y-100005820D01*
X134180537Y-99895506D01*
X134101185Y-99798815D01*
X134004494Y-99719463D01*
X133894180Y-99660498D01*
X133774482Y-99624188D01*
X133650000Y-99611928D01*
X132885893Y-99611928D01*
X132885893Y-97178125D01*
X130714107Y-97178125D01*
X128660000Y-97178125D01*
X128660000Y-96963589D01*
X134215000Y-96963589D01*
X134215000Y-97236411D01*
X134268225Y-97503989D01*
X134372629Y-97756043D01*
X134524201Y-97982886D01*
X134717114Y-98175799D01*
X134943957Y-98327371D01*
X135196011Y-98431775D01*
X135463589Y-98485000D01*
X135736411Y-98485000D01*
X136003989Y-98431775D01*
X136256043Y-98327371D01*
X136482886Y-98175799D01*
X136523685Y-98135000D01*
X140276315Y-98135000D01*
X140317114Y-98175799D01*
X140543957Y-98327371D01*
X140796011Y-98431775D01*
X141063589Y-98485000D01*
X141336411Y-98485000D01*
X141603989Y-98431775D01*
X141856043Y-98327371D01*
X142082886Y-98175799D01*
X142123685Y-98135000D01*
X145876315Y-98135000D01*
X145917114Y-98175799D01*
X146143957Y-98327371D01*
X146396011Y-98431775D01*
X146663589Y-98485000D01*
X146936411Y-98485000D01*
X147203989Y-98431775D01*
X147456043Y-98327371D01*
X147682886Y-98175799D01*
X147723685Y-98135000D01*
X151258789Y-98135000D01*
X151324201Y-98232896D01*
X151517114Y-98425809D01*
X151743957Y-98577381D01*
X151996011Y-98681785D01*
X152263589Y-98735010D01*
X152536411Y-98735010D01*
X152803989Y-98681785D01*
X153056043Y-98577381D01*
X153282886Y-98425809D01*
X153475799Y-98232896D01*
X153541211Y-98135000D01*
X155322101Y-98135000D01*
X155067450Y-98389651D01*
X154806440Y-98780279D01*
X154626654Y-99214321D01*
X154535000Y-99675098D01*
X154535000Y-100144902D01*
X154626654Y-100605679D01*
X154806440Y-101039721D01*
X155067450Y-101430349D01*
X155399651Y-101762550D01*
X155790279Y-102023560D01*
X156224321Y-102203346D01*
X156685098Y-102295000D01*
X157154902Y-102295000D01*
X157615679Y-102203346D01*
X158049721Y-102023560D01*
X158440349Y-101762550D01*
X158772550Y-101430349D01*
X159033560Y-101039721D01*
X159213346Y-100605679D01*
X159305000Y-100144902D01*
X159305000Y-99675098D01*
X159213346Y-99214321D01*
X159033560Y-98780279D01*
X158772550Y-98389651D01*
X158517899Y-98135000D01*
X161712680Y-98135000D01*
X169273587Y-105695908D01*
X169305994Y-105735396D01*
X169345482Y-105767803D01*
X169463592Y-105864734D01*
X169559699Y-105916104D01*
X169643397Y-105960841D01*
X169838495Y-106020024D01*
X169990552Y-106035000D01*
X169990561Y-106035000D01*
X170041389Y-106040006D01*
X170092217Y-106035000D01*
X187828393Y-106035000D01*
X187828393Y-113685625D01*
X191545518Y-113685625D01*
X191653368Y-113793475D01*
X191835534Y-113915195D01*
X191718645Y-113984822D01*
X191502412Y-114179731D01*
X191328359Y-114413080D01*
X191203175Y-114675901D01*
X191158524Y-114823110D01*
X191279845Y-115053000D01*
X192473000Y-115053000D01*
X192473000Y-115033000D01*
X192727000Y-115033000D01*
X192727000Y-115053000D01*
X193920155Y-115053000D01*
X194041476Y-114823110D01*
X193996825Y-114675901D01*
X193871641Y-114413080D01*
X193697588Y-114179731D01*
X193481355Y-113984822D01*
X193364466Y-113915195D01*
X193546632Y-113793475D01*
X193753475Y-113586632D01*
X193915990Y-113343411D01*
X194027932Y-113073158D01*
X194085000Y-112786260D01*
X194085000Y-112493740D01*
X194027932Y-112206842D01*
X193915990Y-111936589D01*
X193753475Y-111693368D01*
X193546632Y-111486525D01*
X193372240Y-111370000D01*
X193546632Y-111253475D01*
X193753475Y-111046632D01*
X193915990Y-110803411D01*
X194027932Y-110533158D01*
X194085000Y-110246260D01*
X194085000Y-109953740D01*
X194027932Y-109666842D01*
X193915990Y-109396589D01*
X193753475Y-109153368D01*
X193546632Y-108946525D01*
X193372240Y-108830000D01*
X193546632Y-108713475D01*
X193753475Y-108506632D01*
X193915990Y-108263411D01*
X194027932Y-107993158D01*
X194085000Y-107706260D01*
X194085000Y-107413740D01*
X194027932Y-107126842D01*
X193915990Y-106856589D01*
X193753475Y-106613368D01*
X193621620Y-106481513D01*
X193694180Y-106459502D01*
X193804494Y-106400537D01*
X193901185Y-106321185D01*
X193980537Y-106224494D01*
X194039502Y-106114180D01*
X194075812Y-105994482D01*
X194088072Y-105870000D01*
X194088072Y-104170000D01*
X194075812Y-104045518D01*
X194039502Y-103925820D01*
X193980537Y-103815506D01*
X193901185Y-103718815D01*
X193804494Y-103639463D01*
X193694180Y-103580498D01*
X193574482Y-103544188D01*
X193450000Y-103531928D01*
X191750000Y-103531928D01*
X191625518Y-103544188D01*
X191505820Y-103580498D01*
X191395506Y-103639463D01*
X191298815Y-103718815D01*
X191219463Y-103815506D01*
X191160498Y-103925820D01*
X191124188Y-104045518D01*
X191111928Y-104170000D01*
X191111928Y-105853125D01*
X190695685Y-105853125D01*
X190827371Y-105656043D01*
X190931775Y-105403989D01*
X190985000Y-105136411D01*
X190985000Y-104863589D01*
X190931775Y-104596011D01*
X190827371Y-104343957D01*
X190675799Y-104117114D01*
X190482886Y-103924201D01*
X190256043Y-103772629D01*
X190003989Y-103668225D01*
X189736411Y-103615000D01*
X189463589Y-103615000D01*
X189196011Y-103668225D01*
X188943957Y-103772629D01*
X188717114Y-103924201D01*
X188676315Y-103965000D01*
X170470101Y-103965000D01*
X166180199Y-99675098D01*
X180035000Y-99675098D01*
X180035000Y-100144902D01*
X180126654Y-100605679D01*
X180306440Y-101039721D01*
X180567450Y-101430349D01*
X180899651Y-101762550D01*
X181290279Y-102023560D01*
X181724321Y-102203346D01*
X182185098Y-102295000D01*
X182654902Y-102295000D01*
X183115679Y-102203346D01*
X183549721Y-102023560D01*
X183940349Y-101762550D01*
X184272550Y-101430349D01*
X184533560Y-101039721D01*
X184713346Y-100605679D01*
X184805000Y-100144902D01*
X184805000Y-99675098D01*
X184713346Y-99214321D01*
X184533560Y-98780279D01*
X184272550Y-98389651D01*
X183940349Y-98057450D01*
X183549721Y-97796440D01*
X183115679Y-97616654D01*
X182654902Y-97525000D01*
X182185098Y-97525000D01*
X181724321Y-97616654D01*
X181290279Y-97796440D01*
X180899651Y-98057450D01*
X180567450Y-98389651D01*
X180306440Y-98780279D01*
X180126654Y-99214321D01*
X180035000Y-99675098D01*
X166180199Y-99675098D01*
X162909197Y-96404097D01*
X162876786Y-96364604D01*
X162719187Y-96235266D01*
X162539383Y-96139159D01*
X162344285Y-96079976D01*
X162192228Y-96065000D01*
X162192218Y-96065000D01*
X162141390Y-96059994D01*
X162090562Y-96065000D01*
X152916890Y-96065000D01*
X152803989Y-96018235D01*
X152536411Y-95965010D01*
X152263589Y-95965010D01*
X151996011Y-96018235D01*
X151883110Y-96065000D01*
X147723685Y-96065000D01*
X147682886Y-96024201D01*
X147456043Y-95872629D01*
X147203989Y-95768225D01*
X146936411Y-95715000D01*
X146663589Y-95715000D01*
X146396011Y-95768225D01*
X146143957Y-95872629D01*
X145917114Y-96024201D01*
X145876315Y-96065000D01*
X144734999Y-96065000D01*
X144734999Y-93314344D01*
X150615000Y-93314344D01*
X150615000Y-93685656D01*
X150687439Y-94049834D01*
X150829534Y-94392882D01*
X151035825Y-94701618D01*
X151298382Y-94964175D01*
X151607118Y-95170466D01*
X151950166Y-95312561D01*
X152314344Y-95385000D01*
X152685656Y-95385000D01*
X153049834Y-95312561D01*
X153392882Y-95170466D01*
X153701618Y-94964175D01*
X153964175Y-94701618D01*
X154170466Y-94392882D01*
X154312561Y-94049834D01*
X154385000Y-93685656D01*
X154385000Y-93314344D01*
X193615000Y-93314344D01*
X193615000Y-93685656D01*
X193687439Y-94049834D01*
X193829534Y-94392882D01*
X194035825Y-94701618D01*
X194298382Y-94964175D01*
X194607118Y-95170466D01*
X194950166Y-95312561D01*
X195314344Y-95385000D01*
X195685656Y-95385000D01*
X196049834Y-95312561D01*
X196392882Y-95170466D01*
X196701618Y-94964175D01*
X196964175Y-94701618D01*
X197170466Y-94392882D01*
X197312561Y-94049834D01*
X197385000Y-93685656D01*
X197385000Y-93314344D01*
X197312561Y-92950166D01*
X197170466Y-92607118D01*
X196964175Y-92298382D01*
X196701618Y-92035825D01*
X196392882Y-91829534D01*
X196049834Y-91687439D01*
X195685656Y-91615000D01*
X195314344Y-91615000D01*
X194950166Y-91687439D01*
X194607118Y-91829534D01*
X194298382Y-92035825D01*
X194035825Y-92298382D01*
X193829534Y-92607118D01*
X193687439Y-92950166D01*
X193615000Y-93314344D01*
X154385000Y-93314344D01*
X154312561Y-92950166D01*
X154170466Y-92607118D01*
X153964175Y-92298382D01*
X153701618Y-92035825D01*
X153392882Y-91829534D01*
X153049834Y-91687439D01*
X152685656Y-91615000D01*
X152314344Y-91615000D01*
X151950166Y-91687439D01*
X151607118Y-91829534D01*
X151298382Y-92035825D01*
X151035825Y-92298382D01*
X150829534Y-92607118D01*
X150687439Y-92950166D01*
X150615000Y-93314344D01*
X144734999Y-93314344D01*
X144734999Y-90523685D01*
X144775798Y-90482886D01*
X144927370Y-90256043D01*
X145031774Y-90003989D01*
X145084999Y-89736411D01*
X145084999Y-89463589D01*
X145031774Y-89196011D01*
X144927370Y-88943957D01*
X144775798Y-88717114D01*
X144582885Y-88524201D01*
X144535000Y-88492205D01*
X144535000Y-88133740D01*
X145515000Y-88133740D01*
X145515000Y-88426260D01*
X145572068Y-88713158D01*
X145684010Y-88983411D01*
X145846525Y-89226632D01*
X146053368Y-89433475D01*
X146296589Y-89595990D01*
X146566842Y-89707932D01*
X146853740Y-89765000D01*
X147146260Y-89765000D01*
X147433158Y-89707932D01*
X147703411Y-89595990D01*
X147946632Y-89433475D01*
X148153475Y-89226632D01*
X148315990Y-88983411D01*
X148427932Y-88713158D01*
X148485000Y-88426260D01*
X148485000Y-88133740D01*
X148427932Y-87846842D01*
X148315990Y-87576589D01*
X148153475Y-87333368D01*
X147946632Y-87126525D01*
X147764466Y-87004805D01*
X147881355Y-86935178D01*
X148097588Y-86740269D01*
X148271641Y-86506920D01*
X148396825Y-86244099D01*
X148441476Y-86096890D01*
X148320155Y-85867000D01*
X147127000Y-85867000D01*
X147127000Y-85887000D01*
X146873000Y-85887000D01*
X146873000Y-85867000D01*
X145679845Y-85867000D01*
X145558524Y-86096890D01*
X145603175Y-86244099D01*
X145728359Y-86506920D01*
X145902412Y-86740269D01*
X146118645Y-86935178D01*
X146235534Y-87004805D01*
X146053368Y-87126525D01*
X145846525Y-87333368D01*
X145684010Y-87576589D01*
X145572068Y-87846842D01*
X145515000Y-88133740D01*
X144535000Y-88133740D01*
X144535000Y-69650000D01*
X145511928Y-69650000D01*
X145511928Y-71350000D01*
X145524188Y-71474482D01*
X145560498Y-71594180D01*
X145619463Y-71704494D01*
X145698815Y-71801185D01*
X145795506Y-71880537D01*
X145905820Y-71939502D01*
X145978380Y-71961513D01*
X145846525Y-72093368D01*
X145684010Y-72336589D01*
X145572068Y-72606842D01*
X145515000Y-72893740D01*
X145515000Y-73186260D01*
X145572068Y-73473158D01*
X145684010Y-73743411D01*
X145846525Y-73986632D01*
X146053368Y-74193475D01*
X146227760Y-74310000D01*
X146053368Y-74426525D01*
X145846525Y-74633368D01*
X145684010Y-74876589D01*
X145572068Y-75146842D01*
X145515000Y-75433740D01*
X145515000Y-75726260D01*
X145572068Y-76013158D01*
X145684010Y-76283411D01*
X145846525Y-76526632D01*
X146053368Y-76733475D01*
X146227760Y-76850000D01*
X146053368Y-76966525D01*
X145846525Y-77173368D01*
X145684010Y-77416589D01*
X145572068Y-77686842D01*
X145515000Y-77973740D01*
X145515000Y-78266260D01*
X145572068Y-78553158D01*
X145684010Y-78823411D01*
X145846525Y-79066632D01*
X146053368Y-79273475D01*
X146227760Y-79390000D01*
X146053368Y-79506525D01*
X145846525Y-79713368D01*
X145684010Y-79956589D01*
X145572068Y-80226842D01*
X145515000Y-80513740D01*
X145515000Y-80806260D01*
X145572068Y-81093158D01*
X145684010Y-81363411D01*
X145846525Y-81606632D01*
X146053368Y-81813475D01*
X146227760Y-81930000D01*
X146053368Y-82046525D01*
X145846525Y-82253368D01*
X145684010Y-82496589D01*
X145572068Y-82766842D01*
X145515000Y-83053740D01*
X145515000Y-83346260D01*
X145572068Y-83633158D01*
X145684010Y-83903411D01*
X145846525Y-84146632D01*
X146053368Y-84353475D01*
X146235534Y-84475195D01*
X146118645Y-84544822D01*
X145902412Y-84739731D01*
X145728359Y-84973080D01*
X145603175Y-85235901D01*
X145558524Y-85383110D01*
X145679845Y-85613000D01*
X146873000Y-85613000D01*
X146873000Y-85593000D01*
X147127000Y-85593000D01*
X147127000Y-85613000D01*
X148320155Y-85613000D01*
X148441476Y-85383110D01*
X148396825Y-85235901D01*
X148271641Y-84973080D01*
X148097588Y-84739731D01*
X147881355Y-84544822D01*
X147764466Y-84475195D01*
X147946632Y-84353475D01*
X148153475Y-84146632D01*
X148315990Y-83903411D01*
X148427932Y-83633158D01*
X148472197Y-83410625D01*
X151732322Y-83410625D01*
X151732322Y-70328125D01*
X148488072Y-70328125D01*
X148488072Y-69650000D01*
X148475812Y-69525518D01*
X148439502Y-69405820D01*
X148380537Y-69295506D01*
X148301185Y-69198815D01*
X148204494Y-69119463D01*
X148094180Y-69060498D01*
X147974482Y-69024188D01*
X147850000Y-69011928D01*
X146150000Y-69011928D01*
X146025518Y-69024188D01*
X145905820Y-69060498D01*
X145795506Y-69119463D01*
X145698815Y-69198815D01*
X145619463Y-69295506D01*
X145560498Y-69405820D01*
X145524188Y-69525518D01*
X145511928Y-69650000D01*
X144535000Y-69650000D01*
X144535000Y-69454700D01*
X144623255Y-69446008D01*
X144789851Y-69395472D01*
X144943387Y-69313405D01*
X145077962Y-69202962D01*
X145188405Y-69068387D01*
X145270472Y-68914851D01*
X145321008Y-68748255D01*
X145338072Y-68575001D01*
X145338072Y-67924999D01*
X145321008Y-67751745D01*
X145270472Y-67585149D01*
X145188405Y-67431613D01*
X145077962Y-67297038D01*
X145071406Y-67291658D01*
X145151185Y-67226185D01*
X145230537Y-67129494D01*
X145289502Y-67019180D01*
X145325812Y-66899482D01*
X145338072Y-66775000D01*
X145335000Y-66485750D01*
X145176250Y-66327000D01*
X144127000Y-66327000D01*
X144127000Y-66347000D01*
X143873000Y-66347000D01*
X143873000Y-66327000D01*
X142823750Y-66327000D01*
X142665000Y-66485750D01*
X142661928Y-66775000D01*
X142674188Y-66899482D01*
X142710498Y-67019180D01*
X142769463Y-67129494D01*
X142848815Y-67226185D01*
X142928594Y-67291658D01*
X142922038Y-67297038D01*
X142811595Y-67431613D01*
X142729528Y-67585149D01*
X142678992Y-67751745D01*
X142661928Y-67924999D01*
X142661928Y-68124361D01*
X141969193Y-68817097D01*
X141847490Y-68766686D01*
X141577592Y-68713000D01*
X141302408Y-68713000D01*
X141032510Y-68766686D01*
X140778273Y-68871995D01*
X140549465Y-69024880D01*
X140354880Y-69219465D01*
X140201995Y-69448273D01*
X140170000Y-69525515D01*
X140138005Y-69448273D01*
X139985120Y-69219465D01*
X139790535Y-69024880D01*
X139561727Y-68871995D01*
X139307490Y-68766686D01*
X139037592Y-68713000D01*
X138762408Y-68713000D01*
X138492510Y-68766686D01*
X138238273Y-68871995D01*
X138009465Y-69024880D01*
X137814880Y-69219465D01*
X137661995Y-69448273D01*
X137556686Y-69702510D01*
X137503000Y-69972408D01*
X137503000Y-70247592D01*
X137556686Y-70517490D01*
X137661995Y-70771727D01*
X137814880Y-71000535D01*
X138009465Y-71195120D01*
X138238273Y-71348005D01*
X138315515Y-71380000D01*
X138238273Y-71411995D01*
X138009465Y-71564880D01*
X137814880Y-71759465D01*
X137661995Y-71988273D01*
X137556686Y-72242510D01*
X137503000Y-72512408D01*
X137503000Y-72787592D01*
X137556686Y-73057490D01*
X137661995Y-73311727D01*
X137814880Y-73540535D01*
X138009465Y-73735120D01*
X138238273Y-73888005D01*
X138309943Y-73917692D01*
X138296977Y-73922364D01*
X138181020Y-73984344D01*
X138114040Y-74224435D01*
X138900000Y-75010395D01*
X139685960Y-74224435D01*
X139618980Y-73984344D01*
X139483240Y-73920515D01*
X139561727Y-73888005D01*
X139790535Y-73735120D01*
X139985120Y-73540535D01*
X140138005Y-73311727D01*
X140170000Y-73234485D01*
X140201995Y-73311727D01*
X140354880Y-73540535D01*
X140549465Y-73735120D01*
X140778273Y-73888005D01*
X140855515Y-73920000D01*
X140778273Y-73951995D01*
X140549465Y-74104880D01*
X140354880Y-74299465D01*
X140201995Y-74528273D01*
X140172308Y-74599943D01*
X140167636Y-74586977D01*
X140105656Y-74471020D01*
X139865565Y-74404040D01*
X139079605Y-75190000D01*
X139865565Y-75975960D01*
X140105656Y-75908980D01*
X140169485Y-75773240D01*
X140201995Y-75851727D01*
X140354880Y-76080535D01*
X140549465Y-76275120D01*
X140778273Y-76428005D01*
X140855515Y-76460000D01*
X140778273Y-76491995D01*
X140549465Y-76644880D01*
X140354880Y-76839465D01*
X140201995Y-77068273D01*
X140170000Y-77145515D01*
X140138005Y-77068273D01*
X139985120Y-76839465D01*
X139790535Y-76644880D01*
X139561727Y-76491995D01*
X139490057Y-76462308D01*
X139503023Y-76457636D01*
X139618980Y-76395656D01*
X139685960Y-76155565D01*
X138900000Y-75369605D01*
X138114040Y-76155565D01*
X138181020Y-76395656D01*
X138316760Y-76459485D01*
X138238273Y-76491995D01*
X138009465Y-76644880D01*
X137814880Y-76839465D01*
X137661995Y-77068273D01*
X137556686Y-77322510D01*
X137503000Y-77592408D01*
X137503000Y-77867592D01*
X137556686Y-78137490D01*
X137661995Y-78391727D01*
X137814880Y-78620535D01*
X138009465Y-78815120D01*
X138238273Y-78968005D01*
X138315515Y-79000000D01*
X138238273Y-79031995D01*
X138009465Y-79184880D01*
X137814880Y-79379465D01*
X137661995Y-79608273D01*
X137556686Y-79862510D01*
X137503000Y-80132408D01*
X137503000Y-80407592D01*
X137556686Y-80677490D01*
X137661995Y-80931727D01*
X137814880Y-81160535D01*
X138009465Y-81355120D01*
X138238273Y-81508005D01*
X138315515Y-81540000D01*
X138238273Y-81571995D01*
X138009465Y-81724880D01*
X137814880Y-81919465D01*
X137661995Y-82148273D01*
X137556686Y-82402510D01*
X137503000Y-82672408D01*
X137503000Y-82947592D01*
X137556686Y-83217490D01*
X137661995Y-83471727D01*
X137814880Y-83700535D01*
X138009465Y-83895120D01*
X138238273Y-84048005D01*
X138315515Y-84080000D01*
X138238273Y-84111995D01*
X138009465Y-84264880D01*
X137814880Y-84459465D01*
X137661995Y-84688273D01*
X137556686Y-84942510D01*
X137503000Y-85212408D01*
X137503000Y-85487592D01*
X137556686Y-85757490D01*
X137661995Y-86011727D01*
X137814880Y-86240535D01*
X138009465Y-86435120D01*
X138238273Y-86588005D01*
X138315515Y-86620000D01*
X138238273Y-86651995D01*
X138009465Y-86804880D01*
X137814880Y-86999465D01*
X137661995Y-87228273D01*
X137556686Y-87482510D01*
X137503000Y-87752408D01*
X137503000Y-88027592D01*
X137556686Y-88297490D01*
X137661995Y-88551727D01*
X137814880Y-88780535D01*
X138009465Y-88975120D01*
X138238273Y-89128005D01*
X138492510Y-89233314D01*
X138762408Y-89287000D01*
X139037592Y-89287000D01*
X139307490Y-89233314D01*
X139561727Y-89128005D01*
X139790535Y-88975120D01*
X139985120Y-88780535D01*
X140138005Y-88551727D01*
X140170000Y-88474485D01*
X140201995Y-88551727D01*
X140354880Y-88780535D01*
X140549465Y-88975120D01*
X140778273Y-89128005D01*
X141032510Y-89233314D01*
X141302408Y-89287000D01*
X141577592Y-89287000D01*
X141847490Y-89233314D01*
X142101727Y-89128005D01*
X142330535Y-88975120D01*
X142465001Y-88840654D01*
X142465001Y-88962370D01*
X142368224Y-89196011D01*
X142314999Y-89463589D01*
X142314999Y-89736411D01*
X142368224Y-90003989D01*
X142472628Y-90256043D01*
X142624200Y-90482886D01*
X142664999Y-90523685D01*
X142664999Y-90711497D01*
X142665000Y-90711507D01*
X142664999Y-96065000D01*
X142123685Y-96065000D01*
X142082886Y-96024201D01*
X141856043Y-95872629D01*
X141603989Y-95768225D01*
X141336411Y-95715000D01*
X141063589Y-95715000D01*
X140796011Y-95768225D01*
X140543957Y-95872629D01*
X140317114Y-96024201D01*
X140276315Y-96065000D01*
X136523685Y-96065000D01*
X136482886Y-96024201D01*
X136256043Y-95872629D01*
X136003989Y-95768225D01*
X135736411Y-95715000D01*
X135463589Y-95715000D01*
X135196011Y-95768225D01*
X134943957Y-95872629D01*
X134717114Y-96024201D01*
X134524201Y-96217114D01*
X134372629Y-96443957D01*
X134268225Y-96696011D01*
X134215000Y-96963589D01*
X128660000Y-96963589D01*
X128660000Y-75262017D01*
X137498090Y-75262017D01*
X137539078Y-75534133D01*
X137632364Y-75793023D01*
X137694344Y-75908980D01*
X137934435Y-75975960D01*
X138720395Y-75190000D01*
X137934435Y-74404040D01*
X137694344Y-74471020D01*
X137577244Y-74720048D01*
X137510977Y-74987135D01*
X137498090Y-75262017D01*
X128660000Y-75262017D01*
X128660000Y-65625000D01*
X142661928Y-65625000D01*
X142665000Y-65914250D01*
X142823750Y-66073000D01*
X143873000Y-66073000D01*
X143873000Y-65148750D01*
X144127000Y-65148750D01*
X144127000Y-66073000D01*
X145176250Y-66073000D01*
X145335000Y-65914250D01*
X145338072Y-65625000D01*
X145325812Y-65500518D01*
X145289502Y-65380820D01*
X145253970Y-65314344D01*
X150615000Y-65314344D01*
X150615000Y-65685656D01*
X150687439Y-66049834D01*
X150829534Y-66392882D01*
X151035825Y-66701618D01*
X151298382Y-66964175D01*
X151607118Y-67170466D01*
X151950166Y-67312561D01*
X152314344Y-67385000D01*
X152685656Y-67385000D01*
X153049834Y-67312561D01*
X153392882Y-67170466D01*
X153701618Y-66964175D01*
X153964175Y-66701618D01*
X154170466Y-66392882D01*
X154312561Y-66049834D01*
X154385000Y-65685656D01*
X154385000Y-65314344D01*
X193615000Y-65314344D01*
X193615000Y-65685656D01*
X193687439Y-66049834D01*
X193829534Y-66392882D01*
X194035825Y-66701618D01*
X194298382Y-66964175D01*
X194607118Y-67170466D01*
X194950166Y-67312561D01*
X195314344Y-67385000D01*
X195685656Y-67385000D01*
X196049834Y-67312561D01*
X196392882Y-67170466D01*
X196701618Y-66964175D01*
X196964175Y-66701618D01*
X197170466Y-66392882D01*
X197312561Y-66049834D01*
X197385000Y-65685656D01*
X197385000Y-65314344D01*
X197312561Y-64950166D01*
X197170466Y-64607118D01*
X196964175Y-64298382D01*
X196701618Y-64035825D01*
X196392882Y-63829534D01*
X196049834Y-63687439D01*
X195685656Y-63615000D01*
X195314344Y-63615000D01*
X194950166Y-63687439D01*
X194607118Y-63829534D01*
X194298382Y-64035825D01*
X194035825Y-64298382D01*
X193829534Y-64607118D01*
X193687439Y-64950166D01*
X193615000Y-65314344D01*
X154385000Y-65314344D01*
X154312561Y-64950166D01*
X154170466Y-64607118D01*
X153964175Y-64298382D01*
X153701618Y-64035825D01*
X153392882Y-63829534D01*
X153049834Y-63687439D01*
X152685656Y-63615000D01*
X152314344Y-63615000D01*
X151950166Y-63687439D01*
X151607118Y-63829534D01*
X151298382Y-64035825D01*
X151035825Y-64298382D01*
X150829534Y-64607118D01*
X150687439Y-64950166D01*
X150615000Y-65314344D01*
X145253970Y-65314344D01*
X145230537Y-65270506D01*
X145151185Y-65173815D01*
X145054494Y-65094463D01*
X144944180Y-65035498D01*
X144824482Y-64999188D01*
X144700000Y-64986928D01*
X144285750Y-64990000D01*
X144127000Y-65148750D01*
X143873000Y-65148750D01*
X143714250Y-64990000D01*
X143300000Y-64986928D01*
X143175518Y-64999188D01*
X143055820Y-65035498D01*
X142945506Y-65094463D01*
X142848815Y-65173815D01*
X142769463Y-65270506D01*
X142710498Y-65380820D01*
X142674188Y-65500518D01*
X142661928Y-65625000D01*
X128660000Y-65625000D01*
X128660000Y-62910000D01*
X198340001Y-62910000D01*
X198340000Y-124340000D01*
G37*
X198340000Y-124340000D02*
X128660000Y-124340000D01*
X128660000Y-119175098D01*
X154535000Y-119175098D01*
X154535000Y-119644902D01*
X154626654Y-120105679D01*
X154806440Y-120539721D01*
X155067450Y-120930349D01*
X155399651Y-121262550D01*
X155790279Y-121523560D01*
X156224321Y-121703346D01*
X156685098Y-121795000D01*
X157154902Y-121795000D01*
X157615679Y-121703346D01*
X158049721Y-121523560D01*
X158440349Y-121262550D01*
X158772550Y-120930349D01*
X159033560Y-120539721D01*
X159213346Y-120105679D01*
X159305000Y-119644902D01*
X159305000Y-119175098D01*
X180035000Y-119175098D01*
X180035000Y-119644902D01*
X180126654Y-120105679D01*
X180306440Y-120539721D01*
X180567450Y-120930349D01*
X180899651Y-121262550D01*
X181290279Y-121523560D01*
X181724321Y-121703346D01*
X182185098Y-121795000D01*
X182654902Y-121795000D01*
X183115679Y-121703346D01*
X183549721Y-121523560D01*
X183940349Y-121262550D01*
X184272550Y-120930349D01*
X184533560Y-120539721D01*
X184713346Y-120105679D01*
X184805000Y-119644902D01*
X184805000Y-119175098D01*
X184713346Y-118714321D01*
X184533560Y-118280279D01*
X184272550Y-117889651D01*
X183940349Y-117557450D01*
X183549721Y-117296440D01*
X183115679Y-117116654D01*
X182654902Y-117025000D01*
X182185098Y-117025000D01*
X181724321Y-117116654D01*
X181290279Y-117296440D01*
X180899651Y-117557450D01*
X180567450Y-117889651D01*
X180306440Y-118280279D01*
X180126654Y-118714321D01*
X180035000Y-119175098D01*
X159305000Y-119175098D01*
X159213346Y-118714321D01*
X159033560Y-118280279D01*
X158772550Y-117889651D01*
X158440349Y-117557450D01*
X158049721Y-117296440D01*
X157615679Y-117116654D01*
X157154902Y-117025000D01*
X156685098Y-117025000D01*
X156224321Y-117116654D01*
X155790279Y-117296440D01*
X155399651Y-117557450D01*
X155067450Y-117889651D01*
X154806440Y-118280279D01*
X154626654Y-118714321D01*
X154535000Y-119175098D01*
X128660000Y-119175098D01*
X128660000Y-116396890D01*
X148158524Y-116396890D01*
X148203175Y-116544099D01*
X148328359Y-116806920D01*
X148502412Y-117040269D01*
X148718645Y-117235178D01*
X148968748Y-117384157D01*
X149243109Y-117481481D01*
X149473000Y-117360814D01*
X149473000Y-116167000D01*
X149727000Y-116167000D01*
X149727000Y-117360814D01*
X149956891Y-117481481D01*
X150231252Y-117384157D01*
X150481355Y-117235178D01*
X150697588Y-117040269D01*
X150871641Y-116806920D01*
X150996825Y-116544099D01*
X151041476Y-116396890D01*
X150920155Y-116167000D01*
X149727000Y-116167000D01*
X149473000Y-116167000D01*
X148279845Y-116167000D01*
X148158524Y-116396890D01*
X128660000Y-116396890D01*
X128660000Y-110110000D01*
X148111928Y-110110000D01*
X148111928Y-111810000D01*
X148124188Y-111934482D01*
X148160498Y-112054180D01*
X148219463Y-112164494D01*
X148298815Y-112261185D01*
X148395506Y-112340537D01*
X148505820Y-112399502D01*
X148578380Y-112421513D01*
X148446525Y-112553368D01*
X148284010Y-112796589D01*
X148172068Y-113066842D01*
X148115000Y-113353740D01*
X148115000Y-113646260D01*
X148172068Y-113933158D01*
X148284010Y-114203411D01*
X148446525Y-114446632D01*
X148653368Y-114653475D01*
X148835534Y-114775195D01*
X148718645Y-114844822D01*
X148502412Y-115039731D01*
X148328359Y-115273080D01*
X148203175Y-115535901D01*
X148158524Y-115683110D01*
X148279845Y-115913000D01*
X149473000Y-115913000D01*
X149473000Y-115893000D01*
X149727000Y-115893000D01*
X149727000Y-115913000D01*
X150920155Y-115913000D01*
X151041476Y-115683110D01*
X150997125Y-115536890D01*
X191158524Y-115536890D01*
X191203175Y-115684099D01*
X191328359Y-115946920D01*
X191502412Y-116180269D01*
X191718645Y-116375178D01*
X191968748Y-116524157D01*
X192243109Y-116621481D01*
X192473000Y-116500814D01*
X192473000Y-115307000D01*
X192727000Y-115307000D01*
X192727000Y-116500814D01*
X192956891Y-116621481D01*
X193231252Y-116524157D01*
X193481355Y-116375178D01*
X193697588Y-116180269D01*
X193871641Y-115946920D01*
X193996825Y-115684099D01*
X194041476Y-115536890D01*
X193920155Y-115307000D01*
X192727000Y-115307000D01*
X192473000Y-115307000D01*
X191279845Y-115307000D01*
X191158524Y-115536890D01*
X150997125Y-115536890D01*
X150996825Y-115535901D01*
X150871641Y-115273080D01*
X150697588Y-115039731D01*
X150481355Y-114844822D01*
X150364466Y-114775195D01*
X150546632Y-114653475D01*
X150628393Y-114571714D01*
X150628393Y-114673125D01*
X154371607Y-114673125D01*
X154371607Y-109465625D01*
X150628393Y-109465625D01*
X150628393Y-109500542D01*
X150574482Y-109484188D01*
X150450000Y-109471928D01*
X148750000Y-109471928D01*
X148625518Y-109484188D01*
X148505820Y-109520498D01*
X148395506Y-109579463D01*
X148298815Y-109658815D01*
X148219463Y-109755506D01*
X148160498Y-109865820D01*
X148124188Y-109985518D01*
X148111928Y-110110000D01*
X128660000Y-110110000D01*
X128660000Y-103996890D01*
X131358524Y-103996890D01*
X131403175Y-104144099D01*
X131528359Y-104406920D01*
X131702412Y-104640269D01*
X131918645Y-104835178D01*
X132168748Y-104984157D01*
X132443109Y-105081481D01*
X132673000Y-104960814D01*
X132673000Y-103767000D01*
X132927000Y-103767000D01*
X132927000Y-104960814D01*
X133156891Y-105081481D01*
X133431252Y-104984157D01*
X133681355Y-104835178D01*
X133897588Y-104640269D01*
X134071641Y-104406920D01*
X134196825Y-104144099D01*
X134241476Y-103996890D01*
X136958524Y-103996890D01*
X137003175Y-104144099D01*
X137128359Y-104406920D01*
X137302412Y-104640269D01*
X137518645Y-104835178D01*
X137768748Y-104984157D01*
X138043109Y-105081481D01*
X138273000Y-104960814D01*
X138273000Y-103767000D01*
X138527000Y-103767000D01*
X138527000Y-104960814D01*
X138756891Y-105081481D01*
X139031252Y-104984157D01*
X139281355Y-104835178D01*
X139497588Y-104640269D01*
X139671641Y-104406920D01*
X139796825Y-104144099D01*
X139841476Y-103996890D01*
X142558524Y-103996890D01*
X142603175Y-104144099D01*
X142728359Y-104406920D01*
X142902412Y-104640269D01*
X143118645Y-104835178D01*
X143368748Y-104984157D01*
X143643109Y-105081481D01*
X143873000Y-104960814D01*
X143873000Y-103767000D01*
X144127000Y-103767000D01*
X144127000Y-104960814D01*
X144356891Y-105081481D01*
X144631252Y-104984157D01*
X144881355Y-104835178D01*
X145097588Y-104640269D01*
X145271641Y-104406920D01*
X145396825Y-104144099D01*
X145441476Y-103996890D01*
X148158524Y-103996890D01*
X148203175Y-104144099D01*
X148328359Y-104406920D01*
X148502412Y-104640269D01*
X148718645Y-104835178D01*
X148968748Y-104984157D01*
X149243109Y-105081481D01*
X149473000Y-104960814D01*
X149473000Y-103767000D01*
X149727000Y-103767000D01*
X149727000Y-104960814D01*
X149956891Y-105081481D01*
X150231252Y-104984157D01*
X150481355Y-104835178D01*
X150697588Y-104640269D01*
X150871641Y-104406920D01*
X150996825Y-104144099D01*
X151041476Y-103996890D01*
X150920155Y-103767000D01*
X149727000Y-103767000D01*
X149473000Y-103767000D01*
X148279845Y-103767000D01*
X148158524Y-103996890D01*
X145441476Y-103996890D01*
X145320155Y-103767000D01*
X144127000Y-103767000D01*
X143873000Y-103767000D01*
X142679845Y-103767000D01*
X142558524Y-103996890D01*
X139841476Y-103996890D01*
X139720155Y-103767000D01*
X138527000Y-103767000D01*
X138273000Y-103767000D01*
X137079845Y-103767000D01*
X136958524Y-103996890D01*
X134241476Y-103996890D01*
X134120155Y-103767000D01*
X132927000Y-103767000D01*
X132673000Y-103767000D01*
X131479845Y-103767000D01*
X131358524Y-103996890D01*
X128660000Y-103996890D01*
X128660000Y-97178125D01*
X130714107Y-97178125D01*
X130714107Y-99760625D01*
X131545350Y-99760625D01*
X131498815Y-99798815D01*
X131419463Y-99895506D01*
X131360498Y-100005820D01*
X131324188Y-100125518D01*
X131311928Y-100250000D01*
X131311928Y-101950000D01*
X131324188Y-102074482D01*
X131360498Y-102194180D01*
X131419463Y-102304494D01*
X131498815Y-102401185D01*
X131595506Y-102480537D01*
X131705820Y-102539502D01*
X131786466Y-102563966D01*
X131702412Y-102639731D01*
X131528359Y-102873080D01*
X131403175Y-103135901D01*
X131358524Y-103283110D01*
X131479845Y-103513000D01*
X132673000Y-103513000D01*
X132673000Y-103493000D01*
X132927000Y-103493000D01*
X132927000Y-103513000D01*
X134120155Y-103513000D01*
X134241476Y-103283110D01*
X134196825Y-103135901D01*
X134071641Y-102873080D01*
X133897588Y-102639731D01*
X133813534Y-102563966D01*
X133894180Y-102539502D01*
X134004494Y-102480537D01*
X134101185Y-102401185D01*
X134180537Y-102304494D01*
X134239502Y-102194180D01*
X134275812Y-102074482D01*
X134288072Y-101950000D01*
X134288072Y-100250000D01*
X136911928Y-100250000D01*
X136911928Y-101950000D01*
X136924188Y-102074482D01*
X136960498Y-102194180D01*
X137019463Y-102304494D01*
X137098815Y-102401185D01*
X137195506Y-102480537D01*
X137305820Y-102539502D01*
X137386466Y-102563966D01*
X137302412Y-102639731D01*
X137128359Y-102873080D01*
X137003175Y-103135901D01*
X136958524Y-103283110D01*
X137079845Y-103513000D01*
X138273000Y-103513000D01*
X138273000Y-103493000D01*
X138527000Y-103493000D01*
X138527000Y-103513000D01*
X139720155Y-103513000D01*
X139841476Y-103283110D01*
X139796825Y-103135901D01*
X139671641Y-102873080D01*
X139497588Y-102639731D01*
X139413534Y-102563966D01*
X139494180Y-102539502D01*
X139604494Y-102480537D01*
X139701185Y-102401185D01*
X139780537Y-102304494D01*
X139839502Y-102194180D01*
X139875812Y-102074482D01*
X139888072Y-101950000D01*
X139888072Y-100250000D01*
X142511928Y-100250000D01*
X142511928Y-101950000D01*
X142524188Y-102074482D01*
X142560498Y-102194180D01*
X142619463Y-102304494D01*
X142698815Y-102401185D01*
X142795506Y-102480537D01*
X142905820Y-102539502D01*
X142986466Y-102563966D01*
X142902412Y-102639731D01*
X142728359Y-102873080D01*
X142603175Y-103135901D01*
X142558524Y-103283110D01*
X142679845Y-103513000D01*
X143873000Y-103513000D01*
X143873000Y-103493000D01*
X144127000Y-103493000D01*
X144127000Y-103513000D01*
X145320155Y-103513000D01*
X145441476Y-103283110D01*
X145396825Y-103135901D01*
X145271641Y-102873080D01*
X145097588Y-102639731D01*
X145013534Y-102563966D01*
X145094180Y-102539502D01*
X145204494Y-102480537D01*
X145301185Y-102401185D01*
X145380537Y-102304494D01*
X145439502Y-102194180D01*
X145475812Y-102074482D01*
X145488072Y-101950000D01*
X145488072Y-100250000D01*
X148111928Y-100250000D01*
X148111928Y-101950000D01*
X148124188Y-102074482D01*
X148160498Y-102194180D01*
X148219463Y-102304494D01*
X148298815Y-102401185D01*
X148395506Y-102480537D01*
X148505820Y-102539502D01*
X148586466Y-102563966D01*
X148502412Y-102639731D01*
X148328359Y-102873080D01*
X148203175Y-103135901D01*
X148158524Y-103283110D01*
X148279845Y-103513000D01*
X149473000Y-103513000D01*
X149473000Y-103493000D01*
X149727000Y-103493000D01*
X149727000Y-103513000D01*
X150920155Y-103513000D01*
X151041476Y-103283110D01*
X150996825Y-103135901D01*
X150871641Y-102873080D01*
X150697588Y-102639731D01*
X150613534Y-102563966D01*
X150694180Y-102539502D01*
X150804494Y-102480537D01*
X150901185Y-102401185D01*
X150980537Y-102304494D01*
X151039502Y-102194180D01*
X151075812Y-102074482D01*
X151088072Y-101950000D01*
X151088072Y-100250000D01*
X151075812Y-100125518D01*
X151039502Y-100005820D01*
X150980537Y-99895506D01*
X150901185Y-99798815D01*
X150804494Y-99719463D01*
X150694180Y-99660498D01*
X150574482Y-99624188D01*
X150450000Y-99611928D01*
X148750000Y-99611928D01*
X148625518Y-99624188D01*
X148505820Y-99660498D01*
X148395506Y-99719463D01*
X148298815Y-99798815D01*
X148219463Y-99895506D01*
X148160498Y-100005820D01*
X148124188Y-100125518D01*
X148111928Y-100250000D01*
X145488072Y-100250000D01*
X145475812Y-100125518D01*
X145439502Y-100005820D01*
X145380537Y-99895506D01*
X145301185Y-99798815D01*
X145204494Y-99719463D01*
X145094180Y-99660498D01*
X144974482Y-99624188D01*
X144850000Y-99611928D01*
X143150000Y-99611928D01*
X143025518Y-99624188D01*
X142905820Y-99660498D01*
X142795506Y-99719463D01*
X142698815Y-99798815D01*
X142619463Y-99895506D01*
X142560498Y-100005820D01*
X142524188Y-100125518D01*
X142511928Y-100250000D01*
X139888072Y-100250000D01*
X139875812Y-100125518D01*
X139839502Y-100005820D01*
X139780537Y-99895506D01*
X139701185Y-99798815D01*
X139604494Y-99719463D01*
X139494180Y-99660498D01*
X139374482Y-99624188D01*
X139250000Y-99611928D01*
X137550000Y-99611928D01*
X137425518Y-99624188D01*
X137305820Y-99660498D01*
X137195506Y-99719463D01*
X137098815Y-99798815D01*
X137019463Y-99895506D01*
X136960498Y-100005820D01*
X136924188Y-100125518D01*
X136911928Y-100250000D01*
X134288072Y-100250000D01*
X134275812Y-100125518D01*
X134239502Y-100005820D01*
X134180537Y-99895506D01*
X134101185Y-99798815D01*
X134004494Y-99719463D01*
X133894180Y-99660498D01*
X133774482Y-99624188D01*
X133650000Y-99611928D01*
X132885893Y-99611928D01*
X132885893Y-97178125D01*
X130714107Y-97178125D01*
X128660000Y-97178125D01*
X128660000Y-96963589D01*
X134215000Y-96963589D01*
X134215000Y-97236411D01*
X134268225Y-97503989D01*
X134372629Y-97756043D01*
X134524201Y-97982886D01*
X134717114Y-98175799D01*
X134943957Y-98327371D01*
X135196011Y-98431775D01*
X135463589Y-98485000D01*
X135736411Y-98485000D01*
X136003989Y-98431775D01*
X136256043Y-98327371D01*
X136482886Y-98175799D01*
X136523685Y-98135000D01*
X140276315Y-98135000D01*
X140317114Y-98175799D01*
X140543957Y-98327371D01*
X140796011Y-98431775D01*
X141063589Y-98485000D01*
X141336411Y-98485000D01*
X141603989Y-98431775D01*
X141856043Y-98327371D01*
X142082886Y-98175799D01*
X142123685Y-98135000D01*
X145876315Y-98135000D01*
X145917114Y-98175799D01*
X146143957Y-98327371D01*
X146396011Y-98431775D01*
X146663589Y-98485000D01*
X146936411Y-98485000D01*
X147203989Y-98431775D01*
X147456043Y-98327371D01*
X147682886Y-98175799D01*
X147723685Y-98135000D01*
X151258789Y-98135000D01*
X151324201Y-98232896D01*
X151517114Y-98425809D01*
X151743957Y-98577381D01*
X151996011Y-98681785D01*
X152263589Y-98735010D01*
X152536411Y-98735010D01*
X152803989Y-98681785D01*
X153056043Y-98577381D01*
X153282886Y-98425809D01*
X153475799Y-98232896D01*
X153541211Y-98135000D01*
X155322101Y-98135000D01*
X155067450Y-98389651D01*
X154806440Y-98780279D01*
X154626654Y-99214321D01*
X154535000Y-99675098D01*
X154535000Y-100144902D01*
X154626654Y-100605679D01*
X154806440Y-101039721D01*
X155067450Y-101430349D01*
X155399651Y-101762550D01*
X155790279Y-102023560D01*
X156224321Y-102203346D01*
X156685098Y-102295000D01*
X157154902Y-102295000D01*
X157615679Y-102203346D01*
X158049721Y-102023560D01*
X158440349Y-101762550D01*
X158772550Y-101430349D01*
X159033560Y-101039721D01*
X159213346Y-100605679D01*
X159305000Y-100144902D01*
X159305000Y-99675098D01*
X159213346Y-99214321D01*
X159033560Y-98780279D01*
X158772550Y-98389651D01*
X158517899Y-98135000D01*
X161712680Y-98135000D01*
X169273587Y-105695908D01*
X169305994Y-105735396D01*
X169345482Y-105767803D01*
X169463592Y-105864734D01*
X169559699Y-105916104D01*
X169643397Y-105960841D01*
X169838495Y-106020024D01*
X169990552Y-106035000D01*
X169990561Y-106035000D01*
X170041389Y-106040006D01*
X170092217Y-106035000D01*
X187828393Y-106035000D01*
X187828393Y-113685625D01*
X191545518Y-113685625D01*
X191653368Y-113793475D01*
X191835534Y-113915195D01*
X191718645Y-113984822D01*
X191502412Y-114179731D01*
X191328359Y-114413080D01*
X191203175Y-114675901D01*
X191158524Y-114823110D01*
X191279845Y-115053000D01*
X192473000Y-115053000D01*
X192473000Y-115033000D01*
X192727000Y-115033000D01*
X192727000Y-115053000D01*
X193920155Y-115053000D01*
X194041476Y-114823110D01*
X193996825Y-114675901D01*
X193871641Y-114413080D01*
X193697588Y-114179731D01*
X193481355Y-113984822D01*
X193364466Y-113915195D01*
X193546632Y-113793475D01*
X193753475Y-113586632D01*
X193915990Y-113343411D01*
X194027932Y-113073158D01*
X194085000Y-112786260D01*
X194085000Y-112493740D01*
X194027932Y-112206842D01*
X193915990Y-111936589D01*
X193753475Y-111693368D01*
X193546632Y-111486525D01*
X193372240Y-111370000D01*
X193546632Y-111253475D01*
X193753475Y-111046632D01*
X193915990Y-110803411D01*
X194027932Y-110533158D01*
X194085000Y-110246260D01*
X194085000Y-109953740D01*
X194027932Y-109666842D01*
X193915990Y-109396589D01*
X193753475Y-109153368D01*
X193546632Y-108946525D01*
X193372240Y-108830000D01*
X193546632Y-108713475D01*
X193753475Y-108506632D01*
X193915990Y-108263411D01*
X194027932Y-107993158D01*
X194085000Y-107706260D01*
X194085000Y-107413740D01*
X194027932Y-107126842D01*
X193915990Y-106856589D01*
X193753475Y-106613368D01*
X193621620Y-106481513D01*
X193694180Y-106459502D01*
X193804494Y-106400537D01*
X193901185Y-106321185D01*
X193980537Y-106224494D01*
X194039502Y-106114180D01*
X194075812Y-105994482D01*
X194088072Y-105870000D01*
X194088072Y-104170000D01*
X194075812Y-104045518D01*
X194039502Y-103925820D01*
X193980537Y-103815506D01*
X193901185Y-103718815D01*
X193804494Y-103639463D01*
X193694180Y-103580498D01*
X193574482Y-103544188D01*
X193450000Y-103531928D01*
X191750000Y-103531928D01*
X191625518Y-103544188D01*
X191505820Y-103580498D01*
X191395506Y-103639463D01*
X191298815Y-103718815D01*
X191219463Y-103815506D01*
X191160498Y-103925820D01*
X191124188Y-104045518D01*
X191111928Y-104170000D01*
X191111928Y-105853125D01*
X190695685Y-105853125D01*
X190827371Y-105656043D01*
X190931775Y-105403989D01*
X190985000Y-105136411D01*
X190985000Y-104863589D01*
X190931775Y-104596011D01*
X190827371Y-104343957D01*
X190675799Y-104117114D01*
X190482886Y-103924201D01*
X190256043Y-103772629D01*
X190003989Y-103668225D01*
X189736411Y-103615000D01*
X189463589Y-103615000D01*
X189196011Y-103668225D01*
X188943957Y-103772629D01*
X188717114Y-103924201D01*
X188676315Y-103965000D01*
X170470101Y-103965000D01*
X166180199Y-99675098D01*
X180035000Y-99675098D01*
X180035000Y-100144902D01*
X180126654Y-100605679D01*
X180306440Y-101039721D01*
X180567450Y-101430349D01*
X180899651Y-101762550D01*
X181290279Y-102023560D01*
X181724321Y-102203346D01*
X182185098Y-102295000D01*
X182654902Y-102295000D01*
X183115679Y-102203346D01*
X183549721Y-102023560D01*
X183940349Y-101762550D01*
X184272550Y-101430349D01*
X184533560Y-101039721D01*
X184713346Y-100605679D01*
X184805000Y-100144902D01*
X184805000Y-99675098D01*
X184713346Y-99214321D01*
X184533560Y-98780279D01*
X184272550Y-98389651D01*
X183940349Y-98057450D01*
X183549721Y-97796440D01*
X183115679Y-97616654D01*
X182654902Y-97525000D01*
X182185098Y-97525000D01*
X181724321Y-97616654D01*
X181290279Y-97796440D01*
X180899651Y-98057450D01*
X180567450Y-98389651D01*
X180306440Y-98780279D01*
X180126654Y-99214321D01*
X180035000Y-99675098D01*
X166180199Y-99675098D01*
X162909197Y-96404097D01*
X162876786Y-96364604D01*
X162719187Y-96235266D01*
X162539383Y-96139159D01*
X162344285Y-96079976D01*
X162192228Y-96065000D01*
X162192218Y-96065000D01*
X162141390Y-96059994D01*
X162090562Y-96065000D01*
X152916890Y-96065000D01*
X152803989Y-96018235D01*
X152536411Y-95965010D01*
X152263589Y-95965010D01*
X151996011Y-96018235D01*
X151883110Y-96065000D01*
X147723685Y-96065000D01*
X147682886Y-96024201D01*
X147456043Y-95872629D01*
X147203989Y-95768225D01*
X146936411Y-95715000D01*
X146663589Y-95715000D01*
X146396011Y-95768225D01*
X146143957Y-95872629D01*
X145917114Y-96024201D01*
X145876315Y-96065000D01*
X144734999Y-96065000D01*
X144734999Y-93314344D01*
X150615000Y-93314344D01*
X150615000Y-93685656D01*
X150687439Y-94049834D01*
X150829534Y-94392882D01*
X151035825Y-94701618D01*
X151298382Y-94964175D01*
X151607118Y-95170466D01*
X151950166Y-95312561D01*
X152314344Y-95385000D01*
X152685656Y-95385000D01*
X153049834Y-95312561D01*
X153392882Y-95170466D01*
X153701618Y-94964175D01*
X153964175Y-94701618D01*
X154170466Y-94392882D01*
X154312561Y-94049834D01*
X154385000Y-93685656D01*
X154385000Y-93314344D01*
X193615000Y-93314344D01*
X193615000Y-93685656D01*
X193687439Y-94049834D01*
X193829534Y-94392882D01*
X194035825Y-94701618D01*
X194298382Y-94964175D01*
X194607118Y-95170466D01*
X194950166Y-95312561D01*
X195314344Y-95385000D01*
X195685656Y-95385000D01*
X196049834Y-95312561D01*
X196392882Y-95170466D01*
X196701618Y-94964175D01*
X196964175Y-94701618D01*
X197170466Y-94392882D01*
X197312561Y-94049834D01*
X197385000Y-93685656D01*
X197385000Y-93314344D01*
X197312561Y-92950166D01*
X197170466Y-92607118D01*
X196964175Y-92298382D01*
X196701618Y-92035825D01*
X196392882Y-91829534D01*
X196049834Y-91687439D01*
X195685656Y-91615000D01*
X195314344Y-91615000D01*
X194950166Y-91687439D01*
X194607118Y-91829534D01*
X194298382Y-92035825D01*
X194035825Y-92298382D01*
X193829534Y-92607118D01*
X193687439Y-92950166D01*
X193615000Y-93314344D01*
X154385000Y-93314344D01*
X154312561Y-92950166D01*
X154170466Y-92607118D01*
X153964175Y-92298382D01*
X153701618Y-92035825D01*
X153392882Y-91829534D01*
X153049834Y-91687439D01*
X152685656Y-91615000D01*
X152314344Y-91615000D01*
X151950166Y-91687439D01*
X151607118Y-91829534D01*
X151298382Y-92035825D01*
X151035825Y-92298382D01*
X150829534Y-92607118D01*
X150687439Y-92950166D01*
X150615000Y-93314344D01*
X144734999Y-93314344D01*
X144734999Y-90523685D01*
X144775798Y-90482886D01*
X144927370Y-90256043D01*
X145031774Y-90003989D01*
X145084999Y-89736411D01*
X145084999Y-89463589D01*
X145031774Y-89196011D01*
X144927370Y-88943957D01*
X144775798Y-88717114D01*
X144582885Y-88524201D01*
X144535000Y-88492205D01*
X144535000Y-88133740D01*
X145515000Y-88133740D01*
X145515000Y-88426260D01*
X145572068Y-88713158D01*
X145684010Y-88983411D01*
X145846525Y-89226632D01*
X146053368Y-89433475D01*
X146296589Y-89595990D01*
X146566842Y-89707932D01*
X146853740Y-89765000D01*
X147146260Y-89765000D01*
X147433158Y-89707932D01*
X147703411Y-89595990D01*
X147946632Y-89433475D01*
X148153475Y-89226632D01*
X148315990Y-88983411D01*
X148427932Y-88713158D01*
X148485000Y-88426260D01*
X148485000Y-88133740D01*
X148427932Y-87846842D01*
X148315990Y-87576589D01*
X148153475Y-87333368D01*
X147946632Y-87126525D01*
X147764466Y-87004805D01*
X147881355Y-86935178D01*
X148097588Y-86740269D01*
X148271641Y-86506920D01*
X148396825Y-86244099D01*
X148441476Y-86096890D01*
X148320155Y-85867000D01*
X147127000Y-85867000D01*
X147127000Y-85887000D01*
X146873000Y-85887000D01*
X146873000Y-85867000D01*
X145679845Y-85867000D01*
X145558524Y-86096890D01*
X145603175Y-86244099D01*
X145728359Y-86506920D01*
X145902412Y-86740269D01*
X146118645Y-86935178D01*
X146235534Y-87004805D01*
X146053368Y-87126525D01*
X145846525Y-87333368D01*
X145684010Y-87576589D01*
X145572068Y-87846842D01*
X145515000Y-88133740D01*
X144535000Y-88133740D01*
X144535000Y-69650000D01*
X145511928Y-69650000D01*
X145511928Y-71350000D01*
X145524188Y-71474482D01*
X145560498Y-71594180D01*
X145619463Y-71704494D01*
X145698815Y-71801185D01*
X145795506Y-71880537D01*
X145905820Y-71939502D01*
X145978380Y-71961513D01*
X145846525Y-72093368D01*
X145684010Y-72336589D01*
X145572068Y-72606842D01*
X145515000Y-72893740D01*
X145515000Y-73186260D01*
X145572068Y-73473158D01*
X145684010Y-73743411D01*
X145846525Y-73986632D01*
X146053368Y-74193475D01*
X146227760Y-74310000D01*
X146053368Y-74426525D01*
X145846525Y-74633368D01*
X145684010Y-74876589D01*
X145572068Y-75146842D01*
X145515000Y-75433740D01*
X145515000Y-75726260D01*
X145572068Y-76013158D01*
X145684010Y-76283411D01*
X145846525Y-76526632D01*
X146053368Y-76733475D01*
X146227760Y-76850000D01*
X146053368Y-76966525D01*
X145846525Y-77173368D01*
X145684010Y-77416589D01*
X145572068Y-77686842D01*
X145515000Y-77973740D01*
X145515000Y-78266260D01*
X145572068Y-78553158D01*
X145684010Y-78823411D01*
X145846525Y-79066632D01*
X146053368Y-79273475D01*
X146227760Y-79390000D01*
X146053368Y-79506525D01*
X145846525Y-79713368D01*
X145684010Y-79956589D01*
X145572068Y-80226842D01*
X145515000Y-80513740D01*
X145515000Y-80806260D01*
X145572068Y-81093158D01*
X145684010Y-81363411D01*
X145846525Y-81606632D01*
X146053368Y-81813475D01*
X146227760Y-81930000D01*
X146053368Y-82046525D01*
X145846525Y-82253368D01*
X145684010Y-82496589D01*
X145572068Y-82766842D01*
X145515000Y-83053740D01*
X145515000Y-83346260D01*
X145572068Y-83633158D01*
X145684010Y-83903411D01*
X145846525Y-84146632D01*
X146053368Y-84353475D01*
X146235534Y-84475195D01*
X146118645Y-84544822D01*
X145902412Y-84739731D01*
X145728359Y-84973080D01*
X145603175Y-85235901D01*
X145558524Y-85383110D01*
X145679845Y-85613000D01*
X146873000Y-85613000D01*
X146873000Y-85593000D01*
X147127000Y-85593000D01*
X147127000Y-85613000D01*
X148320155Y-85613000D01*
X148441476Y-85383110D01*
X148396825Y-85235901D01*
X148271641Y-84973080D01*
X148097588Y-84739731D01*
X147881355Y-84544822D01*
X147764466Y-84475195D01*
X147946632Y-84353475D01*
X148153475Y-84146632D01*
X148315990Y-83903411D01*
X148427932Y-83633158D01*
X148472197Y-83410625D01*
X151732322Y-83410625D01*
X151732322Y-70328125D01*
X148488072Y-70328125D01*
X148488072Y-69650000D01*
X148475812Y-69525518D01*
X148439502Y-69405820D01*
X148380537Y-69295506D01*
X148301185Y-69198815D01*
X148204494Y-69119463D01*
X148094180Y-69060498D01*
X147974482Y-69024188D01*
X147850000Y-69011928D01*
X146150000Y-69011928D01*
X146025518Y-69024188D01*
X145905820Y-69060498D01*
X145795506Y-69119463D01*
X145698815Y-69198815D01*
X145619463Y-69295506D01*
X145560498Y-69405820D01*
X145524188Y-69525518D01*
X145511928Y-69650000D01*
X144535000Y-69650000D01*
X144535000Y-69454700D01*
X144623255Y-69446008D01*
X144789851Y-69395472D01*
X144943387Y-69313405D01*
X145077962Y-69202962D01*
X145188405Y-69068387D01*
X145270472Y-68914851D01*
X145321008Y-68748255D01*
X145338072Y-68575001D01*
X145338072Y-67924999D01*
X145321008Y-67751745D01*
X145270472Y-67585149D01*
X145188405Y-67431613D01*
X145077962Y-67297038D01*
X145071406Y-67291658D01*
X145151185Y-67226185D01*
X145230537Y-67129494D01*
X145289502Y-67019180D01*
X145325812Y-66899482D01*
X145338072Y-66775000D01*
X145335000Y-66485750D01*
X145176250Y-66327000D01*
X144127000Y-66327000D01*
X144127000Y-66347000D01*
X143873000Y-66347000D01*
X143873000Y-66327000D01*
X142823750Y-66327000D01*
X142665000Y-66485750D01*
X142661928Y-66775000D01*
X142674188Y-66899482D01*
X142710498Y-67019180D01*
X142769463Y-67129494D01*
X142848815Y-67226185D01*
X142928594Y-67291658D01*
X142922038Y-67297038D01*
X142811595Y-67431613D01*
X142729528Y-67585149D01*
X142678992Y-67751745D01*
X142661928Y-67924999D01*
X142661928Y-68124361D01*
X141969193Y-68817097D01*
X141847490Y-68766686D01*
X141577592Y-68713000D01*
X141302408Y-68713000D01*
X141032510Y-68766686D01*
X140778273Y-68871995D01*
X140549465Y-69024880D01*
X140354880Y-69219465D01*
X140201995Y-69448273D01*
X140170000Y-69525515D01*
X140138005Y-69448273D01*
X139985120Y-69219465D01*
X139790535Y-69024880D01*
X139561727Y-68871995D01*
X139307490Y-68766686D01*
X139037592Y-68713000D01*
X138762408Y-68713000D01*
X138492510Y-68766686D01*
X138238273Y-68871995D01*
X138009465Y-69024880D01*
X137814880Y-69219465D01*
X137661995Y-69448273D01*
X137556686Y-69702510D01*
X137503000Y-69972408D01*
X137503000Y-70247592D01*
X137556686Y-70517490D01*
X137661995Y-70771727D01*
X137814880Y-71000535D01*
X138009465Y-71195120D01*
X138238273Y-71348005D01*
X138315515Y-71380000D01*
X138238273Y-71411995D01*
X138009465Y-71564880D01*
X137814880Y-71759465D01*
X137661995Y-71988273D01*
X137556686Y-72242510D01*
X137503000Y-72512408D01*
X137503000Y-72787592D01*
X137556686Y-73057490D01*
X137661995Y-73311727D01*
X137814880Y-73540535D01*
X138009465Y-73735120D01*
X138238273Y-73888005D01*
X138309943Y-73917692D01*
X138296977Y-73922364D01*
X138181020Y-73984344D01*
X138114040Y-74224435D01*
X138900000Y-75010395D01*
X139685960Y-74224435D01*
X139618980Y-73984344D01*
X139483240Y-73920515D01*
X139561727Y-73888005D01*
X139790535Y-73735120D01*
X139985120Y-73540535D01*
X140138005Y-73311727D01*
X140170000Y-73234485D01*
X140201995Y-73311727D01*
X140354880Y-73540535D01*
X140549465Y-73735120D01*
X140778273Y-73888005D01*
X140855515Y-73920000D01*
X140778273Y-73951995D01*
X140549465Y-74104880D01*
X140354880Y-74299465D01*
X140201995Y-74528273D01*
X140172308Y-74599943D01*
X140167636Y-74586977D01*
X140105656Y-74471020D01*
X139865565Y-74404040D01*
X139079605Y-75190000D01*
X139865565Y-75975960D01*
X140105656Y-75908980D01*
X140169485Y-75773240D01*
X140201995Y-75851727D01*
X140354880Y-76080535D01*
X140549465Y-76275120D01*
X140778273Y-76428005D01*
X140855515Y-76460000D01*
X140778273Y-76491995D01*
X140549465Y-76644880D01*
X140354880Y-76839465D01*
X140201995Y-77068273D01*
X140170000Y-77145515D01*
X140138005Y-77068273D01*
X139985120Y-76839465D01*
X139790535Y-76644880D01*
X139561727Y-76491995D01*
X139490057Y-76462308D01*
X139503023Y-76457636D01*
X139618980Y-76395656D01*
X139685960Y-76155565D01*
X138900000Y-75369605D01*
X138114040Y-76155565D01*
X138181020Y-76395656D01*
X138316760Y-76459485D01*
X138238273Y-76491995D01*
X138009465Y-76644880D01*
X137814880Y-76839465D01*
X137661995Y-77068273D01*
X137556686Y-77322510D01*
X137503000Y-77592408D01*
X137503000Y-77867592D01*
X137556686Y-78137490D01*
X137661995Y-78391727D01*
X137814880Y-78620535D01*
X138009465Y-78815120D01*
X138238273Y-78968005D01*
X138315515Y-79000000D01*
X138238273Y-79031995D01*
X138009465Y-79184880D01*
X137814880Y-79379465D01*
X137661995Y-79608273D01*
X137556686Y-79862510D01*
X137503000Y-80132408D01*
X137503000Y-80407592D01*
X137556686Y-80677490D01*
X137661995Y-80931727D01*
X137814880Y-81160535D01*
X138009465Y-81355120D01*
X138238273Y-81508005D01*
X138315515Y-81540000D01*
X138238273Y-81571995D01*
X138009465Y-81724880D01*
X137814880Y-81919465D01*
X137661995Y-82148273D01*
X137556686Y-82402510D01*
X137503000Y-82672408D01*
X137503000Y-82947592D01*
X137556686Y-83217490D01*
X137661995Y-83471727D01*
X137814880Y-83700535D01*
X138009465Y-83895120D01*
X138238273Y-84048005D01*
X138315515Y-84080000D01*
X138238273Y-84111995D01*
X138009465Y-84264880D01*
X137814880Y-84459465D01*
X137661995Y-84688273D01*
X137556686Y-84942510D01*
X137503000Y-85212408D01*
X137503000Y-85487592D01*
X137556686Y-85757490D01*
X137661995Y-86011727D01*
X137814880Y-86240535D01*
X138009465Y-86435120D01*
X138238273Y-86588005D01*
X138315515Y-86620000D01*
X138238273Y-86651995D01*
X138009465Y-86804880D01*
X137814880Y-86999465D01*
X137661995Y-87228273D01*
X137556686Y-87482510D01*
X137503000Y-87752408D01*
X137503000Y-88027592D01*
X137556686Y-88297490D01*
X137661995Y-88551727D01*
X137814880Y-88780535D01*
X138009465Y-88975120D01*
X138238273Y-89128005D01*
X138492510Y-89233314D01*
X138762408Y-89287000D01*
X139037592Y-89287000D01*
X139307490Y-89233314D01*
X139561727Y-89128005D01*
X139790535Y-88975120D01*
X139985120Y-88780535D01*
X140138005Y-88551727D01*
X140170000Y-88474485D01*
X140201995Y-88551727D01*
X140354880Y-88780535D01*
X140549465Y-88975120D01*
X140778273Y-89128005D01*
X141032510Y-89233314D01*
X141302408Y-89287000D01*
X141577592Y-89287000D01*
X141847490Y-89233314D01*
X142101727Y-89128005D01*
X142330535Y-88975120D01*
X142465001Y-88840654D01*
X142465001Y-88962370D01*
X142368224Y-89196011D01*
X142314999Y-89463589D01*
X142314999Y-89736411D01*
X142368224Y-90003989D01*
X142472628Y-90256043D01*
X142624200Y-90482886D01*
X142664999Y-90523685D01*
X142664999Y-90711497D01*
X142665000Y-90711507D01*
X142664999Y-96065000D01*
X142123685Y-96065000D01*
X142082886Y-96024201D01*
X141856043Y-95872629D01*
X141603989Y-95768225D01*
X141336411Y-95715000D01*
X141063589Y-95715000D01*
X140796011Y-95768225D01*
X140543957Y-95872629D01*
X140317114Y-96024201D01*
X140276315Y-96065000D01*
X136523685Y-96065000D01*
X136482886Y-96024201D01*
X136256043Y-95872629D01*
X136003989Y-95768225D01*
X135736411Y-95715000D01*
X135463589Y-95715000D01*
X135196011Y-95768225D01*
X134943957Y-95872629D01*
X134717114Y-96024201D01*
X134524201Y-96217114D01*
X134372629Y-96443957D01*
X134268225Y-96696011D01*
X134215000Y-96963589D01*
X128660000Y-96963589D01*
X128660000Y-75262017D01*
X137498090Y-75262017D01*
X137539078Y-75534133D01*
X137632364Y-75793023D01*
X137694344Y-75908980D01*
X137934435Y-75975960D01*
X138720395Y-75190000D01*
X137934435Y-74404040D01*
X137694344Y-74471020D01*
X137577244Y-74720048D01*
X137510977Y-74987135D01*
X137498090Y-75262017D01*
X128660000Y-75262017D01*
X128660000Y-65625000D01*
X142661928Y-65625000D01*
X142665000Y-65914250D01*
X142823750Y-66073000D01*
X143873000Y-66073000D01*
X143873000Y-65148750D01*
X144127000Y-65148750D01*
X144127000Y-66073000D01*
X145176250Y-66073000D01*
X145335000Y-65914250D01*
X145338072Y-65625000D01*
X145325812Y-65500518D01*
X145289502Y-65380820D01*
X145253970Y-65314344D01*
X150615000Y-65314344D01*
X150615000Y-65685656D01*
X150687439Y-66049834D01*
X150829534Y-66392882D01*
X151035825Y-66701618D01*
X151298382Y-66964175D01*
X151607118Y-67170466D01*
X151950166Y-67312561D01*
X152314344Y-67385000D01*
X152685656Y-67385000D01*
X153049834Y-67312561D01*
X153392882Y-67170466D01*
X153701618Y-66964175D01*
X153964175Y-66701618D01*
X154170466Y-66392882D01*
X154312561Y-66049834D01*
X154385000Y-65685656D01*
X154385000Y-65314344D01*
X193615000Y-65314344D01*
X193615000Y-65685656D01*
X193687439Y-66049834D01*
X193829534Y-66392882D01*
X194035825Y-66701618D01*
X194298382Y-66964175D01*
X194607118Y-67170466D01*
X194950166Y-67312561D01*
X195314344Y-67385000D01*
X195685656Y-67385000D01*
X196049834Y-67312561D01*
X196392882Y-67170466D01*
X196701618Y-66964175D01*
X196964175Y-66701618D01*
X197170466Y-66392882D01*
X197312561Y-66049834D01*
X197385000Y-65685656D01*
X197385000Y-65314344D01*
X197312561Y-64950166D01*
X197170466Y-64607118D01*
X196964175Y-64298382D01*
X196701618Y-64035825D01*
X196392882Y-63829534D01*
X196049834Y-63687439D01*
X195685656Y-63615000D01*
X195314344Y-63615000D01*
X194950166Y-63687439D01*
X194607118Y-63829534D01*
X194298382Y-64035825D01*
X194035825Y-64298382D01*
X193829534Y-64607118D01*
X193687439Y-64950166D01*
X193615000Y-65314344D01*
X154385000Y-65314344D01*
X154312561Y-64950166D01*
X154170466Y-64607118D01*
X153964175Y-64298382D01*
X153701618Y-64035825D01*
X153392882Y-63829534D01*
X153049834Y-63687439D01*
X152685656Y-63615000D01*
X152314344Y-63615000D01*
X151950166Y-63687439D01*
X151607118Y-63829534D01*
X151298382Y-64035825D01*
X151035825Y-64298382D01*
X150829534Y-64607118D01*
X150687439Y-64950166D01*
X150615000Y-65314344D01*
X145253970Y-65314344D01*
X145230537Y-65270506D01*
X145151185Y-65173815D01*
X145054494Y-65094463D01*
X144944180Y-65035498D01*
X144824482Y-64999188D01*
X144700000Y-64986928D01*
X144285750Y-64990000D01*
X144127000Y-65148750D01*
X143873000Y-65148750D01*
X143714250Y-64990000D01*
X143300000Y-64986928D01*
X143175518Y-64999188D01*
X143055820Y-65035498D01*
X142945506Y-65094463D01*
X142848815Y-65173815D01*
X142769463Y-65270506D01*
X142710498Y-65380820D01*
X142674188Y-65500518D01*
X142661928Y-65625000D01*
X128660000Y-65625000D01*
X128660000Y-62910000D01*
X198340001Y-62910000D01*
X198340000Y-124340000D01*
M02*
