G04 #@! TF.GenerationSoftware,KiCad,Pcbnew,(5.1.5)-3*
G04 #@! TF.CreationDate,2020-04-23T23:50:09+02:00*
G04 #@! TF.ProjectId,User_Interface_Board,55736572-5f49-46e7-9465-72666163655f,rev?*
G04 #@! TF.SameCoordinates,Original*
G04 #@! TF.FileFunction,Paste,Top*
G04 #@! TF.FilePolarity,Positive*
%FSLAX46Y46*%
G04 Gerber Fmt 4.6, Leading zero omitted, Abs format (unit mm)*
G04 Created by KiCad (PCBNEW (5.1.5)-3) date 2020-04-23 23:50:09*
%MOMM*%
%LPD*%
G04 APERTURE LIST*
%ADD10C,0.100000*%
G04 APERTURE END LIST*
D10*
G36*
X144474910Y-65626202D02*
G01*
X144499135Y-65629795D01*
X144522891Y-65635746D01*
X144545949Y-65643996D01*
X144568087Y-65654467D01*
X144589093Y-65667057D01*
X144608763Y-65681645D01*
X144626908Y-65698092D01*
X144643355Y-65716237D01*
X144657943Y-65735907D01*
X144670533Y-65756913D01*
X144681004Y-65779051D01*
X144689254Y-65802109D01*
X144695205Y-65825865D01*
X144698798Y-65850090D01*
X144700000Y-65874550D01*
X144700000Y-66525450D01*
X144698798Y-66549910D01*
X144695205Y-66574135D01*
X144689254Y-66597891D01*
X144681004Y-66620949D01*
X144670533Y-66643087D01*
X144657943Y-66664093D01*
X144643355Y-66683763D01*
X144626908Y-66701908D01*
X144608763Y-66718355D01*
X144589093Y-66732943D01*
X144568087Y-66745533D01*
X144545949Y-66756004D01*
X144522891Y-66764254D01*
X144499135Y-66770205D01*
X144474910Y-66773798D01*
X144450450Y-66775000D01*
X143549550Y-66775000D01*
X143525090Y-66773798D01*
X143500865Y-66770205D01*
X143477109Y-66764254D01*
X143454051Y-66756004D01*
X143431913Y-66745533D01*
X143410907Y-66732943D01*
X143391237Y-66718355D01*
X143373092Y-66701908D01*
X143356645Y-66683763D01*
X143342057Y-66664093D01*
X143329467Y-66643087D01*
X143318996Y-66620949D01*
X143310746Y-66597891D01*
X143304795Y-66574135D01*
X143301202Y-66549910D01*
X143300000Y-66525450D01*
X143300000Y-65874550D01*
X143301202Y-65850090D01*
X143304795Y-65825865D01*
X143310746Y-65802109D01*
X143318996Y-65779051D01*
X143329467Y-65756913D01*
X143342057Y-65735907D01*
X143356645Y-65716237D01*
X143373092Y-65698092D01*
X143391237Y-65681645D01*
X143410907Y-65667057D01*
X143431913Y-65654467D01*
X143454051Y-65643996D01*
X143477109Y-65635746D01*
X143500865Y-65629795D01*
X143525090Y-65626202D01*
X143549550Y-65625000D01*
X144450450Y-65625000D01*
X144474910Y-65626202D01*
G37*
G36*
X144474505Y-67676204D02*
G01*
X144498773Y-67679804D01*
X144522572Y-67685765D01*
X144545671Y-67694030D01*
X144567850Y-67704520D01*
X144588893Y-67717132D01*
X144608599Y-67731747D01*
X144626777Y-67748223D01*
X144643253Y-67766401D01*
X144657868Y-67786107D01*
X144670480Y-67807150D01*
X144680970Y-67829329D01*
X144689235Y-67852428D01*
X144695196Y-67876227D01*
X144698796Y-67900495D01*
X144700000Y-67924999D01*
X144700000Y-68575001D01*
X144698796Y-68599505D01*
X144695196Y-68623773D01*
X144689235Y-68647572D01*
X144680970Y-68670671D01*
X144670480Y-68692850D01*
X144657868Y-68713893D01*
X144643253Y-68733599D01*
X144626777Y-68751777D01*
X144608599Y-68768253D01*
X144588893Y-68782868D01*
X144567850Y-68795480D01*
X144545671Y-68805970D01*
X144522572Y-68814235D01*
X144498773Y-68820196D01*
X144474505Y-68823796D01*
X144450001Y-68825000D01*
X143549999Y-68825000D01*
X143525495Y-68823796D01*
X143501227Y-68820196D01*
X143477428Y-68814235D01*
X143454329Y-68805970D01*
X143432150Y-68795480D01*
X143411107Y-68782868D01*
X143391401Y-68768253D01*
X143373223Y-68751777D01*
X143356747Y-68733599D01*
X143342132Y-68713893D01*
X143329520Y-68692850D01*
X143319030Y-68670671D01*
X143310765Y-68647572D01*
X143304804Y-68623773D01*
X143301204Y-68599505D01*
X143300000Y-68575001D01*
X143300000Y-67924999D01*
X143301204Y-67900495D01*
X143304804Y-67876227D01*
X143310765Y-67852428D01*
X143319030Y-67829329D01*
X143329520Y-67807150D01*
X143342132Y-67786107D01*
X143356747Y-67766401D01*
X143373223Y-67748223D01*
X143391401Y-67731747D01*
X143411107Y-67717132D01*
X143432150Y-67704520D01*
X143454329Y-67694030D01*
X143477428Y-67685765D01*
X143501227Y-67679804D01*
X143525495Y-67676204D01*
X143549999Y-67675000D01*
X144450001Y-67675000D01*
X144474505Y-67676204D01*
G37*
M02*
