G04 #@! TF.GenerationSoftware,KiCad,Pcbnew,(5.1.5)-3*
G04 #@! TF.CreationDate,2020-04-23T23:50:09+02:00*
G04 #@! TF.ProjectId,User_Interface_Board,55736572-5f49-46e7-9465-72666163655f,rev?*
G04 #@! TF.SameCoordinates,Original*
G04 #@! TF.FileFunction,Soldermask,Bot*
G04 #@! TF.FilePolarity,Negative*
%FSLAX46Y46*%
G04 Gerber Fmt 4.6, Leading zero omitted, Abs format (unit mm)*
G04 Created by KiCad (PCBNEW (5.1.5)-3) date 2020-04-23 23:50:09*
%MOMM*%
%LPD*%
G04 APERTURE LIST*
%ADD10C,0.100000*%
G04 APERTURE END LIST*
D10*
G36*
X149713512Y-115143927D02*
G01*
X149862812Y-115173624D01*
X150026784Y-115241544D01*
X150174354Y-115340147D01*
X150299853Y-115465646D01*
X150398456Y-115613216D01*
X150466376Y-115777188D01*
X150501000Y-115951259D01*
X150501000Y-116128741D01*
X150466376Y-116302812D01*
X150398456Y-116466784D01*
X150299853Y-116614354D01*
X150174354Y-116739853D01*
X150026784Y-116838456D01*
X149862812Y-116906376D01*
X149713512Y-116936073D01*
X149688742Y-116941000D01*
X149511258Y-116941000D01*
X149486488Y-116936073D01*
X149337188Y-116906376D01*
X149173216Y-116838456D01*
X149025646Y-116739853D01*
X148900147Y-116614354D01*
X148801544Y-116466784D01*
X148733624Y-116302812D01*
X148699000Y-116128741D01*
X148699000Y-115951259D01*
X148733624Y-115777188D01*
X148801544Y-115613216D01*
X148900147Y-115465646D01*
X149025646Y-115340147D01*
X149173216Y-115241544D01*
X149337188Y-115173624D01*
X149486488Y-115143927D01*
X149511258Y-115139000D01*
X149688742Y-115139000D01*
X149713512Y-115143927D01*
G37*
G36*
X192713512Y-114283927D02*
G01*
X192862812Y-114313624D01*
X193026784Y-114381544D01*
X193174354Y-114480147D01*
X193299853Y-114605646D01*
X193398456Y-114753216D01*
X193466376Y-114917188D01*
X193501000Y-115091259D01*
X193501000Y-115268741D01*
X193466376Y-115442812D01*
X193398456Y-115606784D01*
X193299853Y-115754354D01*
X193174354Y-115879853D01*
X193026784Y-115978456D01*
X192862812Y-116046376D01*
X192713512Y-116076073D01*
X192688742Y-116081000D01*
X192511258Y-116081000D01*
X192486488Y-116076073D01*
X192337188Y-116046376D01*
X192173216Y-115978456D01*
X192025646Y-115879853D01*
X191900147Y-115754354D01*
X191801544Y-115606784D01*
X191733624Y-115442812D01*
X191699000Y-115268741D01*
X191699000Y-115091259D01*
X191733624Y-114917188D01*
X191801544Y-114753216D01*
X191900147Y-114605646D01*
X192025646Y-114480147D01*
X192173216Y-114381544D01*
X192337188Y-114313624D01*
X192486488Y-114283927D01*
X192511258Y-114279000D01*
X192688742Y-114279000D01*
X192713512Y-114283927D01*
G37*
G36*
X149713512Y-112603927D02*
G01*
X149862812Y-112633624D01*
X150026784Y-112701544D01*
X150174354Y-112800147D01*
X150299853Y-112925646D01*
X150398456Y-113073216D01*
X150466376Y-113237188D01*
X150501000Y-113411259D01*
X150501000Y-113588741D01*
X150466376Y-113762812D01*
X150398456Y-113926784D01*
X150299853Y-114074354D01*
X150174354Y-114199853D01*
X150026784Y-114298456D01*
X149862812Y-114366376D01*
X149713512Y-114396073D01*
X149688742Y-114401000D01*
X149511258Y-114401000D01*
X149486488Y-114396073D01*
X149337188Y-114366376D01*
X149173216Y-114298456D01*
X149025646Y-114199853D01*
X148900147Y-114074354D01*
X148801544Y-113926784D01*
X148733624Y-113762812D01*
X148699000Y-113588741D01*
X148699000Y-113411259D01*
X148733624Y-113237188D01*
X148801544Y-113073216D01*
X148900147Y-112925646D01*
X149025646Y-112800147D01*
X149173216Y-112701544D01*
X149337188Y-112633624D01*
X149486488Y-112603927D01*
X149511258Y-112599000D01*
X149688742Y-112599000D01*
X149713512Y-112603927D01*
G37*
G36*
X192713512Y-111743927D02*
G01*
X192862812Y-111773624D01*
X193026784Y-111841544D01*
X193174354Y-111940147D01*
X193299853Y-112065646D01*
X193398456Y-112213216D01*
X193466376Y-112377188D01*
X193501000Y-112551259D01*
X193501000Y-112728741D01*
X193466376Y-112902812D01*
X193398456Y-113066784D01*
X193299853Y-113214354D01*
X193174354Y-113339853D01*
X193026784Y-113438456D01*
X192862812Y-113506376D01*
X192713512Y-113536073D01*
X192688742Y-113541000D01*
X192511258Y-113541000D01*
X192486488Y-113536073D01*
X192337188Y-113506376D01*
X192173216Y-113438456D01*
X192025646Y-113339853D01*
X191900147Y-113214354D01*
X191801544Y-113066784D01*
X191733624Y-112902812D01*
X191699000Y-112728741D01*
X191699000Y-112551259D01*
X191733624Y-112377188D01*
X191801544Y-112213216D01*
X191900147Y-112065646D01*
X192025646Y-111940147D01*
X192173216Y-111841544D01*
X192337188Y-111773624D01*
X192486488Y-111743927D01*
X192511258Y-111739000D01*
X192688742Y-111739000D01*
X192713512Y-111743927D01*
G37*
G36*
X150501000Y-111861000D02*
G01*
X148699000Y-111861000D01*
X148699000Y-110059000D01*
X150501000Y-110059000D01*
X150501000Y-111861000D01*
G37*
G36*
X192713512Y-109203927D02*
G01*
X192862812Y-109233624D01*
X193026784Y-109301544D01*
X193174354Y-109400147D01*
X193299853Y-109525646D01*
X193398456Y-109673216D01*
X193466376Y-109837188D01*
X193501000Y-110011259D01*
X193501000Y-110188741D01*
X193466376Y-110362812D01*
X193398456Y-110526784D01*
X193299853Y-110674354D01*
X193174354Y-110799853D01*
X193026784Y-110898456D01*
X192862812Y-110966376D01*
X192713512Y-110996073D01*
X192688742Y-111001000D01*
X192511258Y-111001000D01*
X192486488Y-110996073D01*
X192337188Y-110966376D01*
X192173216Y-110898456D01*
X192025646Y-110799853D01*
X191900147Y-110674354D01*
X191801544Y-110526784D01*
X191733624Y-110362812D01*
X191699000Y-110188741D01*
X191699000Y-110011259D01*
X191733624Y-109837188D01*
X191801544Y-109673216D01*
X191900147Y-109525646D01*
X192025646Y-109400147D01*
X192173216Y-109301544D01*
X192337188Y-109233624D01*
X192486488Y-109203927D01*
X192511258Y-109199000D01*
X192688742Y-109199000D01*
X192713512Y-109203927D01*
G37*
G36*
X192713512Y-106663927D02*
G01*
X192862812Y-106693624D01*
X193026784Y-106761544D01*
X193174354Y-106860147D01*
X193299853Y-106985646D01*
X193398456Y-107133216D01*
X193466376Y-107297188D01*
X193501000Y-107471259D01*
X193501000Y-107648741D01*
X193466376Y-107822812D01*
X193398456Y-107986784D01*
X193299853Y-108134354D01*
X193174354Y-108259853D01*
X193026784Y-108358456D01*
X192862812Y-108426376D01*
X192713512Y-108456073D01*
X192688742Y-108461000D01*
X192511258Y-108461000D01*
X192486488Y-108456073D01*
X192337188Y-108426376D01*
X192173216Y-108358456D01*
X192025646Y-108259853D01*
X191900147Y-108134354D01*
X191801544Y-107986784D01*
X191733624Y-107822812D01*
X191699000Y-107648741D01*
X191699000Y-107471259D01*
X191733624Y-107297188D01*
X191801544Y-107133216D01*
X191900147Y-106985646D01*
X192025646Y-106860147D01*
X192173216Y-106761544D01*
X192337188Y-106693624D01*
X192486488Y-106663927D01*
X192511258Y-106659000D01*
X192688742Y-106659000D01*
X192713512Y-106663927D01*
G37*
G36*
X193501000Y-105921000D02*
G01*
X191699000Y-105921000D01*
X191699000Y-104119000D01*
X193501000Y-104119000D01*
X193501000Y-105921000D01*
G37*
G36*
X132913512Y-102743927D02*
G01*
X133062812Y-102773624D01*
X133226784Y-102841544D01*
X133374354Y-102940147D01*
X133499853Y-103065646D01*
X133598456Y-103213216D01*
X133666376Y-103377188D01*
X133701000Y-103551259D01*
X133701000Y-103728741D01*
X133666376Y-103902812D01*
X133598456Y-104066784D01*
X133499853Y-104214354D01*
X133374354Y-104339853D01*
X133226784Y-104438456D01*
X133062812Y-104506376D01*
X132913512Y-104536073D01*
X132888742Y-104541000D01*
X132711258Y-104541000D01*
X132686488Y-104536073D01*
X132537188Y-104506376D01*
X132373216Y-104438456D01*
X132225646Y-104339853D01*
X132100147Y-104214354D01*
X132001544Y-104066784D01*
X131933624Y-103902812D01*
X131899000Y-103728741D01*
X131899000Y-103551259D01*
X131933624Y-103377188D01*
X132001544Y-103213216D01*
X132100147Y-103065646D01*
X132225646Y-102940147D01*
X132373216Y-102841544D01*
X132537188Y-102773624D01*
X132686488Y-102743927D01*
X132711258Y-102739000D01*
X132888742Y-102739000D01*
X132913512Y-102743927D01*
G37*
G36*
X138513512Y-102743927D02*
G01*
X138662812Y-102773624D01*
X138826784Y-102841544D01*
X138974354Y-102940147D01*
X139099853Y-103065646D01*
X139198456Y-103213216D01*
X139266376Y-103377188D01*
X139301000Y-103551259D01*
X139301000Y-103728741D01*
X139266376Y-103902812D01*
X139198456Y-104066784D01*
X139099853Y-104214354D01*
X138974354Y-104339853D01*
X138826784Y-104438456D01*
X138662812Y-104506376D01*
X138513512Y-104536073D01*
X138488742Y-104541000D01*
X138311258Y-104541000D01*
X138286488Y-104536073D01*
X138137188Y-104506376D01*
X137973216Y-104438456D01*
X137825646Y-104339853D01*
X137700147Y-104214354D01*
X137601544Y-104066784D01*
X137533624Y-103902812D01*
X137499000Y-103728741D01*
X137499000Y-103551259D01*
X137533624Y-103377188D01*
X137601544Y-103213216D01*
X137700147Y-103065646D01*
X137825646Y-102940147D01*
X137973216Y-102841544D01*
X138137188Y-102773624D01*
X138286488Y-102743927D01*
X138311258Y-102739000D01*
X138488742Y-102739000D01*
X138513512Y-102743927D01*
G37*
G36*
X144113512Y-102743927D02*
G01*
X144262812Y-102773624D01*
X144426784Y-102841544D01*
X144574354Y-102940147D01*
X144699853Y-103065646D01*
X144798456Y-103213216D01*
X144866376Y-103377188D01*
X144901000Y-103551259D01*
X144901000Y-103728741D01*
X144866376Y-103902812D01*
X144798456Y-104066784D01*
X144699853Y-104214354D01*
X144574354Y-104339853D01*
X144426784Y-104438456D01*
X144262812Y-104506376D01*
X144113512Y-104536073D01*
X144088742Y-104541000D01*
X143911258Y-104541000D01*
X143886488Y-104536073D01*
X143737188Y-104506376D01*
X143573216Y-104438456D01*
X143425646Y-104339853D01*
X143300147Y-104214354D01*
X143201544Y-104066784D01*
X143133624Y-103902812D01*
X143099000Y-103728741D01*
X143099000Y-103551259D01*
X143133624Y-103377188D01*
X143201544Y-103213216D01*
X143300147Y-103065646D01*
X143425646Y-102940147D01*
X143573216Y-102841544D01*
X143737188Y-102773624D01*
X143886488Y-102743927D01*
X143911258Y-102739000D01*
X144088742Y-102739000D01*
X144113512Y-102743927D01*
G37*
G36*
X149713512Y-102743927D02*
G01*
X149862812Y-102773624D01*
X150026784Y-102841544D01*
X150174354Y-102940147D01*
X150299853Y-103065646D01*
X150398456Y-103213216D01*
X150466376Y-103377188D01*
X150501000Y-103551259D01*
X150501000Y-103728741D01*
X150466376Y-103902812D01*
X150398456Y-104066784D01*
X150299853Y-104214354D01*
X150174354Y-104339853D01*
X150026784Y-104438456D01*
X149862812Y-104506376D01*
X149713512Y-104536073D01*
X149688742Y-104541000D01*
X149511258Y-104541000D01*
X149486488Y-104536073D01*
X149337188Y-104506376D01*
X149173216Y-104438456D01*
X149025646Y-104339853D01*
X148900147Y-104214354D01*
X148801544Y-104066784D01*
X148733624Y-103902812D01*
X148699000Y-103728741D01*
X148699000Y-103551259D01*
X148733624Y-103377188D01*
X148801544Y-103213216D01*
X148900147Y-103065646D01*
X149025646Y-102940147D01*
X149173216Y-102841544D01*
X149337188Y-102773624D01*
X149486488Y-102743927D01*
X149511258Y-102739000D01*
X149688742Y-102739000D01*
X149713512Y-102743927D01*
G37*
G36*
X139301000Y-102001000D02*
G01*
X137499000Y-102001000D01*
X137499000Y-100199000D01*
X139301000Y-100199000D01*
X139301000Y-102001000D01*
G37*
G36*
X150501000Y-102001000D02*
G01*
X148699000Y-102001000D01*
X148699000Y-100199000D01*
X150501000Y-100199000D01*
X150501000Y-102001000D01*
G37*
G36*
X144901000Y-102001000D02*
G01*
X143099000Y-102001000D01*
X143099000Y-100199000D01*
X144901000Y-100199000D01*
X144901000Y-102001000D01*
G37*
G36*
X133701000Y-102001000D02*
G01*
X131899000Y-102001000D01*
X131899000Y-100199000D01*
X133701000Y-100199000D01*
X133701000Y-102001000D01*
G37*
G36*
X136188674Y-100478465D02*
G01*
X136226367Y-100489899D01*
X136261103Y-100508466D01*
X136291548Y-100533452D01*
X136316534Y-100563897D01*
X136335101Y-100598633D01*
X136346535Y-100636326D01*
X136351000Y-100681661D01*
X136351000Y-101518339D01*
X136346535Y-101563674D01*
X136335101Y-101601367D01*
X136316534Y-101636103D01*
X136291548Y-101666548D01*
X136261103Y-101691534D01*
X136226367Y-101710101D01*
X136188674Y-101721535D01*
X136143339Y-101726000D01*
X135056661Y-101726000D01*
X135011326Y-101721535D01*
X134973633Y-101710101D01*
X134938897Y-101691534D01*
X134908452Y-101666548D01*
X134883466Y-101636103D01*
X134864899Y-101601367D01*
X134853465Y-101563674D01*
X134849000Y-101518339D01*
X134849000Y-100681661D01*
X134853465Y-100636326D01*
X134864899Y-100598633D01*
X134883466Y-100563897D01*
X134908452Y-100533452D01*
X134938897Y-100508466D01*
X134973633Y-100489899D01*
X135011326Y-100478465D01*
X135056661Y-100474000D01*
X136143339Y-100474000D01*
X136188674Y-100478465D01*
G37*
G36*
X141788674Y-100478465D02*
G01*
X141826367Y-100489899D01*
X141861103Y-100508466D01*
X141891548Y-100533452D01*
X141916534Y-100563897D01*
X141935101Y-100598633D01*
X141946535Y-100636326D01*
X141951000Y-100681661D01*
X141951000Y-101518339D01*
X141946535Y-101563674D01*
X141935101Y-101601367D01*
X141916534Y-101636103D01*
X141891548Y-101666548D01*
X141861103Y-101691534D01*
X141826367Y-101710101D01*
X141788674Y-101721535D01*
X141743339Y-101726000D01*
X140656661Y-101726000D01*
X140611326Y-101721535D01*
X140573633Y-101710101D01*
X140538897Y-101691534D01*
X140508452Y-101666548D01*
X140483466Y-101636103D01*
X140464899Y-101601367D01*
X140453465Y-101563674D01*
X140449000Y-101518339D01*
X140449000Y-100681661D01*
X140453465Y-100636326D01*
X140464899Y-100598633D01*
X140483466Y-100563897D01*
X140508452Y-100533452D01*
X140538897Y-100508466D01*
X140573633Y-100489899D01*
X140611326Y-100478465D01*
X140656661Y-100474000D01*
X141743339Y-100474000D01*
X141788674Y-100478465D01*
G37*
G36*
X147388674Y-100478465D02*
G01*
X147426367Y-100489899D01*
X147461103Y-100508466D01*
X147491548Y-100533452D01*
X147516534Y-100563897D01*
X147535101Y-100598633D01*
X147546535Y-100636326D01*
X147551000Y-100681661D01*
X147551000Y-101518339D01*
X147546535Y-101563674D01*
X147535101Y-101601367D01*
X147516534Y-101636103D01*
X147491548Y-101666548D01*
X147461103Y-101691534D01*
X147426367Y-101710101D01*
X147388674Y-101721535D01*
X147343339Y-101726000D01*
X146256661Y-101726000D01*
X146211326Y-101721535D01*
X146173633Y-101710101D01*
X146138897Y-101691534D01*
X146108452Y-101666548D01*
X146083466Y-101636103D01*
X146064899Y-101601367D01*
X146053465Y-101563674D01*
X146049000Y-101518339D01*
X146049000Y-100681661D01*
X146053465Y-100636326D01*
X146064899Y-100598633D01*
X146083466Y-100563897D01*
X146108452Y-100533452D01*
X146138897Y-100508466D01*
X146173633Y-100489899D01*
X146211326Y-100478465D01*
X146256661Y-100474000D01*
X147343339Y-100474000D01*
X147388674Y-100478465D01*
G37*
G36*
X152988674Y-100478465D02*
G01*
X153026367Y-100489899D01*
X153061103Y-100508466D01*
X153091548Y-100533452D01*
X153116534Y-100563897D01*
X153135101Y-100598633D01*
X153146535Y-100636326D01*
X153151000Y-100681661D01*
X153151000Y-101518339D01*
X153146535Y-101563674D01*
X153135101Y-101601367D01*
X153116534Y-101636103D01*
X153091548Y-101666548D01*
X153061103Y-101691534D01*
X153026367Y-101710101D01*
X152988674Y-101721535D01*
X152943339Y-101726000D01*
X151856661Y-101726000D01*
X151811326Y-101721535D01*
X151773633Y-101710101D01*
X151738897Y-101691534D01*
X151708452Y-101666548D01*
X151683466Y-101636103D01*
X151664899Y-101601367D01*
X151653465Y-101563674D01*
X151649000Y-101518339D01*
X151649000Y-100681661D01*
X151653465Y-100636326D01*
X151664899Y-100598633D01*
X151683466Y-100563897D01*
X151708452Y-100533452D01*
X151738897Y-100508466D01*
X151773633Y-100489899D01*
X151811326Y-100478465D01*
X151856661Y-100474000D01*
X152943339Y-100474000D01*
X152988674Y-100478465D01*
G37*
G36*
X136188674Y-98428465D02*
G01*
X136226367Y-98439899D01*
X136261103Y-98458466D01*
X136291548Y-98483452D01*
X136316534Y-98513897D01*
X136335101Y-98548633D01*
X136346535Y-98586326D01*
X136351000Y-98631661D01*
X136351000Y-99468339D01*
X136346535Y-99513674D01*
X136335101Y-99551367D01*
X136316534Y-99586103D01*
X136291548Y-99616548D01*
X136261103Y-99641534D01*
X136226367Y-99660101D01*
X136188674Y-99671535D01*
X136143339Y-99676000D01*
X135056661Y-99676000D01*
X135011326Y-99671535D01*
X134973633Y-99660101D01*
X134938897Y-99641534D01*
X134908452Y-99616548D01*
X134883466Y-99586103D01*
X134864899Y-99551367D01*
X134853465Y-99513674D01*
X134849000Y-99468339D01*
X134849000Y-98631661D01*
X134853465Y-98586326D01*
X134864899Y-98548633D01*
X134883466Y-98513897D01*
X134908452Y-98483452D01*
X134938897Y-98458466D01*
X134973633Y-98439899D01*
X135011326Y-98428465D01*
X135056661Y-98424000D01*
X136143339Y-98424000D01*
X136188674Y-98428465D01*
G37*
G36*
X141788674Y-98428465D02*
G01*
X141826367Y-98439899D01*
X141861103Y-98458466D01*
X141891548Y-98483452D01*
X141916534Y-98513897D01*
X141935101Y-98548633D01*
X141946535Y-98586326D01*
X141951000Y-98631661D01*
X141951000Y-99468339D01*
X141946535Y-99513674D01*
X141935101Y-99551367D01*
X141916534Y-99586103D01*
X141891548Y-99616548D01*
X141861103Y-99641534D01*
X141826367Y-99660101D01*
X141788674Y-99671535D01*
X141743339Y-99676000D01*
X140656661Y-99676000D01*
X140611326Y-99671535D01*
X140573633Y-99660101D01*
X140538897Y-99641534D01*
X140508452Y-99616548D01*
X140483466Y-99586103D01*
X140464899Y-99551367D01*
X140453465Y-99513674D01*
X140449000Y-99468339D01*
X140449000Y-98631661D01*
X140453465Y-98586326D01*
X140464899Y-98548633D01*
X140483466Y-98513897D01*
X140508452Y-98483452D01*
X140538897Y-98458466D01*
X140573633Y-98439899D01*
X140611326Y-98428465D01*
X140656661Y-98424000D01*
X141743339Y-98424000D01*
X141788674Y-98428465D01*
G37*
G36*
X147388674Y-98428465D02*
G01*
X147426367Y-98439899D01*
X147461103Y-98458466D01*
X147491548Y-98483452D01*
X147516534Y-98513897D01*
X147535101Y-98548633D01*
X147546535Y-98586326D01*
X147551000Y-98631661D01*
X147551000Y-99468339D01*
X147546535Y-99513674D01*
X147535101Y-99551367D01*
X147516534Y-99586103D01*
X147491548Y-99616548D01*
X147461103Y-99641534D01*
X147426367Y-99660101D01*
X147388674Y-99671535D01*
X147343339Y-99676000D01*
X146256661Y-99676000D01*
X146211326Y-99671535D01*
X146173633Y-99660101D01*
X146138897Y-99641534D01*
X146108452Y-99616548D01*
X146083466Y-99586103D01*
X146064899Y-99551367D01*
X146053465Y-99513674D01*
X146049000Y-99468339D01*
X146049000Y-98631661D01*
X146053465Y-98586326D01*
X146064899Y-98548633D01*
X146083466Y-98513897D01*
X146108452Y-98483452D01*
X146138897Y-98458466D01*
X146173633Y-98439899D01*
X146211326Y-98428465D01*
X146256661Y-98424000D01*
X147343339Y-98424000D01*
X147388674Y-98428465D01*
G37*
G36*
X152988674Y-98428465D02*
G01*
X153026367Y-98439899D01*
X153061103Y-98458466D01*
X153091548Y-98483452D01*
X153116534Y-98513897D01*
X153135101Y-98548633D01*
X153146535Y-98586326D01*
X153151000Y-98631661D01*
X153151000Y-99468339D01*
X153146535Y-99513674D01*
X153135101Y-99551367D01*
X153116534Y-99586103D01*
X153091548Y-99616548D01*
X153061103Y-99641534D01*
X153026367Y-99660101D01*
X152988674Y-99671535D01*
X152943339Y-99676000D01*
X151856661Y-99676000D01*
X151811326Y-99671535D01*
X151773633Y-99660101D01*
X151738897Y-99641534D01*
X151708452Y-99616548D01*
X151683466Y-99586103D01*
X151664899Y-99551367D01*
X151653465Y-99513674D01*
X151649000Y-99468339D01*
X151649000Y-98631661D01*
X151653465Y-98586326D01*
X151664899Y-98548633D01*
X151683466Y-98513897D01*
X151708452Y-98483452D01*
X151738897Y-98458466D01*
X151773633Y-98439899D01*
X151811326Y-98428465D01*
X151856661Y-98424000D01*
X152943339Y-98424000D01*
X152988674Y-98428465D01*
G37*
G36*
X147113512Y-87383927D02*
G01*
X147262812Y-87413624D01*
X147426784Y-87481544D01*
X147574354Y-87580147D01*
X147699853Y-87705646D01*
X147798456Y-87853216D01*
X147866376Y-88017188D01*
X147901000Y-88191259D01*
X147901000Y-88368741D01*
X147866376Y-88542812D01*
X147798456Y-88706784D01*
X147699853Y-88854354D01*
X147574354Y-88979853D01*
X147426784Y-89078456D01*
X147262812Y-89146376D01*
X147113512Y-89176073D01*
X147088742Y-89181000D01*
X146911258Y-89181000D01*
X146886488Y-89176073D01*
X146737188Y-89146376D01*
X146573216Y-89078456D01*
X146425646Y-88979853D01*
X146300147Y-88854354D01*
X146201544Y-88706784D01*
X146133624Y-88542812D01*
X146099000Y-88368741D01*
X146099000Y-88191259D01*
X146133624Y-88017188D01*
X146201544Y-87853216D01*
X146300147Y-87705646D01*
X146425646Y-87580147D01*
X146573216Y-87481544D01*
X146737188Y-87413624D01*
X146886488Y-87383927D01*
X146911258Y-87379000D01*
X147088742Y-87379000D01*
X147113512Y-87383927D01*
G37*
G36*
X141677142Y-87108242D02*
G01*
X141825101Y-87169529D01*
X141958255Y-87258499D01*
X142071501Y-87371745D01*
X142160471Y-87504899D01*
X142221758Y-87652858D01*
X142253000Y-87809925D01*
X142253000Y-87970075D01*
X142221758Y-88127142D01*
X142160471Y-88275101D01*
X142071501Y-88408255D01*
X141958255Y-88521501D01*
X141825101Y-88610471D01*
X141677142Y-88671758D01*
X141520075Y-88703000D01*
X141359925Y-88703000D01*
X141202858Y-88671758D01*
X141054899Y-88610471D01*
X140921745Y-88521501D01*
X140808499Y-88408255D01*
X140719529Y-88275101D01*
X140658242Y-88127142D01*
X140627000Y-87970075D01*
X140627000Y-87809925D01*
X140658242Y-87652858D01*
X140719529Y-87504899D01*
X140808499Y-87371745D01*
X140921745Y-87258499D01*
X141054899Y-87169529D01*
X141202858Y-87108242D01*
X141359925Y-87077000D01*
X141520075Y-87077000D01*
X141677142Y-87108242D01*
G37*
G36*
X139137142Y-87108242D02*
G01*
X139285101Y-87169529D01*
X139418255Y-87258499D01*
X139531501Y-87371745D01*
X139620471Y-87504899D01*
X139681758Y-87652858D01*
X139713000Y-87809925D01*
X139713000Y-87970075D01*
X139681758Y-88127142D01*
X139620471Y-88275101D01*
X139531501Y-88408255D01*
X139418255Y-88521501D01*
X139285101Y-88610471D01*
X139137142Y-88671758D01*
X138980075Y-88703000D01*
X138819925Y-88703000D01*
X138662858Y-88671758D01*
X138514899Y-88610471D01*
X138381745Y-88521501D01*
X138268499Y-88408255D01*
X138179529Y-88275101D01*
X138118242Y-88127142D01*
X138087000Y-87970075D01*
X138087000Y-87809925D01*
X138118242Y-87652858D01*
X138179529Y-87504899D01*
X138268499Y-87371745D01*
X138381745Y-87258499D01*
X138514899Y-87169529D01*
X138662858Y-87108242D01*
X138819925Y-87077000D01*
X138980075Y-87077000D01*
X139137142Y-87108242D01*
G37*
G36*
X147113512Y-84843927D02*
G01*
X147262812Y-84873624D01*
X147426784Y-84941544D01*
X147574354Y-85040147D01*
X147699853Y-85165646D01*
X147798456Y-85313216D01*
X147866376Y-85477188D01*
X147901000Y-85651259D01*
X147901000Y-85828741D01*
X147866376Y-86002812D01*
X147798456Y-86166784D01*
X147699853Y-86314354D01*
X147574354Y-86439853D01*
X147426784Y-86538456D01*
X147262812Y-86606376D01*
X147113512Y-86636073D01*
X147088742Y-86641000D01*
X146911258Y-86641000D01*
X146886488Y-86636073D01*
X146737188Y-86606376D01*
X146573216Y-86538456D01*
X146425646Y-86439853D01*
X146300147Y-86314354D01*
X146201544Y-86166784D01*
X146133624Y-86002812D01*
X146099000Y-85828741D01*
X146099000Y-85651259D01*
X146133624Y-85477188D01*
X146201544Y-85313216D01*
X146300147Y-85165646D01*
X146425646Y-85040147D01*
X146573216Y-84941544D01*
X146737188Y-84873624D01*
X146886488Y-84843927D01*
X146911258Y-84839000D01*
X147088742Y-84839000D01*
X147113512Y-84843927D01*
G37*
G36*
X141677142Y-84568242D02*
G01*
X141825101Y-84629529D01*
X141958255Y-84718499D01*
X142071501Y-84831745D01*
X142160471Y-84964899D01*
X142221758Y-85112858D01*
X142253000Y-85269925D01*
X142253000Y-85430075D01*
X142221758Y-85587142D01*
X142160471Y-85735101D01*
X142071501Y-85868255D01*
X141958255Y-85981501D01*
X141825101Y-86070471D01*
X141677142Y-86131758D01*
X141520075Y-86163000D01*
X141359925Y-86163000D01*
X141202858Y-86131758D01*
X141054899Y-86070471D01*
X140921745Y-85981501D01*
X140808499Y-85868255D01*
X140719529Y-85735101D01*
X140658242Y-85587142D01*
X140627000Y-85430075D01*
X140627000Y-85269925D01*
X140658242Y-85112858D01*
X140719529Y-84964899D01*
X140808499Y-84831745D01*
X140921745Y-84718499D01*
X141054899Y-84629529D01*
X141202858Y-84568242D01*
X141359925Y-84537000D01*
X141520075Y-84537000D01*
X141677142Y-84568242D01*
G37*
G36*
X139137142Y-84568242D02*
G01*
X139285101Y-84629529D01*
X139418255Y-84718499D01*
X139531501Y-84831745D01*
X139620471Y-84964899D01*
X139681758Y-85112858D01*
X139713000Y-85269925D01*
X139713000Y-85430075D01*
X139681758Y-85587142D01*
X139620471Y-85735101D01*
X139531501Y-85868255D01*
X139418255Y-85981501D01*
X139285101Y-86070471D01*
X139137142Y-86131758D01*
X138980075Y-86163000D01*
X138819925Y-86163000D01*
X138662858Y-86131758D01*
X138514899Y-86070471D01*
X138381745Y-85981501D01*
X138268499Y-85868255D01*
X138179529Y-85735101D01*
X138118242Y-85587142D01*
X138087000Y-85430075D01*
X138087000Y-85269925D01*
X138118242Y-85112858D01*
X138179529Y-84964899D01*
X138268499Y-84831745D01*
X138381745Y-84718499D01*
X138514899Y-84629529D01*
X138662858Y-84568242D01*
X138819925Y-84537000D01*
X138980075Y-84537000D01*
X139137142Y-84568242D01*
G37*
G36*
X147113512Y-82303927D02*
G01*
X147262812Y-82333624D01*
X147426784Y-82401544D01*
X147574354Y-82500147D01*
X147699853Y-82625646D01*
X147798456Y-82773216D01*
X147866376Y-82937188D01*
X147901000Y-83111259D01*
X147901000Y-83288741D01*
X147866376Y-83462812D01*
X147798456Y-83626784D01*
X147699853Y-83774354D01*
X147574354Y-83899853D01*
X147426784Y-83998456D01*
X147262812Y-84066376D01*
X147113512Y-84096073D01*
X147088742Y-84101000D01*
X146911258Y-84101000D01*
X146886488Y-84096073D01*
X146737188Y-84066376D01*
X146573216Y-83998456D01*
X146425646Y-83899853D01*
X146300147Y-83774354D01*
X146201544Y-83626784D01*
X146133624Y-83462812D01*
X146099000Y-83288741D01*
X146099000Y-83111259D01*
X146133624Y-82937188D01*
X146201544Y-82773216D01*
X146300147Y-82625646D01*
X146425646Y-82500147D01*
X146573216Y-82401544D01*
X146737188Y-82333624D01*
X146886488Y-82303927D01*
X146911258Y-82299000D01*
X147088742Y-82299000D01*
X147113512Y-82303927D01*
G37*
G36*
X141677142Y-82028242D02*
G01*
X141825101Y-82089529D01*
X141958255Y-82178499D01*
X142071501Y-82291745D01*
X142160471Y-82424899D01*
X142221758Y-82572858D01*
X142253000Y-82729925D01*
X142253000Y-82890075D01*
X142221758Y-83047142D01*
X142160471Y-83195101D01*
X142071501Y-83328255D01*
X141958255Y-83441501D01*
X141825101Y-83530471D01*
X141677142Y-83591758D01*
X141520075Y-83623000D01*
X141359925Y-83623000D01*
X141202858Y-83591758D01*
X141054899Y-83530471D01*
X140921745Y-83441501D01*
X140808499Y-83328255D01*
X140719529Y-83195101D01*
X140658242Y-83047142D01*
X140627000Y-82890075D01*
X140627000Y-82729925D01*
X140658242Y-82572858D01*
X140719529Y-82424899D01*
X140808499Y-82291745D01*
X140921745Y-82178499D01*
X141054899Y-82089529D01*
X141202858Y-82028242D01*
X141359925Y-81997000D01*
X141520075Y-81997000D01*
X141677142Y-82028242D01*
G37*
G36*
X139137142Y-82028242D02*
G01*
X139285101Y-82089529D01*
X139418255Y-82178499D01*
X139531501Y-82291745D01*
X139620471Y-82424899D01*
X139681758Y-82572858D01*
X139713000Y-82729925D01*
X139713000Y-82890075D01*
X139681758Y-83047142D01*
X139620471Y-83195101D01*
X139531501Y-83328255D01*
X139418255Y-83441501D01*
X139285101Y-83530471D01*
X139137142Y-83591758D01*
X138980075Y-83623000D01*
X138819925Y-83623000D01*
X138662858Y-83591758D01*
X138514899Y-83530471D01*
X138381745Y-83441501D01*
X138268499Y-83328255D01*
X138179529Y-83195101D01*
X138118242Y-83047142D01*
X138087000Y-82890075D01*
X138087000Y-82729925D01*
X138118242Y-82572858D01*
X138179529Y-82424899D01*
X138268499Y-82291745D01*
X138381745Y-82178499D01*
X138514899Y-82089529D01*
X138662858Y-82028242D01*
X138819925Y-81997000D01*
X138980075Y-81997000D01*
X139137142Y-82028242D01*
G37*
G36*
X147113512Y-79763927D02*
G01*
X147262812Y-79793624D01*
X147426784Y-79861544D01*
X147574354Y-79960147D01*
X147699853Y-80085646D01*
X147798456Y-80233216D01*
X147866376Y-80397188D01*
X147901000Y-80571259D01*
X147901000Y-80748741D01*
X147866376Y-80922812D01*
X147798456Y-81086784D01*
X147699853Y-81234354D01*
X147574354Y-81359853D01*
X147426784Y-81458456D01*
X147262812Y-81526376D01*
X147113512Y-81556073D01*
X147088742Y-81561000D01*
X146911258Y-81561000D01*
X146886488Y-81556073D01*
X146737188Y-81526376D01*
X146573216Y-81458456D01*
X146425646Y-81359853D01*
X146300147Y-81234354D01*
X146201544Y-81086784D01*
X146133624Y-80922812D01*
X146099000Y-80748741D01*
X146099000Y-80571259D01*
X146133624Y-80397188D01*
X146201544Y-80233216D01*
X146300147Y-80085646D01*
X146425646Y-79960147D01*
X146573216Y-79861544D01*
X146737188Y-79793624D01*
X146886488Y-79763927D01*
X146911258Y-79759000D01*
X147088742Y-79759000D01*
X147113512Y-79763927D01*
G37*
G36*
X139137142Y-79488242D02*
G01*
X139285101Y-79549529D01*
X139418255Y-79638499D01*
X139531501Y-79751745D01*
X139620471Y-79884899D01*
X139681758Y-80032858D01*
X139713000Y-80189925D01*
X139713000Y-80350075D01*
X139681758Y-80507142D01*
X139620471Y-80655101D01*
X139531501Y-80788255D01*
X139418255Y-80901501D01*
X139285101Y-80990471D01*
X139137142Y-81051758D01*
X138980075Y-81083000D01*
X138819925Y-81083000D01*
X138662858Y-81051758D01*
X138514899Y-80990471D01*
X138381745Y-80901501D01*
X138268499Y-80788255D01*
X138179529Y-80655101D01*
X138118242Y-80507142D01*
X138087000Y-80350075D01*
X138087000Y-80189925D01*
X138118242Y-80032858D01*
X138179529Y-79884899D01*
X138268499Y-79751745D01*
X138381745Y-79638499D01*
X138514899Y-79549529D01*
X138662858Y-79488242D01*
X138819925Y-79457000D01*
X138980075Y-79457000D01*
X139137142Y-79488242D01*
G37*
G36*
X141677142Y-79488242D02*
G01*
X141825101Y-79549529D01*
X141958255Y-79638499D01*
X142071501Y-79751745D01*
X142160471Y-79884899D01*
X142221758Y-80032858D01*
X142253000Y-80189925D01*
X142253000Y-80350075D01*
X142221758Y-80507142D01*
X142160471Y-80655101D01*
X142071501Y-80788255D01*
X141958255Y-80901501D01*
X141825101Y-80990471D01*
X141677142Y-81051758D01*
X141520075Y-81083000D01*
X141359925Y-81083000D01*
X141202858Y-81051758D01*
X141054899Y-80990471D01*
X140921745Y-80901501D01*
X140808499Y-80788255D01*
X140719529Y-80655101D01*
X140658242Y-80507142D01*
X140627000Y-80350075D01*
X140627000Y-80189925D01*
X140658242Y-80032858D01*
X140719529Y-79884899D01*
X140808499Y-79751745D01*
X140921745Y-79638499D01*
X141054899Y-79549529D01*
X141202858Y-79488242D01*
X141359925Y-79457000D01*
X141520075Y-79457000D01*
X141677142Y-79488242D01*
G37*
G36*
X147113512Y-77223927D02*
G01*
X147262812Y-77253624D01*
X147426784Y-77321544D01*
X147574354Y-77420147D01*
X147699853Y-77545646D01*
X147798456Y-77693216D01*
X147866376Y-77857188D01*
X147901000Y-78031259D01*
X147901000Y-78208741D01*
X147866376Y-78382812D01*
X147798456Y-78546784D01*
X147699853Y-78694354D01*
X147574354Y-78819853D01*
X147426784Y-78918456D01*
X147262812Y-78986376D01*
X147113512Y-79016073D01*
X147088742Y-79021000D01*
X146911258Y-79021000D01*
X146886488Y-79016073D01*
X146737188Y-78986376D01*
X146573216Y-78918456D01*
X146425646Y-78819853D01*
X146300147Y-78694354D01*
X146201544Y-78546784D01*
X146133624Y-78382812D01*
X146099000Y-78208741D01*
X146099000Y-78031259D01*
X146133624Y-77857188D01*
X146201544Y-77693216D01*
X146300147Y-77545646D01*
X146425646Y-77420147D01*
X146573216Y-77321544D01*
X146737188Y-77253624D01*
X146886488Y-77223927D01*
X146911258Y-77219000D01*
X147088742Y-77219000D01*
X147113512Y-77223927D01*
G37*
G36*
X139137142Y-76948242D02*
G01*
X139285101Y-77009529D01*
X139418255Y-77098499D01*
X139531501Y-77211745D01*
X139620471Y-77344899D01*
X139681758Y-77492858D01*
X139713000Y-77649925D01*
X139713000Y-77810075D01*
X139681758Y-77967142D01*
X139620471Y-78115101D01*
X139531501Y-78248255D01*
X139418255Y-78361501D01*
X139285101Y-78450471D01*
X139137142Y-78511758D01*
X138980075Y-78543000D01*
X138819925Y-78543000D01*
X138662858Y-78511758D01*
X138514899Y-78450471D01*
X138381745Y-78361501D01*
X138268499Y-78248255D01*
X138179529Y-78115101D01*
X138118242Y-77967142D01*
X138087000Y-77810075D01*
X138087000Y-77649925D01*
X138118242Y-77492858D01*
X138179529Y-77344899D01*
X138268499Y-77211745D01*
X138381745Y-77098499D01*
X138514899Y-77009529D01*
X138662858Y-76948242D01*
X138819925Y-76917000D01*
X138980075Y-76917000D01*
X139137142Y-76948242D01*
G37*
G36*
X141677142Y-76948242D02*
G01*
X141825101Y-77009529D01*
X141958255Y-77098499D01*
X142071501Y-77211745D01*
X142160471Y-77344899D01*
X142221758Y-77492858D01*
X142253000Y-77649925D01*
X142253000Y-77810075D01*
X142221758Y-77967142D01*
X142160471Y-78115101D01*
X142071501Y-78248255D01*
X141958255Y-78361501D01*
X141825101Y-78450471D01*
X141677142Y-78511758D01*
X141520075Y-78543000D01*
X141359925Y-78543000D01*
X141202858Y-78511758D01*
X141054899Y-78450471D01*
X140921745Y-78361501D01*
X140808499Y-78248255D01*
X140719529Y-78115101D01*
X140658242Y-77967142D01*
X140627000Y-77810075D01*
X140627000Y-77649925D01*
X140658242Y-77492858D01*
X140719529Y-77344899D01*
X140808499Y-77211745D01*
X140921745Y-77098499D01*
X141054899Y-77009529D01*
X141202858Y-76948242D01*
X141359925Y-76917000D01*
X141520075Y-76917000D01*
X141677142Y-76948242D01*
G37*
G36*
X147113512Y-74683927D02*
G01*
X147262812Y-74713624D01*
X147426784Y-74781544D01*
X147574354Y-74880147D01*
X147699853Y-75005646D01*
X147798456Y-75153216D01*
X147866376Y-75317188D01*
X147901000Y-75491259D01*
X147901000Y-75668741D01*
X147866376Y-75842812D01*
X147798456Y-76006784D01*
X147699853Y-76154354D01*
X147574354Y-76279853D01*
X147426784Y-76378456D01*
X147262812Y-76446376D01*
X147113512Y-76476073D01*
X147088742Y-76481000D01*
X146911258Y-76481000D01*
X146886488Y-76476073D01*
X146737188Y-76446376D01*
X146573216Y-76378456D01*
X146425646Y-76279853D01*
X146300147Y-76154354D01*
X146201544Y-76006784D01*
X146133624Y-75842812D01*
X146099000Y-75668741D01*
X146099000Y-75491259D01*
X146133624Y-75317188D01*
X146201544Y-75153216D01*
X146300147Y-75005646D01*
X146425646Y-74880147D01*
X146573216Y-74781544D01*
X146737188Y-74713624D01*
X146886488Y-74683927D01*
X146911258Y-74679000D01*
X147088742Y-74679000D01*
X147113512Y-74683927D01*
G37*
G36*
X141677142Y-74408242D02*
G01*
X141825101Y-74469529D01*
X141958255Y-74558499D01*
X142071501Y-74671745D01*
X142160471Y-74804899D01*
X142221758Y-74952858D01*
X142253000Y-75109925D01*
X142253000Y-75270075D01*
X142221758Y-75427142D01*
X142160471Y-75575101D01*
X142071501Y-75708255D01*
X141958255Y-75821501D01*
X141825101Y-75910471D01*
X141677142Y-75971758D01*
X141520075Y-76003000D01*
X141359925Y-76003000D01*
X141202858Y-75971758D01*
X141054899Y-75910471D01*
X140921745Y-75821501D01*
X140808499Y-75708255D01*
X140719529Y-75575101D01*
X140658242Y-75427142D01*
X140627000Y-75270075D01*
X140627000Y-75109925D01*
X140658242Y-74952858D01*
X140719529Y-74804899D01*
X140808499Y-74671745D01*
X140921745Y-74558499D01*
X141054899Y-74469529D01*
X141202858Y-74408242D01*
X141359925Y-74377000D01*
X141520075Y-74377000D01*
X141677142Y-74408242D01*
G37*
G36*
X139137142Y-74408242D02*
G01*
X139285101Y-74469529D01*
X139418255Y-74558499D01*
X139531501Y-74671745D01*
X139620471Y-74804899D01*
X139681758Y-74952858D01*
X139713000Y-75109925D01*
X139713000Y-75270075D01*
X139681758Y-75427142D01*
X139620471Y-75575101D01*
X139531501Y-75708255D01*
X139418255Y-75821501D01*
X139285101Y-75910471D01*
X139137142Y-75971758D01*
X138980075Y-76003000D01*
X138819925Y-76003000D01*
X138662858Y-75971758D01*
X138514899Y-75910471D01*
X138381745Y-75821501D01*
X138268499Y-75708255D01*
X138179529Y-75575101D01*
X138118242Y-75427142D01*
X138087000Y-75270075D01*
X138087000Y-75109925D01*
X138118242Y-74952858D01*
X138179529Y-74804899D01*
X138268499Y-74671745D01*
X138381745Y-74558499D01*
X138514899Y-74469529D01*
X138662858Y-74408242D01*
X138819925Y-74377000D01*
X138980075Y-74377000D01*
X139137142Y-74408242D01*
G37*
G36*
X147113512Y-72143927D02*
G01*
X147262812Y-72173624D01*
X147426784Y-72241544D01*
X147574354Y-72340147D01*
X147699853Y-72465646D01*
X147798456Y-72613216D01*
X147866376Y-72777188D01*
X147901000Y-72951259D01*
X147901000Y-73128741D01*
X147866376Y-73302812D01*
X147798456Y-73466784D01*
X147699853Y-73614354D01*
X147574354Y-73739853D01*
X147426784Y-73838456D01*
X147262812Y-73906376D01*
X147113512Y-73936073D01*
X147088742Y-73941000D01*
X146911258Y-73941000D01*
X146886488Y-73936073D01*
X146737188Y-73906376D01*
X146573216Y-73838456D01*
X146425646Y-73739853D01*
X146300147Y-73614354D01*
X146201544Y-73466784D01*
X146133624Y-73302812D01*
X146099000Y-73128741D01*
X146099000Y-72951259D01*
X146133624Y-72777188D01*
X146201544Y-72613216D01*
X146300147Y-72465646D01*
X146425646Y-72340147D01*
X146573216Y-72241544D01*
X146737188Y-72173624D01*
X146886488Y-72143927D01*
X146911258Y-72139000D01*
X147088742Y-72139000D01*
X147113512Y-72143927D01*
G37*
G36*
X139137142Y-71868242D02*
G01*
X139285101Y-71929529D01*
X139418255Y-72018499D01*
X139531501Y-72131745D01*
X139620471Y-72264899D01*
X139681758Y-72412858D01*
X139713000Y-72569925D01*
X139713000Y-72730075D01*
X139681758Y-72887142D01*
X139620471Y-73035101D01*
X139531501Y-73168255D01*
X139418255Y-73281501D01*
X139285101Y-73370471D01*
X139137142Y-73431758D01*
X138980075Y-73463000D01*
X138819925Y-73463000D01*
X138662858Y-73431758D01*
X138514899Y-73370471D01*
X138381745Y-73281501D01*
X138268499Y-73168255D01*
X138179529Y-73035101D01*
X138118242Y-72887142D01*
X138087000Y-72730075D01*
X138087000Y-72569925D01*
X138118242Y-72412858D01*
X138179529Y-72264899D01*
X138268499Y-72131745D01*
X138381745Y-72018499D01*
X138514899Y-71929529D01*
X138662858Y-71868242D01*
X138819925Y-71837000D01*
X138980075Y-71837000D01*
X139137142Y-71868242D01*
G37*
G36*
X141677142Y-71868242D02*
G01*
X141825101Y-71929529D01*
X141958255Y-72018499D01*
X142071501Y-72131745D01*
X142160471Y-72264899D01*
X142221758Y-72412858D01*
X142253000Y-72569925D01*
X142253000Y-72730075D01*
X142221758Y-72887142D01*
X142160471Y-73035101D01*
X142071501Y-73168255D01*
X141958255Y-73281501D01*
X141825101Y-73370471D01*
X141677142Y-73431758D01*
X141520075Y-73463000D01*
X141359925Y-73463000D01*
X141202858Y-73431758D01*
X141054899Y-73370471D01*
X140921745Y-73281501D01*
X140808499Y-73168255D01*
X140719529Y-73035101D01*
X140658242Y-72887142D01*
X140627000Y-72730075D01*
X140627000Y-72569925D01*
X140658242Y-72412858D01*
X140719529Y-72264899D01*
X140808499Y-72131745D01*
X140921745Y-72018499D01*
X141054899Y-71929529D01*
X141202858Y-71868242D01*
X141359925Y-71837000D01*
X141520075Y-71837000D01*
X141677142Y-71868242D01*
G37*
G36*
X147901000Y-71401000D02*
G01*
X146099000Y-71401000D01*
X146099000Y-69599000D01*
X147901000Y-69599000D01*
X147901000Y-71401000D01*
G37*
G36*
X141677142Y-69328242D02*
G01*
X141825101Y-69389529D01*
X141958255Y-69478499D01*
X142071501Y-69591745D01*
X142160471Y-69724899D01*
X142221758Y-69872858D01*
X142253000Y-70029925D01*
X142253000Y-70190075D01*
X142221758Y-70347142D01*
X142160471Y-70495101D01*
X142071501Y-70628255D01*
X141958255Y-70741501D01*
X141825101Y-70830471D01*
X141677142Y-70891758D01*
X141520075Y-70923000D01*
X141359925Y-70923000D01*
X141202858Y-70891758D01*
X141054899Y-70830471D01*
X140921745Y-70741501D01*
X140808499Y-70628255D01*
X140719529Y-70495101D01*
X140658242Y-70347142D01*
X140627000Y-70190075D01*
X140627000Y-70029925D01*
X140658242Y-69872858D01*
X140719529Y-69724899D01*
X140808499Y-69591745D01*
X140921745Y-69478499D01*
X141054899Y-69389529D01*
X141202858Y-69328242D01*
X141359925Y-69297000D01*
X141520075Y-69297000D01*
X141677142Y-69328242D01*
G37*
G36*
X139137142Y-69328242D02*
G01*
X139285101Y-69389529D01*
X139418255Y-69478499D01*
X139531501Y-69591745D01*
X139620471Y-69724899D01*
X139681758Y-69872858D01*
X139713000Y-70029925D01*
X139713000Y-70190075D01*
X139681758Y-70347142D01*
X139620471Y-70495101D01*
X139531501Y-70628255D01*
X139418255Y-70741501D01*
X139285101Y-70830471D01*
X139137142Y-70891758D01*
X138980075Y-70923000D01*
X138819925Y-70923000D01*
X138662858Y-70891758D01*
X138514899Y-70830471D01*
X138381745Y-70741501D01*
X138268499Y-70628255D01*
X138179529Y-70495101D01*
X138118242Y-70347142D01*
X138087000Y-70190075D01*
X138087000Y-70029925D01*
X138118242Y-69872858D01*
X138179529Y-69724899D01*
X138268499Y-69591745D01*
X138381745Y-69478499D01*
X138514899Y-69389529D01*
X138662858Y-69328242D01*
X138819925Y-69297000D01*
X138980075Y-69297000D01*
X139137142Y-69328242D01*
G37*
M02*
