M48
; DRILL file {KiCad (5.1.5)-3} date 23.04.2020 23:50:12
; FORMAT={3:3/ absolute / metric / suppress leading zeros}
; #@! TF.CreationDate,2020-04-23T23:50:12+02:00
; #@! TF.GenerationSoftware,Kicad,Pcbnew,(5.1.5)-3
FMAT,2
METRIC,TZ
T1C0.762
T2C0.800
T3C1.000
T4C2.000
T5C3.000
%
G90
G05
T1
X138900Y-70110
X138900Y-72650
X138900Y-75190
X138900Y-77730
X138900Y-80270
X138900Y-82810
X138900Y-85350
X138900Y-87890
X141440Y-70110
X141440Y-72650
X141440Y-75190
X141440Y-77730
X141440Y-80270
X141440Y-82810
X141440Y-85350
X141440Y-87890
T2
X135600Y-97100
X140400Y-90700
X141200Y-97100
X141200Y-107600
X143700Y-89600
X144000Y-63900
X146800Y-97100
X149100Y-90700
X152400Y-97350
X189600Y-105000
T3
X138400Y-101100
X138400Y-103640
X147000Y-70500
X147000Y-73040
X147000Y-75580
X147000Y-78120
X147000Y-80660
X147000Y-83200
X147000Y-85740
X147000Y-88280
X149600Y-110960
X149600Y-113500
X149600Y-116040
X192600Y-105020
X192600Y-107560
X192600Y-110100
X192600Y-112640
X192600Y-115180
X149600Y-101100
X149600Y-103640
X132800Y-101100
X132800Y-103640
X144000Y-101100
X144000Y-103640
T4
X152500Y-65500
X152500Y-93500
X195500Y-65500
X195500Y-93500
T5
X156920Y-99910
X156920Y-119410
X182420Y-99910
X182420Y-119410
T0
M30
