G04 #@! TF.GenerationSoftware,KiCad,Pcbnew,(5.1.5)-3*
G04 #@! TF.CreationDate,2020-04-23T23:50:09+02:00*
G04 #@! TF.ProjectId,User_Interface_Board,55736572-5f49-46e7-9465-72666163655f,rev?*
G04 #@! TF.SameCoordinates,Original*
G04 #@! TF.FileFunction,Paste,Bot*
G04 #@! TF.FilePolarity,Positive*
%FSLAX46Y46*%
G04 Gerber Fmt 4.6, Leading zero omitted, Abs format (unit mm)*
G04 Created by KiCad (PCBNEW (5.1.5)-3) date 2020-04-23 23:50:09*
%MOMM*%
%LPD*%
G04 APERTURE LIST*
%ADD10C,0.100000*%
G04 APERTURE END LIST*
D10*
G36*
X136074505Y-98476204D02*
G01*
X136098773Y-98479804D01*
X136122572Y-98485765D01*
X136145671Y-98494030D01*
X136167850Y-98504520D01*
X136188893Y-98517132D01*
X136208599Y-98531747D01*
X136226777Y-98548223D01*
X136243253Y-98566401D01*
X136257868Y-98586107D01*
X136270480Y-98607150D01*
X136280970Y-98629329D01*
X136289235Y-98652428D01*
X136295196Y-98676227D01*
X136298796Y-98700495D01*
X136300000Y-98724999D01*
X136300000Y-99375001D01*
X136298796Y-99399505D01*
X136295196Y-99423773D01*
X136289235Y-99447572D01*
X136280970Y-99470671D01*
X136270480Y-99492850D01*
X136257868Y-99513893D01*
X136243253Y-99533599D01*
X136226777Y-99551777D01*
X136208599Y-99568253D01*
X136188893Y-99582868D01*
X136167850Y-99595480D01*
X136145671Y-99605970D01*
X136122572Y-99614235D01*
X136098773Y-99620196D01*
X136074505Y-99623796D01*
X136050001Y-99625000D01*
X135149999Y-99625000D01*
X135125495Y-99623796D01*
X135101227Y-99620196D01*
X135077428Y-99614235D01*
X135054329Y-99605970D01*
X135032150Y-99595480D01*
X135011107Y-99582868D01*
X134991401Y-99568253D01*
X134973223Y-99551777D01*
X134956747Y-99533599D01*
X134942132Y-99513893D01*
X134929520Y-99492850D01*
X134919030Y-99470671D01*
X134910765Y-99447572D01*
X134904804Y-99423773D01*
X134901204Y-99399505D01*
X134900000Y-99375001D01*
X134900000Y-98724999D01*
X134901204Y-98700495D01*
X134904804Y-98676227D01*
X134910765Y-98652428D01*
X134919030Y-98629329D01*
X134929520Y-98607150D01*
X134942132Y-98586107D01*
X134956747Y-98566401D01*
X134973223Y-98548223D01*
X134991401Y-98531747D01*
X135011107Y-98517132D01*
X135032150Y-98504520D01*
X135054329Y-98494030D01*
X135077428Y-98485765D01*
X135101227Y-98479804D01*
X135125495Y-98476204D01*
X135149999Y-98475000D01*
X136050001Y-98475000D01*
X136074505Y-98476204D01*
G37*
G36*
X136074505Y-100526204D02*
G01*
X136098773Y-100529804D01*
X136122572Y-100535765D01*
X136145671Y-100544030D01*
X136167850Y-100554520D01*
X136188893Y-100567132D01*
X136208599Y-100581747D01*
X136226777Y-100598223D01*
X136243253Y-100616401D01*
X136257868Y-100636107D01*
X136270480Y-100657150D01*
X136280970Y-100679329D01*
X136289235Y-100702428D01*
X136295196Y-100726227D01*
X136298796Y-100750495D01*
X136300000Y-100774999D01*
X136300000Y-101425001D01*
X136298796Y-101449505D01*
X136295196Y-101473773D01*
X136289235Y-101497572D01*
X136280970Y-101520671D01*
X136270480Y-101542850D01*
X136257868Y-101563893D01*
X136243253Y-101583599D01*
X136226777Y-101601777D01*
X136208599Y-101618253D01*
X136188893Y-101632868D01*
X136167850Y-101645480D01*
X136145671Y-101655970D01*
X136122572Y-101664235D01*
X136098773Y-101670196D01*
X136074505Y-101673796D01*
X136050001Y-101675000D01*
X135149999Y-101675000D01*
X135125495Y-101673796D01*
X135101227Y-101670196D01*
X135077428Y-101664235D01*
X135054329Y-101655970D01*
X135032150Y-101645480D01*
X135011107Y-101632868D01*
X134991401Y-101618253D01*
X134973223Y-101601777D01*
X134956747Y-101583599D01*
X134942132Y-101563893D01*
X134929520Y-101542850D01*
X134919030Y-101520671D01*
X134910765Y-101497572D01*
X134904804Y-101473773D01*
X134901204Y-101449505D01*
X134900000Y-101425001D01*
X134900000Y-100774999D01*
X134901204Y-100750495D01*
X134904804Y-100726227D01*
X134910765Y-100702428D01*
X134919030Y-100679329D01*
X134929520Y-100657150D01*
X134942132Y-100636107D01*
X134956747Y-100616401D01*
X134973223Y-100598223D01*
X134991401Y-100581747D01*
X135011107Y-100567132D01*
X135032150Y-100554520D01*
X135054329Y-100544030D01*
X135077428Y-100535765D01*
X135101227Y-100529804D01*
X135125495Y-100526204D01*
X135149999Y-100525000D01*
X136050001Y-100525000D01*
X136074505Y-100526204D01*
G37*
G36*
X141674505Y-100526204D02*
G01*
X141698773Y-100529804D01*
X141722572Y-100535765D01*
X141745671Y-100544030D01*
X141767850Y-100554520D01*
X141788893Y-100567132D01*
X141808599Y-100581747D01*
X141826777Y-100598223D01*
X141843253Y-100616401D01*
X141857868Y-100636107D01*
X141870480Y-100657150D01*
X141880970Y-100679329D01*
X141889235Y-100702428D01*
X141895196Y-100726227D01*
X141898796Y-100750495D01*
X141900000Y-100774999D01*
X141900000Y-101425001D01*
X141898796Y-101449505D01*
X141895196Y-101473773D01*
X141889235Y-101497572D01*
X141880970Y-101520671D01*
X141870480Y-101542850D01*
X141857868Y-101563893D01*
X141843253Y-101583599D01*
X141826777Y-101601777D01*
X141808599Y-101618253D01*
X141788893Y-101632868D01*
X141767850Y-101645480D01*
X141745671Y-101655970D01*
X141722572Y-101664235D01*
X141698773Y-101670196D01*
X141674505Y-101673796D01*
X141650001Y-101675000D01*
X140749999Y-101675000D01*
X140725495Y-101673796D01*
X140701227Y-101670196D01*
X140677428Y-101664235D01*
X140654329Y-101655970D01*
X140632150Y-101645480D01*
X140611107Y-101632868D01*
X140591401Y-101618253D01*
X140573223Y-101601777D01*
X140556747Y-101583599D01*
X140542132Y-101563893D01*
X140529520Y-101542850D01*
X140519030Y-101520671D01*
X140510765Y-101497572D01*
X140504804Y-101473773D01*
X140501204Y-101449505D01*
X140500000Y-101425001D01*
X140500000Y-100774999D01*
X140501204Y-100750495D01*
X140504804Y-100726227D01*
X140510765Y-100702428D01*
X140519030Y-100679329D01*
X140529520Y-100657150D01*
X140542132Y-100636107D01*
X140556747Y-100616401D01*
X140573223Y-100598223D01*
X140591401Y-100581747D01*
X140611107Y-100567132D01*
X140632150Y-100554520D01*
X140654329Y-100544030D01*
X140677428Y-100535765D01*
X140701227Y-100529804D01*
X140725495Y-100526204D01*
X140749999Y-100525000D01*
X141650001Y-100525000D01*
X141674505Y-100526204D01*
G37*
G36*
X141674505Y-98476204D02*
G01*
X141698773Y-98479804D01*
X141722572Y-98485765D01*
X141745671Y-98494030D01*
X141767850Y-98504520D01*
X141788893Y-98517132D01*
X141808599Y-98531747D01*
X141826777Y-98548223D01*
X141843253Y-98566401D01*
X141857868Y-98586107D01*
X141870480Y-98607150D01*
X141880970Y-98629329D01*
X141889235Y-98652428D01*
X141895196Y-98676227D01*
X141898796Y-98700495D01*
X141900000Y-98724999D01*
X141900000Y-99375001D01*
X141898796Y-99399505D01*
X141895196Y-99423773D01*
X141889235Y-99447572D01*
X141880970Y-99470671D01*
X141870480Y-99492850D01*
X141857868Y-99513893D01*
X141843253Y-99533599D01*
X141826777Y-99551777D01*
X141808599Y-99568253D01*
X141788893Y-99582868D01*
X141767850Y-99595480D01*
X141745671Y-99605970D01*
X141722572Y-99614235D01*
X141698773Y-99620196D01*
X141674505Y-99623796D01*
X141650001Y-99625000D01*
X140749999Y-99625000D01*
X140725495Y-99623796D01*
X140701227Y-99620196D01*
X140677428Y-99614235D01*
X140654329Y-99605970D01*
X140632150Y-99595480D01*
X140611107Y-99582868D01*
X140591401Y-99568253D01*
X140573223Y-99551777D01*
X140556747Y-99533599D01*
X140542132Y-99513893D01*
X140529520Y-99492850D01*
X140519030Y-99470671D01*
X140510765Y-99447572D01*
X140504804Y-99423773D01*
X140501204Y-99399505D01*
X140500000Y-99375001D01*
X140500000Y-98724999D01*
X140501204Y-98700495D01*
X140504804Y-98676227D01*
X140510765Y-98652428D01*
X140519030Y-98629329D01*
X140529520Y-98607150D01*
X140542132Y-98586107D01*
X140556747Y-98566401D01*
X140573223Y-98548223D01*
X140591401Y-98531747D01*
X140611107Y-98517132D01*
X140632150Y-98504520D01*
X140654329Y-98494030D01*
X140677428Y-98485765D01*
X140701227Y-98479804D01*
X140725495Y-98476204D01*
X140749999Y-98475000D01*
X141650001Y-98475000D01*
X141674505Y-98476204D01*
G37*
G36*
X147274505Y-98476204D02*
G01*
X147298773Y-98479804D01*
X147322572Y-98485765D01*
X147345671Y-98494030D01*
X147367850Y-98504520D01*
X147388893Y-98517132D01*
X147408599Y-98531747D01*
X147426777Y-98548223D01*
X147443253Y-98566401D01*
X147457868Y-98586107D01*
X147470480Y-98607150D01*
X147480970Y-98629329D01*
X147489235Y-98652428D01*
X147495196Y-98676227D01*
X147498796Y-98700495D01*
X147500000Y-98724999D01*
X147500000Y-99375001D01*
X147498796Y-99399505D01*
X147495196Y-99423773D01*
X147489235Y-99447572D01*
X147480970Y-99470671D01*
X147470480Y-99492850D01*
X147457868Y-99513893D01*
X147443253Y-99533599D01*
X147426777Y-99551777D01*
X147408599Y-99568253D01*
X147388893Y-99582868D01*
X147367850Y-99595480D01*
X147345671Y-99605970D01*
X147322572Y-99614235D01*
X147298773Y-99620196D01*
X147274505Y-99623796D01*
X147250001Y-99625000D01*
X146349999Y-99625000D01*
X146325495Y-99623796D01*
X146301227Y-99620196D01*
X146277428Y-99614235D01*
X146254329Y-99605970D01*
X146232150Y-99595480D01*
X146211107Y-99582868D01*
X146191401Y-99568253D01*
X146173223Y-99551777D01*
X146156747Y-99533599D01*
X146142132Y-99513893D01*
X146129520Y-99492850D01*
X146119030Y-99470671D01*
X146110765Y-99447572D01*
X146104804Y-99423773D01*
X146101204Y-99399505D01*
X146100000Y-99375001D01*
X146100000Y-98724999D01*
X146101204Y-98700495D01*
X146104804Y-98676227D01*
X146110765Y-98652428D01*
X146119030Y-98629329D01*
X146129520Y-98607150D01*
X146142132Y-98586107D01*
X146156747Y-98566401D01*
X146173223Y-98548223D01*
X146191401Y-98531747D01*
X146211107Y-98517132D01*
X146232150Y-98504520D01*
X146254329Y-98494030D01*
X146277428Y-98485765D01*
X146301227Y-98479804D01*
X146325495Y-98476204D01*
X146349999Y-98475000D01*
X147250001Y-98475000D01*
X147274505Y-98476204D01*
G37*
G36*
X147274505Y-100526204D02*
G01*
X147298773Y-100529804D01*
X147322572Y-100535765D01*
X147345671Y-100544030D01*
X147367850Y-100554520D01*
X147388893Y-100567132D01*
X147408599Y-100581747D01*
X147426777Y-100598223D01*
X147443253Y-100616401D01*
X147457868Y-100636107D01*
X147470480Y-100657150D01*
X147480970Y-100679329D01*
X147489235Y-100702428D01*
X147495196Y-100726227D01*
X147498796Y-100750495D01*
X147500000Y-100774999D01*
X147500000Y-101425001D01*
X147498796Y-101449505D01*
X147495196Y-101473773D01*
X147489235Y-101497572D01*
X147480970Y-101520671D01*
X147470480Y-101542850D01*
X147457868Y-101563893D01*
X147443253Y-101583599D01*
X147426777Y-101601777D01*
X147408599Y-101618253D01*
X147388893Y-101632868D01*
X147367850Y-101645480D01*
X147345671Y-101655970D01*
X147322572Y-101664235D01*
X147298773Y-101670196D01*
X147274505Y-101673796D01*
X147250001Y-101675000D01*
X146349999Y-101675000D01*
X146325495Y-101673796D01*
X146301227Y-101670196D01*
X146277428Y-101664235D01*
X146254329Y-101655970D01*
X146232150Y-101645480D01*
X146211107Y-101632868D01*
X146191401Y-101618253D01*
X146173223Y-101601777D01*
X146156747Y-101583599D01*
X146142132Y-101563893D01*
X146129520Y-101542850D01*
X146119030Y-101520671D01*
X146110765Y-101497572D01*
X146104804Y-101473773D01*
X146101204Y-101449505D01*
X146100000Y-101425001D01*
X146100000Y-100774999D01*
X146101204Y-100750495D01*
X146104804Y-100726227D01*
X146110765Y-100702428D01*
X146119030Y-100679329D01*
X146129520Y-100657150D01*
X146142132Y-100636107D01*
X146156747Y-100616401D01*
X146173223Y-100598223D01*
X146191401Y-100581747D01*
X146211107Y-100567132D01*
X146232150Y-100554520D01*
X146254329Y-100544030D01*
X146277428Y-100535765D01*
X146301227Y-100529804D01*
X146325495Y-100526204D01*
X146349999Y-100525000D01*
X147250001Y-100525000D01*
X147274505Y-100526204D01*
G37*
G36*
X152874505Y-100526204D02*
G01*
X152898773Y-100529804D01*
X152922572Y-100535765D01*
X152945671Y-100544030D01*
X152967850Y-100554520D01*
X152988893Y-100567132D01*
X153008599Y-100581747D01*
X153026777Y-100598223D01*
X153043253Y-100616401D01*
X153057868Y-100636107D01*
X153070480Y-100657150D01*
X153080970Y-100679329D01*
X153089235Y-100702428D01*
X153095196Y-100726227D01*
X153098796Y-100750495D01*
X153100000Y-100774999D01*
X153100000Y-101425001D01*
X153098796Y-101449505D01*
X153095196Y-101473773D01*
X153089235Y-101497572D01*
X153080970Y-101520671D01*
X153070480Y-101542850D01*
X153057868Y-101563893D01*
X153043253Y-101583599D01*
X153026777Y-101601777D01*
X153008599Y-101618253D01*
X152988893Y-101632868D01*
X152967850Y-101645480D01*
X152945671Y-101655970D01*
X152922572Y-101664235D01*
X152898773Y-101670196D01*
X152874505Y-101673796D01*
X152850001Y-101675000D01*
X151949999Y-101675000D01*
X151925495Y-101673796D01*
X151901227Y-101670196D01*
X151877428Y-101664235D01*
X151854329Y-101655970D01*
X151832150Y-101645480D01*
X151811107Y-101632868D01*
X151791401Y-101618253D01*
X151773223Y-101601777D01*
X151756747Y-101583599D01*
X151742132Y-101563893D01*
X151729520Y-101542850D01*
X151719030Y-101520671D01*
X151710765Y-101497572D01*
X151704804Y-101473773D01*
X151701204Y-101449505D01*
X151700000Y-101425001D01*
X151700000Y-100774999D01*
X151701204Y-100750495D01*
X151704804Y-100726227D01*
X151710765Y-100702428D01*
X151719030Y-100679329D01*
X151729520Y-100657150D01*
X151742132Y-100636107D01*
X151756747Y-100616401D01*
X151773223Y-100598223D01*
X151791401Y-100581747D01*
X151811107Y-100567132D01*
X151832150Y-100554520D01*
X151854329Y-100544030D01*
X151877428Y-100535765D01*
X151901227Y-100529804D01*
X151925495Y-100526204D01*
X151949999Y-100525000D01*
X152850001Y-100525000D01*
X152874505Y-100526204D01*
G37*
G36*
X152874505Y-98476204D02*
G01*
X152898773Y-98479804D01*
X152922572Y-98485765D01*
X152945671Y-98494030D01*
X152967850Y-98504520D01*
X152988893Y-98517132D01*
X153008599Y-98531747D01*
X153026777Y-98548223D01*
X153043253Y-98566401D01*
X153057868Y-98586107D01*
X153070480Y-98607150D01*
X153080970Y-98629329D01*
X153089235Y-98652428D01*
X153095196Y-98676227D01*
X153098796Y-98700495D01*
X153100000Y-98724999D01*
X153100000Y-99375001D01*
X153098796Y-99399505D01*
X153095196Y-99423773D01*
X153089235Y-99447572D01*
X153080970Y-99470671D01*
X153070480Y-99492850D01*
X153057868Y-99513893D01*
X153043253Y-99533599D01*
X153026777Y-99551777D01*
X153008599Y-99568253D01*
X152988893Y-99582868D01*
X152967850Y-99595480D01*
X152945671Y-99605970D01*
X152922572Y-99614235D01*
X152898773Y-99620196D01*
X152874505Y-99623796D01*
X152850001Y-99625000D01*
X151949999Y-99625000D01*
X151925495Y-99623796D01*
X151901227Y-99620196D01*
X151877428Y-99614235D01*
X151854329Y-99605970D01*
X151832150Y-99595480D01*
X151811107Y-99582868D01*
X151791401Y-99568253D01*
X151773223Y-99551777D01*
X151756747Y-99533599D01*
X151742132Y-99513893D01*
X151729520Y-99492850D01*
X151719030Y-99470671D01*
X151710765Y-99447572D01*
X151704804Y-99423773D01*
X151701204Y-99399505D01*
X151700000Y-99375001D01*
X151700000Y-98724999D01*
X151701204Y-98700495D01*
X151704804Y-98676227D01*
X151710765Y-98652428D01*
X151719030Y-98629329D01*
X151729520Y-98607150D01*
X151742132Y-98586107D01*
X151756747Y-98566401D01*
X151773223Y-98548223D01*
X151791401Y-98531747D01*
X151811107Y-98517132D01*
X151832150Y-98504520D01*
X151854329Y-98494030D01*
X151877428Y-98485765D01*
X151901227Y-98479804D01*
X151925495Y-98476204D01*
X151949999Y-98475000D01*
X152850001Y-98475000D01*
X152874505Y-98476204D01*
G37*
M02*
