<?xml version="1.0" encoding="utf-8"?>
<!-- Generator: Adobe Illustrator 19.0.0, SVG Export Plug-In . SVG Version: 6.00 Build 0)  -->
<svg version="1.1" id="Layer_1" xmlns="http://www.w3.org/2000/svg" xmlns:xlink="http://www.w3.org/1999/xlink" x="0px" y="0px"
	 viewBox="0 0 500 500" style="enable-background:new 0 0 500 500;" xml:space="preserve">
<style type="text/css">
	.st0{fill:#0099D8;}
</style>
<g id="XMLID_1_">
	<polyline id="XMLID_2_" class="st0" points="341.9,210.9 400.4,210.9 334.4,363.9 275.9,363.9 341.9,210.9 	"/>
	<path id="XMLID_3_" class="st0" d="M418.1,169.5H180.6c-4.5,0-7.1,0.3-11.5,1.3c-4.3,1-6,1.5-10.6,3.7c-6.4,3-9.9,5.3-14.8,10.4
		c-4.9,5-5.5,6.2-8.1,10.8c-2.3,4-3.3,6.4-4.7,10.8c-1.7,5.7-2.2,9.1-2.2,15c0,5.6,0.5,8.9,2,14.3c1,3.7,1.8,5.7,3.5,9.1
		c1.7,3.5,3,5.3,5.4,8.3c2.3,3,3.8,4.5,6.5,7l45.4,43.8c0.8,0.8,1.9,2.3,2.5,3.9c0.8,2.4,0.9,3.2,0.7,5.2c-0.3,2.3-0.7,3.2-2.4,5.4
		c-0.6,0.8-2.3,2-3.1,2.4c-0.9,0.5-1.5,0.8-2.5,1.1c-0.9,0.2-1.5,0.3-2.4,0.3H67.5l80.1-186.2l284.9,0L418.1,169.5"/>
	<path id="XMLID_4_" class="st0" d="M298.6,210.9l-66,153h-29.5c0,0-2-0.5-2.1-1.5c-0.2-1,1.6-2.1,1.6-2.1c5-1.8,7.6-3.5,11.9-6.7
		c4.8-3.6,7.3-6,10.9-10.8c3.8-5,5.5-8.3,7.5-14.3c1.8-5.1,2.4-8.2,2.8-13.6c0.4-5.9-0.1-9.3-1.4-15c-1.4-6-2.6-9.4-5.7-14.7
		c-2.2-3.9-3.8-6-6.8-9.3L173.3,229c-0.8-0.8-1.1-1.3-1.7-2.2c-0.8-1.3-1.2-2.2-1.4-3.7c-0.1-0.8-0.1-1.3,0-2.2c0.1-1.6,0.3-2.6,1-4
		c1.4-3,3.3-4.5,6.5-5.4c1.1-0.3,3-0.5,3-0.5L298.6,210.9"/>
</g>
</svg>
