G04 EAGLE Gerber RS-274X export*
G75*
%MOMM*%
%FSLAX34Y34*%
%LPD*%
%INTop Copper*%
%IPPOS*%
%AMOC8*
5,1,8,0,0,1.08239X$1,22.5*%
G01*
%ADD10R,1.000000X1.100000*%
%ADD11R,1.832800X1.832800*%
%ADD12C,1.832800*%
%ADD13C,1.016000*%
%ADD14C,0.812800*%

G36*
X790164Y8610D02*
X790164Y8610D01*
X790228Y8609D01*
X790303Y8630D01*
X790379Y8641D01*
X790438Y8667D01*
X790500Y8684D01*
X790566Y8725D01*
X790636Y8757D01*
X790685Y8799D01*
X790740Y8832D01*
X790792Y8890D01*
X790850Y8940D01*
X790886Y8994D01*
X790929Y9042D01*
X790962Y9111D01*
X791005Y9176D01*
X791024Y9238D01*
X791052Y9295D01*
X791063Y9365D01*
X791087Y9446D01*
X791088Y9531D01*
X791099Y9600D01*
X791099Y59400D01*
X791090Y59464D01*
X791091Y59528D01*
X791070Y59603D01*
X791059Y59679D01*
X791033Y59738D01*
X791016Y59800D01*
X790975Y59866D01*
X790943Y59936D01*
X790901Y59985D01*
X790868Y60040D01*
X790810Y60092D01*
X790760Y60150D01*
X790706Y60186D01*
X790658Y60229D01*
X790589Y60262D01*
X790524Y60305D01*
X790462Y60324D01*
X790405Y60352D01*
X790335Y60363D01*
X790254Y60387D01*
X790169Y60388D01*
X790100Y60399D01*
X750999Y60399D01*
X750999Y190000D01*
X750990Y190064D01*
X750991Y190128D01*
X750970Y190203D01*
X750959Y190279D01*
X750933Y190338D01*
X750916Y190400D01*
X750875Y190466D01*
X750843Y190536D01*
X750801Y190585D01*
X750768Y190640D01*
X750710Y190692D01*
X750660Y190750D01*
X750606Y190786D01*
X750558Y190829D01*
X750489Y190862D01*
X750424Y190905D01*
X750362Y190924D01*
X750305Y190952D01*
X750235Y190963D01*
X750154Y190987D01*
X750069Y190988D01*
X750000Y190999D01*
X690500Y190999D01*
X690436Y190990D01*
X690372Y190991D01*
X690297Y190970D01*
X690221Y190959D01*
X690162Y190933D01*
X690100Y190916D01*
X690034Y190875D01*
X689964Y190843D01*
X689915Y190801D01*
X689860Y190768D01*
X689808Y190710D01*
X689750Y190660D01*
X689714Y190606D01*
X689671Y190558D01*
X689638Y190489D01*
X689595Y190424D01*
X689576Y190362D01*
X689548Y190305D01*
X689537Y190235D01*
X689513Y190154D01*
X689512Y190069D01*
X689501Y190000D01*
X689501Y61399D01*
X650400Y61399D01*
X650336Y61390D01*
X650272Y61391D01*
X650197Y61370D01*
X650121Y61359D01*
X650062Y61333D01*
X650000Y61316D01*
X649934Y61275D01*
X649864Y61243D01*
X649815Y61201D01*
X649760Y61168D01*
X649708Y61110D01*
X649650Y61060D01*
X649614Y61006D01*
X649571Y60958D01*
X649538Y60889D01*
X649495Y60824D01*
X649476Y60762D01*
X649448Y60705D01*
X649437Y60635D01*
X649413Y60554D01*
X649412Y60469D01*
X649401Y60400D01*
X649401Y9600D01*
X649410Y9536D01*
X649409Y9472D01*
X649430Y9397D01*
X649441Y9321D01*
X649467Y9262D01*
X649484Y9200D01*
X649525Y9134D01*
X649557Y9064D01*
X649599Y9015D01*
X649632Y8960D01*
X649690Y8908D01*
X649740Y8850D01*
X649794Y8814D01*
X649842Y8771D01*
X649911Y8738D01*
X649976Y8695D01*
X650038Y8676D01*
X650095Y8648D01*
X650165Y8637D01*
X650246Y8613D01*
X650331Y8612D01*
X650400Y8601D01*
X790100Y8601D01*
X790164Y8610D01*
G37*
G36*
X390164Y8610D02*
X390164Y8610D01*
X390228Y8609D01*
X390303Y8630D01*
X390379Y8641D01*
X390438Y8667D01*
X390500Y8684D01*
X390566Y8725D01*
X390636Y8757D01*
X390685Y8799D01*
X390740Y8832D01*
X390792Y8890D01*
X390850Y8940D01*
X390886Y8994D01*
X390929Y9042D01*
X390962Y9111D01*
X391005Y9176D01*
X391024Y9238D01*
X391052Y9295D01*
X391063Y9365D01*
X391087Y9446D01*
X391088Y9531D01*
X391099Y9600D01*
X391099Y59400D01*
X391090Y59464D01*
X391091Y59528D01*
X391070Y59603D01*
X391059Y59679D01*
X391033Y59738D01*
X391016Y59800D01*
X390975Y59866D01*
X390943Y59936D01*
X390901Y59985D01*
X390868Y60040D01*
X390810Y60092D01*
X390760Y60150D01*
X390706Y60186D01*
X390658Y60229D01*
X390589Y60262D01*
X390524Y60305D01*
X390462Y60324D01*
X390405Y60352D01*
X390335Y60363D01*
X390254Y60387D01*
X390169Y60388D01*
X390100Y60399D01*
X350999Y60399D01*
X350999Y190000D01*
X350990Y190064D01*
X350991Y190128D01*
X350970Y190203D01*
X350959Y190279D01*
X350933Y190338D01*
X350916Y190400D01*
X350875Y190466D01*
X350843Y190536D01*
X350801Y190585D01*
X350768Y190640D01*
X350710Y190692D01*
X350660Y190750D01*
X350606Y190786D01*
X350558Y190829D01*
X350489Y190862D01*
X350424Y190905D01*
X350362Y190924D01*
X350305Y190952D01*
X350235Y190963D01*
X350154Y190987D01*
X350069Y190988D01*
X350000Y190999D01*
X290500Y190999D01*
X290436Y190990D01*
X290372Y190991D01*
X290297Y190970D01*
X290221Y190959D01*
X290162Y190933D01*
X290100Y190916D01*
X290034Y190875D01*
X289964Y190843D01*
X289915Y190801D01*
X289860Y190768D01*
X289808Y190710D01*
X289750Y190660D01*
X289714Y190606D01*
X289671Y190558D01*
X289638Y190489D01*
X289595Y190424D01*
X289576Y190362D01*
X289548Y190305D01*
X289537Y190235D01*
X289513Y190154D01*
X289512Y190069D01*
X289501Y190000D01*
X289501Y60399D01*
X250400Y60399D01*
X250336Y60390D01*
X250272Y60391D01*
X250197Y60370D01*
X250121Y60359D01*
X250062Y60333D01*
X250000Y60316D01*
X249934Y60275D01*
X249864Y60243D01*
X249815Y60201D01*
X249760Y60168D01*
X249708Y60110D01*
X249650Y60060D01*
X249614Y60006D01*
X249571Y59958D01*
X249538Y59889D01*
X249495Y59824D01*
X249476Y59762D01*
X249448Y59705D01*
X249437Y59635D01*
X249413Y59554D01*
X249412Y59469D01*
X249401Y59400D01*
X249401Y9600D01*
X249410Y9536D01*
X249409Y9472D01*
X249430Y9397D01*
X249441Y9321D01*
X249467Y9262D01*
X249484Y9200D01*
X249525Y9134D01*
X249557Y9064D01*
X249599Y9015D01*
X249632Y8960D01*
X249690Y8908D01*
X249740Y8850D01*
X249794Y8814D01*
X249842Y8771D01*
X249911Y8738D01*
X249976Y8695D01*
X250038Y8676D01*
X250095Y8648D01*
X250165Y8637D01*
X250246Y8613D01*
X250331Y8612D01*
X250400Y8601D01*
X390100Y8601D01*
X390164Y8610D01*
G37*
G36*
X950164Y8610D02*
X950164Y8610D01*
X950228Y8609D01*
X950303Y8630D01*
X950379Y8641D01*
X950438Y8667D01*
X950500Y8684D01*
X950566Y8725D01*
X950636Y8757D01*
X950685Y8799D01*
X950740Y8832D01*
X950792Y8890D01*
X950850Y8940D01*
X950886Y8994D01*
X950929Y9042D01*
X950962Y9111D01*
X951005Y9176D01*
X951024Y9238D01*
X951052Y9295D01*
X951063Y9365D01*
X951087Y9446D01*
X951088Y9531D01*
X951099Y9600D01*
X951099Y59400D01*
X951090Y59464D01*
X951091Y59528D01*
X951070Y59603D01*
X951059Y59679D01*
X951033Y59738D01*
X951016Y59800D01*
X950975Y59866D01*
X950943Y59936D01*
X950901Y59985D01*
X950868Y60040D01*
X950810Y60092D01*
X950760Y60150D01*
X950706Y60186D01*
X950658Y60229D01*
X950589Y60262D01*
X950524Y60305D01*
X950462Y60324D01*
X950405Y60352D01*
X950335Y60363D01*
X950254Y60387D01*
X950169Y60388D01*
X950100Y60399D01*
X910999Y60399D01*
X910999Y190000D01*
X910990Y190064D01*
X910991Y190128D01*
X910970Y190203D01*
X910959Y190279D01*
X910933Y190338D01*
X910916Y190400D01*
X910875Y190466D01*
X910843Y190536D01*
X910801Y190585D01*
X910768Y190640D01*
X910710Y190692D01*
X910660Y190750D01*
X910606Y190786D01*
X910558Y190829D01*
X910489Y190862D01*
X910424Y190905D01*
X910362Y190924D01*
X910305Y190952D01*
X910235Y190963D01*
X910154Y190987D01*
X910069Y190988D01*
X910000Y190999D01*
X850500Y190999D01*
X850436Y190990D01*
X850372Y190991D01*
X850297Y190970D01*
X850221Y190959D01*
X850162Y190933D01*
X850100Y190916D01*
X850034Y190875D01*
X849964Y190843D01*
X849915Y190801D01*
X849860Y190768D01*
X849808Y190710D01*
X849750Y190660D01*
X849714Y190606D01*
X849671Y190558D01*
X849638Y190489D01*
X849595Y190424D01*
X849576Y190362D01*
X849548Y190305D01*
X849537Y190235D01*
X849513Y190154D01*
X849512Y190069D01*
X849501Y190000D01*
X849501Y60399D01*
X810400Y60399D01*
X810336Y60390D01*
X810272Y60391D01*
X810197Y60370D01*
X810121Y60359D01*
X810062Y60333D01*
X810000Y60316D01*
X809934Y60275D01*
X809864Y60243D01*
X809815Y60201D01*
X809760Y60168D01*
X809708Y60110D01*
X809650Y60060D01*
X809614Y60006D01*
X809571Y59958D01*
X809538Y59889D01*
X809495Y59824D01*
X809476Y59762D01*
X809448Y59705D01*
X809437Y59635D01*
X809413Y59554D01*
X809412Y59469D01*
X809401Y59400D01*
X809401Y9600D01*
X809410Y9536D01*
X809409Y9472D01*
X809430Y9397D01*
X809441Y9321D01*
X809467Y9262D01*
X809484Y9200D01*
X809525Y9134D01*
X809557Y9064D01*
X809599Y9015D01*
X809632Y8960D01*
X809690Y8908D01*
X809740Y8850D01*
X809794Y8814D01*
X809842Y8771D01*
X809911Y8738D01*
X809976Y8695D01*
X810038Y8676D01*
X810095Y8648D01*
X810165Y8637D01*
X810246Y8613D01*
X810331Y8612D01*
X810400Y8601D01*
X950100Y8601D01*
X950164Y8610D01*
G37*
G36*
X229764Y8610D02*
X229764Y8610D01*
X229828Y8609D01*
X229903Y8630D01*
X229979Y8641D01*
X230038Y8667D01*
X230100Y8684D01*
X230166Y8725D01*
X230236Y8757D01*
X230285Y8799D01*
X230340Y8832D01*
X230392Y8890D01*
X230450Y8940D01*
X230486Y8994D01*
X230529Y9042D01*
X230562Y9111D01*
X230605Y9176D01*
X230624Y9238D01*
X230652Y9295D01*
X230663Y9365D01*
X230687Y9446D01*
X230688Y9531D01*
X230699Y9600D01*
X230699Y59400D01*
X230690Y59464D01*
X230691Y59528D01*
X230670Y59603D01*
X230659Y59679D01*
X230633Y59738D01*
X230616Y59800D01*
X230575Y59866D01*
X230543Y59936D01*
X230501Y59985D01*
X230468Y60040D01*
X230410Y60092D01*
X230360Y60150D01*
X230306Y60186D01*
X230258Y60229D01*
X230189Y60262D01*
X230124Y60305D01*
X230062Y60324D01*
X230005Y60352D01*
X229935Y60363D01*
X229854Y60387D01*
X229769Y60388D01*
X229700Y60399D01*
X191599Y60399D01*
X191599Y190000D01*
X191590Y190064D01*
X191591Y190128D01*
X191570Y190203D01*
X191559Y190279D01*
X191533Y190338D01*
X191516Y190400D01*
X191475Y190466D01*
X191443Y190536D01*
X191401Y190585D01*
X191368Y190640D01*
X191310Y190692D01*
X191260Y190750D01*
X191206Y190786D01*
X191158Y190829D01*
X191089Y190862D01*
X191024Y190905D01*
X190962Y190924D01*
X190905Y190952D01*
X190835Y190963D01*
X190754Y190987D01*
X190669Y190988D01*
X190600Y190999D01*
X129800Y190999D01*
X129736Y190990D01*
X129672Y190991D01*
X129597Y190970D01*
X129521Y190959D01*
X129462Y190933D01*
X129400Y190916D01*
X129334Y190875D01*
X129264Y190843D01*
X129215Y190801D01*
X129160Y190768D01*
X129108Y190710D01*
X129050Y190660D01*
X129014Y190606D01*
X128971Y190558D01*
X128938Y190489D01*
X128895Y190424D01*
X128876Y190362D01*
X128848Y190305D01*
X128837Y190235D01*
X128813Y190154D01*
X128812Y190069D01*
X128801Y190000D01*
X128801Y9600D01*
X128810Y9536D01*
X128809Y9472D01*
X128830Y9397D01*
X128841Y9321D01*
X128867Y9262D01*
X128884Y9200D01*
X128925Y9134D01*
X128957Y9064D01*
X128999Y9015D01*
X129032Y8960D01*
X129090Y8908D01*
X129140Y8850D01*
X129194Y8814D01*
X129242Y8771D01*
X129311Y8738D01*
X129376Y8695D01*
X129438Y8676D01*
X129495Y8648D01*
X129565Y8637D01*
X129646Y8613D01*
X129731Y8612D01*
X129800Y8601D01*
X229700Y8601D01*
X229764Y8610D01*
G37*
G36*
X630064Y9010D02*
X630064Y9010D01*
X630128Y9009D01*
X630203Y9030D01*
X630279Y9041D01*
X630338Y9067D01*
X630400Y9084D01*
X630466Y9125D01*
X630536Y9157D01*
X630585Y9199D01*
X630640Y9232D01*
X630692Y9290D01*
X630750Y9340D01*
X630786Y9394D01*
X630829Y9442D01*
X630862Y9511D01*
X630905Y9576D01*
X630924Y9638D01*
X630952Y9695D01*
X630963Y9765D01*
X630987Y9846D01*
X630988Y9931D01*
X630999Y10000D01*
X630999Y60000D01*
X630991Y60060D01*
X630991Y60090D01*
X630991Y60092D01*
X630991Y60128D01*
X630970Y60203D01*
X630959Y60279D01*
X630933Y60338D01*
X630916Y60400D01*
X630875Y60466D01*
X630843Y60536D01*
X630801Y60585D01*
X630768Y60640D01*
X630710Y60692D01*
X630660Y60750D01*
X630606Y60786D01*
X630558Y60829D01*
X630489Y60862D01*
X630424Y60905D01*
X630362Y60924D01*
X630305Y60952D01*
X630235Y60963D01*
X630154Y60987D01*
X630069Y60988D01*
X630000Y60999D01*
X590999Y60999D01*
X590999Y190000D01*
X590990Y190064D01*
X590991Y190128D01*
X590970Y190203D01*
X590959Y190279D01*
X590933Y190338D01*
X590916Y190400D01*
X590875Y190466D01*
X590843Y190536D01*
X590801Y190585D01*
X590768Y190640D01*
X590710Y190692D01*
X590660Y190750D01*
X590606Y190786D01*
X590558Y190829D01*
X590489Y190862D01*
X590424Y190905D01*
X590362Y190924D01*
X590305Y190952D01*
X590235Y190963D01*
X590154Y190987D01*
X590069Y190988D01*
X590000Y190999D01*
X530000Y190999D01*
X529936Y190990D01*
X529872Y190991D01*
X529797Y190970D01*
X529721Y190959D01*
X529662Y190933D01*
X529600Y190916D01*
X529534Y190875D01*
X529464Y190843D01*
X529415Y190801D01*
X529360Y190768D01*
X529308Y190710D01*
X529250Y190660D01*
X529214Y190606D01*
X529171Y190558D01*
X529138Y190489D01*
X529095Y190424D01*
X529076Y190362D01*
X529048Y190305D01*
X529037Y190235D01*
X529013Y190154D01*
X529012Y190069D01*
X529001Y190000D01*
X529001Y10000D01*
X529010Y9936D01*
X529009Y9872D01*
X529030Y9797D01*
X529041Y9721D01*
X529067Y9662D01*
X529084Y9600D01*
X529125Y9534D01*
X529157Y9464D01*
X529199Y9415D01*
X529232Y9360D01*
X529290Y9308D01*
X529340Y9250D01*
X529394Y9214D01*
X529442Y9171D01*
X529511Y9138D01*
X529576Y9095D01*
X529638Y9076D01*
X529695Y9048D01*
X529765Y9037D01*
X529846Y9013D01*
X529931Y9012D01*
X530000Y9001D01*
X630000Y9001D01*
X630064Y9010D01*
G37*
G36*
X510064Y9010D02*
X510064Y9010D01*
X510128Y9009D01*
X510203Y9030D01*
X510279Y9041D01*
X510338Y9067D01*
X510400Y9084D01*
X510466Y9125D01*
X510536Y9157D01*
X510585Y9199D01*
X510640Y9232D01*
X510692Y9290D01*
X510750Y9340D01*
X510786Y9394D01*
X510829Y9442D01*
X510862Y9511D01*
X510905Y9576D01*
X510924Y9638D01*
X510952Y9695D01*
X510963Y9765D01*
X510987Y9846D01*
X510988Y9931D01*
X510999Y10000D01*
X510999Y190000D01*
X510990Y190064D01*
X510991Y190128D01*
X510970Y190203D01*
X510959Y190279D01*
X510933Y190338D01*
X510916Y190400D01*
X510875Y190466D01*
X510843Y190536D01*
X510801Y190585D01*
X510768Y190640D01*
X510710Y190692D01*
X510660Y190750D01*
X510606Y190786D01*
X510558Y190829D01*
X510489Y190862D01*
X510424Y190905D01*
X510362Y190924D01*
X510305Y190952D01*
X510235Y190963D01*
X510154Y190987D01*
X510069Y190988D01*
X510000Y190999D01*
X450000Y190999D01*
X449936Y190990D01*
X449872Y190991D01*
X449797Y190970D01*
X449721Y190959D01*
X449662Y190933D01*
X449600Y190916D01*
X449534Y190875D01*
X449464Y190843D01*
X449415Y190801D01*
X449360Y190768D01*
X449308Y190710D01*
X449250Y190660D01*
X449214Y190606D01*
X449171Y190558D01*
X449138Y190489D01*
X449095Y190424D01*
X449076Y190362D01*
X449048Y190305D01*
X449037Y190235D01*
X449013Y190154D01*
X449012Y190069D01*
X449001Y190000D01*
X449001Y60999D01*
X410000Y60999D01*
X409936Y60990D01*
X409872Y60991D01*
X409797Y60970D01*
X409721Y60959D01*
X409662Y60933D01*
X409600Y60916D01*
X409534Y60875D01*
X409464Y60843D01*
X409415Y60801D01*
X409360Y60768D01*
X409308Y60710D01*
X409250Y60660D01*
X409214Y60606D01*
X409171Y60558D01*
X409138Y60489D01*
X409095Y60424D01*
X409076Y60362D01*
X409048Y60305D01*
X409037Y60235D01*
X409013Y60154D01*
X409012Y60069D01*
X409001Y60000D01*
X409001Y10000D01*
X409010Y9936D01*
X409009Y9872D01*
X409030Y9797D01*
X409041Y9721D01*
X409067Y9662D01*
X409084Y9600D01*
X409125Y9534D01*
X409157Y9464D01*
X409199Y9415D01*
X409232Y9360D01*
X409290Y9308D01*
X409340Y9250D01*
X409394Y9214D01*
X409442Y9171D01*
X409511Y9138D01*
X409576Y9095D01*
X409638Y9076D01*
X409695Y9048D01*
X409765Y9037D01*
X409846Y9013D01*
X409931Y9012D01*
X410000Y9001D01*
X510000Y9001D01*
X510064Y9010D01*
G37*
G36*
X1069565Y8610D02*
X1069565Y8610D01*
X1069627Y8609D01*
X1069703Y8629D01*
X1069781Y8641D01*
X1069839Y8667D01*
X1069899Y8683D01*
X1069967Y8724D01*
X1070038Y8757D01*
X1070086Y8798D01*
X1070140Y8831D01*
X1070193Y8889D01*
X1070253Y8940D01*
X1070287Y8993D01*
X1070329Y9039D01*
X1070364Y9110D01*
X1070407Y9176D01*
X1070426Y9236D01*
X1070453Y9293D01*
X1070464Y9363D01*
X1070490Y9446D01*
X1070491Y9529D01*
X1070502Y9597D01*
X1070991Y189997D01*
X1070982Y190062D01*
X1070983Y190128D01*
X1070963Y190201D01*
X1070952Y190277D01*
X1070925Y190336D01*
X1070908Y190400D01*
X1070868Y190464D01*
X1070837Y190534D01*
X1070794Y190584D01*
X1070760Y190640D01*
X1070703Y190691D01*
X1070654Y190749D01*
X1070599Y190785D01*
X1070550Y190829D01*
X1070482Y190862D01*
X1070418Y190904D01*
X1070355Y190923D01*
X1070296Y190952D01*
X1070228Y190962D01*
X1070149Y190987D01*
X1070062Y190988D01*
X1069992Y190999D01*
X1010900Y190999D01*
X1010836Y190990D01*
X1010772Y190991D01*
X1010697Y190970D01*
X1010621Y190959D01*
X1010562Y190933D01*
X1010500Y190916D01*
X1010434Y190875D01*
X1010364Y190843D01*
X1010315Y190801D01*
X1010260Y190768D01*
X1010208Y190710D01*
X1010150Y190660D01*
X1010114Y190606D01*
X1010071Y190558D01*
X1010038Y190489D01*
X1009995Y190424D01*
X1009976Y190362D01*
X1009948Y190305D01*
X1009937Y190235D01*
X1009913Y190154D01*
X1009912Y190069D01*
X1009901Y190000D01*
X1009901Y60399D01*
X969800Y60399D01*
X969736Y60390D01*
X969672Y60391D01*
X969597Y60370D01*
X969521Y60359D01*
X969462Y60333D01*
X969400Y60316D01*
X969334Y60275D01*
X969264Y60243D01*
X969215Y60201D01*
X969160Y60168D01*
X969108Y60110D01*
X969050Y60060D01*
X969014Y60006D01*
X968971Y59958D01*
X968938Y59889D01*
X968895Y59824D01*
X968876Y59762D01*
X968848Y59705D01*
X968837Y59635D01*
X968813Y59554D01*
X968812Y59469D01*
X968801Y59400D01*
X968801Y9600D01*
X968810Y9536D01*
X968809Y9472D01*
X968830Y9397D01*
X968841Y9321D01*
X968867Y9262D01*
X968884Y9200D01*
X968925Y9134D01*
X968957Y9064D01*
X968999Y9015D01*
X969032Y8960D01*
X969090Y8908D01*
X969140Y8850D01*
X969194Y8814D01*
X969242Y8771D01*
X969311Y8738D01*
X969376Y8695D01*
X969438Y8676D01*
X969495Y8648D01*
X969565Y8637D01*
X969646Y8613D01*
X969731Y8612D01*
X969800Y8601D01*
X1069502Y8601D01*
X1069565Y8610D01*
G37*
G36*
X1150264Y9110D02*
X1150264Y9110D01*
X1150328Y9109D01*
X1150403Y9130D01*
X1150479Y9141D01*
X1150538Y9167D01*
X1150600Y9184D01*
X1150666Y9225D01*
X1150736Y9257D01*
X1150785Y9299D01*
X1150840Y9332D01*
X1150892Y9390D01*
X1150950Y9440D01*
X1150986Y9494D01*
X1151029Y9542D01*
X1151062Y9611D01*
X1151105Y9676D01*
X1151124Y9738D01*
X1151152Y9795D01*
X1151163Y9865D01*
X1151187Y9946D01*
X1151188Y10031D01*
X1151199Y10100D01*
X1151199Y190000D01*
X1151191Y190061D01*
X1151191Y190093D01*
X1151191Y190094D01*
X1151191Y190128D01*
X1151170Y190203D01*
X1151159Y190279D01*
X1151133Y190338D01*
X1151116Y190400D01*
X1151075Y190466D01*
X1151043Y190536D01*
X1151001Y190585D01*
X1150968Y190640D01*
X1150910Y190692D01*
X1150860Y190750D01*
X1150806Y190786D01*
X1150758Y190829D01*
X1150689Y190862D01*
X1150624Y190905D01*
X1150562Y190924D01*
X1150505Y190952D01*
X1150435Y190963D01*
X1150354Y190987D01*
X1150269Y190988D01*
X1150200Y190999D01*
X1090700Y190999D01*
X1090636Y190990D01*
X1090572Y190991D01*
X1090497Y190970D01*
X1090421Y190959D01*
X1090362Y190933D01*
X1090300Y190916D01*
X1090234Y190875D01*
X1090164Y190843D01*
X1090115Y190801D01*
X1090060Y190768D01*
X1090008Y190710D01*
X1089950Y190660D01*
X1089914Y190606D01*
X1089871Y190558D01*
X1089838Y190489D01*
X1089795Y190424D01*
X1089776Y190362D01*
X1089748Y190305D01*
X1089737Y190235D01*
X1089713Y190154D01*
X1089712Y190069D01*
X1089701Y190000D01*
X1089701Y10100D01*
X1089710Y10036D01*
X1089709Y9972D01*
X1089730Y9897D01*
X1089741Y9821D01*
X1089767Y9762D01*
X1089784Y9700D01*
X1089825Y9634D01*
X1089857Y9564D01*
X1089899Y9515D01*
X1089932Y9460D01*
X1089990Y9408D01*
X1090040Y9350D01*
X1090094Y9314D01*
X1090142Y9271D01*
X1090211Y9238D01*
X1090276Y9195D01*
X1090338Y9176D01*
X1090395Y9148D01*
X1090465Y9137D01*
X1090546Y9113D01*
X1090631Y9112D01*
X1090700Y9101D01*
X1150200Y9101D01*
X1150264Y9110D01*
G37*
G36*
X430264Y79110D02*
X430264Y79110D01*
X430328Y79109D01*
X430403Y79130D01*
X430479Y79141D01*
X430538Y79167D01*
X430600Y79184D01*
X430666Y79225D01*
X430736Y79257D01*
X430785Y79299D01*
X430840Y79332D01*
X430892Y79390D01*
X430950Y79440D01*
X430986Y79494D01*
X431029Y79542D01*
X431062Y79611D01*
X431105Y79676D01*
X431124Y79738D01*
X431152Y79795D01*
X431163Y79865D01*
X431187Y79946D01*
X431188Y80031D01*
X431199Y80100D01*
X431199Y190000D01*
X431190Y190064D01*
X431191Y190128D01*
X431170Y190203D01*
X431159Y190279D01*
X431133Y190338D01*
X431116Y190400D01*
X431075Y190466D01*
X431043Y190536D01*
X431001Y190585D01*
X430968Y190640D01*
X430910Y190692D01*
X430860Y190750D01*
X430806Y190786D01*
X430758Y190829D01*
X430689Y190862D01*
X430624Y190905D01*
X430562Y190924D01*
X430505Y190952D01*
X430435Y190963D01*
X430354Y190987D01*
X430269Y190988D01*
X430200Y190999D01*
X369700Y190999D01*
X369636Y190990D01*
X369572Y190991D01*
X369497Y190970D01*
X369421Y190959D01*
X369362Y190933D01*
X369300Y190916D01*
X369234Y190875D01*
X369164Y190843D01*
X369115Y190801D01*
X369060Y190768D01*
X369008Y190710D01*
X368950Y190660D01*
X368914Y190606D01*
X368871Y190558D01*
X368838Y190489D01*
X368795Y190424D01*
X368776Y190362D01*
X368748Y190305D01*
X368737Y190235D01*
X368713Y190154D01*
X368712Y190069D01*
X368701Y190000D01*
X368701Y80100D01*
X368710Y80036D01*
X368709Y79972D01*
X368730Y79897D01*
X368741Y79821D01*
X368767Y79762D01*
X368784Y79700D01*
X368825Y79634D01*
X368857Y79564D01*
X368899Y79515D01*
X368932Y79460D01*
X368990Y79408D01*
X369040Y79350D01*
X369094Y79314D01*
X369142Y79271D01*
X369211Y79238D01*
X369276Y79195D01*
X369338Y79176D01*
X369395Y79148D01*
X369465Y79137D01*
X369546Y79113D01*
X369631Y79112D01*
X369700Y79101D01*
X430200Y79101D01*
X430264Y79110D01*
G37*
G36*
X669864Y79110D02*
X669864Y79110D01*
X669928Y79109D01*
X670003Y79130D01*
X670079Y79141D01*
X670138Y79167D01*
X670200Y79184D01*
X670266Y79225D01*
X670336Y79257D01*
X670385Y79299D01*
X670440Y79332D01*
X670492Y79390D01*
X670550Y79440D01*
X670586Y79494D01*
X670629Y79542D01*
X670662Y79611D01*
X670705Y79676D01*
X670724Y79738D01*
X670752Y79795D01*
X670763Y79865D01*
X670787Y79946D01*
X670788Y80031D01*
X670799Y80100D01*
X670799Y190000D01*
X670790Y190064D01*
X670791Y190128D01*
X670770Y190203D01*
X670759Y190279D01*
X670733Y190338D01*
X670716Y190400D01*
X670675Y190466D01*
X670643Y190536D01*
X670601Y190585D01*
X670568Y190640D01*
X670510Y190692D01*
X670460Y190750D01*
X670406Y190786D01*
X670358Y190829D01*
X670289Y190862D01*
X670224Y190905D01*
X670162Y190924D01*
X670105Y190952D01*
X670035Y190963D01*
X669954Y190987D01*
X669869Y190988D01*
X669800Y190999D01*
X610300Y190999D01*
X610236Y190990D01*
X610172Y190991D01*
X610097Y190970D01*
X610021Y190959D01*
X609962Y190933D01*
X609900Y190916D01*
X609834Y190875D01*
X609764Y190843D01*
X609715Y190801D01*
X609660Y190768D01*
X609608Y190710D01*
X609550Y190660D01*
X609514Y190606D01*
X609471Y190558D01*
X609438Y190489D01*
X609395Y190424D01*
X609376Y190362D01*
X609348Y190305D01*
X609337Y190235D01*
X609313Y190154D01*
X609312Y190069D01*
X609301Y190000D01*
X609301Y80100D01*
X609310Y80036D01*
X609309Y79972D01*
X609330Y79897D01*
X609341Y79821D01*
X609367Y79762D01*
X609384Y79700D01*
X609425Y79634D01*
X609457Y79564D01*
X609499Y79515D01*
X609532Y79460D01*
X609590Y79408D01*
X609640Y79350D01*
X609694Y79314D01*
X609742Y79271D01*
X609811Y79238D01*
X609876Y79195D01*
X609938Y79176D01*
X609995Y79148D01*
X610065Y79137D01*
X610146Y79113D01*
X610231Y79112D01*
X610300Y79101D01*
X669800Y79101D01*
X669864Y79110D01*
G37*
G36*
X990264Y79110D02*
X990264Y79110D01*
X990328Y79109D01*
X990403Y79130D01*
X990479Y79141D01*
X990538Y79167D01*
X990600Y79184D01*
X990666Y79225D01*
X990736Y79257D01*
X990785Y79299D01*
X990840Y79332D01*
X990892Y79390D01*
X990950Y79440D01*
X990986Y79494D01*
X991029Y79542D01*
X991062Y79611D01*
X991105Y79676D01*
X991124Y79738D01*
X991152Y79795D01*
X991163Y79865D01*
X991187Y79946D01*
X991188Y80031D01*
X991199Y80100D01*
X991199Y190000D01*
X991190Y190064D01*
X991191Y190128D01*
X991170Y190203D01*
X991159Y190279D01*
X991133Y190338D01*
X991116Y190400D01*
X991075Y190466D01*
X991043Y190536D01*
X991001Y190585D01*
X990968Y190640D01*
X990910Y190692D01*
X990860Y190750D01*
X990806Y190786D01*
X990758Y190829D01*
X990689Y190862D01*
X990624Y190905D01*
X990562Y190924D01*
X990505Y190952D01*
X990435Y190963D01*
X990354Y190987D01*
X990269Y190988D01*
X990200Y190999D01*
X930700Y190999D01*
X930636Y190990D01*
X930572Y190991D01*
X930497Y190970D01*
X930421Y190959D01*
X930362Y190933D01*
X930300Y190916D01*
X930234Y190875D01*
X930164Y190843D01*
X930115Y190801D01*
X930060Y190768D01*
X930008Y190710D01*
X929950Y190660D01*
X929914Y190606D01*
X929871Y190558D01*
X929838Y190489D01*
X929795Y190424D01*
X929776Y190362D01*
X929748Y190305D01*
X929737Y190235D01*
X929713Y190154D01*
X929712Y190069D01*
X929701Y190000D01*
X929701Y80100D01*
X929710Y80036D01*
X929709Y79972D01*
X929730Y79897D01*
X929741Y79821D01*
X929767Y79762D01*
X929784Y79700D01*
X929825Y79634D01*
X929857Y79564D01*
X929899Y79515D01*
X929932Y79460D01*
X929990Y79408D01*
X930040Y79350D01*
X930094Y79314D01*
X930142Y79271D01*
X930211Y79238D01*
X930276Y79195D01*
X930338Y79176D01*
X930395Y79148D01*
X930465Y79137D01*
X930546Y79113D01*
X930631Y79112D01*
X930700Y79101D01*
X990200Y79101D01*
X990264Y79110D01*
G37*
G36*
X830264Y79110D02*
X830264Y79110D01*
X830328Y79109D01*
X830403Y79130D01*
X830479Y79141D01*
X830538Y79167D01*
X830600Y79184D01*
X830666Y79225D01*
X830736Y79257D01*
X830785Y79299D01*
X830840Y79332D01*
X830892Y79390D01*
X830950Y79440D01*
X830986Y79494D01*
X831029Y79542D01*
X831062Y79611D01*
X831105Y79676D01*
X831124Y79738D01*
X831152Y79795D01*
X831163Y79865D01*
X831187Y79946D01*
X831188Y80031D01*
X831199Y80100D01*
X831199Y190000D01*
X831190Y190064D01*
X831191Y190128D01*
X831170Y190203D01*
X831159Y190279D01*
X831133Y190338D01*
X831116Y190400D01*
X831075Y190466D01*
X831043Y190536D01*
X831001Y190585D01*
X830968Y190640D01*
X830910Y190692D01*
X830860Y190750D01*
X830806Y190786D01*
X830758Y190829D01*
X830689Y190862D01*
X830624Y190905D01*
X830562Y190924D01*
X830505Y190952D01*
X830435Y190963D01*
X830354Y190987D01*
X830269Y190988D01*
X830200Y190999D01*
X770700Y190999D01*
X770636Y190990D01*
X770572Y190991D01*
X770497Y190970D01*
X770421Y190959D01*
X770362Y190933D01*
X770300Y190916D01*
X770234Y190875D01*
X770164Y190843D01*
X770115Y190801D01*
X770060Y190768D01*
X770008Y190710D01*
X769950Y190660D01*
X769914Y190606D01*
X769871Y190558D01*
X769838Y190489D01*
X769795Y190424D01*
X769776Y190362D01*
X769748Y190305D01*
X769737Y190235D01*
X769713Y190154D01*
X769712Y190069D01*
X769701Y190000D01*
X769701Y80100D01*
X769710Y80036D01*
X769709Y79972D01*
X769730Y79897D01*
X769741Y79821D01*
X769767Y79762D01*
X769784Y79700D01*
X769825Y79634D01*
X769857Y79564D01*
X769899Y79515D01*
X769932Y79460D01*
X769990Y79408D01*
X770040Y79350D01*
X770094Y79314D01*
X770142Y79271D01*
X770211Y79238D01*
X770276Y79195D01*
X770338Y79176D01*
X770395Y79148D01*
X770465Y79137D01*
X770546Y79113D01*
X770631Y79112D01*
X770700Y79101D01*
X830200Y79101D01*
X830264Y79110D01*
G37*
G36*
X269864Y79110D02*
X269864Y79110D01*
X269928Y79109D01*
X270003Y79130D01*
X270079Y79141D01*
X270138Y79167D01*
X270200Y79184D01*
X270266Y79225D01*
X270336Y79257D01*
X270385Y79299D01*
X270440Y79332D01*
X270492Y79390D01*
X270550Y79440D01*
X270586Y79494D01*
X270629Y79542D01*
X270662Y79611D01*
X270705Y79676D01*
X270724Y79738D01*
X270752Y79795D01*
X270763Y79865D01*
X270787Y79946D01*
X270788Y80031D01*
X270799Y80100D01*
X270799Y190000D01*
X270790Y190064D01*
X270791Y190128D01*
X270770Y190203D01*
X270759Y190279D01*
X270733Y190338D01*
X270716Y190400D01*
X270675Y190466D01*
X270643Y190536D01*
X270601Y190585D01*
X270568Y190640D01*
X270510Y190692D01*
X270460Y190750D01*
X270406Y190786D01*
X270358Y190829D01*
X270289Y190862D01*
X270224Y190905D01*
X270162Y190924D01*
X270105Y190952D01*
X270035Y190963D01*
X269954Y190987D01*
X269869Y190988D01*
X269800Y190999D01*
X210300Y190999D01*
X210236Y190990D01*
X210172Y190991D01*
X210097Y190970D01*
X210021Y190959D01*
X209962Y190933D01*
X209900Y190916D01*
X209834Y190875D01*
X209764Y190843D01*
X209715Y190801D01*
X209660Y190768D01*
X209608Y190710D01*
X209550Y190660D01*
X209514Y190606D01*
X209471Y190558D01*
X209438Y190489D01*
X209395Y190424D01*
X209376Y190362D01*
X209348Y190305D01*
X209337Y190235D01*
X209313Y190154D01*
X209312Y190069D01*
X209301Y190000D01*
X209301Y80100D01*
X209310Y80036D01*
X209309Y79972D01*
X209330Y79897D01*
X209341Y79821D01*
X209367Y79762D01*
X209384Y79700D01*
X209425Y79634D01*
X209457Y79564D01*
X209499Y79515D01*
X209532Y79460D01*
X209590Y79408D01*
X209640Y79350D01*
X209694Y79314D01*
X209742Y79271D01*
X209811Y79238D01*
X209876Y79195D01*
X209938Y79176D01*
X209995Y79148D01*
X210065Y79137D01*
X210146Y79113D01*
X210231Y79112D01*
X210300Y79101D01*
X269800Y79101D01*
X269864Y79110D01*
G37*
D10*
X848600Y210200D03*
X831600Y210200D03*
X928800Y210200D03*
X911800Y210200D03*
X208800Y210200D03*
X191800Y210200D03*
X288700Y210200D03*
X271700Y210200D03*
X368200Y210200D03*
X351200Y210200D03*
X448700Y210200D03*
X431700Y210200D03*
X528200Y210200D03*
X511200Y210200D03*
X608100Y210200D03*
X591100Y210200D03*
X688600Y210200D03*
X671600Y210200D03*
X768800Y210200D03*
X751800Y210200D03*
X1008700Y210200D03*
X991700Y210200D03*
D11*
X32000Y112200D03*
D12*
X32000Y137600D03*
D10*
X60000Y120500D03*
X60000Y137500D03*
X108500Y120000D03*
X91500Y120000D03*
X1088500Y210000D03*
X1071500Y210000D03*
D13*
X640000Y210200D02*
X608100Y210200D01*
X640000Y210200D02*
X640000Y180000D01*
X640000Y210200D02*
X671600Y210200D01*
X51700Y112200D02*
X32000Y112200D01*
X51700Y112200D02*
X60000Y120500D01*
X69500Y120500D01*
D14*
X70000Y120000D01*
D13*
X60000Y120500D02*
X91000Y120500D01*
X91500Y120000D01*
X208800Y210200D02*
X240000Y210200D01*
X240000Y180000D01*
X240000Y210200D02*
X271700Y210200D01*
X288700Y210200D02*
X320000Y210200D01*
X320000Y180000D01*
X320000Y210200D02*
X351200Y210200D01*
X368200Y210200D02*
X400000Y210200D01*
X400000Y180000D01*
X400000Y210200D02*
X431700Y210200D01*
X448700Y210200D02*
X480000Y210200D01*
X480000Y180000D01*
X480000Y210200D02*
X511200Y210200D01*
X528200Y210200D02*
X560000Y210200D01*
X560000Y180000D01*
X560000Y210200D02*
X591100Y210200D01*
X688600Y210200D02*
X720000Y210200D01*
X751800Y210200D01*
X720000Y210200D02*
X720000Y180000D01*
X768800Y210200D02*
X800000Y210200D01*
X831600Y210200D01*
X800000Y210200D02*
X800000Y180000D01*
X848600Y210200D02*
X880000Y210200D01*
X880000Y180000D01*
X880000Y210200D02*
X911800Y210200D01*
X928800Y210200D02*
X960000Y210200D01*
X991700Y210200D01*
X960000Y210200D02*
X960000Y180000D01*
X1120000Y180000D02*
X1120000Y210976D01*
X1097000Y233976D01*
X122976Y233976D01*
X60000Y171000D02*
X60000Y137500D01*
X60000Y171000D02*
X122976Y233976D01*
D14*
X59900Y137600D02*
X60000Y137500D01*
D13*
X59900Y137600D02*
X32000Y137600D01*
X1119024Y210000D02*
X1120000Y210976D01*
X1119024Y210000D02*
X1088500Y210000D01*
X140000Y120000D02*
X108500Y120000D01*
X170200Y210200D02*
X191800Y210200D01*
X170200Y210200D02*
X160000Y200000D01*
X160000Y180000D01*
X1008700Y210200D02*
X1040000Y210200D01*
X1071300Y210200D01*
X1071500Y210000D01*
X1040000Y210200D02*
X1040000Y180000D01*
M02*
